{
    "header": {
      "keySignatures": [
        {
          "key": "Ab",
          "scale": "major",
          "ticks": 0
        },
        {
          "key": "Ab",
          "scale": "major",
          "ticks": 0
        }
      ],
      "meta": [],
      "name": "",
      "ppq": 480,
      "tempos": [
        {
          "bpm": 40.00002666668444,
          "ticks": 0
        },
        {
          "bpm": 30,
          "ticks": 5760
        },
        {
          "bpm": 16.99997960002448,
          "ticks": 6720
        },
        {
          "bpm": 120,
          "ticks": 7680
        },
        {
          "bpm": 120,
          "ticks": 30720
        },
        {
          "bpm": 124.99973958387586,
          "ticks": 31440
        },
        {
          "bpm": 130.00013000013,
          "ticks": 32160
        },
        {
          "bpm": 70.00023333411112,
          "ticks": 161760
        },
        {
          "bpm": 89.9999550000225,
          "ticks": 162000
        },
        {
          "bpm": 70.00023333411112,
          "ticks": 162480
        },
        {
          "bpm": 30,
          "ticks": 162720
        },
        {
          "bpm": 50,
          "ticks": 166080
        },
        {
          "bpm": 30,
          "ticks": 171840
        },
        {
          "bpm": 16.99997960002448,
          "ticks": 172800
        },
        {
          "bpm": 120,
          "ticks": 173760
        },
        {
          "bpm": 120,
          "ticks": 196800
        },
        {
          "bpm": 124.99973958387586,
          "ticks": 197520
        },
        {
          "bpm": 130.00013000013,
          "ticks": 198240
        },
        {
          "bpm": 120,
          "ticks": 264480
        },
        {
          "bpm": 60,
          "ticks": 265200
        },
        {
          "bpm": 30,
          "ticks": 265440
        },
        {
          "bpm": 60,
          "ticks": 268800
        },
        {
          "bpm": 120,
          "ticks": 269040
        },
        {
          "bpm": 40.00002666668444,
          "ticks": 274320
        },
        {
          "bpm": 60,
          "ticks": 274560
        },
        {
          "bpm": 120,
          "ticks": 274800
        },
        {
          "bpm": 40.00002666668444,
          "ticks": 279600
        },
        {
          "bpm": 60,
          "ticks": 280320
        },
        {
          "bpm": 120,
          "ticks": 280560
        },
        {
          "bpm": 100.00016666694445,
          "ticks": 284640
        },
        {
          "bpm": 79.99978666723555,
          "ticks": 284880
        },
        {
          "bpm": 40.00002666668444,
          "ticks": 285120
        },
        {
          "bpm": 19.99998000002,
          "ticks": 285360
        }
      ],
      "timeSignatures": [
        {
          "ticks": 0,
          "timeSignature": [
            4,
            4
          ],
          "measures": 0
        },
        {
          "ticks": 7680,
          "timeSignature": [
            12,
            8
          ],
          "measures": 4
        },
        {
          "ticks": 166080,
          "timeSignature": [
            4,
            4
          ],
          "measures": 17.75
        },
        {
          "ticks": 173760,
          "timeSignature": [
            12,
            8
          ],
          "measures": 21.75
        }
      ]
    },
    "tracks": [
      {
        "channel": 0,
        "controlChanges": {
          "7": [
            {
              "number": 7,
              "ticks": 2,
              "time": 0.006249995833333333,
              "value": 0.7874015748031497
            }
          ],
          "10": [
            {
              "number": 10,
              "ticks": 4,
              "time": 0.012499991666666667,
              "value": 0.5039370078740157
            }
          ],
          "91": [
            {
              "number": 91,
              "ticks": 6,
              "time": 0.018749987500000002,
              "value": 0.23622047244094488
            }
          ],
          "93": [
            {
              "number": 93,
              "ticks": 8,
              "time": 0.024999983333333333,
              "value": 0.23622047244094488
            }
          ]
        },
        "pitchBends": [],
        "instrument": {
          "family": "piano",
          "name": "acoustic grand piano",
          "number": 0
        },
        "name": "",
        "notes": [
          {
            "duration": 2.9968730020833334,
            "durationTicks": 959,
            "midi": 60,
            "name": "C4",
            "ticks": 0,
            "time": 0,
            "velocity": 0.5039370078740157
          },
          {
            "duration": 2.996873002083334,
            "durationTicks": 959,
            "midi": 61,
            "name": "C#4",
            "ticks": 960,
            "time": 2.999998,
            "velocity": 0.5039370078740157
          },
          {
            "duration": 2.9968730020833343,
            "durationTicks": 959,
            "midi": 60,
            "name": "C4",
            "ticks": 1920,
            "time": 5.999996,
            "velocity": 0.5039370078740157
          },
          {
            "duration": 2.9968730020833334,
            "durationTicks": 959,
            "midi": 58,
            "name": "A#3",
            "ticks": 2880,
            "time": 8.999994000000001,
            "velocity": 0.5039370078740157
          },
          {
            "duration": 2.9968730020833334,
            "durationTicks": 959,
            "midi": 60,
            "name": "C4",
            "ticks": 3840,
            "time": 11.999992,
            "velocity": 0.5039370078740157
          },
          {
            "duration": 2.9968730020833334,
            "durationTicks": 959,
            "midi": 61,
            "name": "C#4",
            "ticks": 4800,
            "time": 14.99999,
            "velocity": 0.5039370078740157
          },
          {
            "duration": 3.9958333333333336,
            "durationTicks": 959,
            "midi": 63,
            "name": "D#4",
            "ticks": 5760,
            "time": 17.999988000000002,
            "velocity": 0.5039370078740157
          },
          {
            "duration": 3.9958333333333336,
            "durationTicks": 959,
            "midi": 60,
            "name": "C4",
            "ticks": 5760,
            "time": 17.999988000000002,
            "velocity": 0.5039370078740157
          },
          {
            "duration": 7.0514790499999975,
            "durationTicks": 959,
            "midi": 63,
            "name": "D#4",
            "ticks": 6720,
            "time": 21.999988000000002,
            "velocity": 0.5039370078740157
          },
          {
            "duration": 7.0514790499999975,
            "durationTicks": 959,
            "midi": 58,
            "name": "A#3",
            "ticks": 6720,
            "time": 21.999988000000002,
            "velocity": 0.5039370078740157
          },
          {
            "duration": 1.4989583333333343,
            "durationTicks": 1439,
            "midi": 65,
            "name": "F4",
            "ticks": 7680,
            "time": 29.05882,
            "velocity": 0.3858267716535433
          },
          {
            "duration": 0.24895833333333428,
            "durationTicks": 239,
            "midi": 70,
            "name": "A#4",
            "ticks": 7680,
            "time": 29.05882,
            "velocity": 0.3858267716535433
          },
          {
            "duration": 0.4989583333333343,
            "durationTicks": 479,
            "midi": 68,
            "name": "G#4",
            "ticks": 7920,
            "time": 29.30882,
            "velocity": 0.3858267716535433
          },
          {
            "duration": 0.4989583333333343,
            "durationTicks": 479,
            "midi": 68,
            "name": "G#4",
            "ticks": 8400,
            "time": 29.80882,
            "velocity": 0.3858267716535433
          },
          {
            "duration": 0.24895833333333428,
            "durationTicks": 239,
            "midi": 68,
            "name": "G#4",
            "ticks": 8880,
            "time": 30.30882,
            "velocity": 0.3858267716535433
          },
          {
            "duration": 1.4989583333333307,
            "durationTicks": 1439,
            "midi": 65,
            "name": "F4",
            "ticks": 9120,
            "time": 30.55882,
            "velocity": 0.3858267716535433
          },
          {
            "duration": 0.24895833333333428,
            "durationTicks": 239,
            "midi": 70,
            "name": "A#4",
            "ticks": 9120,
            "time": 30.55882,
            "velocity": 0.3858267716535433
          },
          {
            "duration": 0.4989583333333343,
            "durationTicks": 479,
            "midi": 68,
            "name": "G#4",
            "ticks": 9360,
            "time": 30.80882,
            "velocity": 0.3858267716535433
          },
          {
            "duration": 0.4989583333333343,
            "durationTicks": 479,
            "midi": 68,
            "name": "G#4",
            "ticks": 9840,
            "time": 31.30882,
            "velocity": 0.3858267716535433
          },
          {
            "duration": 0.24895833333333073,
            "durationTicks": 239,
            "midi": 68,
            "name": "G#4",
            "ticks": 10320,
            "time": 31.80882,
            "velocity": 0.3858267716535433
          },
          {
            "duration": 1.4989583333333343,
            "durationTicks": 1439,
            "midi": 65,
            "name": "F4",
            "ticks": 10560,
            "time": 32.05882,
            "velocity": 0.3858267716535433
          },
          {
            "duration": 0.24895833333333428,
            "durationTicks": 239,
            "midi": 70,
            "name": "A#4",
            "ticks": 10560,
            "time": 32.05882,
            "velocity": 0.3858267716535433
          },
          {
            "duration": 0.4989583333333343,
            "durationTicks": 479,
            "midi": 68,
            "name": "G#4",
            "ticks": 10800,
            "time": 32.30882,
            "velocity": 0.3858267716535433
          },
          {
            "duration": 0.4989583333333343,
            "durationTicks": 479,
            "midi": 68,
            "name": "G#4",
            "ticks": 11280,
            "time": 32.80882,
            "velocity": 0.3858267716535433
          },
          {
            "duration": 0.24895833333333428,
            "durationTicks": 239,
            "midi": 68,
            "name": "G#4",
            "ticks": 11760,
            "time": 33.30882,
            "velocity": 0.3858267716535433
          },
          {
            "duration": 1.4989583333333343,
            "durationTicks": 1439,
            "midi": 65,
            "name": "F4",
            "ticks": 12000,
            "time": 33.55882,
            "velocity": 0.3858267716535433
          },
          {
            "duration": 0.24895833333333428,
            "durationTicks": 239,
            "midi": 70,
            "name": "A#4",
            "ticks": 12000,
            "time": 33.55882,
            "velocity": 0.3858267716535433
          },
          {
            "duration": 0.4989583333333343,
            "durationTicks": 479,
            "midi": 68,
            "name": "G#4",
            "ticks": 12240,
            "time": 33.80882,
            "velocity": 0.3858267716535433
          },
          {
            "duration": 0.4989583333333343,
            "durationTicks": 479,
            "midi": 68,
            "name": "G#4",
            "ticks": 12720,
            "time": 34.30882,
            "velocity": 0.3858267716535433
          },
          {
            "duration": 0.24895833333333428,
            "durationTicks": 239,
            "midi": 68,
            "name": "G#4",
            "ticks": 13200,
            "time": 34.80882,
            "velocity": 0.3858267716535433
          },
          {
            "duration": 1.4989583333333343,
            "durationTicks": 1439,
            "midi": 63,
            "name": "D#4",
            "ticks": 13440,
            "time": 35.05882,
            "velocity": 0.3858267716535433
          },
          {
            "duration": 0.24895833333333428,
            "durationTicks": 239,
            "midi": 73,
            "name": "C#5",
            "ticks": 13440,
            "time": 35.05882,
            "velocity": 0.3858267716535433
          },
          {
            "duration": 0.4989583333333343,
            "durationTicks": 479,
            "midi": 72,
            "name": "C5",
            "ticks": 13680,
            "time": 35.30882,
            "velocity": 0.3858267716535433
          },
          {
            "duration": 0.4989583333333343,
            "durationTicks": 479,
            "midi": 72,
            "name": "C5",
            "ticks": 14160,
            "time": 35.80882,
            "velocity": 0.3858267716535433
          },
          {
            "duration": 0.24895833333333428,
            "durationTicks": 239,
            "midi": 72,
            "name": "C5",
            "ticks": 14640,
            "time": 36.30882,
            "velocity": 0.3858267716535433
          },
          {
            "duration": 1.2489583333333343,
            "durationTicks": 1199,
            "midi": 63,
            "name": "D#4",
            "ticks": 14880,
            "time": 36.55882,
            "velocity": 0.3858267716535433
          },
          {
            "duration": 0.24895833333333428,
            "durationTicks": 239,
            "midi": 73,
            "name": "C#5",
            "ticks": 14880,
            "time": 36.55882,
            "velocity": 0.3858267716535433
          },
          {
            "duration": 0.4989583333333343,
            "durationTicks": 479,
            "midi": 72,
            "name": "C5",
            "ticks": 15120,
            "time": 36.80882,
            "velocity": 0.3858267716535433
          },
          {
            "duration": 0.4989583333333343,
            "durationTicks": 479,
            "midi": 72,
            "name": "C5",
            "ticks": 15600,
            "time": 37.30882,
            "velocity": 0.3858267716535433
          },
          {
            "duration": 0.24895833333333428,
            "durationTicks": 239,
            "midi": 63,
            "name": "D#4",
            "ticks": 16080,
            "time": 37.80882,
            "velocity": 0.3858267716535433
          },
          {
            "duration": 0.24895833333333428,
            "durationTicks": 239,
            "midi": 72,
            "name": "C5",
            "ticks": 16320,
            "time": 38.05882,
            "velocity": 0.3858267716535433
          },
          {
            "duration": 0.4989583333333343,
            "durationTicks": 479,
            "midi": 70,
            "name": "A#4",
            "ticks": 16560,
            "time": 38.30882,
            "velocity": 0.3858267716535433
          },
          {
            "duration": 0.4989583333333343,
            "durationTicks": 479,
            "midi": 70,
            "name": "A#4",
            "ticks": 17040,
            "time": 38.80882,
            "velocity": 0.3858267716535433
          },
          {
            "duration": 0.24895833333333428,
            "durationTicks": 239,
            "midi": 63,
            "name": "D#4",
            "ticks": 17520,
            "time": 39.30882,
            "velocity": 0.3858267716535433
          },
          {
            "duration": 0.24895833333333428,
            "durationTicks": 239,
            "midi": 73,
            "name": "C#5",
            "ticks": 17760,
            "time": 39.55882,
            "velocity": 0.3858267716535433
          },
          {
            "duration": 0.4989583333333343,
            "durationTicks": 479,
            "midi": 72,
            "name": "C5",
            "ticks": 18000,
            "time": 39.80882,
            "velocity": 0.3858267716535433
          },
          {
            "duration": 0.4989583333333343,
            "durationTicks": 479,
            "midi": 70,
            "name": "A#4",
            "ticks": 18480,
            "time": 40.30882,
            "velocity": 0.3858267716535433
          },
          {
            "duration": 0.24895833333333428,
            "durationTicks": 239,
            "midi": 63,
            "name": "D#4",
            "ticks": 18960,
            "time": 40.80882,
            "velocity": 0.3858267716535433
          },
          {
            "duration": 0.24895833333333428,
            "durationTicks": 239,
            "midi": 70,
            "name": "A#4",
            "ticks": 19200,
            "time": 41.05882,
            "velocity": 0.3858267716535433
          },
          {
            "duration": 0.4989583333333343,
            "durationTicks": 479,
            "midi": 68,
            "name": "G#4",
            "ticks": 19440,
            "time": 41.30882,
            "velocity": 0.3858267716535433
          },
          {
            "duration": 0.4989583333333343,
            "durationTicks": 479,
            "midi": 68,
            "name": "G#4",
            "ticks": 19920,
            "time": 41.80882,
            "velocity": 0.3858267716535433
          },
          {
            "duration": 0.24895833333333428,
            "durationTicks": 239,
            "midi": 68,
            "name": "G#4",
            "ticks": 20400,
            "time": 42.30882,
            "velocity": 0.3858267716535433
          },
          {
            "duration": 0.24895833333333428,
            "durationTicks": 239,
            "midi": 70,
            "name": "A#4",
            "ticks": 20640,
            "time": 42.55882,
            "velocity": 0.3858267716535433
          },
          {
            "duration": 0.4989583333333343,
            "durationTicks": 479,
            "midi": 68,
            "name": "G#4",
            "ticks": 20880,
            "time": 42.80882,
            "velocity": 0.3858267716535433
          },
          {
            "duration": 0.4989583333333343,
            "durationTicks": 479,
            "midi": 68,
            "name": "G#4",
            "ticks": 21360,
            "time": 43.30882,
            "velocity": 0.3858267716535433
          },
          {
            "duration": 0.24895833333333428,
            "durationTicks": 239,
            "midi": 68,
            "name": "G#4",
            "ticks": 21840,
            "time": 43.80882,
            "velocity": 0.3858267716535433
          },
          {
            "duration": 0.24895833333333428,
            "durationTicks": 239,
            "midi": 67,
            "name": "G4",
            "ticks": 22080,
            "time": 44.05882,
            "velocity": 0.3858267716535433
          },
          {
            "duration": 0.4989583333333343,
            "durationTicks": 479,
            "midi": 65,
            "name": "F4",
            "ticks": 22320,
            "time": 44.30882,
            "velocity": 0.3858267716535433
          },
          {
            "duration": 0.4989583333333343,
            "durationTicks": 479,
            "midi": 65,
            "name": "F4",
            "ticks": 22800,
            "time": 44.80882,
            "velocity": 0.3858267716535433
          },
          {
            "duration": 0.24895833333333428,
            "durationTicks": 239,
            "midi": 65,
            "name": "F4",
            "ticks": 23280,
            "time": 45.30882,
            "velocity": 0.3858267716535433
          },
          {
            "duration": 0.24895833333333428,
            "durationTicks": 239,
            "midi": 67,
            "name": "G4",
            "ticks": 23520,
            "time": 45.55882,
            "velocity": 0.3858267716535433
          },
          {
            "duration": 0.4989583333333343,
            "durationTicks": 479,
            "midi": 65,
            "name": "F4",
            "ticks": 23760,
            "time": 45.80882,
            "velocity": 0.3858267716535433
          },
          {
            "duration": 0.4989583333333343,
            "durationTicks": 479,
            "midi": 65,
            "name": "F4",
            "ticks": 24240,
            "time": 46.30882,
            "velocity": 0.3858267716535433
          },
          {
            "duration": 0.24895833333333428,
            "durationTicks": 239,
            "midi": 65,
            "name": "F4",
            "ticks": 24720,
            "time": 46.80882,
            "velocity": 0.3858267716535433
          },
          {
            "duration": 0.24895833333333428,
            "durationTicks": 239,
            "midi": 63,
            "name": "D#4",
            "ticks": 24960,
            "time": 47.05882,
            "velocity": 0.3858267716535433
          },
          {
            "duration": 1.4989583333333343,
            "durationTicks": 1439,
            "midi": 63,
            "name": "D#4",
            "ticks": 24960,
            "time": 47.05882,
            "velocity": 0.3858267716535433
          },
          {
            "duration": 0.4989583333333343,
            "durationTicks": 479,
            "midi": 72,
            "name": "C5",
            "ticks": 25200,
            "time": 47.30882,
            "velocity": 0.3858267716535433
          },
          {
            "duration": 0.4989583333333343,
            "durationTicks": 479,
            "midi": 72,
            "name": "C5",
            "ticks": 25680,
            "time": 47.80882,
            "velocity": 0.3858267716535433
          },
          {
            "duration": 0.24895833333333428,
            "durationTicks": 239,
            "midi": 72,
            "name": "C5",
            "ticks": 26160,
            "time": 48.30882,
            "velocity": 0.3858267716535433
          },
          {
            "duration": 1.2489583333333343,
            "durationTicks": 1199,
            "midi": 63,
            "name": "D#4",
            "ticks": 26400,
            "time": 48.55882,
            "velocity": 0.3858267716535433
          },
          {
            "duration": 0.24895833333333428,
            "durationTicks": 239,
            "midi": 73,
            "name": "C#5",
            "ticks": 26400,
            "time": 48.55882,
            "velocity": 0.3858267716535433
          },
          {
            "duration": 0.4989583333333343,
            "durationTicks": 479,
            "midi": 72,
            "name": "C5",
            "ticks": 26640,
            "time": 48.80882,
            "velocity": 0.3858267716535433
          },
          {
            "duration": 0.4989583333333343,
            "durationTicks": 479,
            "midi": 72,
            "name": "C5",
            "ticks": 27120,
            "time": 49.30882,
            "velocity": 0.3858267716535433
          },
          {
            "duration": 0.24895833333333428,
            "durationTicks": 239,
            "midi": 63,
            "name": "D#4",
            "ticks": 27600,
            "time": 49.80882,
            "velocity": 0.3858267716535433
          },
          {
            "duration": 0.24895833333333428,
            "durationTicks": 239,
            "midi": 72,
            "name": "C5",
            "ticks": 27840,
            "time": 50.05882,
            "velocity": 0.3858267716535433
          },
          {
            "duration": 0.4989583333333343,
            "durationTicks": 479,
            "midi": 70,
            "name": "A#4",
            "ticks": 28080,
            "time": 50.30882,
            "velocity": 0.3858267716535433
          },
          {
            "duration": 0.4989583333333343,
            "durationTicks": 479,
            "midi": 70,
            "name": "A#4",
            "ticks": 28560,
            "time": 50.80882,
            "velocity": 0.3858267716535433
          },
          {
            "duration": 0.24895833333333428,
            "durationTicks": 239,
            "midi": 63,
            "name": "D#4",
            "ticks": 29040,
            "time": 51.30882,
            "velocity": 0.3858267716535433
          },
          {
            "duration": 0.24895833333333428,
            "durationTicks": 239,
            "midi": 73,
            "name": "C#5",
            "ticks": 29280,
            "time": 51.55882,
            "velocity": 0.3858267716535433
          },
          {
            "duration": 0.4989583333333343,
            "durationTicks": 479,
            "midi": 72,
            "name": "C5",
            "ticks": 29520,
            "time": 51.80882,
            "velocity": 0.3858267716535433
          },
          {
            "duration": 0.4989583333333343,
            "durationTicks": 479,
            "midi": 70,
            "name": "A#4",
            "ticks": 30000,
            "time": 52.30882,
            "velocity": 0.3858267716535433
          },
          {
            "duration": 0.24895833333333428,
            "durationTicks": 239,
            "midi": 63,
            "name": "D#4",
            "ticks": 30480,
            "time": 52.80882,
            "velocity": 0.3858267716535433
          },
          {
            "duration": 0.24895833333333428,
            "durationTicks": 239,
            "midi": 70,
            "name": "A#4",
            "ticks": 30720,
            "time": 53.05882,
            "velocity": 0.4094488188976378
          },
          {
            "duration": 0.4989583333333343,
            "durationTicks": 479,
            "midi": 68,
            "name": "G#4",
            "ticks": 30960,
            "time": 53.30882,
            "velocity": 0.4409448818897638
          },
          {
            "duration": 0.47900099791666406,
            "durationTicks": 479,
            "midi": 68,
            "name": "G#4",
            "ticks": 31440,
            "time": 53.80882,
            "velocity": 0.47244094488188976
          },
          {
            "duration": 0.23900049791666333,
            "durationTicks": 239,
            "midi": 68,
            "name": "G#4",
            "ticks": 31920,
            "time": 54.288821,
            "velocity": 0.4881889763779528
          },
          {
            "duration": 0.2298074624999984,
            "durationTicks": 239,
            "midi": 70,
            "name": "A#4",
            "ticks": 32160,
            "time": 54.5288215,
            "velocity": 0.5039370078740157
          },
          {
            "duration": 0.4605764625000006,
            "durationTicks": 479,
            "midi": 68,
            "name": "G#4",
            "ticks": 32400,
            "time": 54.7595905,
            "velocity": 0.5039370078740157
          },
          {
            "duration": 0.4605764625000006,
            "durationTicks": 479,
            "midi": 68,
            "name": "G#4",
            "ticks": 32880,
            "time": 55.2211285,
            "velocity": 0.5039370078740157
          },
          {
            "duration": 0.2298074625000055,
            "durationTicks": 239,
            "midi": 68,
            "name": "G#4",
            "ticks": 33360,
            "time": 55.682666499999996,
            "velocity": 0.5039370078740157
          },
          {
            "duration": 0.2298074624999984,
            "durationTicks": 239,
            "midi": 70,
            "name": "A#4",
            "ticks": 33600,
            "time": 55.9134355,
            "velocity": 0.5039370078740157
          },
          {
            "duration": 0.4605764625000006,
            "durationTicks": 479,
            "midi": 68,
            "name": "G#4",
            "ticks": 33840,
            "time": 56.1442045,
            "velocity": 0.5039370078740157
          },
          {
            "duration": 0.4605764625000006,
            "durationTicks": 479,
            "midi": 68,
            "name": "G#4",
            "ticks": 34320,
            "time": 56.6057425,
            "velocity": 0.5039370078740157
          },
          {
            "duration": 0.2298074625000055,
            "durationTicks": 239,
            "midi": 68,
            "name": "G#4",
            "ticks": 34800,
            "time": 57.067280499999995,
            "velocity": 0.5039370078740157
          },
          {
            "duration": 0.2298074624999984,
            "durationTicks": 239,
            "midi": 70,
            "name": "A#4",
            "ticks": 35040,
            "time": 57.2980495,
            "velocity": 0.5039370078740157
          },
          {
            "duration": 0.4605764625000006,
            "durationTicks": 479,
            "midi": 68,
            "name": "G#4",
            "ticks": 35280,
            "time": 57.5288185,
            "velocity": 0.5039370078740157
          },
          {
            "duration": 0.4605764625000006,
            "durationTicks": 479,
            "midi": 68,
            "name": "G#4",
            "ticks": 35760,
            "time": 57.9903565,
            "velocity": 0.5039370078740157
          },
          {
            "duration": 0.2298074624999984,
            "durationTicks": 239,
            "midi": 68,
            "name": "G#4",
            "ticks": 36240,
            "time": 58.4518945,
            "velocity": 0.5039370078740157
          },
          {
            "duration": 0.2298074624999984,
            "durationTicks": 239,
            "midi": 73,
            "name": "C#5",
            "ticks": 36480,
            "time": 58.6826635,
            "velocity": 0.5039370078740157
          },
          {
            "duration": 1.1528834625000002,
            "durationTicks": 1199,
            "midi": 63,
            "name": "D#4",
            "ticks": 36720,
            "time": 58.9134325,
            "velocity": 0.5039370078740157
          },
          {
            "duration": 0.4605764625000006,
            "durationTicks": 479,
            "midi": 72,
            "name": "C5",
            "ticks": 36720,
            "time": 58.9134325,
            "velocity": 0.5039370078740157
          },
          {
            "duration": 0.4605764625000006,
            "durationTicks": 479,
            "midi": 72,
            "name": "C5",
            "ticks": 37200,
            "time": 59.374970499999996,
            "velocity": 0.5039370078740157
          },
          {
            "duration": 0.2298074624999984,
            "durationTicks": 239,
            "midi": 72,
            "name": "C5",
            "ticks": 37680,
            "time": 59.8365085,
            "velocity": 0.5039370078740157
          },
          {
            "duration": 0.2298074625000055,
            "durationTicks": 239,
            "midi": 73,
            "name": "C#5",
            "ticks": 37920,
            "time": 60.067277499999996,
            "velocity": 0.5039370078740157
          },
          {
            "duration": 0.922114462499998,
            "durationTicks": 959,
            "midi": 63,
            "name": "D#4",
            "ticks": 38160,
            "time": 60.2980465,
            "velocity": 0.5039370078740157
          },
          {
            "duration": 0.4605764625000006,
            "durationTicks": 479,
            "midi": 72,
            "name": "C5",
            "ticks": 38160,
            "time": 60.2980465,
            "velocity": 0.5039370078740157
          },
          {
            "duration": 0.4605764624999935,
            "durationTicks": 479,
            "midi": 72,
            "name": "C5",
            "ticks": 38640,
            "time": 60.7595845,
            "velocity": 0.5039370078740157
          },
          {
            "duration": 0.2298074624999984,
            "durationTicks": 239,
            "midi": 63,
            "name": "D#4",
            "ticks": 39120,
            "time": 61.2211225,
            "velocity": 0.5039370078740157
          },
          {
            "duration": 0.2298074624999984,
            "durationTicks": 239,
            "midi": 72,
            "name": "C5",
            "ticks": 39360,
            "time": 61.4518915,
            "velocity": 0.5039370078740157
          },
          {
            "duration": 0.4605764625000006,
            "durationTicks": 479,
            "midi": 70,
            "name": "A#4",
            "ticks": 39600,
            "time": 61.6826605,
            "velocity": 0.5039370078740157
          },
          {
            "duration": 0.4605764624999935,
            "durationTicks": 479,
            "midi": 70,
            "name": "A#4",
            "ticks": 40080,
            "time": 62.1441985,
            "velocity": 0.5039370078740157
          },
          {
            "duration": 0.2298074624999984,
            "durationTicks": 239,
            "midi": 63,
            "name": "D#4",
            "ticks": 40560,
            "time": 62.6057365,
            "velocity": 0.5039370078740157
          },
          {
            "duration": 0.2298074624999984,
            "durationTicks": 239,
            "midi": 73,
            "name": "C#5",
            "ticks": 40800,
            "time": 62.8365055,
            "velocity": 0.5039370078740157
          },
          {
            "duration": 0.4605764625000006,
            "durationTicks": 479,
            "midi": 72,
            "name": "C5",
            "ticks": 41040,
            "time": 63.067274499999996,
            "velocity": 0.5039370078740157
          },
          {
            "duration": 0.4605764625000006,
            "durationTicks": 479,
            "midi": 70,
            "name": "A#4",
            "ticks": 41520,
            "time": 63.5288125,
            "velocity": 0.5039370078740157
          },
          {
            "duration": 0.2298074624999984,
            "durationTicks": 239,
            "midi": 63,
            "name": "D#4",
            "ticks": 42000,
            "time": 63.9903505,
            "velocity": 0.5039370078740157
          },
          {
            "duration": 0.2298074624999913,
            "durationTicks": 239,
            "midi": 70,
            "name": "A#4",
            "ticks": 42240,
            "time": 64.2211195,
            "velocity": 0.5039370078740157
          },
          {
            "duration": 0.4605764625000006,
            "durationTicks": 479,
            "midi": 68,
            "name": "G#4",
            "ticks": 42480,
            "time": 64.4518885,
            "velocity": 0.5039370078740157
          },
          {
            "duration": 0.4605764625000006,
            "durationTicks": 479,
            "midi": 68,
            "name": "G#4",
            "ticks": 42960,
            "time": 64.9134265,
            "velocity": 0.5039370078740157
          },
          {
            "duration": 0.2298074624999913,
            "durationTicks": 239,
            "midi": 68,
            "name": "G#4",
            "ticks": 43440,
            "time": 65.3749645,
            "velocity": 0.5039370078740157
          },
          {
            "duration": 0.2298074625000055,
            "durationTicks": 239,
            "midi": 70,
            "name": "A#4",
            "ticks": 43680,
            "time": 65.6057335,
            "velocity": 0.5039370078740157
          },
          {
            "duration": 0.4605764625000006,
            "durationTicks": 479,
            "midi": 68,
            "name": "G#4",
            "ticks": 43920,
            "time": 65.8365025,
            "velocity": 0.5039370078740157
          },
          {
            "duration": 0.4605764625000006,
            "durationTicks": 479,
            "midi": 68,
            "name": "G#4",
            "ticks": 44400,
            "time": 66.2980405,
            "velocity": 0.5039370078740157
          },
          {
            "duration": 0.2298074624999913,
            "durationTicks": 239,
            "midi": 68,
            "name": "G#4",
            "ticks": 44880,
            "time": 66.7595785,
            "velocity": 0.5039370078740157
          },
          {
            "duration": 0.2298074625000055,
            "durationTicks": 239,
            "midi": 67,
            "name": "G4",
            "ticks": 45120,
            "time": 66.9903475,
            "velocity": 0.5039370078740157
          },
          {
            "duration": 0.4605764625000006,
            "durationTicks": 479,
            "midi": 65,
            "name": "F4",
            "ticks": 45360,
            "time": 67.2211165,
            "velocity": 0.5039370078740157
          },
          {
            "duration": 0.4605764625000006,
            "durationTicks": 479,
            "midi": 65,
            "name": "F4",
            "ticks": 45840,
            "time": 67.6826545,
            "velocity": 0.5039370078740157
          },
          {
            "duration": 0.2298074624999913,
            "durationTicks": 239,
            "midi": 65,
            "name": "F4",
            "ticks": 46320,
            "time": 68.1441925,
            "velocity": 0.5039370078740157
          },
          {
            "duration": 0.2298074625000055,
            "durationTicks": 239,
            "midi": 67,
            "name": "G4",
            "ticks": 46560,
            "time": 68.3749615,
            "velocity": 0.5039370078740157
          },
          {
            "duration": 0.4605764625000006,
            "durationTicks": 479,
            "midi": 65,
            "name": "F4",
            "ticks": 46800,
            "time": 68.60573049999999,
            "velocity": 0.5039370078740157
          },
          {
            "duration": 0.4605764625000006,
            "durationTicks": 479,
            "midi": 65,
            "name": "F4",
            "ticks": 47280,
            "time": 69.0672685,
            "velocity": 0.5039370078740157
          },
          {
            "duration": 0.2298074624999913,
            "durationTicks": 239,
            "midi": 65,
            "name": "F4",
            "ticks": 47760,
            "time": 69.5288065,
            "velocity": 0.5039370078740157
          },
          {
            "duration": 0.2298074625000055,
            "durationTicks": 239,
            "midi": 63,
            "name": "D#4",
            "ticks": 48000,
            "time": 69.7595755,
            "velocity": 0.5039370078740157
          },
          {
            "duration": 1.3836524624999953,
            "durationTicks": 1439,
            "midi": 63,
            "name": "D#4",
            "ticks": 48000,
            "time": 69.7595755,
            "velocity": 0.5039370078740157
          },
          {
            "duration": 0.4605764625000006,
            "durationTicks": 479,
            "midi": 72,
            "name": "C5",
            "ticks": 48240,
            "time": 69.99034449999999,
            "velocity": 0.5039370078740157
          },
          {
            "duration": 0.4605764625000006,
            "durationTicks": 479,
            "midi": 72,
            "name": "C5",
            "ticks": 48720,
            "time": 70.4518825,
            "velocity": 0.5039370078740157
          },
          {
            "duration": 0.2298074624999913,
            "durationTicks": 239,
            "midi": 72,
            "name": "C5",
            "ticks": 49200,
            "time": 70.9134205,
            "velocity": 0.5039370078740157
          },
          {
            "duration": 1.1528834625000002,
            "durationTicks": 1199,
            "midi": 63,
            "name": "D#4",
            "ticks": 49440,
            "time": 71.1441895,
            "velocity": 0.5039370078740157
          },
          {
            "duration": 0.2298074625000055,
            "durationTicks": 239,
            "midi": 73,
            "name": "C#5",
            "ticks": 49440,
            "time": 71.1441895,
            "velocity": 0.5039370078740157
          },
          {
            "duration": 0.4605764625000006,
            "durationTicks": 479,
            "midi": 72,
            "name": "C5",
            "ticks": 49680,
            "time": 71.37495849999999,
            "velocity": 0.5039370078740157
          },
          {
            "duration": 0.4605764625000006,
            "durationTicks": 479,
            "midi": 72,
            "name": "C5",
            "ticks": 50160,
            "time": 71.8364965,
            "velocity": 0.5039370078740157
          },
          {
            "duration": 0.2298074624999913,
            "durationTicks": 239,
            "midi": 63,
            "name": "D#4",
            "ticks": 50640,
            "time": 72.2980345,
            "velocity": 0.5039370078740157
          },
          {
            "duration": 0.2298074625000055,
            "durationTicks": 239,
            "midi": 72,
            "name": "C5",
            "ticks": 50880,
            "time": 72.5288035,
            "velocity": 0.5039370078740157
          },
          {
            "duration": 0.4605764625000006,
            "durationTicks": 479,
            "midi": 70,
            "name": "A#4",
            "ticks": 51120,
            "time": 72.75957249999999,
            "velocity": 0.5039370078740157
          },
          {
            "duration": 0.4605764625000006,
            "durationTicks": 479,
            "midi": 70,
            "name": "A#4",
            "ticks": 51600,
            "time": 73.2211105,
            "velocity": 0.5039370078740157
          },
          {
            "duration": 0.2298074624999913,
            "durationTicks": 239,
            "midi": 63,
            "name": "D#4",
            "ticks": 52080,
            "time": 73.6826485,
            "velocity": 0.5039370078740157
          },
          {
            "duration": 0.2298074625000055,
            "durationTicks": 239,
            "midi": 73,
            "name": "C#5",
            "ticks": 52320,
            "time": 73.9134175,
            "velocity": 0.5039370078740157
          },
          {
            "duration": 0.4605764625000006,
            "durationTicks": 479,
            "midi": 72,
            "name": "C5",
            "ticks": 52560,
            "time": 74.14418649999999,
            "velocity": 0.5039370078740157
          },
          {
            "duration": 0.4605764625000006,
            "durationTicks": 479,
            "midi": 70,
            "name": "A#4",
            "ticks": 53040,
            "time": 74.6057245,
            "velocity": 0.5039370078740157
          },
          {
            "duration": 0.2298074624999913,
            "durationTicks": 239,
            "midi": 63,
            "name": "D#4",
            "ticks": 53520,
            "time": 75.0672625,
            "velocity": 0.5039370078740157
          },
          {
            "duration": 1.6144214625000046,
            "durationTicks": 1679,
            "midi": 68,
            "name": "G#4",
            "ticks": 53760,
            "time": 75.2980315,
            "velocity": 0.5039370078740157
          },
          {
            "duration": 0.2298074624999913,
            "durationTicks": 239,
            "midi": 63,
            "name": "D#4",
            "ticks": 55440,
            "time": 76.9134145,
            "velocity": 0.5039370078740157
          },
          {
            "duration": 0.2298074625000055,
            "durationTicks": 239,
            "midi": 70,
            "name": "A#4",
            "ticks": 55680,
            "time": 77.1441835,
            "velocity": 0.5039370078740157
          },
          {
            "duration": 0.2298074625000055,
            "durationTicks": 239,
            "midi": 72,
            "name": "C5",
            "ticks": 55920,
            "time": 77.37495249999999,
            "velocity": 0.5039370078740157
          },
          {
            "duration": 0.2298074624999913,
            "durationTicks": 239,
            "midi": 70,
            "name": "A#4",
            "ticks": 56160,
            "time": 77.6057215,
            "velocity": 0.5039370078740157
          },
          {
            "duration": 1.8451904624999997,
            "durationTicks": 1919,
            "midi": 68,
            "name": "G#4",
            "ticks": 56400,
            "time": 77.8364905,
            "velocity": 0.5039370078740157
          },
          {
            "duration": 0.2298074625000055,
            "durationTicks": 239,
            "midi": 63,
            "name": "D#4",
            "ticks": 58320,
            "time": 79.6826425,
            "velocity": 0.5039370078740157
          },
          {
            "duration": 0.2298074625000055,
            "durationTicks": 239,
            "midi": 70,
            "name": "A#4",
            "ticks": 58560,
            "time": 79.9134115,
            "velocity": 0.5039370078740157
          },
          {
            "duration": 0.2298074624999913,
            "durationTicks": 239,
            "midi": 72,
            "name": "C5",
            "ticks": 58800,
            "time": 80.1441805,
            "velocity": 0.5039370078740157
          },
          {
            "duration": 0.2298074625000055,
            "durationTicks": 239,
            "midi": 70,
            "name": "A#4",
            "ticks": 59040,
            "time": 80.3749495,
            "velocity": 0.5039370078740157
          },
          {
            "duration": 0.9221144625000051,
            "durationTicks": 959,
            "midi": 68,
            "name": "G#4",
            "ticks": 59280,
            "time": 80.6057185,
            "velocity": 0.5039370078740157
          },
          {
            "duration": 1.6144214624999904,
            "durationTicks": 1679,
            "midi": 72,
            "name": "C5",
            "ticks": 59520,
            "time": 80.8364875,
            "velocity": 0.5039370078740157
          },
          {
            "duration": 0.9221144624999909,
            "durationTicks": 959,
            "midi": 63,
            "name": "D#4",
            "ticks": 60240,
            "time": 81.5287945,
            "velocity": 0.5039370078740157
          },
          {
            "duration": 0.2298074625000055,
            "durationTicks": 239,
            "midi": 63,
            "name": "D#4",
            "ticks": 61200,
            "time": 82.4518705,
            "velocity": 0.5039370078740157
          },
          {
            "duration": 0.2298074625000055,
            "durationTicks": 239,
            "midi": 70,
            "name": "A#4",
            "ticks": 61440,
            "time": 82.6826395,
            "velocity": 0.5039370078740157
          },
          {
            "duration": 0.2298074624999913,
            "durationTicks": 239,
            "midi": 72,
            "name": "C5",
            "ticks": 61680,
            "time": 82.9134085,
            "velocity": 0.5039370078740157
          },
          {
            "duration": 0.2298074625000055,
            "durationTicks": 239,
            "midi": 70,
            "name": "A#4",
            "ticks": 61920,
            "time": 83.1441775,
            "velocity": 0.5039370078740157
          },
          {
            "duration": 0.9221144625000051,
            "durationTicks": 959,
            "midi": 68,
            "name": "G#4",
            "ticks": 62160,
            "time": 83.3749465,
            "velocity": 0.5039370078740157
          },
          {
            "duration": 1.6144214624999904,
            "durationTicks": 1679,
            "midi": 70,
            "name": "A#4",
            "ticks": 62400,
            "time": 83.6057155,
            "velocity": 0.5039370078740157
          },
          {
            "duration": 0.9221144624999909,
            "durationTicks": 959,
            "midi": 63,
            "name": "D#4",
            "ticks": 63120,
            "time": 84.2980225,
            "velocity": 0.5039370078740157
          },
          {
            "duration": 0.2298074625000055,
            "durationTicks": 239,
            "midi": 63,
            "name": "D#4",
            "ticks": 64080,
            "time": 85.2210985,
            "velocity": 0.5039370078740157
          },
          {
            "duration": 0.2298074625000055,
            "durationTicks": 239,
            "midi": 70,
            "name": "A#4",
            "ticks": 64320,
            "time": 85.45186749999999,
            "velocity": 0.5039370078740157
          },
          {
            "duration": 0.2298074624999913,
            "durationTicks": 239,
            "midi": 72,
            "name": "C5",
            "ticks": 64560,
            "time": 85.6826365,
            "velocity": 0.5039370078740157
          },
          {
            "duration": 0.2298074625000055,
            "durationTicks": 239,
            "midi": 70,
            "name": "A#4",
            "ticks": 64800,
            "time": 85.9134055,
            "velocity": 0.5039370078740157
          },
          {
            "duration": 0.2298074625000055,
            "durationTicks": 239,
            "midi": 68,
            "name": "G#4",
            "ticks": 65040,
            "time": 86.14417449999999,
            "velocity": 0.5039370078740157
          },
          {
            "duration": 0.2298074624999913,
            "durationTicks": 239,
            "midi": 70,
            "name": "A#4",
            "ticks": 65280,
            "time": 86.3749435,
            "velocity": 0.5039370078740157
          },
          {
            "duration": 0.2298074625000055,
            "durationTicks": 239,
            "midi": 68,
            "name": "G#4",
            "ticks": 65520,
            "time": 86.6057125,
            "velocity": 0.5039370078740157
          },
          {
            "duration": 1.1528834625000002,
            "durationTicks": 1199,
            "midi": 63,
            "name": "D#4",
            "ticks": 65760,
            "time": 86.83648149999999,
            "velocity": 0.5039370078740157
          },
          {
            "duration": 0.2298074625000055,
            "durationTicks": 239,
            "midi": 63,
            "name": "D#4",
            "ticks": 66960,
            "time": 87.9903265,
            "velocity": 0.5039370078740157
          },
          {
            "duration": 0.2298074625000055,
            "durationTicks": 239,
            "midi": 70,
            "name": "A#4",
            "ticks": 67200,
            "time": 88.22109549999999,
            "velocity": 0.5039370078740157
          },
          {
            "duration": 0.2298074624999913,
            "durationTicks": 239,
            "midi": 72,
            "name": "C5",
            "ticks": 67440,
            "time": 88.4518645,
            "velocity": 0.5039370078740157
          },
          {
            "duration": 0.2298074625000055,
            "durationTicks": 239,
            "midi": 70,
            "name": "A#4",
            "ticks": 67680,
            "time": 88.6826335,
            "velocity": 0.5039370078740157
          },
          {
            "duration": 2.075959462500009,
            "durationTicks": 2159,
            "midi": 68,
            "name": "G#4",
            "ticks": 67920,
            "time": 88.91340249999999,
            "velocity": 0.5039370078740157
          },
          {
            "duration": 7.8451844624999865,
            "durationTicks": 8159,
            "midi": 63,
            "name": "D#4",
            "ticks": 68160,
            "time": 89.1441715,
            "velocity": 0.5039370078740157
          },
          {
            "duration": 0.2298074625000055,
            "durationTicks": 239,
            "midi": 70,
            "name": "A#4",
            "ticks": 70080,
            "time": 90.99032349999999,
            "velocity": 0.5039370078740157
          },
          {
            "duration": 0.2298074624999913,
            "durationTicks": 239,
            "midi": 72,
            "name": "C5",
            "ticks": 70320,
            "time": 91.2210925,
            "velocity": 0.5039370078740157
          },
          {
            "duration": 0.2298074625000055,
            "durationTicks": 239,
            "midi": 70,
            "name": "A#4",
            "ticks": 70560,
            "time": 91.45186149999999,
            "velocity": 0.5039370078740157
          },
          {
            "duration": 0.34519196249999595,
            "durationTicks": 359,
            "midi": 70,
            "name": "A#4",
            "ticks": 70780,
            "time": 91.66339975,
            "velocity": 0.5039370078740157
          },
          {
            "duration": 0.2298074625000055,
            "durationTicks": 239,
            "midi": 68,
            "name": "G#4",
            "ticks": 70800,
            "time": 91.68263049999999,
            "velocity": 0.5039370078740157
          },
          {
            "duration": 1.3836524625000095,
            "durationTicks": 1439,
            "midi": 72,
            "name": "C5",
            "ticks": 71040,
            "time": 91.9133995,
            "velocity": 0.5039370078740157
          },
          {
            "duration": 0.4605764625000006,
            "durationTicks": 479,
            "midi": 72,
            "name": "C5",
            "ticks": 72480,
            "time": 93.2980135,
            "velocity": 0.5039370078740157
          },
          {
            "duration": 0.2298074625000197,
            "durationTicks": 239,
            "midi": 70,
            "name": "A#4",
            "ticks": 72960,
            "time": 93.75955149999999,
            "velocity": 0.5039370078740157
          },
          {
            "duration": 0.2298074624999913,
            "durationTicks": 239,
            "midi": 72,
            "name": "C5",
            "ticks": 73200,
            "time": 93.9903205,
            "velocity": 0.5039370078740157
          },
          {
            "duration": 0.2298074624999913,
            "durationTicks": 239,
            "midi": 70,
            "name": "A#4",
            "ticks": 73440,
            "time": 94.2210895,
            "velocity": 0.5039370078740157
          },
          {
            "duration": 2.5374974624999993,
            "durationTicks": 2639,
            "midi": 68,
            "name": "G#4",
            "ticks": 73680,
            "time": 94.45185849999999,
            "velocity": 0.5039370078740157
          },
          {
            "duration": 2.30672846249999,
            "durationTicks": 2399,
            "midi": 70,
            "name": "A#4",
            "ticks": 73920,
            "time": 94.6826275,
            "velocity": 0.5039370078740157
          },
          {
            "duration": 0.4605764625000006,
            "durationTicks": 479,
            "midi": 63,
            "name": "D#4",
            "ticks": 76320,
            "time": 96.9903175,
            "velocity": 0.5039370078740157
          },
          {
            "duration": 2.075959462500009,
            "durationTicks": 2159,
            "midi": 77,
            "name": "F5",
            "ticks": 76800,
            "time": 97.4518555,
            "velocity": 0.5039370078740157
          },
          {
            "duration": 0.11442296250000084,
            "durationTicks": 119,
            "midi": 75,
            "name": "D#5",
            "ticks": 78960,
            "time": 99.52877649999999,
            "velocity": 0.5039370078740157
          },
          {
            "duration": 0.11442296250000084,
            "durationTicks": 119,
            "midi": 73,
            "name": "C#5",
            "ticks": 79080,
            "time": 99.644161,
            "velocity": 0.5039370078740157
          },
          {
            "duration": 0.2298074624999913,
            "durationTicks": 239,
            "midi": 72,
            "name": "C5",
            "ticks": 79200,
            "time": 99.7595455,
            "velocity": 0.5039370078740157
          },
          {
            "duration": 0.2298074625000055,
            "durationTicks": 239,
            "midi": 73,
            "name": "C#5",
            "ticks": 79440,
            "time": 99.9903145,
            "velocity": 0.5039370078740157
          },
          {
            "duration": 0.6913454625000099,
            "durationTicks": 719,
            "midi": 75,
            "name": "D#5",
            "ticks": 79680,
            "time": 100.22108349999999,
            "velocity": 0.5039370078740157
          },
          {
            "duration": 0.4605764625000006,
            "durationTicks": 479,
            "midi": 72,
            "name": "C5",
            "ticks": 80400,
            "time": 100.91339049999999,
            "velocity": 0.5039370078740157
          },
          {
            "duration": 0.9221144625000051,
            "durationTicks": 959,
            "midi": 70,
            "name": "A#4",
            "ticks": 80880,
            "time": 101.3749285,
            "velocity": 0.5039370078740157
          },
          {
            "duration": 0.4605764625000006,
            "durationTicks": 479,
            "midi": 68,
            "name": "G#4",
            "ticks": 81840,
            "time": 102.29800449999999,
            "velocity": 0.5039370078740157
          },
          {
            "duration": 2.306728462500004,
            "durationTicks": 2399,
            "midi": 68,
            "name": "G#4",
            "ticks": 82320,
            "time": 102.7595425,
            "velocity": 0.5039370078740157
          },
          {
            "duration": 0.11442296250001505,
            "durationTicks": 119,
            "midi": 75,
            "name": "D#5",
            "ticks": 84720,
            "time": 105.06723249999999,
            "velocity": 0.5039370078740157
          },
          {
            "duration": 0.11442296250000084,
            "durationTicks": 119,
            "midi": 73,
            "name": "C#5",
            "ticks": 84840,
            "time": 105.182617,
            "velocity": 0.5039370078740157
          },
          {
            "duration": 0.2298074624999913,
            "durationTicks": 239,
            "midi": 72,
            "name": "C5",
            "ticks": 84960,
            "time": 105.2980015,
            "velocity": 0.5039370078740157
          },
          {
            "duration": 0.2298074625000055,
            "durationTicks": 239,
            "midi": 73,
            "name": "C#5",
            "ticks": 85200,
            "time": 105.5287705,
            "velocity": 0.5039370078740157
          },
          {
            "duration": 0.6913454625000099,
            "durationTicks": 719,
            "midi": 75,
            "name": "D#5",
            "ticks": 85440,
            "time": 105.75953949999999,
            "velocity": 0.5039370078740157
          },
          {
            "duration": 0.4605764625000006,
            "durationTicks": 479,
            "midi": 72,
            "name": "C5",
            "ticks": 86160,
            "time": 106.45184649999999,
            "velocity": 0.5039370078740157
          },
          {
            "duration": 0.2298074625000055,
            "durationTicks": 239,
            "midi": 72,
            "name": "C5",
            "ticks": 86640,
            "time": 106.91338449999999,
            "velocity": 0.5039370078740157
          },
          {
            "duration": 0.2298074625000055,
            "durationTicks": 239,
            "midi": 73,
            "name": "C#5",
            "ticks": 86880,
            "time": 107.14415349999999,
            "velocity": 0.5039370078740157
          },
          {
            "duration": 0.2298074624999913,
            "durationTicks": 239,
            "midi": 72,
            "name": "C5",
            "ticks": 87120,
            "time": 107.3749225,
            "velocity": 0.5039370078740157
          },
          {
            "duration": 0.4605764625000006,
            "durationTicks": 479,
            "midi": 70,
            "name": "A#4",
            "ticks": 87360,
            "time": 107.60569149999999,
            "velocity": 0.5039370078740157
          },
          {
            "duration": 0.4605764625000006,
            "durationTicks": 479,
            "midi": 68,
            "name": "G#4",
            "ticks": 87840,
            "time": 108.0672295,
            "velocity": 0.5039370078740157
          },
          {
            "duration": 2.075959462500009,
            "durationTicks": 2159,
            "midi": 68,
            "name": "G#4",
            "ticks": 88320,
            "time": 108.52876749999999,
            "velocity": 0.5039370078740157
          },
          {
            "duration": 0.11442296250001505,
            "durationTicks": 119,
            "midi": 70,
            "name": "A#4",
            "ticks": 90480,
            "time": 110.60568849999999,
            "velocity": 0.5039370078740157
          },
          {
            "duration": 0.11442296250000084,
            "durationTicks": 119,
            "midi": 68,
            "name": "G#4",
            "ticks": 90600,
            "time": 110.72107299999999,
            "velocity": 0.5039370078740157
          },
          {
            "duration": 0.2298074624999913,
            "durationTicks": 239,
            "midi": 67,
            "name": "G4",
            "ticks": 90720,
            "time": 110.8364575,
            "velocity": 0.5039370078740157
          },
          {
            "duration": 0.2298074625000055,
            "durationTicks": 239,
            "midi": 68,
            "name": "G#4",
            "ticks": 90960,
            "time": 111.06722649999999,
            "velocity": 0.5039370078740157
          },
          {
            "duration": 1.8451904624999997,
            "durationTicks": 1919,
            "midi": 70,
            "name": "A#4",
            "ticks": 91200,
            "time": 111.29799549999998,
            "velocity": 0.5039370078740157
          },
          {
            "duration": 0.2298074624999913,
            "durationTicks": 239,
            "midi": 70,
            "name": "A#4",
            "ticks": 93120,
            "time": 113.1441475,
            "velocity": 0.5039370078740157
          },
          {
            "duration": 0.2298074625000197,
            "durationTicks": 239,
            "midi": 72,
            "name": "C5",
            "ticks": 93360,
            "time": 113.37491649999998,
            "velocity": 0.5039370078740157
          },
          {
            "duration": 0.2298074624999913,
            "durationTicks": 239,
            "midi": 70,
            "name": "A#4",
            "ticks": 93600,
            "time": 113.60568549999999,
            "velocity": 0.5039370078740157
          },
          {
            "duration": 0.2298074624999913,
            "durationTicks": 239,
            "midi": 68,
            "name": "G#4",
            "ticks": 93840,
            "time": 113.8364545,
            "velocity": 0.5039370078740157
          },
          {
            "duration": 0.4605764625000006,
            "durationTicks": 479,
            "midi": 65,
            "name": "F4",
            "ticks": 94080,
            "time": 114.06722349999998,
            "velocity": 0.5039370078740157
          },
          {
            "duration": 0.2298074624999913,
            "durationTicks": 239,
            "midi": 70,
            "name": "A#4",
            "ticks": 94560,
            "time": 114.5287615,
            "velocity": 0.5039370078740157
          },
          {
            "duration": 0.2298074625000197,
            "durationTicks": 239,
            "midi": 72,
            "name": "C5",
            "ticks": 94800,
            "time": 114.75953049999998,
            "velocity": 0.5039370078740157
          },
          {
            "duration": 0.2298074624999913,
            "durationTicks": 239,
            "midi": 70,
            "name": "A#4",
            "ticks": 95040,
            "time": 114.99029949999999,
            "velocity": 0.5039370078740157
          },
          {
            "duration": 0.2298074624999913,
            "durationTicks": 239,
            "midi": 68,
            "name": "G#4",
            "ticks": 95280,
            "time": 115.2210685,
            "velocity": 0.5039370078740157
          },
          {
            "duration": 0.2298074625000197,
            "durationTicks": 239,
            "midi": 65,
            "name": "F4",
            "ticks": 95520,
            "time": 115.45183749999998,
            "velocity": 0.5039370078740157
          },
          {
            "duration": 0.2298074624999913,
            "durationTicks": 239,
            "midi": 68,
            "name": "G#4",
            "ticks": 95760,
            "time": 115.68260649999999,
            "velocity": 0.5039370078740157
          },
          {
            "duration": 0.2298074624999913,
            "durationTicks": 239,
            "midi": 70,
            "name": "A#4",
            "ticks": 96000,
            "time": 115.9133755,
            "velocity": 0.5039370078740157
          },
          {
            "duration": 0.2298074625000055,
            "durationTicks": 239,
            "midi": 72,
            "name": "C5",
            "ticks": 96240,
            "time": 116.1441445,
            "velocity": 0.5039370078740157
          },
          {
            "duration": 0.2298074625000055,
            "durationTicks": 239,
            "midi": 70,
            "name": "A#4",
            "ticks": 96480,
            "time": 116.37491349999999,
            "velocity": 0.5039370078740157
          },
          {
            "duration": 0.2298074624999913,
            "durationTicks": 239,
            "midi": 68,
            "name": "G#4",
            "ticks": 96720,
            "time": 116.6056825,
            "velocity": 0.5039370078740157
          },
          {
            "duration": 1.8451904624999855,
            "durationTicks": 1919,
            "midi": 65,
            "name": "F4",
            "ticks": 96960,
            "time": 116.8364515,
            "velocity": 0.5039370078740157
          },
          {
            "duration": 0.2298074624999913,
            "durationTicks": 239,
            "midi": 70,
            "name": "A#4",
            "ticks": 98880,
            "time": 118.6826035,
            "velocity": 0.5039370078740157
          },
          {
            "duration": 0.2298074625000197,
            "durationTicks": 239,
            "midi": 72,
            "name": "C5",
            "ticks": 99120,
            "time": 118.91337249999998,
            "velocity": 0.5039370078740157
          },
          {
            "duration": 0.2298074624999913,
            "durationTicks": 239,
            "midi": 70,
            "name": "A#4",
            "ticks": 99360,
            "time": 119.14414149999999,
            "velocity": 0.5039370078740157
          },
          {
            "duration": 0.2298074624999913,
            "durationTicks": 239,
            "midi": 68,
            "name": "G#4",
            "ticks": 99600,
            "time": 119.3749105,
            "velocity": 0.5039370078740157
          },
          {
            "duration": 0.2298074625000197,
            "durationTicks": 239,
            "midi": 72,
            "name": "C5",
            "ticks": 99840,
            "time": 119.60567949999998,
            "velocity": 0.5039370078740157
          },
          {
            "duration": 0.2298074624999913,
            "durationTicks": 239,
            "midi": 68,
            "name": "G#4",
            "ticks": 100080,
            "time": 119.83644849999999,
            "velocity": 0.5039370078740157
          },
          {
            "duration": 0.2298074624999913,
            "durationTicks": 239,
            "midi": 70,
            "name": "A#4",
            "ticks": 100320,
            "time": 120.0672175,
            "velocity": 0.5039370078740157
          },
          {
            "duration": 0.2298074625000197,
            "durationTicks": 239,
            "midi": 72,
            "name": "C5",
            "ticks": 100560,
            "time": 120.29798649999998,
            "velocity": 0.5039370078740157
          },
          {
            "duration": 0.2298074624999913,
            "durationTicks": 239,
            "midi": 70,
            "name": "A#4",
            "ticks": 100800,
            "time": 120.52875549999999,
            "velocity": 0.5039370078740157
          },
          {
            "duration": 0.2298074624999913,
            "durationTicks": 239,
            "midi": 68,
            "name": "G#4",
            "ticks": 101040,
            "time": 120.7595245,
            "velocity": 0.5039370078740157
          },
          {
            "duration": 0.2298074625000197,
            "durationTicks": 239,
            "midi": 72,
            "name": "C5",
            "ticks": 101280,
            "time": 120.99029349999998,
            "velocity": 0.5039370078740157
          },
          {
            "duration": 0.2298074624999913,
            "durationTicks": 239,
            "midi": 68,
            "name": "G#4",
            "ticks": 101520,
            "time": 121.22106249999999,
            "velocity": 0.5039370078740157
          },
          {
            "duration": 0.2298074624999913,
            "durationTicks": 239,
            "midi": 70,
            "name": "A#4",
            "ticks": 101760,
            "time": 121.4518315,
            "velocity": 0.5039370078740157
          },
          {
            "duration": 0.2298074625000197,
            "durationTicks": 239,
            "midi": 72,
            "name": "C5",
            "ticks": 102000,
            "time": 121.68260049999998,
            "velocity": 0.5039370078740157
          },
          {
            "duration": 0.2298074624999913,
            "durationTicks": 239,
            "midi": 70,
            "name": "A#4",
            "ticks": 102240,
            "time": 121.91336949999999,
            "velocity": 0.5039370078740157
          },
          {
            "duration": 2.30672846249999,
            "durationTicks": 2399,
            "midi": 68,
            "name": "G#4",
            "ticks": 102480,
            "time": 122.1441385,
            "velocity": 0.5039370078740157
          },
          {
            "duration": 2.075959462500009,
            "durationTicks": 2159,
            "midi": 70,
            "name": "A#4",
            "ticks": 102720,
            "time": 122.37490749999998,
            "velocity": 0.5039370078740157
          },
          {
            "duration": 0.2298074624999913,
            "durationTicks": 239,
            "midi": 68,
            "name": "G#4",
            "ticks": 104880,
            "time": 124.4518285,
            "velocity": 0.5039370078740157
          },
          {
            "duration": 0.2298074625000197,
            "durationTicks": 239,
            "midi": 70,
            "name": "A#4",
            "ticks": 105120,
            "time": 124.68259749999999,
            "velocity": 0.5039370078740157
          },
          {
            "duration": 0.2298074624999913,
            "durationTicks": 239,
            "midi": 68,
            "name": "G#4",
            "ticks": 105360,
            "time": 124.9133665,
            "velocity": 0.5039370078740157
          },
          {
            "duration": 0.2298074624999913,
            "durationTicks": 239,
            "midi": 75,
            "name": "D#5",
            "ticks": 105600,
            "time": 125.1441355,
            "velocity": 0.5039370078740157
          },
          {
            "duration": 0.2298074625000197,
            "durationTicks": 239,
            "midi": 68,
            "name": "G#4",
            "ticks": 105840,
            "time": 125.37490449999999,
            "velocity": 0.5039370078740157
          },
          {
            "duration": 0.2298074624999913,
            "durationTicks": 239,
            "midi": 70,
            "name": "A#4",
            "ticks": 106080,
            "time": 125.6056735,
            "velocity": 0.5039370078740157
          },
          {
            "duration": 0.2298074624999913,
            "durationTicks": 239,
            "midi": 72,
            "name": "C5",
            "ticks": 106320,
            "time": 125.8364425,
            "velocity": 0.5039370078740157
          },
          {
            "duration": 0.2298074625000197,
            "durationTicks": 239,
            "midi": 70,
            "name": "A#4",
            "ticks": 106560,
            "time": 126.06721149999998,
            "velocity": 0.5039370078740157
          },
          {
            "duration": 0.2298074624999913,
            "durationTicks": 239,
            "midi": 68,
            "name": "G#4",
            "ticks": 106800,
            "time": 126.2979805,
            "velocity": 0.5039370078740157
          },
          {
            "duration": 0.2298074624999913,
            "durationTicks": 239,
            "midi": 75,
            "name": "D#5",
            "ticks": 107040,
            "time": 126.5287495,
            "velocity": 0.5039370078740157
          },
          {
            "duration": 0.2298074625000197,
            "durationTicks": 239,
            "midi": 68,
            "name": "G#4",
            "ticks": 107280,
            "time": 126.75951849999998,
            "velocity": 0.5039370078740157
          },
          {
            "duration": 0.2298074624999913,
            "durationTicks": 239,
            "midi": 70,
            "name": "A#4",
            "ticks": 107520,
            "time": 126.9902875,
            "velocity": 0.5039370078740157
          },
          {
            "duration": 0.2298074624999913,
            "durationTicks": 239,
            "midi": 72,
            "name": "C5",
            "ticks": 107760,
            "time": 127.2210565,
            "velocity": 0.5039370078740157
          },
          {
            "duration": 0.2298074625000197,
            "durationTicks": 239,
            "midi": 70,
            "name": "A#4",
            "ticks": 108000,
            "time": 127.45182549999998,
            "velocity": 0.5039370078740157
          },
          {
            "duration": 0.2298074624999913,
            "durationTicks": 239,
            "midi": 68,
            "name": "G#4",
            "ticks": 108240,
            "time": 127.6825945,
            "velocity": 0.5039370078740157
          },
          {
            "duration": 0.2298074624999913,
            "durationTicks": 239,
            "midi": 75,
            "name": "D#5",
            "ticks": 108480,
            "time": 127.9133635,
            "velocity": 0.5039370078740157
          },
          {
            "duration": 0.2298074625000197,
            "durationTicks": 239,
            "midi": 68,
            "name": "G#4",
            "ticks": 108720,
            "time": 128.14413249999998,
            "velocity": 0.5039370078740157
          },
          {
            "duration": 0.2298074624999913,
            "durationTicks": 239,
            "midi": 70,
            "name": "A#4",
            "ticks": 108960,
            "time": 128.3749015,
            "velocity": 0.5039370078740157
          },
          {
            "duration": 0.2298074624999913,
            "durationTicks": 239,
            "midi": 72,
            "name": "C5",
            "ticks": 109200,
            "time": 128.6056705,
            "velocity": 0.5039370078740157
          },
          {
            "duration": 0.2298074625000197,
            "durationTicks": 239,
            "midi": 70,
            "name": "A#4",
            "ticks": 109440,
            "time": 128.83643949999998,
            "velocity": 0.5039370078740157
          },
          {
            "duration": 0.2298074624999913,
            "durationTicks": 239,
            "midi": 68,
            "name": "G#4",
            "ticks": 109680,
            "time": 129.0672085,
            "velocity": 0.5039370078740157
          },
          {
            "duration": 0.2298074624999913,
            "durationTicks": 239,
            "midi": 75,
            "name": "D#5",
            "ticks": 109920,
            "time": 129.2979775,
            "velocity": 0.5039370078740157
          },
          {
            "duration": 0.2298074625000197,
            "durationTicks": 239,
            "midi": 68,
            "name": "G#4",
            "ticks": 110160,
            "time": 129.52874649999998,
            "velocity": 0.5039370078740157
          },
          {
            "duration": 0.2298074624999913,
            "durationTicks": 239,
            "midi": 70,
            "name": "A#4",
            "ticks": 110400,
            "time": 129.7595155,
            "velocity": 0.5039370078740157
          },
          {
            "duration": 0.2298074624999913,
            "durationTicks": 239,
            "midi": 72,
            "name": "C5",
            "ticks": 110640,
            "time": 129.9902845,
            "velocity": 0.5039370078740157
          },
          {
            "duration": 0.2298074625000197,
            "durationTicks": 239,
            "midi": 70,
            "name": "A#4",
            "ticks": 110880,
            "time": 130.22105349999998,
            "velocity": 0.5039370078740157
          },
          {
            "duration": 0.2298074624999913,
            "durationTicks": 239,
            "midi": 68,
            "name": "G#4",
            "ticks": 111120,
            "time": 130.4518225,
            "velocity": 0.5039370078740157
          },
          {
            "duration": 0.2298074624999913,
            "durationTicks": 239,
            "midi": 75,
            "name": "D#5",
            "ticks": 111360,
            "time": 130.6825915,
            "velocity": 0.5039370078740157
          },
          {
            "duration": 0.2298074625000197,
            "durationTicks": 239,
            "midi": 68,
            "name": "G#4",
            "ticks": 111600,
            "time": 130.91336049999998,
            "velocity": 0.5039370078740157
          },
          {
            "duration": 0.2298074624999913,
            "durationTicks": 239,
            "midi": 70,
            "name": "A#4",
            "ticks": 111840,
            "time": 131.1441295,
            "velocity": 0.5039370078740157
          },
          {
            "duration": 0.2298074624999913,
            "durationTicks": 239,
            "midi": 72,
            "name": "C5",
            "ticks": 112080,
            "time": 131.3748985,
            "velocity": 0.5039370078740157
          },
          {
            "duration": 0.2298074625000197,
            "durationTicks": 239,
            "midi": 70,
            "name": "A#4",
            "ticks": 112320,
            "time": 131.60566749999998,
            "velocity": 0.5039370078740157
          },
          {
            "duration": 0.2298074624999913,
            "durationTicks": 239,
            "midi": 68,
            "name": "G#4",
            "ticks": 112560,
            "time": 131.8364365,
            "velocity": 0.5039370078740157
          },
          {
            "duration": 0.2298074624999913,
            "durationTicks": 239,
            "midi": 75,
            "name": "D#5",
            "ticks": 112800,
            "time": 132.0672055,
            "velocity": 0.5039370078740157
          },
          {
            "duration": 0.2298074625000197,
            "durationTicks": 239,
            "midi": 68,
            "name": "G#4",
            "ticks": 113040,
            "time": 132.29797449999998,
            "velocity": 0.5039370078740157
          },
          {
            "duration": 0.2298074624999913,
            "durationTicks": 239,
            "midi": 70,
            "name": "A#4",
            "ticks": 113280,
            "time": 132.5287435,
            "velocity": 0.5039370078740157
          },
          {
            "duration": 0.2298074624999913,
            "durationTicks": 239,
            "midi": 72,
            "name": "C5",
            "ticks": 113520,
            "time": 132.7595125,
            "velocity": 0.5039370078740157
          },
          {
            "duration": 0.2298074625000197,
            "durationTicks": 239,
            "midi": 70,
            "name": "A#4",
            "ticks": 113760,
            "time": 132.99028149999998,
            "velocity": 0.5039370078740157
          },
          {
            "duration": 0.2298074624999913,
            "durationTicks": 239,
            "midi": 68,
            "name": "G#4",
            "ticks": 114000,
            "time": 133.2210505,
            "velocity": 0.5039370078740157
          },
          {
            "duration": 0.2298074624999913,
            "durationTicks": 239,
            "midi": 75,
            "name": "D#5",
            "ticks": 114240,
            "time": 133.4518195,
            "velocity": 0.5039370078740157
          },
          {
            "duration": 0.2298074625000197,
            "durationTicks": 239,
            "midi": 68,
            "name": "G#4",
            "ticks": 114480,
            "time": 133.68258849999998,
            "velocity": 0.5039370078740157
          },
          {
            "duration": 0.2298074624999913,
            "durationTicks": 239,
            "midi": 70,
            "name": "A#4",
            "ticks": 114720,
            "time": 133.9133575,
            "velocity": 0.5039370078740157
          },
          {
            "duration": 0.2298074624999913,
            "durationTicks": 239,
            "midi": 72,
            "name": "C5",
            "ticks": 114960,
            "time": 134.1441265,
            "velocity": 0.5039370078740157
          },
          {
            "duration": 0.2298074625000197,
            "durationTicks": 239,
            "midi": 70,
            "name": "A#4",
            "ticks": 115200,
            "time": 134.37489549999998,
            "velocity": 0.5039370078740157
          },
          {
            "duration": 0.2298074624999913,
            "durationTicks": 239,
            "midi": 68,
            "name": "G#4",
            "ticks": 115440,
            "time": 134.6056645,
            "velocity": 0.5039370078740157
          },
          {
            "duration": 0.2298074624999913,
            "durationTicks": 239,
            "midi": 75,
            "name": "D#5",
            "ticks": 115680,
            "time": 134.8364335,
            "velocity": 0.5039370078740157
          },
          {
            "duration": 0.2298074625000197,
            "durationTicks": 239,
            "midi": 68,
            "name": "G#4",
            "ticks": 115920,
            "time": 135.06720249999998,
            "velocity": 0.5039370078740157
          },
          {
            "duration": 0.2298074624999913,
            "durationTicks": 239,
            "midi": 70,
            "name": "A#4",
            "ticks": 116160,
            "time": 135.2979715,
            "velocity": 0.5039370078740157
          },
          {
            "duration": 0.2298074624999913,
            "durationTicks": 239,
            "midi": 75,
            "name": "D#5",
            "ticks": 116400,
            "time": 135.5287405,
            "velocity": 0.5039370078740157
          },
          {
            "duration": 0.2298074625000197,
            "durationTicks": 239,
            "midi": 68,
            "name": "G#4",
            "ticks": 116640,
            "time": 135.75950949999998,
            "velocity": 0.5039370078740157
          },
          {
            "duration": 0.2298074624999913,
            "durationTicks": 239,
            "midi": 70,
            "name": "A#4",
            "ticks": 116880,
            "time": 135.9902785,
            "velocity": 0.5039370078740157
          },
          {
            "duration": 0.2298074624999913,
            "durationTicks": 239,
            "midi": 68,
            "name": "G#4",
            "ticks": 117120,
            "time": 136.2210475,
            "velocity": 0.5669291338582677
          },
          {
            "duration": 0.2298074625000197,
            "durationTicks": 239,
            "midi": 67,
            "name": "G4",
            "ticks": 117360,
            "time": 136.45181649999998,
            "velocity": 0.5669291338582677
          },
          {
            "duration": 0.2298074624999913,
            "durationTicks": 239,
            "midi": 65,
            "name": "F4",
            "ticks": 117600,
            "time": 136.6825855,
            "velocity": 0.5669291338582677
          },
          {
            "duration": 0.2298074624999913,
            "durationTicks": 239,
            "midi": 68,
            "name": "G#4",
            "ticks": 117840,
            "time": 136.9133545,
            "velocity": 0.5669291338582677
          },
          {
            "duration": 0.2298074625000197,
            "durationTicks": 239,
            "midi": 67,
            "name": "G4",
            "ticks": 118080,
            "time": 137.14412349999998,
            "velocity": 0.5669291338582677
          },
          {
            "duration": 0.2298074624999913,
            "durationTicks": 239,
            "midi": 65,
            "name": "F4",
            "ticks": 118320,
            "time": 137.3748925,
            "velocity": 0.5669291338582677
          },
          {
            "duration": 0.2298074624999913,
            "durationTicks": 239,
            "midi": 72,
            "name": "C5",
            "ticks": 118560,
            "time": 137.6056615,
            "velocity": 0.5669291338582677
          },
          {
            "duration": 0.2298074625000197,
            "durationTicks": 239,
            "midi": 65,
            "name": "F4",
            "ticks": 118800,
            "time": 137.83643049999998,
            "velocity": 0.5669291338582677
          },
          {
            "duration": 0.2298074624999913,
            "durationTicks": 239,
            "midi": 67,
            "name": "G4",
            "ticks": 119040,
            "time": 138.0671995,
            "velocity": 0.5669291338582677
          },
          {
            "duration": 0.2298074624999913,
            "durationTicks": 239,
            "midi": 68,
            "name": "G#4",
            "ticks": 119280,
            "time": 138.2979685,
            "velocity": 0.5669291338582677
          },
          {
            "duration": 0.2298074625000197,
            "durationTicks": 239,
            "midi": 67,
            "name": "G4",
            "ticks": 119520,
            "time": 138.52873749999998,
            "velocity": 0.5669291338582677
          },
          {
            "duration": 0.2298074624999913,
            "durationTicks": 239,
            "midi": 65,
            "name": "F4",
            "ticks": 119760,
            "time": 138.7595065,
            "velocity": 0.5669291338582677
          },
          {
            "duration": 0.2298074624999913,
            "durationTicks": 239,
            "midi": 68,
            "name": "G#4",
            "ticks": 120000,
            "time": 138.9902755,
            "velocity": 0.5669291338582677
          },
          {
            "duration": 0.2298074625000197,
            "durationTicks": 239,
            "midi": 67,
            "name": "G4",
            "ticks": 120240,
            "time": 139.22104449999998,
            "velocity": 0.5669291338582677
          },
          {
            "duration": 0.2298074624999913,
            "durationTicks": 239,
            "midi": 65,
            "name": "F4",
            "ticks": 120480,
            "time": 139.4518135,
            "velocity": 0.5669291338582677
          },
          {
            "duration": 0.2298074624999913,
            "durationTicks": 239,
            "midi": 68,
            "name": "G#4",
            "ticks": 120720,
            "time": 139.6825825,
            "velocity": 0.5669291338582677
          },
          {
            "duration": 0.2298074625000197,
            "durationTicks": 239,
            "midi": 67,
            "name": "G4",
            "ticks": 120960,
            "time": 139.91335149999998,
            "velocity": 0.5669291338582677
          },
          {
            "duration": 0.2298074624999913,
            "durationTicks": 239,
            "midi": 65,
            "name": "F4",
            "ticks": 121200,
            "time": 140.14412049999999,
            "velocity": 0.5669291338582677
          },
          {
            "duration": 0.2298074624999913,
            "durationTicks": 239,
            "midi": 73,
            "name": "C#5",
            "ticks": 121440,
            "time": 140.3748895,
            "velocity": 0.5669291338582677
          },
          {
            "duration": 0.2298074625000197,
            "durationTicks": 239,
            "midi": 65,
            "name": "F4",
            "ticks": 121680,
            "time": 140.60565849999998,
            "velocity": 0.5669291338582677
          },
          {
            "duration": 0.2298074625000197,
            "durationTicks": 239,
            "midi": 67,
            "name": "G4",
            "ticks": 121920,
            "time": 140.83642749999999,
            "velocity": 0.5669291338582677
          },
          {
            "duration": 0.2298074624999913,
            "durationTicks": 239,
            "midi": 68,
            "name": "G#4",
            "ticks": 122160,
            "time": 141.0671965,
            "velocity": 0.5669291338582677
          },
          {
            "duration": 0.2298074624999913,
            "durationTicks": 239,
            "midi": 67,
            "name": "G4",
            "ticks": 122400,
            "time": 141.2979655,
            "velocity": 0.5669291338582677
          },
          {
            "duration": 0.2298074625000197,
            "durationTicks": 239,
            "midi": 65,
            "name": "F4",
            "ticks": 122640,
            "time": 141.52873449999998,
            "velocity": 0.5669291338582677
          },
          {
            "duration": 0.2298074624999913,
            "durationTicks": 239,
            "midi": 72,
            "name": "C5",
            "ticks": 122880,
            "time": 141.7595035,
            "velocity": 0.5669291338582677
          },
          {
            "duration": 0.2298074624999913,
            "durationTicks": 239,
            "midi": 70,
            "name": "A#4",
            "ticks": 123120,
            "time": 141.9902725,
            "velocity": 0.5669291338582677
          },
          {
            "duration": 0.2298074625000197,
            "durationTicks": 239,
            "midi": 68,
            "name": "G#4",
            "ticks": 123360,
            "time": 142.22104149999998,
            "velocity": 0.5669291338582677
          },
          {
            "duration": 0.2298074624999913,
            "durationTicks": 239,
            "midi": 72,
            "name": "C5",
            "ticks": 123600,
            "time": 142.4518105,
            "velocity": 0.5669291338582677
          },
          {
            "duration": 0.2298074624999913,
            "durationTicks": 239,
            "midi": 70,
            "name": "A#4",
            "ticks": 123840,
            "time": 142.6825795,
            "velocity": 0.5669291338582677
          },
          {
            "duration": 0.2298074625000197,
            "durationTicks": 239,
            "midi": 68,
            "name": "G#4",
            "ticks": 124080,
            "time": 142.91334849999998,
            "velocity": 0.5669291338582677
          },
          {
            "duration": 0.2298074624999913,
            "durationTicks": 239,
            "midi": 75,
            "name": "D#5",
            "ticks": 124320,
            "time": 143.1441175,
            "velocity": 0.5669291338582677
          },
          {
            "duration": 0.2298074624999913,
            "durationTicks": 239,
            "midi": 68,
            "name": "G#4",
            "ticks": 124560,
            "time": 143.3748865,
            "velocity": 0.5669291338582677
          },
          {
            "duration": 0.2298074625000197,
            "durationTicks": 239,
            "midi": 70,
            "name": "A#4",
            "ticks": 124800,
            "time": 143.60565549999998,
            "velocity": 0.5669291338582677
          },
          {
            "duration": 0.2298074624999913,
            "durationTicks": 239,
            "midi": 72,
            "name": "C5",
            "ticks": 125040,
            "time": 143.8364245,
            "velocity": 0.5669291338582677
          },
          {
            "duration": 0.2298074624999913,
            "durationTicks": 239,
            "midi": 70,
            "name": "A#4",
            "ticks": 125280,
            "time": 144.0671935,
            "velocity": 0.5669291338582677
          },
          {
            "duration": 0.2298074625000197,
            "durationTicks": 239,
            "midi": 68,
            "name": "G#4",
            "ticks": 125520,
            "time": 144.29796249999998,
            "velocity": 0.5669291338582677
          },
          {
            "duration": 0.2298074624999913,
            "durationTicks": 239,
            "midi": 70,
            "name": "A#4",
            "ticks": 125760,
            "time": 144.5287315,
            "velocity": 0.5669291338582677
          },
          {
            "duration": 0.2298074624999913,
            "durationTicks": 239,
            "midi": 68,
            "name": "G#4",
            "ticks": 126000,
            "time": 144.7595005,
            "velocity": 0.5669291338582677
          },
          {
            "duration": 0.2298074625000197,
            "durationTicks": 239,
            "midi": 67,
            "name": "G4",
            "ticks": 126240,
            "time": 144.99026949999998,
            "velocity": 0.5669291338582677
          },
          {
            "duration": 0.2298074624999913,
            "durationTicks": 239,
            "midi": 70,
            "name": "A#4",
            "ticks": 126480,
            "time": 145.2210385,
            "velocity": 0.5669291338582677
          },
          {
            "duration": 0.2298074624999913,
            "durationTicks": 239,
            "midi": 68,
            "name": "G#4",
            "ticks": 126720,
            "time": 145.4518075,
            "velocity": 0.5669291338582677
          },
          {
            "duration": 0.2298074625000197,
            "durationTicks": 239,
            "midi": 67,
            "name": "G4",
            "ticks": 126960,
            "time": 145.68257649999998,
            "velocity": 0.5669291338582677
          },
          {
            "duration": 0.2298074624999913,
            "durationTicks": 239,
            "midi": 75,
            "name": "D#5",
            "ticks": 127200,
            "time": 145.9133455,
            "velocity": 0.5669291338582677
          },
          {
            "duration": 0.2298074624999913,
            "durationTicks": 239,
            "midi": 67,
            "name": "G4",
            "ticks": 127440,
            "time": 146.1441145,
            "velocity": 0.5669291338582677
          },
          {
            "duration": 0.2298074625000197,
            "durationTicks": 239,
            "midi": 68,
            "name": "G#4",
            "ticks": 127680,
            "time": 146.37488349999998,
            "velocity": 0.5669291338582677
          },
          {
            "duration": 0.2298074624999913,
            "durationTicks": 239,
            "midi": 70,
            "name": "A#4",
            "ticks": 127920,
            "time": 146.6056525,
            "velocity": 0.5669291338582677
          },
          {
            "duration": 0.2298074624999913,
            "durationTicks": 239,
            "midi": 68,
            "name": "G#4",
            "ticks": 128160,
            "time": 146.8364215,
            "velocity": 0.5669291338582677
          },
          {
            "duration": 0.2298074625000197,
            "durationTicks": 239,
            "midi": 67,
            "name": "G4",
            "ticks": 128400,
            "time": 147.06719049999998,
            "velocity": 0.5669291338582677
          },
          {
            "duration": 0.2298074624999913,
            "durationTicks": 239,
            "midi": 68,
            "name": "G#4",
            "ticks": 128640,
            "time": 147.2979595,
            "velocity": 0.5669291338582677
          },
          {
            "duration": 0.2298074624999913,
            "durationTicks": 239,
            "midi": 67,
            "name": "G4",
            "ticks": 128880,
            "time": 147.5287285,
            "velocity": 0.5669291338582677
          },
          {
            "duration": 0.2298074625000197,
            "durationTicks": 239,
            "midi": 65,
            "name": "F4",
            "ticks": 129120,
            "time": 147.75949749999998,
            "velocity": 0.5669291338582677
          },
          {
            "duration": 0.2298074624999913,
            "durationTicks": 239,
            "midi": 68,
            "name": "G#4",
            "ticks": 129360,
            "time": 147.9902665,
            "velocity": 0.5669291338582677
          },
          {
            "duration": 0.2298074624999913,
            "durationTicks": 239,
            "midi": 67,
            "name": "G4",
            "ticks": 129600,
            "time": 148.2210355,
            "velocity": 0.5669291338582677
          },
          {
            "duration": 0.2298074625000197,
            "durationTicks": 239,
            "midi": 65,
            "name": "F4",
            "ticks": 129840,
            "time": 148.45180449999998,
            "velocity": 0.5669291338582677
          },
          {
            "duration": 0.2298074624999913,
            "durationTicks": 239,
            "midi": 72,
            "name": "C5",
            "ticks": 130080,
            "time": 148.6825735,
            "velocity": 0.5669291338582677
          },
          {
            "duration": 0.2298074624999913,
            "durationTicks": 239,
            "midi": 65,
            "name": "F4",
            "ticks": 130320,
            "time": 148.9133425,
            "velocity": 0.5669291338582677
          },
          {
            "duration": 0.2298074625000197,
            "durationTicks": 239,
            "midi": 67,
            "name": "G4",
            "ticks": 130560,
            "time": 149.14411149999998,
            "velocity": 0.5669291338582677
          },
          {
            "duration": 0.2298074624999913,
            "durationTicks": 239,
            "midi": 68,
            "name": "G#4",
            "ticks": 130800,
            "time": 149.3748805,
            "velocity": 0.5669291338582677
          },
          {
            "duration": 0.2298074624999913,
            "durationTicks": 239,
            "midi": 67,
            "name": "G4",
            "ticks": 131040,
            "time": 149.6056495,
            "velocity": 0.5669291338582677
          },
          {
            "duration": 0.2298074625000197,
            "durationTicks": 239,
            "midi": 65,
            "name": "F4",
            "ticks": 131280,
            "time": 149.83641849999998,
            "velocity": 0.5669291338582677
          },
          {
            "duration": 0.2298074624999913,
            "durationTicks": 239,
            "midi": 68,
            "name": "G#4",
            "ticks": 131520,
            "time": 150.0671875,
            "velocity": 0.5669291338582677
          },
          {
            "duration": 0.2298074624999913,
            "durationTicks": 239,
            "midi": 67,
            "name": "G4",
            "ticks": 131760,
            "time": 150.2979565,
            "velocity": 0.5669291338582677
          },
          {
            "duration": 0.2298074625000197,
            "durationTicks": 239,
            "midi": 65,
            "name": "F4",
            "ticks": 132000,
            "time": 150.52872549999998,
            "velocity": 0.5669291338582677
          },
          {
            "duration": 0.2298074624999913,
            "durationTicks": 239,
            "midi": 68,
            "name": "G#4",
            "ticks": 132240,
            "time": 150.7594945,
            "velocity": 0.5669291338582677
          },
          {
            "duration": 0.2298074624999913,
            "durationTicks": 239,
            "midi": 67,
            "name": "G4",
            "ticks": 132480,
            "time": 150.9902635,
            "velocity": 0.5669291338582677
          },
          {
            "duration": 0.2298074625000197,
            "durationTicks": 239,
            "midi": 65,
            "name": "F4",
            "ticks": 132720,
            "time": 151.22103249999998,
            "velocity": 0.5669291338582677
          },
          {
            "duration": 0.2298074624999913,
            "durationTicks": 239,
            "midi": 73,
            "name": "C#5",
            "ticks": 132960,
            "time": 151.4518015,
            "velocity": 0.5669291338582677
          },
          {
            "duration": 0.2298074624999913,
            "durationTicks": 239,
            "midi": 65,
            "name": "F4",
            "ticks": 133200,
            "time": 151.6825705,
            "velocity": 0.5669291338582677
          },
          {
            "duration": 0.2298074625000197,
            "durationTicks": 239,
            "midi": 67,
            "name": "G4",
            "ticks": 133440,
            "time": 151.91333949999998,
            "velocity": 0.5669291338582677
          },
          {
            "duration": 0.2298074624999913,
            "durationTicks": 239,
            "midi": 68,
            "name": "G#4",
            "ticks": 133680,
            "time": 152.1441085,
            "velocity": 0.5669291338582677
          },
          {
            "duration": 0.2298074624999913,
            "durationTicks": 239,
            "midi": 67,
            "name": "G4",
            "ticks": 133920,
            "time": 152.3748775,
            "velocity": 0.5669291338582677
          },
          {
            "duration": 0.2298074625000197,
            "durationTicks": 239,
            "midi": 65,
            "name": "F4",
            "ticks": 134160,
            "time": 152.60564649999998,
            "velocity": 0.5669291338582677
          },
          {
            "duration": 0.2298074624999913,
            "durationTicks": 239,
            "midi": 72,
            "name": "C5",
            "ticks": 134400,
            "time": 152.8364155,
            "velocity": 0.5669291338582677
          },
          {
            "duration": 0.2298074624999913,
            "durationTicks": 239,
            "midi": 70,
            "name": "A#4",
            "ticks": 134640,
            "time": 153.0671845,
            "velocity": 0.5669291338582677
          },
          {
            "duration": 0.2298074625000197,
            "durationTicks": 239,
            "midi": 68,
            "name": "G#4",
            "ticks": 134880,
            "time": 153.29795349999998,
            "velocity": 0.5669291338582677
          },
          {
            "duration": 0.2298074624999913,
            "durationTicks": 239,
            "midi": 72,
            "name": "C5",
            "ticks": 135120,
            "time": 153.5287225,
            "velocity": 0.5669291338582677
          },
          {
            "duration": 0.2298074624999913,
            "durationTicks": 239,
            "midi": 70,
            "name": "A#4",
            "ticks": 135360,
            "time": 153.7594915,
            "velocity": 0.5669291338582677
          },
          {
            "duration": 0.2298074625000197,
            "durationTicks": 239,
            "midi": 68,
            "name": "G#4",
            "ticks": 135600,
            "time": 153.99026049999998,
            "velocity": 0.5669291338582677
          },
          {
            "duration": 0.2298074624999913,
            "durationTicks": 239,
            "midi": 75,
            "name": "D#5",
            "ticks": 135840,
            "time": 154.2210295,
            "velocity": 0.5669291338582677
          },
          {
            "duration": 0.2298074624999913,
            "durationTicks": 239,
            "midi": 68,
            "name": "G#4",
            "ticks": 136080,
            "time": 154.4517985,
            "velocity": 0.5669291338582677
          },
          {
            "duration": 0.2298074625000197,
            "durationTicks": 239,
            "midi": 70,
            "name": "A#4",
            "ticks": 136320,
            "time": 154.68256749999998,
            "velocity": 0.5669291338582677
          },
          {
            "duration": 0.2298074624999913,
            "durationTicks": 239,
            "midi": 72,
            "name": "C5",
            "ticks": 136560,
            "time": 154.91333649999999,
            "velocity": 0.5669291338582677
          },
          {
            "duration": 0.2298074624999913,
            "durationTicks": 239,
            "midi": 70,
            "name": "A#4",
            "ticks": 136800,
            "time": 155.1441055,
            "velocity": 0.5669291338582677
          },
          {
            "duration": 0.2298074625000197,
            "durationTicks": 239,
            "midi": 68,
            "name": "G#4",
            "ticks": 137040,
            "time": 155.37487449999998,
            "velocity": 0.5669291338582677
          },
          {
            "duration": 0.2298074624999913,
            "durationTicks": 239,
            "midi": 70,
            "name": "A#4",
            "ticks": 137280,
            "time": 155.60564349999999,
            "velocity": 0.5669291338582677
          },
          {
            "duration": 0.2298074624999913,
            "durationTicks": 239,
            "midi": 68,
            "name": "G#4",
            "ticks": 137520,
            "time": 155.8364125,
            "velocity": 0.5669291338582677
          },
          {
            "duration": 0.2298074625000197,
            "durationTicks": 239,
            "midi": 67,
            "name": "G4",
            "ticks": 137760,
            "time": 156.06718149999998,
            "velocity": 0.5669291338582677
          },
          {
            "duration": 0.2298074624999913,
            "durationTicks": 239,
            "midi": 70,
            "name": "A#4",
            "ticks": 138000,
            "time": 156.29795049999998,
            "velocity": 0.5669291338582677
          },
          {
            "duration": 0.2298074624999913,
            "durationTicks": 239,
            "midi": 68,
            "name": "G#4",
            "ticks": 138240,
            "time": 156.5287195,
            "velocity": 0.5669291338582677
          },
          {
            "duration": 0.2298074625000197,
            "durationTicks": 239,
            "midi": 67,
            "name": "G4",
            "ticks": 138480,
            "time": 156.75948849999997,
            "velocity": 0.5669291338582677
          },
          {
            "duration": 0.2298074624999913,
            "durationTicks": 239,
            "midi": 75,
            "name": "D#5",
            "ticks": 138720,
            "time": 156.99025749999998,
            "velocity": 0.5669291338582677
          },
          {
            "duration": 0.2298074624999913,
            "durationTicks": 239,
            "midi": 67,
            "name": "G4",
            "ticks": 138960,
            "time": 157.2210265,
            "velocity": 0.5669291338582677
          },
          {
            "duration": 0.2298074625000197,
            "durationTicks": 239,
            "midi": 68,
            "name": "G#4",
            "ticks": 139200,
            "time": 157.45179549999997,
            "velocity": 0.5669291338582677
          },
          {
            "duration": 0.2298074624999913,
            "durationTicks": 239,
            "midi": 70,
            "name": "A#4",
            "ticks": 139440,
            "time": 157.68256449999998,
            "velocity": 0.5669291338582677
          },
          {
            "duration": 0.2298074624999913,
            "durationTicks": 239,
            "midi": 68,
            "name": "G#4",
            "ticks": 139680,
            "time": 157.9133335,
            "velocity": 0.5669291338582677
          },
          {
            "duration": 0.2298074625000197,
            "durationTicks": 239,
            "midi": 67,
            "name": "G4",
            "ticks": 139920,
            "time": 158.14410249999997,
            "velocity": 0.5669291338582677
          },
          {
            "duration": 0.6913454625000099,
            "durationTicks": 719,
            "midi": 80,
            "name": "G#5",
            "ticks": 140160,
            "time": 158.37487149999998,
            "velocity": 0.6299212598425197
          },
          {
            "duration": 0.2298074624999913,
            "durationTicks": 239,
            "midi": 68,
            "name": "G#4",
            "ticks": 140400,
            "time": 158.6056405,
            "velocity": 0.6299212598425197
          },
          {
            "duration": 0.2298074625000197,
            "durationTicks": 239,
            "midi": 72,
            "name": "C5",
            "ticks": 140640,
            "time": 158.83640949999997,
            "velocity": 0.6299212598425197
          },
          {
            "duration": 0.6913454625000099,
            "durationTicks": 719,
            "midi": 79,
            "name": "G5",
            "ticks": 140880,
            "time": 159.06717849999998,
            "velocity": 0.6299212598425197
          },
          {
            "duration": 0.2298074624999913,
            "durationTicks": 239,
            "midi": 68,
            "name": "G#4",
            "ticks": 141120,
            "time": 159.2979475,
            "velocity": 0.6299212598425197
          },
          {
            "duration": 0.2298074624999913,
            "durationTicks": 239,
            "midi": 72,
            "name": "C5",
            "ticks": 141360,
            "time": 159.5287165,
            "velocity": 0.6299212598425197
          },
          {
            "duration": 0.6913454625000099,
            "durationTicks": 719,
            "midi": 77,
            "name": "F5",
            "ticks": 141600,
            "time": 159.75948549999998,
            "velocity": 0.6299212598425197
          },
          {
            "duration": 0.2298074624999913,
            "durationTicks": 239,
            "midi": 68,
            "name": "G#4",
            "ticks": 141840,
            "time": 159.9902545,
            "velocity": 0.6299212598425197
          },
          {
            "duration": 0.2298074624999913,
            "durationTicks": 239,
            "midi": 73,
            "name": "C#5",
            "ticks": 142080,
            "time": 160.2210235,
            "velocity": 0.6299212598425197
          },
          {
            "duration": 0.4605764625000006,
            "durationTicks": 479,
            "midi": 75,
            "name": "D#5",
            "ticks": 142320,
            "time": 160.45179249999998,
            "velocity": 0.6299212598425197
          },
          {
            "duration": 0.2298074624999913,
            "durationTicks": 239,
            "midi": 68,
            "name": "G#4",
            "ticks": 142560,
            "time": 160.6825615,
            "velocity": 0.6299212598425197
          },
          {
            "duration": 0.2298074624999913,
            "durationTicks": 239,
            "midi": 73,
            "name": "C#5",
            "ticks": 142800,
            "time": 160.9133305,
            "velocity": 0.6299212598425197
          },
          {
            "duration": 0.6913454625000099,
            "durationTicks": 719,
            "midi": 75,
            "name": "D#5",
            "ticks": 143040,
            "time": 161.14409949999998,
            "velocity": 0.6299212598425197
          },
          {
            "duration": 0.2298074624999913,
            "durationTicks": 239,
            "midi": 68,
            "name": "G#4",
            "ticks": 143280,
            "time": 161.3748685,
            "velocity": 0.6299212598425197
          },
          {
            "duration": 0.2298074624999913,
            "durationTicks": 239,
            "midi": 72,
            "name": "C5",
            "ticks": 143520,
            "time": 161.6056375,
            "velocity": 0.6299212598425197
          },
          {
            "duration": 0.6913454625000099,
            "durationTicks": 719,
            "midi": 75,
            "name": "D#5",
            "ticks": 143760,
            "time": 161.83640649999998,
            "velocity": 0.6299212598425197
          },
          {
            "duration": 0.2298074624999913,
            "durationTicks": 239,
            "midi": 68,
            "name": "G#4",
            "ticks": 144000,
            "time": 162.0671755,
            "velocity": 0.6299212598425197
          },
          {
            "duration": 0.2298074624999913,
            "durationTicks": 239,
            "midi": 72,
            "name": "C5",
            "ticks": 144240,
            "time": 162.2979445,
            "velocity": 0.6299212598425197
          },
          {
            "duration": 0.6913454625000099,
            "durationTicks": 719,
            "midi": 75,
            "name": "D#5",
            "ticks": 144480,
            "time": 162.52871349999998,
            "velocity": 0.6299212598425197
          },
          {
            "duration": 0.2298074624999913,
            "durationTicks": 239,
            "midi": 67,
            "name": "G4",
            "ticks": 144720,
            "time": 162.7594825,
            "velocity": 0.6299212598425197
          },
          {
            "duration": 0.2298074624999913,
            "durationTicks": 239,
            "midi": 70,
            "name": "A#4",
            "ticks": 144960,
            "time": 162.9902515,
            "velocity": 0.6299212598425197
          },
          {
            "duration": 0.6913454625000099,
            "durationTicks": 719,
            "midi": 75,
            "name": "D#5",
            "ticks": 145200,
            "time": 163.22102049999998,
            "velocity": 0.6299212598425197
          },
          {
            "duration": 0.2298074624999913,
            "durationTicks": 239,
            "midi": 67,
            "name": "G4",
            "ticks": 145440,
            "time": 163.4517895,
            "velocity": 0.6299212598425197
          },
          {
            "duration": 0.2298074624999913,
            "durationTicks": 239,
            "midi": 70,
            "name": "A#4",
            "ticks": 145680,
            "time": 163.6825585,
            "velocity": 0.6299212598425197
          },
          {
            "duration": 0.4605764625000006,
            "durationTicks": 479,
            "midi": 80,
            "name": "G#5",
            "ticks": 145920,
            "time": 163.91332749999998,
            "velocity": 0.6299212598425197
          },
          {
            "duration": 0.2298074624999913,
            "durationTicks": 239,
            "midi": 68,
            "name": "G#4",
            "ticks": 146160,
            "time": 164.1440965,
            "velocity": 0.6299212598425197
          },
          {
            "duration": 0.4605764625000006,
            "durationTicks": 479,
            "midi": 79,
            "name": "G5",
            "ticks": 146400,
            "time": 164.3748655,
            "velocity": 0.6299212598425197
          },
          {
            "duration": 0.2298074625000197,
            "durationTicks": 239,
            "midi": 68,
            "name": "G#4",
            "ticks": 146640,
            "time": 164.60563449999998,
            "velocity": 0.6299212598425197
          },
          {
            "duration": 0.4605764625000006,
            "durationTicks": 479,
            "midi": 77,
            "name": "F5",
            "ticks": 146880,
            "time": 164.8364035,
            "velocity": 0.6299212598425197
          },
          {
            "duration": 0.2298074624999913,
            "durationTicks": 239,
            "midi": 68,
            "name": "G#4",
            "ticks": 147120,
            "time": 165.0671725,
            "velocity": 0.6299212598425197
          },
          {
            "duration": 0.6913454625000099,
            "durationTicks": 719,
            "midi": 77,
            "name": "F5",
            "ticks": 147360,
            "time": 165.29794149999998,
            "velocity": 0.6299212598425197
          },
          {
            "duration": 0.2298074624999913,
            "durationTicks": 239,
            "midi": 68,
            "name": "G#4",
            "ticks": 147600,
            "time": 165.5287105,
            "velocity": 0.6299212598425197
          },
          {
            "duration": 0.2298074624999913,
            "durationTicks": 239,
            "midi": 73,
            "name": "C#5",
            "ticks": 147840,
            "time": 165.7594795,
            "velocity": 0.6299212598425197
          },
          {
            "duration": 0.4605764625000006,
            "durationTicks": 479,
            "midi": 75,
            "name": "D#5",
            "ticks": 148080,
            "time": 165.99024849999998,
            "velocity": 0.6299212598425197
          },
          {
            "duration": 0.2298074624999913,
            "durationTicks": 239,
            "midi": 68,
            "name": "G#4",
            "ticks": 148320,
            "time": 166.2210175,
            "velocity": 0.6299212598425197
          },
          {
            "duration": 0.2298074624999913,
            "durationTicks": 239,
            "midi": 73,
            "name": "C#5",
            "ticks": 148560,
            "time": 166.4517865,
            "velocity": 0.6299212598425197
          },
          {
            "duration": 0.6913454625000099,
            "durationTicks": 719,
            "midi": 75,
            "name": "D#5",
            "ticks": 148800,
            "time": 166.68255549999998,
            "velocity": 0.6299212598425197
          },
          {
            "duration": 0.2298074624999913,
            "durationTicks": 239,
            "midi": 68,
            "name": "G#4",
            "ticks": 149040,
            "time": 166.9133245,
            "velocity": 0.6299212598425197
          },
          {
            "duration": 0.2298074624999913,
            "durationTicks": 239,
            "midi": 72,
            "name": "C5",
            "ticks": 149280,
            "time": 167.1440935,
            "velocity": 0.6299212598425197
          },
          {
            "duration": 0.6913454625000099,
            "durationTicks": 719,
            "midi": 75,
            "name": "D#5",
            "ticks": 149520,
            "time": 167.37486249999998,
            "velocity": 0.6299212598425197
          },
          {
            "duration": 0.2298074624999913,
            "durationTicks": 239,
            "midi": 68,
            "name": "G#4",
            "ticks": 149760,
            "time": 167.6056315,
            "velocity": 0.6299212598425197
          },
          {
            "duration": 0.2298074624999913,
            "durationTicks": 239,
            "midi": 72,
            "name": "C5",
            "ticks": 150000,
            "time": 167.8364005,
            "velocity": 0.6299212598425197
          },
          {
            "duration": 0.6913454625000099,
            "durationTicks": 719,
            "midi": 75,
            "name": "D#5",
            "ticks": 150240,
            "time": 168.06716949999998,
            "velocity": 0.6299212598425197
          },
          {
            "duration": 0.2298074624999913,
            "durationTicks": 239,
            "midi": 67,
            "name": "G4",
            "ticks": 150480,
            "time": 168.2979385,
            "velocity": 0.6299212598425197
          },
          {
            "duration": 0.2298074624999913,
            "durationTicks": 239,
            "midi": 70,
            "name": "A#4",
            "ticks": 150720,
            "time": 168.5287075,
            "velocity": 0.6299212598425197
          },
          {
            "duration": 0.6913454625000099,
            "durationTicks": 719,
            "midi": 75,
            "name": "D#5",
            "ticks": 150960,
            "time": 168.75947649999998,
            "velocity": 0.6299212598425197
          },
          {
            "duration": 0.2298074624999913,
            "durationTicks": 239,
            "midi": 67,
            "name": "G4",
            "ticks": 151200,
            "time": 168.9902455,
            "velocity": 0.6299212598425197
          },
          {
            "duration": 0.2298074624999913,
            "durationTicks": 239,
            "midi": 70,
            "name": "A#4",
            "ticks": 151440,
            "time": 169.2210145,
            "velocity": 0.6299212598425197
          },
          {
            "duration": 0.6913454625000099,
            "durationTicks": 719,
            "midi": 80,
            "name": "G#5",
            "ticks": 151680,
            "time": 169.45178349999998,
            "velocity": 0.6299212598425197
          },
          {
            "duration": 0.2298074624999913,
            "durationTicks": 239,
            "midi": 68,
            "name": "G#4",
            "ticks": 151920,
            "time": 169.68255249999999,
            "velocity": 0.6299212598425197
          },
          {
            "duration": 0.2298074624999913,
            "durationTicks": 239,
            "midi": 72,
            "name": "C5",
            "ticks": 152160,
            "time": 169.9133215,
            "velocity": 0.6299212598425197
          },
          {
            "duration": 0.6913454625000099,
            "durationTicks": 719,
            "midi": 79,
            "name": "G5",
            "ticks": 152400,
            "time": 170.14409049999998,
            "velocity": 0.6299212598425197
          },
          {
            "duration": 0.2298074624999913,
            "durationTicks": 239,
            "midi": 68,
            "name": "G#4",
            "ticks": 152640,
            "time": 170.37485949999999,
            "velocity": 0.6299212598425197
          },
          {
            "duration": 0.2298074624999913,
            "durationTicks": 239,
            "midi": 72,
            "name": "C5",
            "ticks": 152880,
            "time": 170.6056285,
            "velocity": 0.6299212598425197
          },
          {
            "duration": 0.6913454625000099,
            "durationTicks": 719,
            "midi": 77,
            "name": "F5",
            "ticks": 153120,
            "time": 170.83639749999998,
            "velocity": 0.6299212598425197
          },
          {
            "duration": 0.2298074624999913,
            "durationTicks": 239,
            "midi": 68,
            "name": "G#4",
            "ticks": 153360,
            "time": 171.06716649999998,
            "velocity": 0.6299212598425197
          },
          {
            "duration": 0.2298074624999913,
            "durationTicks": 239,
            "midi": 73,
            "name": "C#5",
            "ticks": 153600,
            "time": 171.2979355,
            "velocity": 0.6299212598425197
          },
          {
            "duration": 0.4605764625000006,
            "durationTicks": 479,
            "midi": 75,
            "name": "D#5",
            "ticks": 153840,
            "time": 171.52870449999998,
            "velocity": 0.6299212598425197
          },
          {
            "duration": 0.2298074624999913,
            "durationTicks": 239,
            "midi": 68,
            "name": "G#4",
            "ticks": 154080,
            "time": 171.75947349999998,
            "velocity": 0.6299212598425197
          },
          {
            "duration": 0.2298074624999913,
            "durationTicks": 239,
            "midi": 73,
            "name": "C#5",
            "ticks": 154320,
            "time": 171.9902425,
            "velocity": 0.6299212598425197
          },
          {
            "duration": 0.6913454625000099,
            "durationTicks": 719,
            "midi": 75,
            "name": "D#5",
            "ticks": 154560,
            "time": 172.22101149999997,
            "velocity": 0.6299212598425197
          },
          {
            "duration": 0.2298074624999913,
            "durationTicks": 239,
            "midi": 68,
            "name": "G#4",
            "ticks": 154800,
            "time": 172.45178049999998,
            "velocity": 0.6299212598425197
          },
          {
            "duration": 0.2298074624999913,
            "durationTicks": 239,
            "midi": 72,
            "name": "C5",
            "ticks": 155040,
            "time": 172.6825495,
            "velocity": 0.6299212598425197
          },
          {
            "duration": 0.6913454625000099,
            "durationTicks": 719,
            "midi": 75,
            "name": "D#5",
            "ticks": 155280,
            "time": 172.91331849999997,
            "velocity": 0.6299212598425197
          },
          {
            "duration": 0.2298074624999913,
            "durationTicks": 239,
            "midi": 68,
            "name": "G#4",
            "ticks": 155520,
            "time": 173.14408749999998,
            "velocity": 0.6299212598425197
          },
          {
            "duration": 0.2298074624999913,
            "durationTicks": 239,
            "midi": 72,
            "name": "C5",
            "ticks": 155760,
            "time": 173.3748565,
            "velocity": 0.6299212598425197
          },
          {
            "duration": 0.6913454625000099,
            "durationTicks": 719,
            "midi": 75,
            "name": "D#5",
            "ticks": 156000,
            "time": 173.60562549999997,
            "velocity": 0.6299212598425197
          },
          {
            "duration": 0.2298074624999913,
            "durationTicks": 239,
            "midi": 67,
            "name": "G4",
            "ticks": 156240,
            "time": 173.83639449999998,
            "velocity": 0.6299212598425197
          },
          {
            "duration": 0.2298074624999913,
            "durationTicks": 239,
            "midi": 70,
            "name": "A#4",
            "ticks": 156480,
            "time": 174.0671635,
            "velocity": 0.6299212598425197
          },
          {
            "duration": 0.6913454625000099,
            "durationTicks": 719,
            "midi": 75,
            "name": "D#5",
            "ticks": 156720,
            "time": 174.29793249999997,
            "velocity": 0.6299212598425197
          },
          {
            "duration": 0.2298074624999913,
            "durationTicks": 239,
            "midi": 67,
            "name": "G4",
            "ticks": 156960,
            "time": 174.52870149999998,
            "velocity": 0.6299212598425197
          },
          {
            "duration": 0.2298074624999913,
            "durationTicks": 239,
            "midi": 70,
            "name": "A#4",
            "ticks": 157200,
            "time": 174.7594705,
            "velocity": 0.6299212598425197
          },
          {
            "duration": 0.4605764625000006,
            "durationTicks": 479,
            "midi": 80,
            "name": "G#5",
            "ticks": 157440,
            "time": 174.99023949999997,
            "velocity": 0.6299212598425197
          },
          {
            "duration": 0.2298074624999913,
            "durationTicks": 239,
            "midi": 68,
            "name": "G#4",
            "ticks": 157680,
            "time": 175.22100849999998,
            "velocity": 0.6299212598425197
          },
          {
            "duration": 0.4605764624999722,
            "durationTicks": 479,
            "midi": 79,
            "name": "G5",
            "ticks": 157920,
            "time": 175.4517775,
            "velocity": 0.6299212598425197
          },
          {
            "duration": 0.2298074624999913,
            "durationTicks": 239,
            "midi": 68,
            "name": "G#4",
            "ticks": 158160,
            "time": 175.68254649999997,
            "velocity": 0.6299212598425197
          },
          {
            "duration": 0.4605764625000006,
            "durationTicks": 479,
            "midi": 77,
            "name": "F5",
            "ticks": 158400,
            "time": 175.91331549999998,
            "velocity": 0.6299212598425197
          },
          {
            "duration": 0.2298074624999913,
            "durationTicks": 239,
            "midi": 68,
            "name": "G#4",
            "ticks": 158640,
            "time": 176.1440845,
            "velocity": 0.6299212598425197
          },
          {
            "duration": 0.6913454625000099,
            "durationTicks": 719,
            "midi": 77,
            "name": "F5",
            "ticks": 158880,
            "time": 176.37485349999997,
            "velocity": 0.6299212598425197
          },
          {
            "duration": 0.2298074624999913,
            "durationTicks": 239,
            "midi": 68,
            "name": "G#4",
            "ticks": 159120,
            "time": 176.60562249999998,
            "velocity": 0.6299212598425197
          },
          {
            "duration": 0.2298074624999913,
            "durationTicks": 239,
            "midi": 73,
            "name": "C#5",
            "ticks": 159360,
            "time": 176.8363915,
            "velocity": 0.6299212598425197
          },
          {
            "duration": 0.4605764625000006,
            "durationTicks": 479,
            "midi": 75,
            "name": "D#5",
            "ticks": 159600,
            "time": 177.06716049999997,
            "velocity": 0.6299212598425197
          },
          {
            "duration": 0.2298074624999913,
            "durationTicks": 239,
            "midi": 68,
            "name": "G#4",
            "ticks": 159840,
            "time": 177.29792949999998,
            "velocity": 0.6299212598425197
          },
          {
            "duration": 0.2298074624999913,
            "durationTicks": 239,
            "midi": 73,
            "name": "C#5",
            "ticks": 160080,
            "time": 177.5286985,
            "velocity": 0.6299212598425197
          },
          {
            "duration": 0.6913454624999815,
            "durationTicks": 719,
            "midi": 75,
            "name": "D#5",
            "ticks": 160320,
            "time": 177.7594675,
            "velocity": 0.6299212598425197
          },
          {
            "duration": 0.2298074624999913,
            "durationTicks": 239,
            "midi": 68,
            "name": "G#4",
            "ticks": 160560,
            "time": 177.99023649999998,
            "velocity": 0.6299212598425197
          },
          {
            "duration": 0.2298074624999913,
            "durationTicks": 239,
            "midi": 72,
            "name": "C5",
            "ticks": 160800,
            "time": 178.2210055,
            "velocity": 0.6299212598425197
          },
          {
            "duration": 0.6913454624999815,
            "durationTicks": 719,
            "midi": 75,
            "name": "D#5",
            "ticks": 161040,
            "time": 178.4517745,
            "velocity": 0.6299212598425197
          },
          {
            "duration": 0.2298074624999913,
            "durationTicks": 239,
            "midi": 68,
            "name": "G#4",
            "ticks": 161280,
            "time": 178.68254349999998,
            "velocity": 0.6299212598425197
          },
          {
            "duration": 0.2298074624999913,
            "durationTicks": 239,
            "midi": 72,
            "name": "C5",
            "ticks": 161520,
            "time": 178.9133125,
            "velocity": 0.6299212598425197
          },
          {
            "duration": 1.0938481104166726,
            "durationTicks": 719,
            "midi": 75,
            "name": "D#5",
            "ticks": 161760,
            "time": 179.1440815,
            "velocity": 0.6299212598425197
          },
          {
            "duration": 0.3319446104166559,
            "durationTicks": 239,
            "midi": 67,
            "name": "G4",
            "ticks": 162000,
            "time": 179.5726515,
            "velocity": 0.6299212598425197
          },
          {
            "duration": 0.3319446104166559,
            "durationTicks": 239,
            "midi": 70,
            "name": "A#4",
            "ticks": 162240,
            "time": 179.90598500000002,
            "velocity": 0.6299212598425197
          },
          {
            "duration": 2.424403333333345,
            "durationTicks": 719,
            "midi": 75,
            "name": "D#5",
            "ticks": 162480,
            "time": 180.2393185,
            "velocity": 0.6299212598425197
          },
          {
            "duration": 0.9958333333333371,
            "durationTicks": 239,
            "midi": 67,
            "name": "G4",
            "ticks": 162720,
            "time": 180.6678885,
            "velocity": 0.6299212598425197
          },
          {
            "duration": 12.995833333333337,
            "durationTicks": 3119,
            "midi": 70,
            "name": "A#4",
            "ticks": 162960,
            "time": 181.6678885,
            "velocity": 0.3858267716535433
          },
          {
            "duration": 2.397500000000008,
            "durationTicks": 959,
            "midi": 60,
            "name": "C4",
            "ticks": 166080,
            "time": 194.6678885,
            "velocity": 0.5039370078740157
          },
          {
            "duration": 2.397500000000008,
            "durationTicks": 959,
            "midi": 61,
            "name": "C#4",
            "ticks": 167040,
            "time": 197.0678885,
            "velocity": 0.5039370078740157
          },
          {
            "duration": 2.3974999999999795,
            "durationTicks": 959,
            "midi": 60,
            "name": "C4",
            "ticks": 168000,
            "time": 199.46788850000002,
            "velocity": 0.5039370078740157
          },
          {
            "duration": 2.397500000000008,
            "durationTicks": 959,
            "midi": 58,
            "name": "A#3",
            "ticks": 168960,
            "time": 201.8678885,
            "velocity": 0.5039370078740157
          },
          {
            "duration": 2.397500000000008,
            "durationTicks": 959,
            "midi": 60,
            "name": "C4",
            "ticks": 169920,
            "time": 204.2678885,
            "velocity": 0.5039370078740157
          },
          {
            "duration": 2.397500000000008,
            "durationTicks": 959,
            "midi": 61,
            "name": "C#4",
            "ticks": 170880,
            "time": 206.6678885,
            "velocity": 0.5039370078740157
          },
          {
            "duration": 3.995833333333337,
            "durationTicks": 959,
            "midi": 63,
            "name": "D#4",
            "ticks": 171840,
            "time": 209.0678885,
            "velocity": 0.5039370078740157
          },
          {
            "duration": 3.995833333333337,
            "durationTicks": 959,
            "midi": 60,
            "name": "C4",
            "ticks": 171840,
            "time": 209.0678885,
            "velocity": 0.5039370078740157
          },
          {
            "duration": 7.051479050000012,
            "durationTicks": 959,
            "midi": 63,
            "name": "D#4",
            "ticks": 172800,
            "time": 213.0678885,
            "velocity": 0.5039370078740157
          },
          {
            "duration": 7.051479050000012,
            "durationTicks": 959,
            "midi": 58,
            "name": "A#3",
            "ticks": 172800,
            "time": 213.0678885,
            "velocity": 0.5039370078740157
          },
          {
            "duration": 1.49895833333332,
            "durationTicks": 1439,
            "midi": 65,
            "name": "F4",
            "ticks": 173760,
            "time": 220.1267205,
            "velocity": 0.3858267716535433
          },
          {
            "duration": 0.24895833333332007,
            "durationTicks": 239,
            "midi": 70,
            "name": "A#4",
            "ticks": 173760,
            "time": 220.1267205,
            "velocity": 0.3858267716535433
          },
          {
            "duration": 0.49895833333332007,
            "durationTicks": 479,
            "midi": 68,
            "name": "G#4",
            "ticks": 174000,
            "time": 220.3767205,
            "velocity": 0.3858267716535433
          },
          {
            "duration": 0.49895833333332007,
            "durationTicks": 479,
            "midi": 68,
            "name": "G#4",
            "ticks": 174480,
            "time": 220.8767205,
            "velocity": 0.3858267716535433
          },
          {
            "duration": 0.24895833333332007,
            "durationTicks": 239,
            "midi": 68,
            "name": "G#4",
            "ticks": 174960,
            "time": 221.3767205,
            "velocity": 0.3858267716535433
          },
          {
            "duration": 1.49895833333332,
            "durationTicks": 1439,
            "midi": 65,
            "name": "F4",
            "ticks": 175200,
            "time": 221.6267205,
            "velocity": 0.3858267716535433
          },
          {
            "duration": 0.24895833333332007,
            "durationTicks": 239,
            "midi": 70,
            "name": "A#4",
            "ticks": 175200,
            "time": 221.6267205,
            "velocity": 0.3858267716535433
          },
          {
            "duration": 0.49895833333332007,
            "durationTicks": 479,
            "midi": 68,
            "name": "G#4",
            "ticks": 175440,
            "time": 221.8767205,
            "velocity": 0.3858267716535433
          },
          {
            "duration": 0.49895833333332007,
            "durationTicks": 479,
            "midi": 68,
            "name": "G#4",
            "ticks": 175920,
            "time": 222.3767205,
            "velocity": 0.3858267716535433
          },
          {
            "duration": 0.24895833333332007,
            "durationTicks": 239,
            "midi": 68,
            "name": "G#4",
            "ticks": 176400,
            "time": 222.8767205,
            "velocity": 0.3858267716535433
          },
          {
            "duration": 1.49895833333332,
            "durationTicks": 1439,
            "midi": 65,
            "name": "F4",
            "ticks": 176640,
            "time": 223.1267205,
            "velocity": 0.3858267716535433
          },
          {
            "duration": 0.24895833333332007,
            "durationTicks": 239,
            "midi": 70,
            "name": "A#4",
            "ticks": 176640,
            "time": 223.1267205,
            "velocity": 0.3858267716535433
          },
          {
            "duration": 0.49895833333332007,
            "durationTicks": 479,
            "midi": 68,
            "name": "G#4",
            "ticks": 176880,
            "time": 223.3767205,
            "velocity": 0.3858267716535433
          },
          {
            "duration": 0.49895833333332007,
            "durationTicks": 479,
            "midi": 68,
            "name": "G#4",
            "ticks": 177360,
            "time": 223.8767205,
            "velocity": 0.3858267716535433
          },
          {
            "duration": 0.24895833333332007,
            "durationTicks": 239,
            "midi": 68,
            "name": "G#4",
            "ticks": 177840,
            "time": 224.3767205,
            "velocity": 0.3858267716535433
          },
          {
            "duration": 1.49895833333332,
            "durationTicks": 1439,
            "midi": 65,
            "name": "F4",
            "ticks": 178080,
            "time": 224.6267205,
            "velocity": 0.3858267716535433
          },
          {
            "duration": 0.24895833333332007,
            "durationTicks": 239,
            "midi": 70,
            "name": "A#4",
            "ticks": 178080,
            "time": 224.6267205,
            "velocity": 0.3858267716535433
          },
          {
            "duration": 0.49895833333332007,
            "durationTicks": 479,
            "midi": 68,
            "name": "G#4",
            "ticks": 178320,
            "time": 224.8767205,
            "velocity": 0.3858267716535433
          },
          {
            "duration": 0.49895833333332007,
            "durationTicks": 479,
            "midi": 68,
            "name": "G#4",
            "ticks": 178800,
            "time": 225.3767205,
            "velocity": 0.3858267716535433
          },
          {
            "duration": 0.24895833333332007,
            "durationTicks": 239,
            "midi": 68,
            "name": "G#4",
            "ticks": 179280,
            "time": 225.8767205,
            "velocity": 0.3858267716535433
          },
          {
            "duration": 1.49895833333332,
            "durationTicks": 1439,
            "midi": 63,
            "name": "D#4",
            "ticks": 179520,
            "time": 226.1267205,
            "velocity": 0.3858267716535433
          },
          {
            "duration": 0.24895833333332007,
            "durationTicks": 239,
            "midi": 73,
            "name": "C#5",
            "ticks": 179520,
            "time": 226.1267205,
            "velocity": 0.3858267716535433
          },
          {
            "duration": 0.49895833333332007,
            "durationTicks": 479,
            "midi": 72,
            "name": "C5",
            "ticks": 179760,
            "time": 226.3767205,
            "velocity": 0.3858267716535433
          },
          {
            "duration": 0.49895833333332007,
            "durationTicks": 479,
            "midi": 72,
            "name": "C5",
            "ticks": 180240,
            "time": 226.8767205,
            "velocity": 0.3858267716535433
          },
          {
            "duration": 0.24895833333332007,
            "durationTicks": 239,
            "midi": 72,
            "name": "C5",
            "ticks": 180720,
            "time": 227.3767205,
            "velocity": 0.3858267716535433
          },
          {
            "duration": 1.24895833333332,
            "durationTicks": 1199,
            "midi": 63,
            "name": "D#4",
            "ticks": 180960,
            "time": 227.6267205,
            "velocity": 0.3858267716535433
          },
          {
            "duration": 0.24895833333332007,
            "durationTicks": 239,
            "midi": 73,
            "name": "C#5",
            "ticks": 180960,
            "time": 227.6267205,
            "velocity": 0.3858267716535433
          },
          {
            "duration": 0.49895833333332007,
            "durationTicks": 479,
            "midi": 72,
            "name": "C5",
            "ticks": 181200,
            "time": 227.8767205,
            "velocity": 0.3858267716535433
          },
          {
            "duration": 0.49895833333332007,
            "durationTicks": 479,
            "midi": 72,
            "name": "C5",
            "ticks": 181680,
            "time": 228.3767205,
            "velocity": 0.3858267716535433
          },
          {
            "duration": 0.24895833333332007,
            "durationTicks": 239,
            "midi": 63,
            "name": "D#4",
            "ticks": 182160,
            "time": 228.8767205,
            "velocity": 0.3858267716535433
          },
          {
            "duration": 0.24895833333332007,
            "durationTicks": 239,
            "midi": 72,
            "name": "C5",
            "ticks": 182400,
            "time": 229.1267205,
            "velocity": 0.3858267716535433
          },
          {
            "duration": 0.49895833333332007,
            "durationTicks": 479,
            "midi": 70,
            "name": "A#4",
            "ticks": 182640,
            "time": 229.3767205,
            "velocity": 0.3858267716535433
          },
          {
            "duration": 0.49895833333332007,
            "durationTicks": 479,
            "midi": 70,
            "name": "A#4",
            "ticks": 183120,
            "time": 229.8767205,
            "velocity": 0.3858267716535433
          },
          {
            "duration": 0.24895833333332007,
            "durationTicks": 239,
            "midi": 63,
            "name": "D#4",
            "ticks": 183600,
            "time": 230.3767205,
            "velocity": 0.3858267716535433
          },
          {
            "duration": 0.24895833333332007,
            "durationTicks": 239,
            "midi": 73,
            "name": "C#5",
            "ticks": 183840,
            "time": 230.6267205,
            "velocity": 0.3858267716535433
          },
          {
            "duration": 0.49895833333332007,
            "durationTicks": 479,
            "midi": 72,
            "name": "C5",
            "ticks": 184080,
            "time": 230.8767205,
            "velocity": 0.3858267716535433
          },
          {
            "duration": 0.49895833333332007,
            "durationTicks": 479,
            "midi": 70,
            "name": "A#4",
            "ticks": 184560,
            "time": 231.3767205,
            "velocity": 0.3858267716535433
          },
          {
            "duration": 0.24895833333332007,
            "durationTicks": 239,
            "midi": 63,
            "name": "D#4",
            "ticks": 185040,
            "time": 231.8767205,
            "velocity": 0.3858267716535433
          },
          {
            "duration": 0.24895833333332007,
            "durationTicks": 239,
            "midi": 70,
            "name": "A#4",
            "ticks": 185280,
            "time": 232.1267205,
            "velocity": 0.3858267716535433
          },
          {
            "duration": 0.49895833333332007,
            "durationTicks": 479,
            "midi": 68,
            "name": "G#4",
            "ticks": 185520,
            "time": 232.3767205,
            "velocity": 0.3858267716535433
          },
          {
            "duration": 0.49895833333332007,
            "durationTicks": 479,
            "midi": 68,
            "name": "G#4",
            "ticks": 186000,
            "time": 232.8767205,
            "velocity": 0.3858267716535433
          },
          {
            "duration": 0.24895833333332007,
            "durationTicks": 239,
            "midi": 68,
            "name": "G#4",
            "ticks": 186480,
            "time": 233.3767205,
            "velocity": 0.3858267716535433
          },
          {
            "duration": 0.24895833333332007,
            "durationTicks": 239,
            "midi": 70,
            "name": "A#4",
            "ticks": 186720,
            "time": 233.6267205,
            "velocity": 0.3858267716535433
          },
          {
            "duration": 0.49895833333332007,
            "durationTicks": 479,
            "midi": 68,
            "name": "G#4",
            "ticks": 186960,
            "time": 233.8767205,
            "velocity": 0.3858267716535433
          },
          {
            "duration": 0.49895833333332007,
            "durationTicks": 479,
            "midi": 68,
            "name": "G#4",
            "ticks": 187440,
            "time": 234.3767205,
            "velocity": 0.3858267716535433
          },
          {
            "duration": 0.24895833333332007,
            "durationTicks": 239,
            "midi": 68,
            "name": "G#4",
            "ticks": 187920,
            "time": 234.8767205,
            "velocity": 0.3858267716535433
          },
          {
            "duration": 0.24895833333332007,
            "durationTicks": 239,
            "midi": 67,
            "name": "G4",
            "ticks": 188160,
            "time": 235.1267205,
            "velocity": 0.3858267716535433
          },
          {
            "duration": 0.49895833333332007,
            "durationTicks": 479,
            "midi": 65,
            "name": "F4",
            "ticks": 188400,
            "time": 235.3767205,
            "velocity": 0.3858267716535433
          },
          {
            "duration": 0.49895833333332007,
            "durationTicks": 479,
            "midi": 65,
            "name": "F4",
            "ticks": 188880,
            "time": 235.8767205,
            "velocity": 0.3858267716535433
          },
          {
            "duration": 0.24895833333332007,
            "durationTicks": 239,
            "midi": 65,
            "name": "F4",
            "ticks": 189360,
            "time": 236.3767205,
            "velocity": 0.3858267716535433
          },
          {
            "duration": 0.24895833333332007,
            "durationTicks": 239,
            "midi": 67,
            "name": "G4",
            "ticks": 189600,
            "time": 236.6267205,
            "velocity": 0.3858267716535433
          },
          {
            "duration": 0.49895833333332007,
            "durationTicks": 479,
            "midi": 65,
            "name": "F4",
            "ticks": 189840,
            "time": 236.8767205,
            "velocity": 0.3858267716535433
          },
          {
            "duration": 0.49895833333332007,
            "durationTicks": 479,
            "midi": 65,
            "name": "F4",
            "ticks": 190320,
            "time": 237.3767205,
            "velocity": 0.3858267716535433
          },
          {
            "duration": 0.24895833333332007,
            "durationTicks": 239,
            "midi": 65,
            "name": "F4",
            "ticks": 190800,
            "time": 237.8767205,
            "velocity": 0.3858267716535433
          },
          {
            "duration": 0.24895833333332007,
            "durationTicks": 239,
            "midi": 63,
            "name": "D#4",
            "ticks": 191040,
            "time": 238.1267205,
            "velocity": 0.3858267716535433
          },
          {
            "duration": 1.49895833333332,
            "durationTicks": 1439,
            "midi": 63,
            "name": "D#4",
            "ticks": 191040,
            "time": 238.1267205,
            "velocity": 0.3858267716535433
          },
          {
            "duration": 0.49895833333332007,
            "durationTicks": 479,
            "midi": 72,
            "name": "C5",
            "ticks": 191280,
            "time": 238.3767205,
            "velocity": 0.3858267716535433
          },
          {
            "duration": 0.49895833333332007,
            "durationTicks": 479,
            "midi": 72,
            "name": "C5",
            "ticks": 191760,
            "time": 238.8767205,
            "velocity": 0.3858267716535433
          },
          {
            "duration": 0.24895833333332007,
            "durationTicks": 239,
            "midi": 72,
            "name": "C5",
            "ticks": 192240,
            "time": 239.3767205,
            "velocity": 0.3858267716535433
          },
          {
            "duration": 1.24895833333332,
            "durationTicks": 1199,
            "midi": 63,
            "name": "D#4",
            "ticks": 192480,
            "time": 239.6267205,
            "velocity": 0.3858267716535433
          },
          {
            "duration": 0.24895833333332007,
            "durationTicks": 239,
            "midi": 73,
            "name": "C#5",
            "ticks": 192480,
            "time": 239.6267205,
            "velocity": 0.3858267716535433
          },
          {
            "duration": 0.49895833333332007,
            "durationTicks": 479,
            "midi": 72,
            "name": "C5",
            "ticks": 192720,
            "time": 239.8767205,
            "velocity": 0.3858267716535433
          },
          {
            "duration": 0.49895833333332007,
            "durationTicks": 479,
            "midi": 72,
            "name": "C5",
            "ticks": 193200,
            "time": 240.3767205,
            "velocity": 0.3858267716535433
          },
          {
            "duration": 0.24895833333332007,
            "durationTicks": 239,
            "midi": 63,
            "name": "D#4",
            "ticks": 193680,
            "time": 240.8767205,
            "velocity": 0.3858267716535433
          },
          {
            "duration": 0.24895833333332007,
            "durationTicks": 239,
            "midi": 72,
            "name": "C5",
            "ticks": 193920,
            "time": 241.1267205,
            "velocity": 0.3858267716535433
          },
          {
            "duration": 0.49895833333332007,
            "durationTicks": 479,
            "midi": 70,
            "name": "A#4",
            "ticks": 194160,
            "time": 241.3767205,
            "velocity": 0.3858267716535433
          },
          {
            "duration": 0.49895833333332007,
            "durationTicks": 479,
            "midi": 70,
            "name": "A#4",
            "ticks": 194640,
            "time": 241.8767205,
            "velocity": 0.3858267716535433
          },
          {
            "duration": 0.24895833333332007,
            "durationTicks": 239,
            "midi": 63,
            "name": "D#4",
            "ticks": 195120,
            "time": 242.3767205,
            "velocity": 0.3858267716535433
          },
          {
            "duration": 0.24895833333332007,
            "durationTicks": 239,
            "midi": 73,
            "name": "C#5",
            "ticks": 195360,
            "time": 242.6267205,
            "velocity": 0.3858267716535433
          },
          {
            "duration": 0.49895833333332007,
            "durationTicks": 479,
            "midi": 72,
            "name": "C5",
            "ticks": 195600,
            "time": 242.8767205,
            "velocity": 0.3858267716535433
          },
          {
            "duration": 0.49895833333332007,
            "durationTicks": 479,
            "midi": 70,
            "name": "A#4",
            "ticks": 196080,
            "time": 243.3767205,
            "velocity": 0.3858267716535433
          },
          {
            "duration": 0.24895833333332007,
            "durationTicks": 239,
            "midi": 63,
            "name": "D#4",
            "ticks": 196560,
            "time": 243.8767205,
            "velocity": 0.3858267716535433
          },
          {
            "duration": 0.24895833333332007,
            "durationTicks": 239,
            "midi": 70,
            "name": "A#4",
            "ticks": 196800,
            "time": 244.1267205,
            "velocity": 0.4094488188976378
          },
          {
            "duration": 0.49895833333332007,
            "durationTicks": 479,
            "midi": 68,
            "name": "G#4",
            "ticks": 197040,
            "time": 244.3767205,
            "velocity": 0.4409448818897638
          },
          {
            "duration": 0.47900099791667117,
            "durationTicks": 479,
            "midi": 68,
            "name": "G#4",
            "ticks": 197520,
            "time": 244.8767205,
            "velocity": 0.47244094488188976
          },
          {
            "duration": 0.23900049791669176,
            "durationTicks": 239,
            "midi": 68,
            "name": "G#4",
            "ticks": 198000,
            "time": 245.3567215,
            "velocity": 0.4881889763779528
          },
          {
            "duration": 0.2298074624999913,
            "durationTicks": 239,
            "midi": 70,
            "name": "A#4",
            "ticks": 198240,
            "time": 245.596722,
            "velocity": 0.5039370078740157
          },
          {
            "duration": 0.4605764625000006,
            "durationTicks": 479,
            "midi": 68,
            "name": "G#4",
            "ticks": 198480,
            "time": 245.827491,
            "velocity": 0.5039370078740157
          },
          {
            "duration": 0.4605764625000006,
            "durationTicks": 479,
            "midi": 68,
            "name": "G#4",
            "ticks": 198960,
            "time": 246.289029,
            "velocity": 0.5039370078740157
          },
          {
            "duration": 0.2298074625000197,
            "durationTicks": 239,
            "midi": 68,
            "name": "G#4",
            "ticks": 199440,
            "time": 246.750567,
            "velocity": 0.5039370078740157
          },
          {
            "duration": 0.2298074624999913,
            "durationTicks": 239,
            "midi": 70,
            "name": "A#4",
            "ticks": 199680,
            "time": 246.981336,
            "velocity": 0.5039370078740157
          },
          {
            "duration": 0.4605764625000006,
            "durationTicks": 479,
            "midi": 68,
            "name": "G#4",
            "ticks": 199920,
            "time": 247.212105,
            "velocity": 0.5039370078740157
          },
          {
            "duration": 0.4605764625000006,
            "durationTicks": 479,
            "midi": 68,
            "name": "G#4",
            "ticks": 200400,
            "time": 247.673643,
            "velocity": 0.5039370078740157
          },
          {
            "duration": 0.2298074625000197,
            "durationTicks": 239,
            "midi": 68,
            "name": "G#4",
            "ticks": 200880,
            "time": 248.135181,
            "velocity": 0.5039370078740157
          },
          {
            "duration": 0.2298074624999913,
            "durationTicks": 239,
            "midi": 70,
            "name": "A#4",
            "ticks": 201120,
            "time": 248.36595,
            "velocity": 0.5039370078740157
          },
          {
            "duration": 0.4605764625000006,
            "durationTicks": 479,
            "midi": 68,
            "name": "G#4",
            "ticks": 201360,
            "time": 248.596719,
            "velocity": 0.5039370078740157
          },
          {
            "duration": 0.4605764625000006,
            "durationTicks": 479,
            "midi": 68,
            "name": "G#4",
            "ticks": 201840,
            "time": 249.058257,
            "velocity": 0.5039370078740157
          },
          {
            "duration": 0.2298074625000197,
            "durationTicks": 239,
            "midi": 68,
            "name": "G#4",
            "ticks": 202320,
            "time": 249.519795,
            "velocity": 0.5039370078740157
          },
          {
            "duration": 0.2298074624999913,
            "durationTicks": 239,
            "midi": 73,
            "name": "C#5",
            "ticks": 202560,
            "time": 249.750564,
            "velocity": 0.5039370078740157
          },
          {
            "duration": 1.1528834625000002,
            "durationTicks": 1199,
            "midi": 63,
            "name": "D#4",
            "ticks": 202800,
            "time": 249.981333,
            "velocity": 0.5039370078740157
          },
          {
            "duration": 0.4605764625000006,
            "durationTicks": 479,
            "midi": 72,
            "name": "C5",
            "ticks": 202800,
            "time": 249.981333,
            "velocity": 0.5039370078740157
          },
          {
            "duration": 0.4605764625000006,
            "durationTicks": 479,
            "midi": 72,
            "name": "C5",
            "ticks": 203280,
            "time": 250.442871,
            "velocity": 0.5039370078740157
          },
          {
            "duration": 0.2298074625000197,
            "durationTicks": 239,
            "midi": 72,
            "name": "C5",
            "ticks": 203760,
            "time": 250.904409,
            "velocity": 0.5039370078740157
          },
          {
            "duration": 0.2298074624999913,
            "durationTicks": 239,
            "midi": 73,
            "name": "C#5",
            "ticks": 204000,
            "time": 251.135178,
            "velocity": 0.5039370078740157
          },
          {
            "duration": 0.9221144624999909,
            "durationTicks": 959,
            "midi": 63,
            "name": "D#4",
            "ticks": 204240,
            "time": 251.365947,
            "velocity": 0.5039370078740157
          },
          {
            "duration": 0.4605764625000006,
            "durationTicks": 479,
            "midi": 72,
            "name": "C5",
            "ticks": 204240,
            "time": 251.365947,
            "velocity": 0.5039370078740157
          },
          {
            "duration": 0.4605764625000006,
            "durationTicks": 479,
            "midi": 72,
            "name": "C5",
            "ticks": 204720,
            "time": 251.827485,
            "velocity": 0.5039370078740157
          },
          {
            "duration": 0.2298074625000197,
            "durationTicks": 239,
            "midi": 63,
            "name": "D#4",
            "ticks": 205200,
            "time": 252.289023,
            "velocity": 0.5039370078740157
          },
          {
            "duration": 0.2298074624999913,
            "durationTicks": 239,
            "midi": 72,
            "name": "C5",
            "ticks": 205440,
            "time": 252.519792,
            "velocity": 0.5039370078740157
          },
          {
            "duration": 0.4605764625000006,
            "durationTicks": 479,
            "midi": 70,
            "name": "A#4",
            "ticks": 205680,
            "time": 252.750561,
            "velocity": 0.5039370078740157
          },
          {
            "duration": 0.4605764625000006,
            "durationTicks": 479,
            "midi": 70,
            "name": "A#4",
            "ticks": 206160,
            "time": 253.212099,
            "velocity": 0.5039370078740157
          },
          {
            "duration": 0.2298074625000197,
            "durationTicks": 239,
            "midi": 63,
            "name": "D#4",
            "ticks": 206640,
            "time": 253.67363699999999,
            "velocity": 0.5039370078740157
          },
          {
            "duration": 0.2298074624999913,
            "durationTicks": 239,
            "midi": 73,
            "name": "C#5",
            "ticks": 206880,
            "time": 253.904406,
            "velocity": 0.5039370078740157
          },
          {
            "duration": 0.4605764625000006,
            "durationTicks": 479,
            "midi": 72,
            "name": "C5",
            "ticks": 207120,
            "time": 254.135175,
            "velocity": 0.5039370078740157
          },
          {
            "duration": 0.4605764625000006,
            "durationTicks": 479,
            "midi": 70,
            "name": "A#4",
            "ticks": 207600,
            "time": 254.596713,
            "velocity": 0.5039370078740157
          },
          {
            "duration": 0.2298074625000197,
            "durationTicks": 239,
            "midi": 63,
            "name": "D#4",
            "ticks": 208080,
            "time": 255.05825099999998,
            "velocity": 0.5039370078740157
          },
          {
            "duration": 0.2298074624999913,
            "durationTicks": 239,
            "midi": 70,
            "name": "A#4",
            "ticks": 208320,
            "time": 255.28902,
            "velocity": 0.5039370078740157
          },
          {
            "duration": 0.4605764625000006,
            "durationTicks": 479,
            "midi": 68,
            "name": "G#4",
            "ticks": 208560,
            "time": 255.519789,
            "velocity": 0.5039370078740157
          },
          {
            "duration": 0.46057646250002904,
            "durationTicks": 479,
            "midi": 68,
            "name": "G#4",
            "ticks": 209040,
            "time": 255.981327,
            "velocity": 0.5039370078740157
          },
          {
            "duration": 0.2298074624999913,
            "durationTicks": 239,
            "midi": 68,
            "name": "G#4",
            "ticks": 209520,
            "time": 256.442865,
            "velocity": 0.5039370078740157
          },
          {
            "duration": 0.2298074624999913,
            "durationTicks": 239,
            "midi": 70,
            "name": "A#4",
            "ticks": 209760,
            "time": 256.673634,
            "velocity": 0.5039370078740157
          },
          {
            "duration": 0.4605764625000006,
            "durationTicks": 479,
            "midi": 68,
            "name": "G#4",
            "ticks": 210000,
            "time": 256.904403,
            "velocity": 0.5039370078740157
          },
          {
            "duration": 0.4605764625000006,
            "durationTicks": 479,
            "midi": 68,
            "name": "G#4",
            "ticks": 210480,
            "time": 257.365941,
            "velocity": 0.5039370078740157
          },
          {
            "duration": 0.2298074624999913,
            "durationTicks": 239,
            "midi": 68,
            "name": "G#4",
            "ticks": 210960,
            "time": 257.827479,
            "velocity": 0.5039370078740157
          },
          {
            "duration": 0.2298074624999913,
            "durationTicks": 239,
            "midi": 67,
            "name": "G4",
            "ticks": 211200,
            "time": 258.058248,
            "velocity": 0.5039370078740157
          },
          {
            "duration": 0.4605764625000006,
            "durationTicks": 479,
            "midi": 65,
            "name": "F4",
            "ticks": 211440,
            "time": 258.289017,
            "velocity": 0.5039370078740157
          },
          {
            "duration": 0.4605764625000006,
            "durationTicks": 479,
            "midi": 65,
            "name": "F4",
            "ticks": 211920,
            "time": 258.750555,
            "velocity": 0.5039370078740157
          },
          {
            "duration": 0.2298074624999913,
            "durationTicks": 239,
            "midi": 65,
            "name": "F4",
            "ticks": 212400,
            "time": 259.212093,
            "velocity": 0.5039370078740157
          },
          {
            "duration": 0.2298074624999913,
            "durationTicks": 239,
            "midi": 67,
            "name": "G4",
            "ticks": 212640,
            "time": 259.442862,
            "velocity": 0.5039370078740157
          },
          {
            "duration": 0.4605764625000006,
            "durationTicks": 479,
            "midi": 65,
            "name": "F4",
            "ticks": 212880,
            "time": 259.673631,
            "velocity": 0.5039370078740157
          },
          {
            "duration": 0.4605764625000006,
            "durationTicks": 479,
            "midi": 65,
            "name": "F4",
            "ticks": 213360,
            "time": 260.135169,
            "velocity": 0.5039370078740157
          },
          {
            "duration": 0.2298074624999913,
            "durationTicks": 239,
            "midi": 65,
            "name": "F4",
            "ticks": 213840,
            "time": 260.596707,
            "velocity": 0.5039370078740157
          },
          {
            "duration": 0.2298074624999913,
            "durationTicks": 239,
            "midi": 63,
            "name": "D#4",
            "ticks": 214080,
            "time": 260.827476,
            "velocity": 0.5039370078740157
          },
          {
            "duration": 1.383652462500038,
            "durationTicks": 1439,
            "midi": 63,
            "name": "D#4",
            "ticks": 214080,
            "time": 260.827476,
            "velocity": 0.5039370078740157
          },
          {
            "duration": 0.4605764625000006,
            "durationTicks": 479,
            "midi": 72,
            "name": "C5",
            "ticks": 214320,
            "time": 261.058245,
            "velocity": 0.5039370078740157
          },
          {
            "duration": 0.4605764625000006,
            "durationTicks": 479,
            "midi": 72,
            "name": "C5",
            "ticks": 214800,
            "time": 261.519783,
            "velocity": 0.5039370078740157
          },
          {
            "duration": 0.22980746250004813,
            "durationTicks": 239,
            "midi": 72,
            "name": "C5",
            "ticks": 215280,
            "time": 261.981321,
            "velocity": 0.5039370078740157
          },
          {
            "duration": 1.1528834625000286,
            "durationTicks": 1199,
            "midi": 63,
            "name": "D#4",
            "ticks": 215520,
            "time": 262.21209,
            "velocity": 0.5039370078740157
          },
          {
            "duration": 0.2298074624999913,
            "durationTicks": 239,
            "midi": 73,
            "name": "C#5",
            "ticks": 215520,
            "time": 262.21209,
            "velocity": 0.5039370078740157
          },
          {
            "duration": 0.4605764625000006,
            "durationTicks": 479,
            "midi": 72,
            "name": "C5",
            "ticks": 215760,
            "time": 262.442859,
            "velocity": 0.5039370078740157
          },
          {
            "duration": 0.4605764625000006,
            "durationTicks": 479,
            "midi": 72,
            "name": "C5",
            "ticks": 216240,
            "time": 262.904397,
            "velocity": 0.5039370078740157
          },
          {
            "duration": 0.2298074624999913,
            "durationTicks": 239,
            "midi": 63,
            "name": "D#4",
            "ticks": 216720,
            "time": 263.365935,
            "velocity": 0.5039370078740157
          },
          {
            "duration": 0.2298074624999913,
            "durationTicks": 239,
            "midi": 72,
            "name": "C5",
            "ticks": 216960,
            "time": 263.596704,
            "velocity": 0.5039370078740157
          },
          {
            "duration": 0.4605764625000006,
            "durationTicks": 479,
            "midi": 70,
            "name": "A#4",
            "ticks": 217200,
            "time": 263.827473,
            "velocity": 0.5039370078740157
          },
          {
            "duration": 0.4605764625000006,
            "durationTicks": 479,
            "midi": 70,
            "name": "A#4",
            "ticks": 217680,
            "time": 264.289011,
            "velocity": 0.5039370078740157
          },
          {
            "duration": 0.22980746250004813,
            "durationTicks": 239,
            "midi": 63,
            "name": "D#4",
            "ticks": 218160,
            "time": 264.750549,
            "velocity": 0.5039370078740157
          },
          {
            "duration": 0.2298074624999913,
            "durationTicks": 239,
            "midi": 73,
            "name": "C#5",
            "ticks": 218400,
            "time": 264.981318,
            "velocity": 0.5039370078740157
          },
          {
            "duration": 0.4605764625000006,
            "durationTicks": 479,
            "midi": 72,
            "name": "C5",
            "ticks": 218640,
            "time": 265.212087,
            "velocity": 0.5039370078740157
          },
          {
            "duration": 0.4605764625000006,
            "durationTicks": 479,
            "midi": 70,
            "name": "A#4",
            "ticks": 219120,
            "time": 265.673625,
            "velocity": 0.5039370078740157
          },
          {
            "duration": 0.2298074624999913,
            "durationTicks": 239,
            "midi": 63,
            "name": "D#4",
            "ticks": 219600,
            "time": 266.135163,
            "velocity": 0.5039370078740157
          },
          {
            "duration": 0.2298074624999913,
            "durationTicks": 239,
            "midi": 68,
            "name": "G#4",
            "ticks": 219840,
            "time": 266.365932,
            "velocity": 0.5669291338582677
          },
          {
            "duration": 0.2298074624999913,
            "durationTicks": 239,
            "midi": 67,
            "name": "G4",
            "ticks": 220080,
            "time": 266.596701,
            "velocity": 0.5669291338582677
          },
          {
            "duration": 0.2298074624999913,
            "durationTicks": 239,
            "midi": 65,
            "name": "F4",
            "ticks": 220320,
            "time": 266.82747,
            "velocity": 0.5669291338582677
          },
          {
            "duration": 0.2298074624999913,
            "durationTicks": 239,
            "midi": 68,
            "name": "G#4",
            "ticks": 220560,
            "time": 267.058239,
            "velocity": 0.5669291338582677
          },
          {
            "duration": 0.2298074624999913,
            "durationTicks": 239,
            "midi": 67,
            "name": "G4",
            "ticks": 220800,
            "time": 267.289008,
            "velocity": 0.5669291338582677
          },
          {
            "duration": 0.22980746250004813,
            "durationTicks": 239,
            "midi": 65,
            "name": "F4",
            "ticks": 221040,
            "time": 267.519777,
            "velocity": 0.5669291338582677
          },
          {
            "duration": 0.2298074624999913,
            "durationTicks": 239,
            "midi": 72,
            "name": "C5",
            "ticks": 221280,
            "time": 267.750546,
            "velocity": 0.5669291338582677
          },
          {
            "duration": 0.2298074624999913,
            "durationTicks": 239,
            "midi": 65,
            "name": "F4",
            "ticks": 221520,
            "time": 267.981315,
            "velocity": 0.5669291338582677
          },
          {
            "duration": 0.2298074624999913,
            "durationTicks": 239,
            "midi": 67,
            "name": "G4",
            "ticks": 221760,
            "time": 268.212084,
            "velocity": 0.5669291338582677
          },
          {
            "duration": 0.2298074624999913,
            "durationTicks": 239,
            "midi": 68,
            "name": "G#4",
            "ticks": 222000,
            "time": 268.442853,
            "velocity": 0.5669291338582677
          },
          {
            "duration": 0.2298074624999913,
            "durationTicks": 239,
            "midi": 67,
            "name": "G4",
            "ticks": 222240,
            "time": 268.673622,
            "velocity": 0.5669291338582677
          },
          {
            "duration": 0.22980746250004813,
            "durationTicks": 239,
            "midi": 65,
            "name": "F4",
            "ticks": 222480,
            "time": 268.904391,
            "velocity": 0.5669291338582677
          },
          {
            "duration": 0.2298074624999913,
            "durationTicks": 239,
            "midi": 68,
            "name": "G#4",
            "ticks": 222720,
            "time": 269.13516,
            "velocity": 0.5669291338582677
          },
          {
            "duration": 0.2298074624999913,
            "durationTicks": 239,
            "midi": 67,
            "name": "G4",
            "ticks": 222960,
            "time": 269.365929,
            "velocity": 0.5669291338582677
          },
          {
            "duration": 0.2298074624999913,
            "durationTicks": 239,
            "midi": 65,
            "name": "F4",
            "ticks": 223200,
            "time": 269.596698,
            "velocity": 0.5669291338582677
          },
          {
            "duration": 0.2298074624999913,
            "durationTicks": 239,
            "midi": 68,
            "name": "G#4",
            "ticks": 223440,
            "time": 269.827467,
            "velocity": 0.5669291338582677
          },
          {
            "duration": 0.2298074624999913,
            "durationTicks": 239,
            "midi": 67,
            "name": "G4",
            "ticks": 223680,
            "time": 270.058236,
            "velocity": 0.5669291338582677
          },
          {
            "duration": 0.22980746250004813,
            "durationTicks": 239,
            "midi": 65,
            "name": "F4",
            "ticks": 223920,
            "time": 270.289005,
            "velocity": 0.5669291338582677
          },
          {
            "duration": 0.2298074624999913,
            "durationTicks": 239,
            "midi": 73,
            "name": "C#5",
            "ticks": 224160,
            "time": 270.519774,
            "velocity": 0.5669291338582677
          },
          {
            "duration": 0.2298074624999913,
            "durationTicks": 239,
            "midi": 65,
            "name": "F4",
            "ticks": 224400,
            "time": 270.750543,
            "velocity": 0.5669291338582677
          },
          {
            "duration": 0.2298074624999913,
            "durationTicks": 239,
            "midi": 67,
            "name": "G4",
            "ticks": 224640,
            "time": 270.981312,
            "velocity": 0.5669291338582677
          },
          {
            "duration": 0.2298074624999913,
            "durationTicks": 239,
            "midi": 68,
            "name": "G#4",
            "ticks": 224880,
            "time": 271.212081,
            "velocity": 0.5669291338582677
          },
          {
            "duration": 0.2298074624999913,
            "durationTicks": 239,
            "midi": 67,
            "name": "G4",
            "ticks": 225120,
            "time": 271.44285,
            "velocity": 0.5669291338582677
          },
          {
            "duration": 0.22980746250004813,
            "durationTicks": 239,
            "midi": 65,
            "name": "F4",
            "ticks": 225360,
            "time": 271.673619,
            "velocity": 0.5669291338582677
          },
          {
            "duration": 0.2298074624999913,
            "durationTicks": 239,
            "midi": 72,
            "name": "C5",
            "ticks": 225600,
            "time": 271.904388,
            "velocity": 0.5669291338582677
          },
          {
            "duration": 0.2298074624999913,
            "durationTicks": 239,
            "midi": 70,
            "name": "A#4",
            "ticks": 225840,
            "time": 272.135157,
            "velocity": 0.5669291338582677
          },
          {
            "duration": 0.2298074624999913,
            "durationTicks": 239,
            "midi": 68,
            "name": "G#4",
            "ticks": 226080,
            "time": 272.365926,
            "velocity": 0.5669291338582677
          },
          {
            "duration": 0.2298074624999913,
            "durationTicks": 239,
            "midi": 72,
            "name": "C5",
            "ticks": 226320,
            "time": 272.596695,
            "velocity": 0.5669291338582677
          },
          {
            "duration": 0.2298074624999913,
            "durationTicks": 239,
            "midi": 70,
            "name": "A#4",
            "ticks": 226560,
            "time": 272.827464,
            "velocity": 0.5669291338582677
          },
          {
            "duration": 0.22980746250004813,
            "durationTicks": 239,
            "midi": 68,
            "name": "G#4",
            "ticks": 226800,
            "time": 273.058233,
            "velocity": 0.5669291338582677
          },
          {
            "duration": 0.2298074624999913,
            "durationTicks": 239,
            "midi": 75,
            "name": "D#5",
            "ticks": 227040,
            "time": 273.289002,
            "velocity": 0.5669291338582677
          },
          {
            "duration": 0.2298074624999913,
            "durationTicks": 239,
            "midi": 68,
            "name": "G#4",
            "ticks": 227280,
            "time": 273.519771,
            "velocity": 0.5669291338582677
          },
          {
            "duration": 0.2298074624999913,
            "durationTicks": 239,
            "midi": 70,
            "name": "A#4",
            "ticks": 227520,
            "time": 273.75054,
            "velocity": 0.5669291338582677
          },
          {
            "duration": 0.2298074624999913,
            "durationTicks": 239,
            "midi": 72,
            "name": "C5",
            "ticks": 227760,
            "time": 273.981309,
            "velocity": 0.5669291338582677
          },
          {
            "duration": 0.2298074624999913,
            "durationTicks": 239,
            "midi": 70,
            "name": "A#4",
            "ticks": 228000,
            "time": 274.212078,
            "velocity": 0.5669291338582677
          },
          {
            "duration": 0.22980746250004813,
            "durationTicks": 239,
            "midi": 68,
            "name": "G#4",
            "ticks": 228240,
            "time": 274.442847,
            "velocity": 0.5669291338582677
          },
          {
            "duration": 0.2298074624999913,
            "durationTicks": 239,
            "midi": 70,
            "name": "A#4",
            "ticks": 228480,
            "time": 274.673616,
            "velocity": 0.5669291338582677
          },
          {
            "duration": 0.2298074624999913,
            "durationTicks": 239,
            "midi": 68,
            "name": "G#4",
            "ticks": 228720,
            "time": 274.904385,
            "velocity": 0.5669291338582677
          },
          {
            "duration": 0.2298074624999913,
            "durationTicks": 239,
            "midi": 67,
            "name": "G4",
            "ticks": 228960,
            "time": 275.135154,
            "velocity": 0.5669291338582677
          },
          {
            "duration": 0.2298074624999913,
            "durationTicks": 239,
            "midi": 70,
            "name": "A#4",
            "ticks": 229200,
            "time": 275.365923,
            "velocity": 0.5669291338582677
          },
          {
            "duration": 0.2298074624999913,
            "durationTicks": 239,
            "midi": 68,
            "name": "G#4",
            "ticks": 229440,
            "time": 275.596692,
            "velocity": 0.5669291338582677
          },
          {
            "duration": 0.22980746250004813,
            "durationTicks": 239,
            "midi": 67,
            "name": "G4",
            "ticks": 229680,
            "time": 275.82746099999997,
            "velocity": 0.5669291338582677
          },
          {
            "duration": 0.2298074624999913,
            "durationTicks": 239,
            "midi": 75,
            "name": "D#5",
            "ticks": 229920,
            "time": 276.05823,
            "velocity": 0.5669291338582677
          },
          {
            "duration": 0.2298074624999913,
            "durationTicks": 239,
            "midi": 67,
            "name": "G4",
            "ticks": 230160,
            "time": 276.288999,
            "velocity": 0.5669291338582677
          },
          {
            "duration": 0.2298074624999913,
            "durationTicks": 239,
            "midi": 68,
            "name": "G#4",
            "ticks": 230400,
            "time": 276.519768,
            "velocity": 0.5669291338582677
          },
          {
            "duration": 0.2298074624999913,
            "durationTicks": 239,
            "midi": 70,
            "name": "A#4",
            "ticks": 230640,
            "time": 276.750537,
            "velocity": 0.5669291338582677
          },
          {
            "duration": 0.2298074624999913,
            "durationTicks": 239,
            "midi": 68,
            "name": "G#4",
            "ticks": 230880,
            "time": 276.981306,
            "velocity": 0.5669291338582677
          },
          {
            "duration": 0.22980746250004813,
            "durationTicks": 239,
            "midi": 67,
            "name": "G4",
            "ticks": 231120,
            "time": 277.21207499999997,
            "velocity": 0.5669291338582677
          },
          {
            "duration": 0.2298074624999913,
            "durationTicks": 239,
            "midi": 68,
            "name": "G#4",
            "ticks": 231360,
            "time": 277.442844,
            "velocity": 0.5669291338582677
          },
          {
            "duration": 0.2298074624999913,
            "durationTicks": 239,
            "midi": 67,
            "name": "G4",
            "ticks": 231600,
            "time": 277.673613,
            "velocity": 0.5669291338582677
          },
          {
            "duration": 0.2298074624999913,
            "durationTicks": 239,
            "midi": 65,
            "name": "F4",
            "ticks": 231840,
            "time": 277.904382,
            "velocity": 0.5669291338582677
          },
          {
            "duration": 0.2298074624999913,
            "durationTicks": 239,
            "midi": 68,
            "name": "G#4",
            "ticks": 232080,
            "time": 278.135151,
            "velocity": 0.5669291338582677
          },
          {
            "duration": 0.2298074624999913,
            "durationTicks": 239,
            "midi": 67,
            "name": "G4",
            "ticks": 232320,
            "time": 278.36592,
            "velocity": 0.5669291338582677
          },
          {
            "duration": 0.22980746250004813,
            "durationTicks": 239,
            "midi": 65,
            "name": "F4",
            "ticks": 232560,
            "time": 278.59668899999997,
            "velocity": 0.5669291338582677
          },
          {
            "duration": 0.22980746250004813,
            "durationTicks": 239,
            "midi": 72,
            "name": "C5",
            "ticks": 232800,
            "time": 278.827458,
            "velocity": 0.5669291338582677
          },
          {
            "duration": 0.2298074624999913,
            "durationTicks": 239,
            "midi": 65,
            "name": "F4",
            "ticks": 233040,
            "time": 279.058227,
            "velocity": 0.5669291338582677
          },
          {
            "duration": 0.2298074624999913,
            "durationTicks": 239,
            "midi": 67,
            "name": "G4",
            "ticks": 233280,
            "time": 279.288996,
            "velocity": 0.5669291338582677
          },
          {
            "duration": 0.2298074624999913,
            "durationTicks": 239,
            "midi": 68,
            "name": "G#4",
            "ticks": 233520,
            "time": 279.519765,
            "velocity": 0.5669291338582677
          },
          {
            "duration": 0.2298074624999913,
            "durationTicks": 239,
            "midi": 67,
            "name": "G4",
            "ticks": 233760,
            "time": 279.750534,
            "velocity": 0.5669291338582677
          },
          {
            "duration": 0.2298074624999913,
            "durationTicks": 239,
            "midi": 65,
            "name": "F4",
            "ticks": 234000,
            "time": 279.981303,
            "velocity": 0.5669291338582677
          },
          {
            "duration": 0.2298074624999913,
            "durationTicks": 239,
            "midi": 68,
            "name": "G#4",
            "ticks": 234240,
            "time": 280.212072,
            "velocity": 0.5669291338582677
          },
          {
            "duration": 0.2298074624999913,
            "durationTicks": 239,
            "midi": 67,
            "name": "G4",
            "ticks": 234480,
            "time": 280.442841,
            "velocity": 0.5669291338582677
          },
          {
            "duration": 0.2298074624999913,
            "durationTicks": 239,
            "midi": 65,
            "name": "F4",
            "ticks": 234720,
            "time": 280.67361,
            "velocity": 0.5669291338582677
          },
          {
            "duration": 0.2298074624999913,
            "durationTicks": 239,
            "midi": 68,
            "name": "G#4",
            "ticks": 234960,
            "time": 280.904379,
            "velocity": 0.5669291338582677
          },
          {
            "duration": 0.2298074624999913,
            "durationTicks": 239,
            "midi": 67,
            "name": "G4",
            "ticks": 235200,
            "time": 281.135148,
            "velocity": 0.5669291338582677
          },
          {
            "duration": 0.22980746250004813,
            "durationTicks": 239,
            "midi": 65,
            "name": "F4",
            "ticks": 235440,
            "time": 281.36591699999997,
            "velocity": 0.5669291338582677
          },
          {
            "duration": 0.22980746250004813,
            "durationTicks": 239,
            "midi": 73,
            "name": "C#5",
            "ticks": 235680,
            "time": 281.596686,
            "velocity": 0.5669291338582677
          },
          {
            "duration": 0.2298074624999913,
            "durationTicks": 239,
            "midi": 65,
            "name": "F4",
            "ticks": 235920,
            "time": 281.827455,
            "velocity": 0.5669291338582677
          },
          {
            "duration": 0.2298074624999913,
            "durationTicks": 239,
            "midi": 67,
            "name": "G4",
            "ticks": 236160,
            "time": 282.058224,
            "velocity": 0.5669291338582677
          },
          {
            "duration": 0.2298074624999913,
            "durationTicks": 239,
            "midi": 68,
            "name": "G#4",
            "ticks": 236400,
            "time": 282.288993,
            "velocity": 0.5669291338582677
          },
          {
            "duration": 0.2298074624999913,
            "durationTicks": 239,
            "midi": 67,
            "name": "G4",
            "ticks": 236640,
            "time": 282.519762,
            "velocity": 0.5669291338582677
          },
          {
            "duration": 0.2298074624999913,
            "durationTicks": 239,
            "midi": 65,
            "name": "F4",
            "ticks": 236880,
            "time": 282.750531,
            "velocity": 0.5669291338582677
          },
          {
            "duration": 0.2298074624999913,
            "durationTicks": 239,
            "midi": 72,
            "name": "C5",
            "ticks": 237120,
            "time": 282.9813,
            "velocity": 0.5669291338582677
          },
          {
            "duration": 0.2298074624999913,
            "durationTicks": 239,
            "midi": 70,
            "name": "A#4",
            "ticks": 237360,
            "time": 283.212069,
            "velocity": 0.5669291338582677
          },
          {
            "duration": 0.2298074624999913,
            "durationTicks": 239,
            "midi": 68,
            "name": "G#4",
            "ticks": 237600,
            "time": 283.442838,
            "velocity": 0.5669291338582677
          },
          {
            "duration": 0.2298074624999913,
            "durationTicks": 239,
            "midi": 72,
            "name": "C5",
            "ticks": 237840,
            "time": 283.673607,
            "velocity": 0.5669291338582677
          },
          {
            "duration": 0.2298074624999913,
            "durationTicks": 239,
            "midi": 70,
            "name": "A#4",
            "ticks": 238080,
            "time": 283.904376,
            "velocity": 0.5669291338582677
          },
          {
            "duration": 0.22980746250004813,
            "durationTicks": 239,
            "midi": 68,
            "name": "G#4",
            "ticks": 238320,
            "time": 284.13514499999997,
            "velocity": 0.5669291338582677
          },
          {
            "duration": 0.22980746250004813,
            "durationTicks": 239,
            "midi": 75,
            "name": "D#5",
            "ticks": 238560,
            "time": 284.365914,
            "velocity": 0.5669291338582677
          },
          {
            "duration": 0.2298074624999913,
            "durationTicks": 239,
            "midi": 68,
            "name": "G#4",
            "ticks": 238800,
            "time": 284.596683,
            "velocity": 0.5669291338582677
          },
          {
            "duration": 0.2298074624999913,
            "durationTicks": 239,
            "midi": 70,
            "name": "A#4",
            "ticks": 239040,
            "time": 284.827452,
            "velocity": 0.5669291338582677
          },
          {
            "duration": 0.2298074624999913,
            "durationTicks": 239,
            "midi": 72,
            "name": "C5",
            "ticks": 239280,
            "time": 285.058221,
            "velocity": 0.5669291338582677
          },
          {
            "duration": 0.2298074624999913,
            "durationTicks": 239,
            "midi": 70,
            "name": "A#4",
            "ticks": 239520,
            "time": 285.28899,
            "velocity": 0.5669291338582677
          },
          {
            "duration": 0.2298074624999913,
            "durationTicks": 239,
            "midi": 68,
            "name": "G#4",
            "ticks": 239760,
            "time": 285.519759,
            "velocity": 0.5669291338582677
          },
          {
            "duration": 0.2298074624999913,
            "durationTicks": 239,
            "midi": 70,
            "name": "A#4",
            "ticks": 240000,
            "time": 285.750528,
            "velocity": 0.5669291338582677
          },
          {
            "duration": 0.2298074624999913,
            "durationTicks": 239,
            "midi": 68,
            "name": "G#4",
            "ticks": 240240,
            "time": 285.981297,
            "velocity": 0.5669291338582677
          },
          {
            "duration": 0.2298074624999913,
            "durationTicks": 239,
            "midi": 67,
            "name": "G4",
            "ticks": 240480,
            "time": 286.212066,
            "velocity": 0.5669291338582677
          },
          {
            "duration": 0.2298074624999913,
            "durationTicks": 239,
            "midi": 70,
            "name": "A#4",
            "ticks": 240720,
            "time": 286.442835,
            "velocity": 0.5669291338582677
          },
          {
            "duration": 0.2298074624999913,
            "durationTicks": 239,
            "midi": 68,
            "name": "G#4",
            "ticks": 240960,
            "time": 286.673604,
            "velocity": 0.5669291338582677
          },
          {
            "duration": 0.22980746250004813,
            "durationTicks": 239,
            "midi": 67,
            "name": "G4",
            "ticks": 241200,
            "time": 286.90437299999996,
            "velocity": 0.5669291338582677
          },
          {
            "duration": 0.22980746250004813,
            "durationTicks": 239,
            "midi": 75,
            "name": "D#5",
            "ticks": 241440,
            "time": 287.135142,
            "velocity": 0.5669291338582677
          },
          {
            "duration": 0.2298074624999913,
            "durationTicks": 239,
            "midi": 67,
            "name": "G4",
            "ticks": 241680,
            "time": 287.365911,
            "velocity": 0.5669291338582677
          },
          {
            "duration": 0.2298074624999913,
            "durationTicks": 239,
            "midi": 68,
            "name": "G#4",
            "ticks": 241920,
            "time": 287.59668,
            "velocity": 0.5669291338582677
          },
          {
            "duration": 0.2298074624999913,
            "durationTicks": 239,
            "midi": 70,
            "name": "A#4",
            "ticks": 242160,
            "time": 287.827449,
            "velocity": 0.5669291338582677
          },
          {
            "duration": 0.2298074624999913,
            "durationTicks": 239,
            "midi": 68,
            "name": "G#4",
            "ticks": 242400,
            "time": 288.058218,
            "velocity": 0.5669291338582677
          },
          {
            "duration": 0.2298074624999913,
            "durationTicks": 239,
            "midi": 67,
            "name": "G4",
            "ticks": 242640,
            "time": 288.288987,
            "velocity": 0.5669291338582677
          },
          {
            "duration": 0.6913454625000099,
            "durationTicks": 719,
            "midi": 80,
            "name": "G#5",
            "ticks": 242880,
            "time": 288.519756,
            "velocity": 0.6299212598425197
          },
          {
            "duration": 0.2298074624999913,
            "durationTicks": 239,
            "midi": 68,
            "name": "G#4",
            "ticks": 243120,
            "time": 288.750525,
            "velocity": 0.6299212598425197
          },
          {
            "duration": 0.2298074624999913,
            "durationTicks": 239,
            "midi": 72,
            "name": "C5",
            "ticks": 243360,
            "time": 288.981294,
            "velocity": 0.6299212598425197
          },
          {
            "duration": 0.6913454625000099,
            "durationTicks": 719,
            "midi": 79,
            "name": "G5",
            "ticks": 243600,
            "time": 289.212063,
            "velocity": 0.6299212598425197
          },
          {
            "duration": 0.2298074624999913,
            "durationTicks": 239,
            "midi": 68,
            "name": "G#4",
            "ticks": 243840,
            "time": 289.442832,
            "velocity": 0.6299212598425197
          },
          {
            "duration": 0.2298074624999913,
            "durationTicks": 239,
            "midi": 72,
            "name": "C5",
            "ticks": 244080,
            "time": 289.673601,
            "velocity": 0.6299212598425197
          },
          {
            "duration": 0.6913454625000099,
            "durationTicks": 719,
            "midi": 77,
            "name": "F5",
            "ticks": 244320,
            "time": 289.90437,
            "velocity": 0.6299212598425197
          },
          {
            "duration": 0.2298074624999913,
            "durationTicks": 239,
            "midi": 68,
            "name": "G#4",
            "ticks": 244560,
            "time": 290.135139,
            "velocity": 0.6299212598425197
          },
          {
            "duration": 0.2298074624999913,
            "durationTicks": 239,
            "midi": 73,
            "name": "C#5",
            "ticks": 244800,
            "time": 290.365908,
            "velocity": 0.6299212598425197
          },
          {
            "duration": 0.4605764625000006,
            "durationTicks": 479,
            "midi": 75,
            "name": "D#5",
            "ticks": 245040,
            "time": 290.596677,
            "velocity": 0.6299212598425197
          },
          {
            "duration": 0.2298074624999913,
            "durationTicks": 239,
            "midi": 68,
            "name": "G#4",
            "ticks": 245280,
            "time": 290.827446,
            "velocity": 0.6299212598425197
          },
          {
            "duration": 0.2298074624999913,
            "durationTicks": 239,
            "midi": 73,
            "name": "C#5",
            "ticks": 245520,
            "time": 291.058215,
            "velocity": 0.6299212598425197
          },
          {
            "duration": 0.6913454625000099,
            "durationTicks": 719,
            "midi": 75,
            "name": "D#5",
            "ticks": 245760,
            "time": 291.28898399999997,
            "velocity": 0.6299212598425197
          },
          {
            "duration": 0.2298074624999913,
            "durationTicks": 239,
            "midi": 68,
            "name": "G#4",
            "ticks": 246000,
            "time": 291.519753,
            "velocity": 0.6299212598425197
          },
          {
            "duration": 0.2298074624999913,
            "durationTicks": 239,
            "midi": 72,
            "name": "C5",
            "ticks": 246240,
            "time": 291.750522,
            "velocity": 0.6299212598425197
          },
          {
            "duration": 0.6913454625000099,
            "durationTicks": 719,
            "midi": 75,
            "name": "D#5",
            "ticks": 246480,
            "time": 291.981291,
            "velocity": 0.6299212598425197
          },
          {
            "duration": 0.2298074624999913,
            "durationTicks": 239,
            "midi": 68,
            "name": "G#4",
            "ticks": 246720,
            "time": 292.21206,
            "velocity": 0.6299212598425197
          },
          {
            "duration": 0.2298074624999913,
            "durationTicks": 239,
            "midi": 72,
            "name": "C5",
            "ticks": 246960,
            "time": 292.442829,
            "velocity": 0.6299212598425197
          },
          {
            "duration": 0.6913454625000099,
            "durationTicks": 719,
            "midi": 75,
            "name": "D#5",
            "ticks": 247200,
            "time": 292.67359799999997,
            "velocity": 0.6299212598425197
          },
          {
            "duration": 0.2298074624999913,
            "durationTicks": 239,
            "midi": 67,
            "name": "G4",
            "ticks": 247440,
            "time": 292.904367,
            "velocity": 0.6299212598425197
          },
          {
            "duration": 0.2298074624999913,
            "durationTicks": 239,
            "midi": 70,
            "name": "A#4",
            "ticks": 247680,
            "time": 293.135136,
            "velocity": 0.6299212598425197
          },
          {
            "duration": 0.6913454625000099,
            "durationTicks": 719,
            "midi": 75,
            "name": "D#5",
            "ticks": 247920,
            "time": 293.365905,
            "velocity": 0.6299212598425197
          },
          {
            "duration": 0.2298074624999913,
            "durationTicks": 239,
            "midi": 67,
            "name": "G4",
            "ticks": 248160,
            "time": 293.596674,
            "velocity": 0.6299212598425197
          },
          {
            "duration": 0.2298074624999913,
            "durationTicks": 239,
            "midi": 70,
            "name": "A#4",
            "ticks": 248400,
            "time": 293.827443,
            "velocity": 0.6299212598425197
          },
          {
            "duration": 0.4605764624999438,
            "durationTicks": 479,
            "midi": 80,
            "name": "G#5",
            "ticks": 248640,
            "time": 294.058212,
            "velocity": 0.6299212598425197
          },
          {
            "duration": 0.2298074624999913,
            "durationTicks": 239,
            "midi": 68,
            "name": "G#4",
            "ticks": 248880,
            "time": 294.288981,
            "velocity": 0.6299212598425197
          },
          {
            "duration": 0.4605764625000006,
            "durationTicks": 479,
            "midi": 79,
            "name": "G5",
            "ticks": 249120,
            "time": 294.51975,
            "velocity": 0.6299212598425197
          },
          {
            "duration": 0.2298074624999913,
            "durationTicks": 239,
            "midi": 68,
            "name": "G#4",
            "ticks": 249360,
            "time": 294.750519,
            "velocity": 0.6299212598425197
          },
          {
            "duration": 0.4605764625000006,
            "durationTicks": 479,
            "midi": 77,
            "name": "F5",
            "ticks": 249600,
            "time": 294.981288,
            "velocity": 0.6299212598425197
          },
          {
            "duration": 0.2298074624999913,
            "durationTicks": 239,
            "midi": 68,
            "name": "G#4",
            "ticks": 249840,
            "time": 295.212057,
            "velocity": 0.6299212598425197
          },
          {
            "duration": 0.6913454625000099,
            "durationTicks": 719,
            "midi": 77,
            "name": "F5",
            "ticks": 250080,
            "time": 295.44282599999997,
            "velocity": 0.6299212598425197
          },
          {
            "duration": 0.22980746250004813,
            "durationTicks": 239,
            "midi": 68,
            "name": "G#4",
            "ticks": 250320,
            "time": 295.673595,
            "velocity": 0.6299212598425197
          },
          {
            "duration": 0.2298074624999913,
            "durationTicks": 239,
            "midi": 73,
            "name": "C#5",
            "ticks": 250560,
            "time": 295.904364,
            "velocity": 0.6299212598425197
          },
          {
            "duration": 0.4605764625000006,
            "durationTicks": 479,
            "midi": 75,
            "name": "D#5",
            "ticks": 250800,
            "time": 296.135133,
            "velocity": 0.6299212598425197
          },
          {
            "duration": 0.2298074624999913,
            "durationTicks": 239,
            "midi": 68,
            "name": "G#4",
            "ticks": 251040,
            "time": 296.365902,
            "velocity": 0.6299212598425197
          },
          {
            "duration": 0.2298074624999913,
            "durationTicks": 239,
            "midi": 73,
            "name": "C#5",
            "ticks": 251280,
            "time": 296.596671,
            "velocity": 0.6299212598425197
          },
          {
            "duration": 0.6913454624999531,
            "durationTicks": 719,
            "midi": 75,
            "name": "D#5",
            "ticks": 251520,
            "time": 296.82744,
            "velocity": 0.6299212598425197
          },
          {
            "duration": 0.2298074624999913,
            "durationTicks": 239,
            "midi": 68,
            "name": "G#4",
            "ticks": 251760,
            "time": 297.058209,
            "velocity": 0.6299212598425197
          },
          {
            "duration": 0.2298074624999913,
            "durationTicks": 239,
            "midi": 72,
            "name": "C5",
            "ticks": 252000,
            "time": 297.288978,
            "velocity": 0.6299212598425197
          },
          {
            "duration": 0.6913454625000099,
            "durationTicks": 719,
            "midi": 75,
            "name": "D#5",
            "ticks": 252240,
            "time": 297.519747,
            "velocity": 0.6299212598425197
          },
          {
            "duration": 0.2298074624999913,
            "durationTicks": 239,
            "midi": 68,
            "name": "G#4",
            "ticks": 252480,
            "time": 297.750516,
            "velocity": 0.6299212598425197
          },
          {
            "duration": 0.2298074624999913,
            "durationTicks": 239,
            "midi": 72,
            "name": "C5",
            "ticks": 252720,
            "time": 297.981285,
            "velocity": 0.6299212598425197
          },
          {
            "duration": 0.6913454625000099,
            "durationTicks": 719,
            "midi": 75,
            "name": "D#5",
            "ticks": 252960,
            "time": 298.21205399999997,
            "velocity": 0.6299212598425197
          },
          {
            "duration": 0.22980746250004813,
            "durationTicks": 239,
            "midi": 67,
            "name": "G4",
            "ticks": 253200,
            "time": 298.442823,
            "velocity": 0.6299212598425197
          },
          {
            "duration": 0.2298074624999913,
            "durationTicks": 239,
            "midi": 70,
            "name": "A#4",
            "ticks": 253440,
            "time": 298.673592,
            "velocity": 0.6299212598425197
          },
          {
            "duration": 0.6913454625000099,
            "durationTicks": 719,
            "midi": 75,
            "name": "D#5",
            "ticks": 253680,
            "time": 298.904361,
            "velocity": 0.6299212598425197
          },
          {
            "duration": 0.2298074624999913,
            "durationTicks": 239,
            "midi": 67,
            "name": "G4",
            "ticks": 253920,
            "time": 299.13513,
            "velocity": 0.6299212598425197
          },
          {
            "duration": 0.2298074624999913,
            "durationTicks": 239,
            "midi": 70,
            "name": "A#4",
            "ticks": 254160,
            "time": 299.365899,
            "velocity": 0.6299212598425197
          },
          {
            "duration": 0.6913454624999531,
            "durationTicks": 719,
            "midi": 80,
            "name": "G#5",
            "ticks": 254400,
            "time": 299.596668,
            "velocity": 0.6299212598425197
          },
          {
            "duration": 0.2298074624999913,
            "durationTicks": 239,
            "midi": 68,
            "name": "G#4",
            "ticks": 254640,
            "time": 299.827437,
            "velocity": 0.6299212598425197
          },
          {
            "duration": 0.2298074624999913,
            "durationTicks": 239,
            "midi": 72,
            "name": "C5",
            "ticks": 254880,
            "time": 300.058206,
            "velocity": 0.6299212598425197
          },
          {
            "duration": 0.6913454625000099,
            "durationTicks": 719,
            "midi": 79,
            "name": "G5",
            "ticks": 255120,
            "time": 300.288975,
            "velocity": 0.6299212598425197
          },
          {
            "duration": 0.2298074624999913,
            "durationTicks": 239,
            "midi": 68,
            "name": "G#4",
            "ticks": 255360,
            "time": 300.519744,
            "velocity": 0.6299212598425197
          },
          {
            "duration": 0.2298074624999913,
            "durationTicks": 239,
            "midi": 72,
            "name": "C5",
            "ticks": 255600,
            "time": 300.750513,
            "velocity": 0.6299212598425197
          },
          {
            "duration": 0.6913454625000099,
            "durationTicks": 719,
            "midi": 77,
            "name": "F5",
            "ticks": 255840,
            "time": 300.98128199999996,
            "velocity": 0.6299212598425197
          },
          {
            "duration": 0.22980746250004813,
            "durationTicks": 239,
            "midi": 68,
            "name": "G#4",
            "ticks": 256080,
            "time": 301.212051,
            "velocity": 0.6299212598425197
          },
          {
            "duration": 0.2298074624999913,
            "durationTicks": 239,
            "midi": 73,
            "name": "C#5",
            "ticks": 256320,
            "time": 301.44282,
            "velocity": 0.6299212598425197
          },
          {
            "duration": 0.4605764625000006,
            "durationTicks": 479,
            "midi": 75,
            "name": "D#5",
            "ticks": 256560,
            "time": 301.673589,
            "velocity": 0.6299212598425197
          },
          {
            "duration": 0.2298074624999913,
            "durationTicks": 239,
            "midi": 68,
            "name": "G#4",
            "ticks": 256800,
            "time": 301.904358,
            "velocity": 0.6299212598425197
          },
          {
            "duration": 0.2298074624999913,
            "durationTicks": 239,
            "midi": 73,
            "name": "C#5",
            "ticks": 257040,
            "time": 302.135127,
            "velocity": 0.6299212598425197
          },
          {
            "duration": 0.6913454624999531,
            "durationTicks": 719,
            "midi": 75,
            "name": "D#5",
            "ticks": 257280,
            "time": 302.365896,
            "velocity": 0.6299212598425197
          },
          {
            "duration": 0.2298074624999913,
            "durationTicks": 239,
            "midi": 68,
            "name": "G#4",
            "ticks": 257520,
            "time": 302.596665,
            "velocity": 0.6299212598425197
          },
          {
            "duration": 0.2298074624999913,
            "durationTicks": 239,
            "midi": 72,
            "name": "C5",
            "ticks": 257760,
            "time": 302.827434,
            "velocity": 0.6299212598425197
          },
          {
            "duration": 0.6913454625000099,
            "durationTicks": 719,
            "midi": 75,
            "name": "D#5",
            "ticks": 258000,
            "time": 303.058203,
            "velocity": 0.6299212598425197
          },
          {
            "duration": 0.2298074624999913,
            "durationTicks": 239,
            "midi": 68,
            "name": "G#4",
            "ticks": 258240,
            "time": 303.288972,
            "velocity": 0.6299212598425197
          },
          {
            "duration": 0.2298074624999913,
            "durationTicks": 239,
            "midi": 72,
            "name": "C5",
            "ticks": 258480,
            "time": 303.519741,
            "velocity": 0.6299212598425197
          },
          {
            "duration": 0.6913454625000099,
            "durationTicks": 719,
            "midi": 75,
            "name": "D#5",
            "ticks": 258720,
            "time": 303.75050999999996,
            "velocity": 0.6299212598425197
          },
          {
            "duration": 0.22980746250004813,
            "durationTicks": 239,
            "midi": 67,
            "name": "G4",
            "ticks": 258960,
            "time": 303.981279,
            "velocity": 0.6299212598425197
          },
          {
            "duration": 0.2298074624999913,
            "durationTicks": 239,
            "midi": 70,
            "name": "A#4",
            "ticks": 259200,
            "time": 304.212048,
            "velocity": 0.6299212598425197
          },
          {
            "duration": 0.6913454625000099,
            "durationTicks": 719,
            "midi": 75,
            "name": "D#5",
            "ticks": 259440,
            "time": 304.442817,
            "velocity": 0.6299212598425197
          },
          {
            "duration": 0.2298074624999913,
            "durationTicks": 239,
            "midi": 67,
            "name": "G4",
            "ticks": 259680,
            "time": 304.673586,
            "velocity": 0.6299212598425197
          },
          {
            "duration": 0.2298074624999913,
            "durationTicks": 239,
            "midi": 70,
            "name": "A#4",
            "ticks": 259920,
            "time": 304.904355,
            "velocity": 0.6299212598425197
          },
          {
            "duration": 0.4605764624999438,
            "durationTicks": 479,
            "midi": 80,
            "name": "G#5",
            "ticks": 260160,
            "time": 305.135124,
            "velocity": 0.6299212598425197
          },
          {
            "duration": 0.2298074624999913,
            "durationTicks": 239,
            "midi": 68,
            "name": "G#4",
            "ticks": 260400,
            "time": 305.36589299999997,
            "velocity": 0.6299212598425197
          },
          {
            "duration": 0.4605764625000006,
            "durationTicks": 479,
            "midi": 79,
            "name": "G5",
            "ticks": 260640,
            "time": 305.596662,
            "velocity": 0.6299212598425197
          },
          {
            "duration": 0.2298074624999913,
            "durationTicks": 239,
            "midi": 68,
            "name": "G#4",
            "ticks": 260880,
            "time": 305.827431,
            "velocity": 0.6299212598425197
          },
          {
            "duration": 0.4605764625000006,
            "durationTicks": 479,
            "midi": 77,
            "name": "F5",
            "ticks": 261120,
            "time": 306.0582,
            "velocity": 0.6299212598425197
          },
          {
            "duration": 0.2298074624999913,
            "durationTicks": 239,
            "midi": 68,
            "name": "G#4",
            "ticks": 261360,
            "time": 306.288969,
            "velocity": 0.6299212598425197
          },
          {
            "duration": 0.6913454625000099,
            "durationTicks": 719,
            "midi": 77,
            "name": "F5",
            "ticks": 261600,
            "time": 306.51973799999996,
            "velocity": 0.6299212598425197
          },
          {
            "duration": 0.22980746250004813,
            "durationTicks": 239,
            "midi": 68,
            "name": "G#4",
            "ticks": 261840,
            "time": 306.75050699999997,
            "velocity": 0.6299212598425197
          },
          {
            "duration": 0.2298074624999913,
            "durationTicks": 239,
            "midi": 73,
            "name": "C#5",
            "ticks": 262080,
            "time": 306.981276,
            "velocity": 0.6299212598425197
          },
          {
            "duration": 0.4605764625000006,
            "durationTicks": 479,
            "midi": 75,
            "name": "D#5",
            "ticks": 262320,
            "time": 307.212045,
            "velocity": 0.6299212598425197
          },
          {
            "duration": 0.2298074624999913,
            "durationTicks": 239,
            "midi": 68,
            "name": "G#4",
            "ticks": 262560,
            "time": 307.442814,
            "velocity": 0.6299212598425197
          },
          {
            "duration": 0.2298074624999913,
            "durationTicks": 239,
            "midi": 73,
            "name": "C#5",
            "ticks": 262800,
            "time": 307.673583,
            "velocity": 0.6299212598425197
          },
          {
            "duration": 0.6913454624999531,
            "durationTicks": 719,
            "midi": 75,
            "name": "D#5",
            "ticks": 263040,
            "time": 307.904352,
            "velocity": 0.6299212598425197
          },
          {
            "duration": 0.22980746250004813,
            "durationTicks": 239,
            "midi": 68,
            "name": "G#4",
            "ticks": 263280,
            "time": 308.13512099999997,
            "velocity": 0.6299212598425197
          },
          {
            "duration": 0.2298074624999913,
            "durationTicks": 239,
            "midi": 72,
            "name": "C5",
            "ticks": 263520,
            "time": 308.36589,
            "velocity": 0.6299212598425197
          },
          {
            "duration": 0.6913454625000099,
            "durationTicks": 719,
            "midi": 75,
            "name": "D#5",
            "ticks": 263760,
            "time": 308.596659,
            "velocity": 0.6299212598425197
          },
          {
            "duration": 0.2298074624999913,
            "durationTicks": 239,
            "midi": 68,
            "name": "G#4",
            "ticks": 264000,
            "time": 308.827428,
            "velocity": 0.6299212598425197
          },
          {
            "duration": 0.2298074624999913,
            "durationTicks": 239,
            "midi": 72,
            "name": "C5",
            "ticks": 264240,
            "time": 309.058197,
            "velocity": 0.6299212598425197
          },
          {
            "duration": 0.7489583333333485,
            "durationTicks": 719,
            "midi": 75,
            "name": "D#5",
            "ticks": 264480,
            "time": 309.288966,
            "velocity": 0.6299212598425197
          },
          {
            "duration": 0.2489583333333485,
            "durationTicks": 239,
            "midi": 67,
            "name": "G4",
            "ticks": 264720,
            "time": 309.538966,
            "velocity": 0.6299212598425197
          },
          {
            "duration": 0.2489583333333485,
            "durationTicks": 239,
            "midi": 70,
            "name": "A#4",
            "ticks": 264960,
            "time": 309.788966,
            "velocity": 0.6299212598425197
          },
          {
            "duration": 2.495833333333337,
            "durationTicks": 719,
            "midi": 75,
            "name": "D#5",
            "ticks": 265200,
            "time": 310.038966,
            "velocity": 0.6299212598425197
          },
          {
            "duration": 13.995833333333337,
            "durationTicks": 3359,
            "midi": 67,
            "name": "G4",
            "ticks": 265440,
            "time": 310.538966,
            "velocity": 0.6299212598425197
          },
          {
            "duration": 0.49791666666664014,
            "durationTicks": 239,
            "midi": 70,
            "name": "A#4",
            "ticks": 268800,
            "time": 324.538966,
            "velocity": 0.3858267716535433
          },
          {
            "duration": 0.2489583333333485,
            "durationTicks": 239,
            "midi": 63,
            "name": "D#4",
            "ticks": 269040,
            "time": 325.038966,
            "velocity": 0.3858267716535433
          },
          {
            "duration": 0.2489583333333485,
            "durationTicks": 239,
            "midi": 65,
            "name": "F4",
            "ticks": 269280,
            "time": 325.288966,
            "velocity": 0.3858267716535433
          },
          {
            "duration": 0.2489583333333485,
            "durationTicks": 239,
            "midi": 68,
            "name": "G#4",
            "ticks": 269520,
            "time": 325.538966,
            "velocity": 0.3858267716535433
          },
          {
            "duration": 0.2489583333333485,
            "durationTicks": 239,
            "midi": 63,
            "name": "D#4",
            "ticks": 269760,
            "time": 325.788966,
            "velocity": 0.3858267716535433
          },
          {
            "duration": 0.2489583333333485,
            "durationTicks": 239,
            "midi": 65,
            "name": "F4",
            "ticks": 270000,
            "time": 326.038966,
            "velocity": 0.3858267716535433
          },
          {
            "duration": 0.2489583333333485,
            "durationTicks": 239,
            "midi": 70,
            "name": "A#4",
            "ticks": 270240,
            "time": 326.288966,
            "velocity": 0.3858267716535433
          },
          {
            "duration": 0.2489583333333485,
            "durationTicks": 239,
            "midi": 63,
            "name": "D#4",
            "ticks": 270480,
            "time": 326.538966,
            "velocity": 0.3858267716535433
          },
          {
            "duration": 0.2489583333333485,
            "durationTicks": 239,
            "midi": 65,
            "name": "F4",
            "ticks": 270720,
            "time": 326.788966,
            "velocity": 0.3858267716535433
          },
          {
            "duration": 0.2489583333333485,
            "durationTicks": 239,
            "midi": 68,
            "name": "G#4",
            "ticks": 270960,
            "time": 327.038966,
            "velocity": 0.3858267716535433
          },
          {
            "duration": 0.2489583333333485,
            "durationTicks": 239,
            "midi": 63,
            "name": "D#4",
            "ticks": 271200,
            "time": 327.288966,
            "velocity": 0.3858267716535433
          },
          {
            "duration": 0.2489583333333485,
            "durationTicks": 239,
            "midi": 65,
            "name": "F4",
            "ticks": 271440,
            "time": 327.538966,
            "velocity": 0.3858267716535433
          },
          {
            "duration": 0.2489583333333485,
            "durationTicks": 239,
            "midi": 70,
            "name": "A#4",
            "ticks": 271680,
            "time": 327.788966,
            "velocity": 0.3858267716535433
          },
          {
            "duration": 0.2489583333333485,
            "durationTicks": 239,
            "midi": 63,
            "name": "D#4",
            "ticks": 271920,
            "time": 328.038966,
            "velocity": 0.3858267716535433
          },
          {
            "duration": 0.2489583333333485,
            "durationTicks": 239,
            "midi": 65,
            "name": "F4",
            "ticks": 272160,
            "time": 328.288966,
            "velocity": 0.3858267716535433
          },
          {
            "duration": 0.2489583333333485,
            "durationTicks": 239,
            "midi": 68,
            "name": "G#4",
            "ticks": 272400,
            "time": 328.538966,
            "velocity": 0.3858267716535433
          },
          {
            "duration": 0.2489583333333485,
            "durationTicks": 239,
            "midi": 63,
            "name": "D#4",
            "ticks": 272640,
            "time": 328.788966,
            "velocity": 0.3858267716535433
          },
          {
            "duration": 0.2489583333333485,
            "durationTicks": 239,
            "midi": 65,
            "name": "F4",
            "ticks": 272880,
            "time": 329.038966,
            "velocity": 0.3858267716535433
          },
          {
            "duration": 0.2489583333333485,
            "durationTicks": 239,
            "midi": 70,
            "name": "A#4",
            "ticks": 273120,
            "time": 329.288966,
            "velocity": 0.3858267716535433
          },
          {
            "duration": 0.2489583333333485,
            "durationTicks": 239,
            "midi": 63,
            "name": "D#4",
            "ticks": 273360,
            "time": 329.538966,
            "velocity": 0.3858267716535433
          },
          {
            "duration": 0.2489583333333485,
            "durationTicks": 239,
            "midi": 65,
            "name": "F4",
            "ticks": 273600,
            "time": 329.788966,
            "velocity": 0.3858267716535433
          },
          {
            "duration": 0.2489583333333485,
            "durationTicks": 239,
            "midi": 72,
            "name": "C5",
            "ticks": 273840,
            "time": 330.038966,
            "velocity": 0.3858267716535433
          },
          {
            "duration": 0.2489583333333485,
            "durationTicks": 239,
            "midi": 63,
            "name": "D#4",
            "ticks": 274080,
            "time": 330.288966,
            "velocity": 0.3858267716535433
          },
          {
            "duration": 0.746874502083358,
            "durationTicks": 239,
            "midi": 65,
            "name": "F4",
            "ticks": 274320,
            "time": 330.538966,
            "velocity": 0.3858267716535433
          },
          {
            "duration": 0.49791666666664014,
            "durationTicks": 239,
            "midi": 70,
            "name": "A#4",
            "ticks": 274560,
            "time": 331.2889655,
            "velocity": 0.3858267716535433
          },
          {
            "duration": 0.2489583333333485,
            "durationTicks": 239,
            "midi": 63,
            "name": "D#4",
            "ticks": 274800,
            "time": 331.7889655,
            "velocity": 0.3858267716535433
          },
          {
            "duration": 0.2489583333333485,
            "durationTicks": 239,
            "midi": 65,
            "name": "F4",
            "ticks": 275040,
            "time": 332.0389655,
            "velocity": 0.3858267716535433
          },
          {
            "duration": 0.2489583333333485,
            "durationTicks": 239,
            "midi": 68,
            "name": "G#4",
            "ticks": 275280,
            "time": 332.2889655,
            "velocity": 0.3858267716535433
          },
          {
            "duration": 0.2489583333333485,
            "durationTicks": 239,
            "midi": 63,
            "name": "D#4",
            "ticks": 275520,
            "time": 332.5389655,
            "velocity": 0.3858267716535433
          },
          {
            "duration": 0.2489583333333485,
            "durationTicks": 239,
            "midi": 65,
            "name": "F4",
            "ticks": 275760,
            "time": 332.7889655,
            "velocity": 0.3858267716535433
          },
          {
            "duration": 0.2489583333333485,
            "durationTicks": 239,
            "midi": 70,
            "name": "A#4",
            "ticks": 276000,
            "time": 333.0389655,
            "velocity": 0.3858267716535433
          },
          {
            "duration": 0.2489583333333485,
            "durationTicks": 239,
            "midi": 63,
            "name": "D#4",
            "ticks": 276240,
            "time": 333.2889655,
            "velocity": 0.3858267716535433
          },
          {
            "duration": 0.2489583333333485,
            "durationTicks": 239,
            "midi": 65,
            "name": "F4",
            "ticks": 276480,
            "time": 333.5389655,
            "velocity": 0.3858267716535433
          },
          {
            "duration": 0.2489583333333485,
            "durationTicks": 239,
            "midi": 72,
            "name": "C5",
            "ticks": 276720,
            "time": 333.7889655,
            "velocity": 0.3858267716535433
          },
          {
            "duration": 0.2489583333333485,
            "durationTicks": 239,
            "midi": 63,
            "name": "D#4",
            "ticks": 276960,
            "time": 334.0389655,
            "velocity": 0.3858267716535433
          },
          {
            "duration": 0.2489583333333485,
            "durationTicks": 239,
            "midi": 65,
            "name": "F4",
            "ticks": 277200,
            "time": 334.2889655,
            "velocity": 0.3858267716535433
          },
          {
            "duration": 0.2489583333333485,
            "durationTicks": 239,
            "midi": 70,
            "name": "A#4",
            "ticks": 277440,
            "time": 334.5389655,
            "velocity": 0.3858267716535433
          },
          {
            "duration": 0.2489583333333485,
            "durationTicks": 239,
            "midi": 63,
            "name": "D#4",
            "ticks": 277680,
            "time": 334.7889655,
            "velocity": 0.3858267716535433
          },
          {
            "duration": 0.2489583333333485,
            "durationTicks": 239,
            "midi": 65,
            "name": "F4",
            "ticks": 277920,
            "time": 335.0389655,
            "velocity": 0.3858267716535433
          },
          {
            "duration": 0.2489583333333485,
            "durationTicks": 239,
            "midi": 68,
            "name": "G#4",
            "ticks": 278160,
            "time": 335.2889655,
            "velocity": 0.3858267716535433
          },
          {
            "duration": 0.2489583333333485,
            "durationTicks": 239,
            "midi": 63,
            "name": "D#4",
            "ticks": 278400,
            "time": 335.5389655,
            "velocity": 0.3858267716535433
          },
          {
            "duration": 0.2489583333333485,
            "durationTicks": 239,
            "midi": 65,
            "name": "F4",
            "ticks": 278640,
            "time": 335.7889655,
            "velocity": 0.3858267716535433
          },
          {
            "duration": 0.2489583333333485,
            "durationTicks": 239,
            "midi": 70,
            "name": "A#4",
            "ticks": 278880,
            "time": 336.0389655,
            "velocity": 0.3858267716535433
          },
          {
            "duration": 0.2489583333333485,
            "durationTicks": 239,
            "midi": 63,
            "name": "D#4",
            "ticks": 279120,
            "time": 336.2889655,
            "velocity": 0.3858267716535433
          },
          {
            "duration": 0.2489583333333485,
            "durationTicks": 239,
            "midi": 65,
            "name": "F4",
            "ticks": 279360,
            "time": 336.5389655,
            "velocity": 0.3858267716535433
          },
          {
            "duration": 2.2468735020833606,
            "durationTicks": 719,
            "midi": 68,
            "name": "G#4",
            "ticks": 279600,
            "time": 336.7889655,
            "velocity": 0.3858267716535433
          },
          {
            "duration": 0.49791666666664014,
            "durationTicks": 239,
            "midi": 70,
            "name": "A#4",
            "ticks": 280320,
            "time": 339.038964,
            "velocity": 0.3858267716535433
          },
          {
            "duration": 0.2489583333333485,
            "durationTicks": 239,
            "midi": 63,
            "name": "D#4",
            "ticks": 280560,
            "time": 339.538964,
            "velocity": 0.3858267716535433
          },
          {
            "duration": 0.2489583333333485,
            "durationTicks": 239,
            "midi": 65,
            "name": "F4",
            "ticks": 280800,
            "time": 339.788964,
            "velocity": 0.3858267716535433
          },
          {
            "duration": 0.2489583333333485,
            "durationTicks": 239,
            "midi": 68,
            "name": "G#4",
            "ticks": 281040,
            "time": 340.038964,
            "velocity": 0.3858267716535433
          },
          {
            "duration": 0.2489583333333485,
            "durationTicks": 239,
            "midi": 63,
            "name": "D#4",
            "ticks": 281280,
            "time": 340.288964,
            "velocity": 0.3858267716535433
          },
          {
            "duration": 0.2489583333333485,
            "durationTicks": 239,
            "midi": 65,
            "name": "F4",
            "ticks": 281520,
            "time": 340.538964,
            "velocity": 0.3858267716535433
          },
          {
            "duration": 0.2489583333333485,
            "durationTicks": 239,
            "midi": 70,
            "name": "A#4",
            "ticks": 281760,
            "time": 340.788964,
            "velocity": 0.3858267716535433
          },
          {
            "duration": 0.2489583333333485,
            "durationTicks": 239,
            "midi": 63,
            "name": "D#4",
            "ticks": 282000,
            "time": 341.038964,
            "velocity": 0.3858267716535433
          },
          {
            "duration": 0.2489583333333485,
            "durationTicks": 239,
            "midi": 65,
            "name": "F4",
            "ticks": 282240,
            "time": 341.288964,
            "velocity": 0.3858267716535433
          },
          {
            "duration": 0.2489583333333485,
            "durationTicks": 239,
            "midi": 72,
            "name": "C5",
            "ticks": 282480,
            "time": 341.538964,
            "velocity": 0.3858267716535433
          },
          {
            "duration": 0.2489583333333485,
            "durationTicks": 239,
            "midi": 63,
            "name": "D#4",
            "ticks": 282720,
            "time": 341.788964,
            "velocity": 0.3858267716535433
          },
          {
            "duration": 0.2489583333333485,
            "durationTicks": 239,
            "midi": 65,
            "name": "F4",
            "ticks": 282960,
            "time": 342.038964,
            "velocity": 0.3858267716535433
          },
          {
            "duration": 0.2489583333333485,
            "durationTicks": 239,
            "midi": 70,
            "name": "A#4",
            "ticks": 283200,
            "time": 342.288964,
            "velocity": 0.3858267716535433
          },
          {
            "duration": 0.2489583333333485,
            "durationTicks": 239,
            "midi": 63,
            "name": "D#4",
            "ticks": 283440,
            "time": 342.538964,
            "velocity": 0.3858267716535433
          },
          {
            "duration": 0.2489583333333485,
            "durationTicks": 239,
            "midi": 65,
            "name": "F4",
            "ticks": 283680,
            "time": 342.788964,
            "velocity": 0.3858267716535433
          },
          {
            "duration": 0.2489583333333485,
            "durationTicks": 239,
            "midi": 68,
            "name": "G#4",
            "ticks": 283920,
            "time": 343.038964,
            "velocity": 0.3858267716535433
          },
          {
            "duration": 0.2489583333333485,
            "durationTicks": 239,
            "midi": 63,
            "name": "D#4",
            "ticks": 284160,
            "time": 343.288964,
            "velocity": 0.3858267716535433
          },
          {
            "duration": 0.2489583333333485,
            "durationTicks": 239,
            "midi": 65,
            "name": "F4",
            "ticks": 284400,
            "time": 343.538964,
            "velocity": 0.3858267716535433
          },
          {
            "duration": 0.2987495020833535,
            "durationTicks": 239,
            "midi": 70,
            "name": "A#4",
            "ticks": 284640,
            "time": 343.788964,
            "velocity": 0.3858267716535433
          },
          {
            "duration": 0.37343849583334077,
            "durationTicks": 239,
            "midi": 63,
            "name": "D#4",
            "ticks": 284880,
            "time": 344.08896350000003,
            "velocity": 0.3858267716535433
          },
          {
            "duration": 0.746874502083358,
            "durationTicks": 239,
            "midi": 65,
            "name": "F4",
            "ticks": 285120,
            "time": 344.46396450000003,
            "velocity": 0.3858267716535433
          },
          {
            "duration": 4.493754493749975,
            "durationTicks": 719,
            "midi": 68,
            "name": "G#4",
            "ticks": 285360,
            "time": 345.21396400000003,
            "velocity": 0.3858267716535433
          }
        ],
        "endOfTrackTicks": 286080
      },
      {
        "channel": 0,
        "controlChanges": {},
        "pitchBends": [],
        "instrument": {
          "family": "piano",
          "name": "acoustic grand piano",
          "number": 0
        },
        "name": "",
        "notes": [
          {
            "duration": 2.9968730020833334,
            "durationTicks": 959,
            "midi": 56,
            "name": "G#3",
            "ticks": 0,
            "time": 0,
            "velocity": 0.5039370078740157
          },
          {
            "duration": 2.9968730020833334,
            "durationTicks": 959,
            "midi": 53,
            "name": "F3",
            "ticks": 0,
            "time": 0,
            "velocity": 0.5039370078740157
          },
          {
            "duration": 2.996873002083334,
            "durationTicks": 959,
            "midi": 56,
            "name": "G#3",
            "ticks": 960,
            "time": 2.999998,
            "velocity": 0.5039370078740157
          },
          {
            "duration": 2.996873002083334,
            "durationTicks": 959,
            "midi": 53,
            "name": "F3",
            "ticks": 960,
            "time": 2.999998,
            "velocity": 0.5039370078740157
          },
          {
            "duration": 2.996873002083334,
            "durationTicks": 959,
            "midi": 49,
            "name": "C#3",
            "ticks": 960,
            "time": 2.999998,
            "velocity": 0.5039370078740157
          },
          {
            "duration": 2.9968730020833343,
            "durationTicks": 959,
            "midi": 56,
            "name": "G#3",
            "ticks": 1920,
            "time": 5.999996,
            "velocity": 0.5039370078740157
          },
          {
            "duration": 2.9968730020833343,
            "durationTicks": 959,
            "midi": 51,
            "name": "D#3",
            "ticks": 1920,
            "time": 5.999996,
            "velocity": 0.5039370078740157
          },
          {
            "duration": 1.4968740020833327,
            "durationTicks": 479,
            "midi": 56,
            "name": "G#3",
            "ticks": 2880,
            "time": 8.999994000000001,
            "velocity": 0.5039370078740157
          },
          {
            "duration": 2.9968730020833334,
            "durationTicks": 959,
            "midi": 51,
            "name": "D#3",
            "ticks": 2880,
            "time": 8.999994000000001,
            "velocity": 0.5039370078740157
          },
          {
            "duration": 1.4968740020833344,
            "durationTicks": 479,
            "midi": 55,
            "name": "G3",
            "ticks": 3360,
            "time": 10.499993,
            "velocity": 0.5039370078740157
          },
          {
            "duration": 2.9968730020833334,
            "durationTicks": 959,
            "midi": 56,
            "name": "G#3",
            "ticks": 3840,
            "time": 11.999992,
            "velocity": 0.5039370078740157
          },
          {
            "duration": 2.9968730020833334,
            "durationTicks": 959,
            "midi": 53,
            "name": "F3",
            "ticks": 3840,
            "time": 11.999992,
            "velocity": 0.5039370078740157
          },
          {
            "duration": 2.9968730020833334,
            "durationTicks": 959,
            "midi": 56,
            "name": "G#3",
            "ticks": 4800,
            "time": 14.99999,
            "velocity": 0.5039370078740157
          },
          {
            "duration": 2.9968730020833334,
            "durationTicks": 959,
            "midi": 53,
            "name": "F3",
            "ticks": 4800,
            "time": 14.99999,
            "velocity": 0.5039370078740157
          },
          {
            "duration": 2.9968730020833334,
            "durationTicks": 959,
            "midi": 49,
            "name": "C#3",
            "ticks": 4800,
            "time": 14.99999,
            "velocity": 0.5039370078740157
          },
          {
            "duration": 3.9958333333333336,
            "durationTicks": 959,
            "midi": 56,
            "name": "G#3",
            "ticks": 5760,
            "time": 17.999988000000002,
            "velocity": 0.5039370078740157
          },
          {
            "duration": 3.9958333333333336,
            "durationTicks": 959,
            "midi": 51,
            "name": "D#3",
            "ticks": 5760,
            "time": 17.999988000000002,
            "velocity": 0.5039370078740157
          },
          {
            "duration": 7.0514790499999975,
            "durationTicks": 959,
            "midi": 55,
            "name": "G3",
            "ticks": 6720,
            "time": 21.999988000000002,
            "velocity": 0.5039370078740157
          },
          {
            "duration": 7.0514790499999975,
            "durationTicks": 959,
            "midi": 51,
            "name": "D#3",
            "ticks": 6720,
            "time": 21.999988000000002,
            "velocity": 0.5039370078740157
          },
          {
            "duration": 2.9989583333333307,
            "durationTicks": 2879,
            "midi": 53,
            "name": "F3",
            "ticks": 7680,
            "time": 29.05882,
            "velocity": 0.3858267716535433
          },
          {
            "duration": 2.9989583333333307,
            "durationTicks": 2879,
            "midi": 48,
            "name": "C3",
            "ticks": 7680,
            "time": 29.05882,
            "velocity": 0.3858267716535433
          },
          {
            "duration": 2.9989583333333307,
            "durationTicks": 2879,
            "midi": 41,
            "name": "F2",
            "ticks": 7680,
            "time": 29.05882,
            "velocity": 0.3858267716535433
          },
          {
            "duration": 2.9989583333333343,
            "durationTicks": 2879,
            "midi": 49,
            "name": "C#3",
            "ticks": 10560,
            "time": 32.05882,
            "velocity": 0.3858267716535433
          },
          {
            "duration": 2.9989583333333343,
            "durationTicks": 2879,
            "midi": 44,
            "name": "G#2",
            "ticks": 10560,
            "time": 32.05882,
            "velocity": 0.3858267716535433
          },
          {
            "duration": 2.9989583333333343,
            "durationTicks": 2879,
            "midi": 37,
            "name": "C#2",
            "ticks": 10560,
            "time": 32.05882,
            "velocity": 0.3858267716535433
          },
          {
            "duration": 2.9989583333333343,
            "durationTicks": 2879,
            "midi": 56,
            "name": "G#3",
            "ticks": 13440,
            "time": 35.05882,
            "velocity": 0.3858267716535433
          },
          {
            "duration": 2.9989583333333343,
            "durationTicks": 2879,
            "midi": 51,
            "name": "D#3",
            "ticks": 13440,
            "time": 35.05882,
            "velocity": 0.3858267716535433
          },
          {
            "duration": 2.9989583333333343,
            "durationTicks": 2879,
            "midi": 44,
            "name": "G#2",
            "ticks": 13440,
            "time": 35.05882,
            "velocity": 0.3858267716535433
          },
          {
            "duration": 2.9989583333333343,
            "durationTicks": 2879,
            "midi": 51,
            "name": "D#3",
            "ticks": 16320,
            "time": 38.05882,
            "velocity": 0.3858267716535433
          },
          {
            "duration": 2.9989583333333343,
            "durationTicks": 2879,
            "midi": 46,
            "name": "A#2",
            "ticks": 16320,
            "time": 38.05882,
            "velocity": 0.3858267716535433
          },
          {
            "duration": 2.9989583333333343,
            "durationTicks": 2879,
            "midi": 39,
            "name": "D#2",
            "ticks": 16320,
            "time": 38.05882,
            "velocity": 0.3858267716535433
          },
          {
            "duration": 2.9989583333333343,
            "durationTicks": 2879,
            "midi": 53,
            "name": "F3",
            "ticks": 19200,
            "time": 41.05882,
            "velocity": 0.3858267716535433
          },
          {
            "duration": 2.9989583333333343,
            "durationTicks": 2879,
            "midi": 48,
            "name": "C3",
            "ticks": 19200,
            "time": 41.05882,
            "velocity": 0.3858267716535433
          },
          {
            "duration": 2.9989583333333343,
            "durationTicks": 2879,
            "midi": 41,
            "name": "F2",
            "ticks": 19200,
            "time": 41.05882,
            "velocity": 0.3858267716535433
          },
          {
            "duration": 2.9989583333333343,
            "durationTicks": 2879,
            "midi": 49,
            "name": "C#3",
            "ticks": 22080,
            "time": 44.05882,
            "velocity": 0.3858267716535433
          },
          {
            "duration": 2.9989583333333343,
            "durationTicks": 2879,
            "midi": 44,
            "name": "G#2",
            "ticks": 22080,
            "time": 44.05882,
            "velocity": 0.3858267716535433
          },
          {
            "duration": 2.9989583333333343,
            "durationTicks": 2879,
            "midi": 37,
            "name": "C#2",
            "ticks": 22080,
            "time": 44.05882,
            "velocity": 0.3858267716535433
          },
          {
            "duration": 2.9989583333333343,
            "durationTicks": 2879,
            "midi": 56,
            "name": "G#3",
            "ticks": 24960,
            "time": 47.05882,
            "velocity": 0.3858267716535433
          },
          {
            "duration": 2.9989583333333343,
            "durationTicks": 2879,
            "midi": 51,
            "name": "D#3",
            "ticks": 24960,
            "time": 47.05882,
            "velocity": 0.3858267716535433
          },
          {
            "duration": 2.9989583333333343,
            "durationTicks": 2879,
            "midi": 44,
            "name": "G#2",
            "ticks": 24960,
            "time": 47.05882,
            "velocity": 0.3858267716535433
          },
          {
            "duration": 2.9989583333333343,
            "durationTicks": 2879,
            "midi": 51,
            "name": "D#3",
            "ticks": 27840,
            "time": 50.05882,
            "velocity": 0.3858267716535433
          },
          {
            "duration": 2.9989583333333343,
            "durationTicks": 2879,
            "midi": 46,
            "name": "A#2",
            "ticks": 27840,
            "time": 50.05882,
            "velocity": 0.3858267716535433
          },
          {
            "duration": 2.9989583333333343,
            "durationTicks": 2879,
            "midi": 39,
            "name": "D#2",
            "ticks": 27840,
            "time": 50.05882,
            "velocity": 0.3858267716535433
          },
          {
            "duration": 0.24895833333333428,
            "durationTicks": 239,
            "midi": 41,
            "name": "F2",
            "ticks": 30720,
            "time": 53.05882,
            "velocity": 0.3858267716535433
          },
          {
            "duration": 0.24895833333333428,
            "durationTicks": 239,
            "midi": 48,
            "name": "C3",
            "ticks": 30960,
            "time": 53.30882,
            "velocity": 0.3858267716535433
          },
          {
            "duration": 0.24895833333333428,
            "durationTicks": 239,
            "midi": 53,
            "name": "F3",
            "ticks": 31200,
            "time": 53.55882,
            "velocity": 0.3858267716535433
          },
          {
            "duration": 0.23900049791666333,
            "durationTicks": 239,
            "midi": 48,
            "name": "C3",
            "ticks": 31440,
            "time": 53.80882,
            "velocity": 0.3858267716535433
          },
          {
            "duration": 0.23900049791666333,
            "durationTicks": 239,
            "midi": 53,
            "name": "F3",
            "ticks": 31680,
            "time": 54.0488205,
            "velocity": 0.3858267716535433
          },
          {
            "duration": 0.23900049791666333,
            "durationTicks": 239,
            "midi": 48,
            "name": "C3",
            "ticks": 31920,
            "time": 54.288821,
            "velocity": 0.3858267716535433
          },
          {
            "duration": 0.2298074624999984,
            "durationTicks": 239,
            "midi": 41,
            "name": "F2",
            "ticks": 32160,
            "time": 54.5288215,
            "velocity": 0.5039370078740157
          },
          {
            "duration": 0.2298074624999984,
            "durationTicks": 239,
            "midi": 48,
            "name": "C3",
            "ticks": 32400,
            "time": 54.7595905,
            "velocity": 0.5039370078740157
          },
          {
            "duration": 0.2298074625000055,
            "durationTicks": 239,
            "midi": 53,
            "name": "F3",
            "ticks": 32640,
            "time": 54.9903595,
            "velocity": 0.5039370078740157
          },
          {
            "duration": 0.2298074624999984,
            "durationTicks": 239,
            "midi": 48,
            "name": "C3",
            "ticks": 32880,
            "time": 55.2211285,
            "velocity": 0.5039370078740157
          },
          {
            "duration": 0.2298074624999984,
            "durationTicks": 239,
            "midi": 53,
            "name": "F3",
            "ticks": 33120,
            "time": 55.4518975,
            "velocity": 0.5039370078740157
          },
          {
            "duration": 0.2298074625000055,
            "durationTicks": 239,
            "midi": 48,
            "name": "C3",
            "ticks": 33360,
            "time": 55.682666499999996,
            "velocity": 0.5039370078740157
          },
          {
            "duration": 0.2298074624999984,
            "durationTicks": 239,
            "midi": 37,
            "name": "C#2",
            "ticks": 33600,
            "time": 55.9134355,
            "velocity": 0.5039370078740157
          },
          {
            "duration": 0.2298074624999984,
            "durationTicks": 239,
            "midi": 44,
            "name": "G#2",
            "ticks": 33840,
            "time": 56.1442045,
            "velocity": 0.5039370078740157
          },
          {
            "duration": 0.2298074625000055,
            "durationTicks": 239,
            "midi": 49,
            "name": "C#3",
            "ticks": 34080,
            "time": 56.374973499999996,
            "velocity": 0.5039370078740157
          },
          {
            "duration": 0.2298074624999984,
            "durationTicks": 239,
            "midi": 44,
            "name": "G#2",
            "ticks": 34320,
            "time": 56.6057425,
            "velocity": 0.5039370078740157
          },
          {
            "duration": 0.2298074624999984,
            "durationTicks": 239,
            "midi": 49,
            "name": "C#3",
            "ticks": 34560,
            "time": 56.8365115,
            "velocity": 0.5039370078740157
          },
          {
            "duration": 0.2298074625000055,
            "durationTicks": 239,
            "midi": 44,
            "name": "G#2",
            "ticks": 34800,
            "time": 57.067280499999995,
            "velocity": 0.5039370078740157
          },
          {
            "duration": 0.2298074624999984,
            "durationTicks": 239,
            "midi": 37,
            "name": "C#2",
            "ticks": 35040,
            "time": 57.2980495,
            "velocity": 0.5039370078740157
          },
          {
            "duration": 0.2298074624999984,
            "durationTicks": 239,
            "midi": 44,
            "name": "G#2",
            "ticks": 35280,
            "time": 57.5288185,
            "velocity": 0.5039370078740157
          },
          {
            "duration": 0.2298074624999984,
            "durationTicks": 239,
            "midi": 49,
            "name": "C#3",
            "ticks": 35520,
            "time": 57.7595875,
            "velocity": 0.5039370078740157
          },
          {
            "duration": 0.2298074624999984,
            "durationTicks": 239,
            "midi": 44,
            "name": "G#2",
            "ticks": 35760,
            "time": 57.9903565,
            "velocity": 0.5039370078740157
          },
          {
            "duration": 0.4605764625000006,
            "durationTicks": 479,
            "midi": 49,
            "name": "C#3",
            "ticks": 36000,
            "time": 58.2211255,
            "velocity": 0.5039370078740157
          },
          {
            "duration": 0.2298074624999984,
            "durationTicks": 239,
            "midi": 44,
            "name": "G#2",
            "ticks": 36480,
            "time": 58.6826635,
            "velocity": 0.5039370078740157
          },
          {
            "duration": 0.2298074624999984,
            "durationTicks": 239,
            "midi": 51,
            "name": "D#3",
            "ticks": 36720,
            "time": 58.9134325,
            "velocity": 0.5039370078740157
          },
          {
            "duration": 0.2298074624999984,
            "durationTicks": 239,
            "midi": 56,
            "name": "G#3",
            "ticks": 36960,
            "time": 59.1442015,
            "velocity": 0.5039370078740157
          },
          {
            "duration": 0.2298074625000055,
            "durationTicks": 239,
            "midi": 51,
            "name": "D#3",
            "ticks": 37200,
            "time": 59.374970499999996,
            "velocity": 0.5039370078740157
          },
          {
            "duration": 0.2298074624999984,
            "durationTicks": 239,
            "midi": 56,
            "name": "G#3",
            "ticks": 37440,
            "time": 59.6057395,
            "velocity": 0.5039370078740157
          },
          {
            "duration": 0.2298074624999984,
            "durationTicks": 239,
            "midi": 51,
            "name": "D#3",
            "ticks": 37680,
            "time": 59.8365085,
            "velocity": 0.5039370078740157
          },
          {
            "duration": 0.2298074625000055,
            "durationTicks": 239,
            "midi": 44,
            "name": "G#2",
            "ticks": 37920,
            "time": 60.067277499999996,
            "velocity": 0.5039370078740157
          },
          {
            "duration": 0.2298074624999984,
            "durationTicks": 239,
            "midi": 51,
            "name": "D#3",
            "ticks": 38160,
            "time": 60.2980465,
            "velocity": 0.5039370078740157
          },
          {
            "duration": 0.2298074624999984,
            "durationTicks": 239,
            "midi": 56,
            "name": "G#3",
            "ticks": 38400,
            "time": 60.5288155,
            "velocity": 0.5039370078740157
          },
          {
            "duration": 0.2298074624999984,
            "durationTicks": 239,
            "midi": 51,
            "name": "D#3",
            "ticks": 38640,
            "time": 60.7595845,
            "velocity": 0.5039370078740157
          },
          {
            "duration": 0.2298074624999984,
            "durationTicks": 239,
            "midi": 56,
            "name": "G#3",
            "ticks": 38880,
            "time": 60.9903535,
            "velocity": 0.5039370078740157
          },
          {
            "duration": 0.2298074624999984,
            "durationTicks": 239,
            "midi": 51,
            "name": "D#3",
            "ticks": 39120,
            "time": 61.2211225,
            "velocity": 0.5039370078740157
          },
          {
            "duration": 0.2298074624999984,
            "durationTicks": 239,
            "midi": 39,
            "name": "D#2",
            "ticks": 39360,
            "time": 61.4518915,
            "velocity": 0.5039370078740157
          },
          {
            "duration": 0.2298074624999984,
            "durationTicks": 239,
            "midi": 46,
            "name": "A#2",
            "ticks": 39600,
            "time": 61.6826605,
            "velocity": 0.5039370078740157
          },
          {
            "duration": 0.2298074624999984,
            "durationTicks": 239,
            "midi": 51,
            "name": "D#3",
            "ticks": 39840,
            "time": 61.9134295,
            "velocity": 0.5039370078740157
          },
          {
            "duration": 0.2298074624999984,
            "durationTicks": 239,
            "midi": 46,
            "name": "A#2",
            "ticks": 40080,
            "time": 62.1441985,
            "velocity": 0.5039370078740157
          },
          {
            "duration": 0.2298074624999984,
            "durationTicks": 239,
            "midi": 51,
            "name": "D#3",
            "ticks": 40320,
            "time": 62.3749675,
            "velocity": 0.5039370078740157
          },
          {
            "duration": 0.2298074624999984,
            "durationTicks": 239,
            "midi": 46,
            "name": "A#2",
            "ticks": 40560,
            "time": 62.6057365,
            "velocity": 0.5039370078740157
          },
          {
            "duration": 0.2298074624999984,
            "durationTicks": 239,
            "midi": 39,
            "name": "D#2",
            "ticks": 40800,
            "time": 62.8365055,
            "velocity": 0.5039370078740157
          },
          {
            "duration": 0.2298074625000055,
            "durationTicks": 239,
            "midi": 46,
            "name": "A#2",
            "ticks": 41040,
            "time": 63.067274499999996,
            "velocity": 0.5039370078740157
          },
          {
            "duration": 0.2298074624999984,
            "durationTicks": 239,
            "midi": 51,
            "name": "D#3",
            "ticks": 41280,
            "time": 63.2980435,
            "velocity": 0.5039370078740157
          },
          {
            "duration": 0.2298074624999984,
            "durationTicks": 239,
            "midi": 46,
            "name": "A#2",
            "ticks": 41520,
            "time": 63.5288125,
            "velocity": 0.5039370078740157
          },
          {
            "duration": 0.2298074625000055,
            "durationTicks": 239,
            "midi": 51,
            "name": "D#3",
            "ticks": 41760,
            "time": 63.759581499999996,
            "velocity": 0.5039370078740157
          },
          {
            "duration": 0.2298074624999984,
            "durationTicks": 239,
            "midi": 46,
            "name": "A#2",
            "ticks": 42000,
            "time": 63.9903505,
            "velocity": 0.5039370078740157
          },
          {
            "duration": 0.2298074624999913,
            "durationTicks": 239,
            "midi": 41,
            "name": "F2",
            "ticks": 42240,
            "time": 64.2211195,
            "velocity": 0.5039370078740157
          },
          {
            "duration": 0.2298074625000055,
            "durationTicks": 239,
            "midi": 48,
            "name": "C3",
            "ticks": 42480,
            "time": 64.4518885,
            "velocity": 0.5039370078740157
          },
          {
            "duration": 0.2298074624999913,
            "durationTicks": 239,
            "midi": 53,
            "name": "F3",
            "ticks": 42720,
            "time": 64.6826575,
            "velocity": 0.5039370078740157
          },
          {
            "duration": 0.2298074625000055,
            "durationTicks": 239,
            "midi": 48,
            "name": "C3",
            "ticks": 42960,
            "time": 64.9134265,
            "velocity": 0.5039370078740157
          },
          {
            "duration": 0.2298074625000055,
            "durationTicks": 239,
            "midi": 53,
            "name": "F3",
            "ticks": 43200,
            "time": 65.1441955,
            "velocity": 0.5039370078740157
          },
          {
            "duration": 0.2298074624999913,
            "durationTicks": 239,
            "midi": 48,
            "name": "C3",
            "ticks": 43440,
            "time": 65.3749645,
            "velocity": 0.5039370078740157
          },
          {
            "duration": 0.2298074625000055,
            "durationTicks": 239,
            "midi": 41,
            "name": "F2",
            "ticks": 43680,
            "time": 65.6057335,
            "velocity": 0.5039370078740157
          },
          {
            "duration": 0.2298074625000055,
            "durationTicks": 239,
            "midi": 48,
            "name": "C3",
            "ticks": 43920,
            "time": 65.8365025,
            "velocity": 0.5039370078740157
          },
          {
            "duration": 0.2298074624999913,
            "durationTicks": 239,
            "midi": 53,
            "name": "F3",
            "ticks": 44160,
            "time": 66.0672715,
            "velocity": 0.5039370078740157
          },
          {
            "duration": 0.2298074625000055,
            "durationTicks": 239,
            "midi": 48,
            "name": "C3",
            "ticks": 44400,
            "time": 66.2980405,
            "velocity": 0.5039370078740157
          },
          {
            "duration": 0.2298074625000055,
            "durationTicks": 239,
            "midi": 53,
            "name": "F3",
            "ticks": 44640,
            "time": 66.5288095,
            "velocity": 0.5039370078740157
          },
          {
            "duration": 0.2298074624999913,
            "durationTicks": 239,
            "midi": 48,
            "name": "C3",
            "ticks": 44880,
            "time": 66.7595785,
            "velocity": 0.5039370078740157
          },
          {
            "duration": 0.2298074625000055,
            "durationTicks": 239,
            "midi": 37,
            "name": "C#2",
            "ticks": 45120,
            "time": 66.9903475,
            "velocity": 0.5039370078740157
          },
          {
            "duration": 0.2298074625000055,
            "durationTicks": 239,
            "midi": 44,
            "name": "G#2",
            "ticks": 45360,
            "time": 67.2211165,
            "velocity": 0.5039370078740157
          },
          {
            "duration": 0.2298074624999913,
            "durationTicks": 239,
            "midi": 49,
            "name": "C#3",
            "ticks": 45600,
            "time": 67.4518855,
            "velocity": 0.5039370078740157
          },
          {
            "duration": 0.2298074625000055,
            "durationTicks": 239,
            "midi": 44,
            "name": "G#2",
            "ticks": 45840,
            "time": 67.6826545,
            "velocity": 0.5039370078740157
          },
          {
            "duration": 0.2298074625000055,
            "durationTicks": 239,
            "midi": 49,
            "name": "C#3",
            "ticks": 46080,
            "time": 67.9134235,
            "velocity": 0.5039370078740157
          },
          {
            "duration": 0.2298074624999913,
            "durationTicks": 239,
            "midi": 44,
            "name": "G#2",
            "ticks": 46320,
            "time": 68.1441925,
            "velocity": 0.5039370078740157
          },
          {
            "duration": 0.2298074625000055,
            "durationTicks": 239,
            "midi": 37,
            "name": "C#2",
            "ticks": 46560,
            "time": 68.3749615,
            "velocity": 0.5039370078740157
          },
          {
            "duration": 0.2298074625000055,
            "durationTicks": 239,
            "midi": 44,
            "name": "G#2",
            "ticks": 46800,
            "time": 68.60573049999999,
            "velocity": 0.5039370078740157
          },
          {
            "duration": 0.2298074624999913,
            "durationTicks": 239,
            "midi": 49,
            "name": "C#3",
            "ticks": 47040,
            "time": 68.8364995,
            "velocity": 0.5039370078740157
          },
          {
            "duration": 0.2298074625000055,
            "durationTicks": 239,
            "midi": 44,
            "name": "G#2",
            "ticks": 47280,
            "time": 69.0672685,
            "velocity": 0.5039370078740157
          },
          {
            "duration": 0.4605764625000006,
            "durationTicks": 479,
            "midi": 49,
            "name": "C#3",
            "ticks": 47520,
            "time": 69.29803749999999,
            "velocity": 0.5039370078740157
          },
          {
            "duration": 0.2298074625000055,
            "durationTicks": 239,
            "midi": 44,
            "name": "G#2",
            "ticks": 48000,
            "time": 69.7595755,
            "velocity": 0.5039370078740157
          },
          {
            "duration": 0.2298074625000055,
            "durationTicks": 239,
            "midi": 51,
            "name": "D#3",
            "ticks": 48240,
            "time": 69.99034449999999,
            "velocity": 0.5039370078740157
          },
          {
            "duration": 0.2298074624999913,
            "durationTicks": 239,
            "midi": 56,
            "name": "G#3",
            "ticks": 48480,
            "time": 70.2211135,
            "velocity": 0.5039370078740157
          },
          {
            "duration": 0.2298074625000055,
            "durationTicks": 239,
            "midi": 51,
            "name": "D#3",
            "ticks": 48720,
            "time": 70.4518825,
            "velocity": 0.5039370078740157
          },
          {
            "duration": 0.2298074625000055,
            "durationTicks": 239,
            "midi": 56,
            "name": "G#3",
            "ticks": 48960,
            "time": 70.68265149999999,
            "velocity": 0.5039370078740157
          },
          {
            "duration": 0.2298074624999913,
            "durationTicks": 239,
            "midi": 51,
            "name": "D#3",
            "ticks": 49200,
            "time": 70.9134205,
            "velocity": 0.5039370078740157
          },
          {
            "duration": 0.2298074625000055,
            "durationTicks": 239,
            "midi": 44,
            "name": "G#2",
            "ticks": 49440,
            "time": 71.1441895,
            "velocity": 0.5039370078740157
          },
          {
            "duration": 0.2298074625000055,
            "durationTicks": 239,
            "midi": 51,
            "name": "D#3",
            "ticks": 49680,
            "time": 71.37495849999999,
            "velocity": 0.5039370078740157
          },
          {
            "duration": 0.2298074624999913,
            "durationTicks": 239,
            "midi": 56,
            "name": "G#3",
            "ticks": 49920,
            "time": 71.6057275,
            "velocity": 0.5039370078740157
          },
          {
            "duration": 0.2298074625000055,
            "durationTicks": 239,
            "midi": 51,
            "name": "D#3",
            "ticks": 50160,
            "time": 71.8364965,
            "velocity": 0.5039370078740157
          },
          {
            "duration": 0.2298074625000055,
            "durationTicks": 239,
            "midi": 56,
            "name": "G#3",
            "ticks": 50400,
            "time": 72.06726549999999,
            "velocity": 0.5039370078740157
          },
          {
            "duration": 0.2298074624999913,
            "durationTicks": 239,
            "midi": 51,
            "name": "D#3",
            "ticks": 50640,
            "time": 72.2980345,
            "velocity": 0.5039370078740157
          },
          {
            "duration": 0.2298074625000055,
            "durationTicks": 239,
            "midi": 39,
            "name": "D#2",
            "ticks": 50880,
            "time": 72.5288035,
            "velocity": 0.5039370078740157
          },
          {
            "duration": 0.2298074625000055,
            "durationTicks": 239,
            "midi": 46,
            "name": "A#2",
            "ticks": 51120,
            "time": 72.75957249999999,
            "velocity": 0.5039370078740157
          },
          {
            "duration": 0.2298074624999913,
            "durationTicks": 239,
            "midi": 51,
            "name": "D#3",
            "ticks": 51360,
            "time": 72.9903415,
            "velocity": 0.5039370078740157
          },
          {
            "duration": 0.2298074625000055,
            "durationTicks": 239,
            "midi": 46,
            "name": "A#2",
            "ticks": 51600,
            "time": 73.2211105,
            "velocity": 0.5039370078740157
          },
          {
            "duration": 0.2298074625000055,
            "durationTicks": 239,
            "midi": 51,
            "name": "D#3",
            "ticks": 51840,
            "time": 73.45187949999999,
            "velocity": 0.5039370078740157
          },
          {
            "duration": 0.2298074624999913,
            "durationTicks": 239,
            "midi": 46,
            "name": "A#2",
            "ticks": 52080,
            "time": 73.6826485,
            "velocity": 0.5039370078740157
          },
          {
            "duration": 0.2298074625000055,
            "durationTicks": 239,
            "midi": 39,
            "name": "D#2",
            "ticks": 52320,
            "time": 73.9134175,
            "velocity": 0.5039370078740157
          },
          {
            "duration": 0.2298074625000055,
            "durationTicks": 239,
            "midi": 46,
            "name": "A#2",
            "ticks": 52560,
            "time": 74.14418649999999,
            "velocity": 0.5039370078740157
          },
          {
            "duration": 0.2298074624999913,
            "durationTicks": 239,
            "midi": 51,
            "name": "D#3",
            "ticks": 52800,
            "time": 74.3749555,
            "velocity": 0.5039370078740157
          },
          {
            "duration": 0.2298074625000055,
            "durationTicks": 239,
            "midi": 46,
            "name": "A#2",
            "ticks": 53040,
            "time": 74.6057245,
            "velocity": 0.5039370078740157
          },
          {
            "duration": 0.2298074625000055,
            "durationTicks": 239,
            "midi": 51,
            "name": "D#3",
            "ticks": 53280,
            "time": 74.83649349999999,
            "velocity": 0.5039370078740157
          },
          {
            "duration": 0.2298074624999913,
            "durationTicks": 239,
            "midi": 46,
            "name": "A#2",
            "ticks": 53520,
            "time": 75.0672625,
            "velocity": 0.5039370078740157
          },
          {
            "duration": 0.2298074625000055,
            "durationTicks": 239,
            "midi": 41,
            "name": "F2",
            "ticks": 53760,
            "time": 75.2980315,
            "velocity": 0.5039370078740157
          },
          {
            "duration": 0.2298074625000055,
            "durationTicks": 239,
            "midi": 48,
            "name": "C3",
            "ticks": 54000,
            "time": 75.52880049999999,
            "velocity": 0.5039370078740157
          },
          {
            "duration": 0.2298074624999913,
            "durationTicks": 239,
            "midi": 53,
            "name": "F3",
            "ticks": 54240,
            "time": 75.7595695,
            "velocity": 0.5039370078740157
          },
          {
            "duration": 0.2298074625000055,
            "durationTicks": 239,
            "midi": 56,
            "name": "G#3",
            "ticks": 54480,
            "time": 75.9903385,
            "velocity": 0.5039370078740157
          },
          {
            "duration": 0.2298074624999913,
            "durationTicks": 239,
            "midi": 53,
            "name": "F3",
            "ticks": 54720,
            "time": 76.2211075,
            "velocity": 0.5039370078740157
          },
          {
            "duration": 1.6144214625000046,
            "durationTicks": 1679,
            "midi": 48,
            "name": "C3",
            "ticks": 54960,
            "time": 76.4518765,
            "velocity": 0.5039370078740157
          },
          {
            "duration": 0.2298074625000055,
            "durationTicks": 239,
            "midi": 37,
            "name": "C#2",
            "ticks": 56640,
            "time": 78.06725949999999,
            "velocity": 0.5039370078740157
          },
          {
            "duration": 0.2298074625000055,
            "durationTicks": 239,
            "midi": 44,
            "name": "G#2",
            "ticks": 56880,
            "time": 78.2980285,
            "velocity": 0.5039370078740157
          },
          {
            "duration": 0.2298074625000055,
            "durationTicks": 239,
            "midi": 49,
            "name": "C#3",
            "ticks": 57120,
            "time": 78.5287975,
            "velocity": 0.5039370078740157
          },
          {
            "duration": 0.2298074624999913,
            "durationTicks": 239,
            "midi": 53,
            "name": "F3",
            "ticks": 57360,
            "time": 78.7595665,
            "velocity": 0.5039370078740157
          },
          {
            "duration": 0.2298074625000055,
            "durationTicks": 239,
            "midi": 49,
            "name": "C#3",
            "ticks": 57600,
            "time": 78.9903355,
            "velocity": 0.5039370078740157
          },
          {
            "duration": 1.6144214625000046,
            "durationTicks": 1679,
            "midi": 44,
            "name": "G#2",
            "ticks": 57840,
            "time": 79.2211045,
            "velocity": 0.5039370078740157
          },
          {
            "duration": 0.2298074624999913,
            "durationTicks": 239,
            "midi": 44,
            "name": "G#2",
            "ticks": 59520,
            "time": 80.8364875,
            "velocity": 0.5039370078740157
          },
          {
            "duration": 0.2298074625000055,
            "durationTicks": 239,
            "midi": 51,
            "name": "D#3",
            "ticks": 59760,
            "time": 81.0672565,
            "velocity": 0.5039370078740157
          },
          {
            "duration": 0.2298074625000055,
            "durationTicks": 239,
            "midi": 56,
            "name": "G#3",
            "ticks": 60000,
            "time": 81.2980255,
            "velocity": 0.5039370078740157
          },
          {
            "duration": 0.2298074624999913,
            "durationTicks": 239,
            "midi": 60,
            "name": "C4",
            "ticks": 60240,
            "time": 81.5287945,
            "velocity": 0.5039370078740157
          },
          {
            "duration": 0.2298074625000055,
            "durationTicks": 239,
            "midi": 56,
            "name": "G#3",
            "ticks": 60480,
            "time": 81.7595635,
            "velocity": 0.5039370078740157
          },
          {
            "duration": 1.6144214625000046,
            "durationTicks": 1679,
            "midi": 51,
            "name": "D#3",
            "ticks": 60720,
            "time": 81.9903325,
            "velocity": 0.5039370078740157
          },
          {
            "duration": 0.2298074624999913,
            "durationTicks": 239,
            "midi": 39,
            "name": "D#2",
            "ticks": 62400,
            "time": 83.6057155,
            "velocity": 0.5039370078740157
          },
          {
            "duration": 0.2298074625000055,
            "durationTicks": 239,
            "midi": 46,
            "name": "A#2",
            "ticks": 62640,
            "time": 83.8364845,
            "velocity": 0.5039370078740157
          },
          {
            "duration": 0.2298074625000055,
            "durationTicks": 239,
            "midi": 51,
            "name": "D#3",
            "ticks": 62880,
            "time": 84.06725349999999,
            "velocity": 0.5039370078740157
          },
          {
            "duration": 0.2298074624999913,
            "durationTicks": 239,
            "midi": 55,
            "name": "G3",
            "ticks": 63120,
            "time": 84.2980225,
            "velocity": 0.5039370078740157
          },
          {
            "duration": 0.2298074625000055,
            "durationTicks": 239,
            "midi": 51,
            "name": "D#3",
            "ticks": 63360,
            "time": 84.5287915,
            "velocity": 0.5039370078740157
          },
          {
            "duration": 1.6144214625000046,
            "durationTicks": 1679,
            "midi": 46,
            "name": "A#2",
            "ticks": 63600,
            "time": 84.75956049999999,
            "velocity": 0.5039370078740157
          },
          {
            "duration": 2.7682664624999944,
            "durationTicks": 2879,
            "midi": 41,
            "name": "F2",
            "ticks": 65280,
            "time": 86.3749435,
            "velocity": 0.5039370078740157
          },
          {
            "duration": 0.6913454624999957,
            "durationTicks": 719,
            "midi": 53,
            "name": "F3",
            "ticks": 65280,
            "time": 86.3749435,
            "velocity": 0.5039370078740157
          },
          {
            "duration": 0.6913454624999957,
            "durationTicks": 719,
            "midi": 48,
            "name": "C3",
            "ticks": 65280,
            "time": 86.3749435,
            "velocity": 0.5039370078740157
          },
          {
            "duration": 0.6913454624999957,
            "durationTicks": 719,
            "midi": 53,
            "name": "F3",
            "ticks": 66000,
            "time": 87.0672505,
            "velocity": 0.5039370078740157
          },
          {
            "duration": 0.6913454624999957,
            "durationTicks": 719,
            "midi": 48,
            "name": "C3",
            "ticks": 66000,
            "time": 87.0672505,
            "velocity": 0.5039370078740157
          },
          {
            "duration": 1.3836524624999953,
            "durationTicks": 1439,
            "midi": 53,
            "name": "F3",
            "ticks": 66720,
            "time": 87.7595575,
            "velocity": 0.5039370078740157
          },
          {
            "duration": 1.3836524624999953,
            "durationTicks": 1439,
            "midi": 48,
            "name": "C3",
            "ticks": 66720,
            "time": 87.7595575,
            "velocity": 0.5039370078740157
          },
          {
            "duration": 2.7682664624999944,
            "durationTicks": 2879,
            "midi": 37,
            "name": "C#2",
            "ticks": 68160,
            "time": 89.1441715,
            "velocity": 0.5039370078740157
          },
          {
            "duration": 0.6913454624999957,
            "durationTicks": 719,
            "midi": 49,
            "name": "C#3",
            "ticks": 68160,
            "time": 89.1441715,
            "velocity": 0.5039370078740157
          },
          {
            "duration": 0.6913454624999957,
            "durationTicks": 719,
            "midi": 44,
            "name": "G#2",
            "ticks": 68160,
            "time": 89.1441715,
            "velocity": 0.5039370078740157
          },
          {
            "duration": 0.6913454624999957,
            "durationTicks": 719,
            "midi": 49,
            "name": "C#3",
            "ticks": 68880,
            "time": 89.8364785,
            "velocity": 0.5039370078740157
          },
          {
            "duration": 0.6913454624999957,
            "durationTicks": 719,
            "midi": 44,
            "name": "G#2",
            "ticks": 68880,
            "time": 89.8364785,
            "velocity": 0.5039370078740157
          },
          {
            "duration": 1.3836524624999953,
            "durationTicks": 1439,
            "midi": 49,
            "name": "C#3",
            "ticks": 69600,
            "time": 90.5287855,
            "velocity": 0.5039370078740157
          },
          {
            "duration": 1.3836524624999953,
            "durationTicks": 1439,
            "midi": 44,
            "name": "G#2",
            "ticks": 69600,
            "time": 90.5287855,
            "velocity": 0.5039370078740157
          },
          {
            "duration": 2.7682664625000086,
            "durationTicks": 2879,
            "midi": 44,
            "name": "G#2",
            "ticks": 71040,
            "time": 91.9133995,
            "velocity": 0.5039370078740157
          },
          {
            "duration": 0.6913454624999957,
            "durationTicks": 719,
            "midi": 56,
            "name": "G#3",
            "ticks": 71040,
            "time": 91.9133995,
            "velocity": 0.5039370078740157
          },
          {
            "duration": 0.6913454624999957,
            "durationTicks": 719,
            "midi": 51,
            "name": "D#3",
            "ticks": 71040,
            "time": 91.9133995,
            "velocity": 0.5039370078740157
          },
          {
            "duration": 0.6913454625000099,
            "durationTicks": 719,
            "midi": 56,
            "name": "G#3",
            "ticks": 71760,
            "time": 92.6057065,
            "velocity": 0.5039370078740157
          },
          {
            "duration": 0.6913454625000099,
            "durationTicks": 719,
            "midi": 51,
            "name": "D#3",
            "ticks": 71760,
            "time": 92.6057065,
            "velocity": 0.5039370078740157
          },
          {
            "duration": 1.3836524625000095,
            "durationTicks": 1439,
            "midi": 56,
            "name": "G#3",
            "ticks": 72480,
            "time": 93.2980135,
            "velocity": 0.5039370078740157
          },
          {
            "duration": 1.3836524625000095,
            "durationTicks": 1439,
            "midi": 51,
            "name": "D#3",
            "ticks": 72480,
            "time": 93.2980135,
            "velocity": 0.5039370078740157
          },
          {
            "duration": 2.7682664625000086,
            "durationTicks": 2879,
            "midi": 39,
            "name": "D#2",
            "ticks": 73920,
            "time": 94.6826275,
            "velocity": 0.5039370078740157
          },
          {
            "duration": 0.6913454625000099,
            "durationTicks": 719,
            "midi": 51,
            "name": "D#3",
            "ticks": 73920,
            "time": 94.6826275,
            "velocity": 0.5039370078740157
          },
          {
            "duration": 0.6913454625000099,
            "durationTicks": 719,
            "midi": 46,
            "name": "A#2",
            "ticks": 73920,
            "time": 94.6826275,
            "velocity": 0.5039370078740157
          },
          {
            "duration": 0.6913454625000099,
            "durationTicks": 719,
            "midi": 51,
            "name": "D#3",
            "ticks": 74640,
            "time": 95.3749345,
            "velocity": 0.5039370078740157
          },
          {
            "duration": 0.6913454625000099,
            "durationTicks": 719,
            "midi": 46,
            "name": "A#2",
            "ticks": 74640,
            "time": 95.3749345,
            "velocity": 0.5039370078740157
          },
          {
            "duration": 1.3836524625000095,
            "durationTicks": 1439,
            "midi": 51,
            "name": "D#3",
            "ticks": 75360,
            "time": 96.0672415,
            "velocity": 0.5039370078740157
          },
          {
            "duration": 1.3836524625000095,
            "durationTicks": 1439,
            "midi": 46,
            "name": "A#2",
            "ticks": 75360,
            "time": 96.0672415,
            "velocity": 0.5039370078740157
          },
          {
            "duration": 0.2298074624999913,
            "durationTicks": 239,
            "midi": 37,
            "name": "C#2",
            "ticks": 76800,
            "time": 97.4518555,
            "velocity": 0.5039370078740157
          },
          {
            "duration": 0.2298074624999913,
            "durationTicks": 239,
            "midi": 44,
            "name": "G#2",
            "ticks": 77040,
            "time": 97.6826245,
            "velocity": 0.5039370078740157
          },
          {
            "duration": 0.2298074625000055,
            "durationTicks": 239,
            "midi": 49,
            "name": "C#3",
            "ticks": 77280,
            "time": 97.9133935,
            "velocity": 0.5039370078740157
          },
          {
            "duration": 0.2298074625000055,
            "durationTicks": 239,
            "midi": 53,
            "name": "F3",
            "ticks": 77520,
            "time": 98.1441625,
            "velocity": 0.5039370078740157
          },
          {
            "duration": 0.2298074624999913,
            "durationTicks": 239,
            "midi": 56,
            "name": "G#3",
            "ticks": 77760,
            "time": 98.3749315,
            "velocity": 0.5039370078740157
          },
          {
            "duration": 0.2298074625000055,
            "durationTicks": 239,
            "midi": 61,
            "name": "C#4",
            "ticks": 78000,
            "time": 98.6057005,
            "velocity": 0.5039370078740157
          },
          {
            "duration": 1.3836524625000095,
            "durationTicks": 1439,
            "midi": 65,
            "name": "F4",
            "ticks": 78240,
            "time": 98.83646949999999,
            "velocity": 0.5039370078740157
          },
          {
            "duration": 1.3836524625000095,
            "durationTicks": 1439,
            "midi": 44,
            "name": "G#2",
            "ticks": 79680,
            "time": 100.22108349999999,
            "velocity": 0.5039370078740157
          },
          {
            "duration": 0.2298074625000055,
            "durationTicks": 239,
            "midi": 56,
            "name": "G#3",
            "ticks": 79680,
            "time": 100.22108349999999,
            "velocity": 0.5039370078740157
          },
          {
            "duration": 0.2298074624999913,
            "durationTicks": 239,
            "midi": 51,
            "name": "D#3",
            "ticks": 79920,
            "time": 100.4518525,
            "velocity": 0.5039370078740157
          },
          {
            "duration": 0.4605764625000006,
            "durationTicks": 479,
            "midi": 56,
            "name": "G#3",
            "ticks": 80160,
            "time": 100.6826215,
            "velocity": 0.5039370078740157
          },
          {
            "duration": 0.4605764625000006,
            "durationTicks": 479,
            "midi": 56,
            "name": "G#3",
            "ticks": 80640,
            "time": 101.1441595,
            "velocity": 0.5039370078740157
          },
          {
            "duration": 1.3836524625000095,
            "durationTicks": 1439,
            "midi": 43,
            "name": "G2",
            "ticks": 81120,
            "time": 101.60569749999999,
            "velocity": 0.5039370078740157
          },
          {
            "duration": 0.2298074625000055,
            "durationTicks": 239,
            "midi": 55,
            "name": "G3",
            "ticks": 81120,
            "time": 101.60569749999999,
            "velocity": 0.5039370078740157
          },
          {
            "duration": 0.2298074624999913,
            "durationTicks": 239,
            "midi": 51,
            "name": "D#3",
            "ticks": 81360,
            "time": 101.8364665,
            "velocity": 0.5039370078740157
          },
          {
            "duration": 0.4605764625000006,
            "durationTicks": 479,
            "midi": 55,
            "name": "G3",
            "ticks": 81600,
            "time": 102.0672355,
            "velocity": 0.5039370078740157
          },
          {
            "duration": 0.4605764625000006,
            "durationTicks": 479,
            "midi": 55,
            "name": "G3",
            "ticks": 82080,
            "time": 102.5287735,
            "velocity": 0.5039370078740157
          },
          {
            "duration": 0.2298074625000055,
            "durationTicks": 239,
            "midi": 37,
            "name": "C#2",
            "ticks": 82560,
            "time": 102.99031149999999,
            "velocity": 0.5039370078740157
          },
          {
            "duration": 0.2298074624999913,
            "durationTicks": 239,
            "midi": 44,
            "name": "G#2",
            "ticks": 82800,
            "time": 103.2210805,
            "velocity": 0.5039370078740157
          },
          {
            "duration": 0.2298074625000055,
            "durationTicks": 239,
            "midi": 49,
            "name": "C#3",
            "ticks": 83040,
            "time": 103.4518495,
            "velocity": 0.5039370078740157
          },
          {
            "duration": 0.2298074625000055,
            "durationTicks": 239,
            "midi": 53,
            "name": "F3",
            "ticks": 83280,
            "time": 103.68261849999999,
            "velocity": 0.5039370078740157
          },
          {
            "duration": 0.2298074624999913,
            "durationTicks": 239,
            "midi": 56,
            "name": "G#3",
            "ticks": 83520,
            "time": 103.9133875,
            "velocity": 0.5039370078740157
          },
          {
            "duration": 1.6144214625000046,
            "durationTicks": 1679,
            "midi": 61,
            "name": "C#4",
            "ticks": 83760,
            "time": 104.1441565,
            "velocity": 0.5039370078740157
          },
          {
            "duration": 1.3836524625000095,
            "durationTicks": 1439,
            "midi": 44,
            "name": "G#2",
            "ticks": 85440,
            "time": 105.75953949999999,
            "velocity": 0.5039370078740157
          },
          {
            "duration": 0.2298074625000055,
            "durationTicks": 239,
            "midi": 56,
            "name": "G#3",
            "ticks": 85440,
            "time": 105.75953949999999,
            "velocity": 0.5039370078740157
          },
          {
            "duration": 0.2298074624999913,
            "durationTicks": 239,
            "midi": 51,
            "name": "D#3",
            "ticks": 85680,
            "time": 105.9903085,
            "velocity": 0.5039370078740157
          },
          {
            "duration": 0.4605764625000006,
            "durationTicks": 479,
            "midi": 56,
            "name": "G#3",
            "ticks": 85920,
            "time": 106.22107749999999,
            "velocity": 0.5039370078740157
          },
          {
            "duration": 0.4605764625000006,
            "durationTicks": 479,
            "midi": 56,
            "name": "G#3",
            "ticks": 86400,
            "time": 106.6826155,
            "velocity": 0.5039370078740157
          },
          {
            "duration": 1.3836524625000095,
            "durationTicks": 1439,
            "midi": 43,
            "name": "G2",
            "ticks": 86880,
            "time": 107.14415349999999,
            "velocity": 0.5039370078740157
          },
          {
            "duration": 0.2298074625000055,
            "durationTicks": 239,
            "midi": 55,
            "name": "G3",
            "ticks": 86880,
            "time": 107.14415349999999,
            "velocity": 0.5039370078740157
          },
          {
            "duration": 0.2298074624999913,
            "durationTicks": 239,
            "midi": 51,
            "name": "D#3",
            "ticks": 87120,
            "time": 107.3749225,
            "velocity": 0.5039370078740157
          },
          {
            "duration": 0.4605764625000006,
            "durationTicks": 479,
            "midi": 55,
            "name": "G3",
            "ticks": 87360,
            "time": 107.60569149999999,
            "velocity": 0.5039370078740157
          },
          {
            "duration": 0.4605764625000006,
            "durationTicks": 479,
            "midi": 55,
            "name": "G3",
            "ticks": 87840,
            "time": 108.0672295,
            "velocity": 0.5039370078740157
          },
          {
            "duration": 0.2298074625000055,
            "durationTicks": 239,
            "midi": 37,
            "name": "C#2",
            "ticks": 88320,
            "time": 108.52876749999999,
            "velocity": 0.5039370078740157
          },
          {
            "duration": 0.2298074624999913,
            "durationTicks": 239,
            "midi": 44,
            "name": "G#2",
            "ticks": 88560,
            "time": 108.7595365,
            "velocity": 0.5039370078740157
          },
          {
            "duration": 0.2298074625000055,
            "durationTicks": 239,
            "midi": 49,
            "name": "C#3",
            "ticks": 88800,
            "time": 108.99030549999999,
            "velocity": 0.5039370078740157
          },
          {
            "duration": 2.075959462500009,
            "durationTicks": 2159,
            "midi": 53,
            "name": "F3",
            "ticks": 89040,
            "time": 109.22107449999999,
            "velocity": 0.5039370078740157
          },
          {
            "duration": 0.2298074625000197,
            "durationTicks": 239,
            "midi": 39,
            "name": "D#2",
            "ticks": 91200,
            "time": 111.29799549999998,
            "velocity": 0.5039370078740157
          },
          {
            "duration": 0.2298074624999913,
            "durationTicks": 239,
            "midi": 46,
            "name": "A#2",
            "ticks": 91440,
            "time": 111.5287645,
            "velocity": 0.5039370078740157
          },
          {
            "duration": 0.2298074624999913,
            "durationTicks": 239,
            "midi": 51,
            "name": "D#3",
            "ticks": 91680,
            "time": 111.7595335,
            "velocity": 0.5039370078740157
          },
          {
            "duration": 0.2298074625000197,
            "durationTicks": 239,
            "midi": 55,
            "name": "G3",
            "ticks": 91920,
            "time": 111.99030249999998,
            "velocity": 0.5039370078740157
          },
          {
            "duration": 0.2298074624999913,
            "durationTicks": 239,
            "midi": 58,
            "name": "A#3",
            "ticks": 92160,
            "time": 112.2210715,
            "velocity": 0.5039370078740157
          },
          {
            "duration": 1.6144214624999904,
            "durationTicks": 1679,
            "midi": 63,
            "name": "D#4",
            "ticks": 92400,
            "time": 112.4518405,
            "velocity": 0.5039370078740157
          },
          {
            "duration": 0.2298074625000197,
            "durationTicks": 239,
            "midi": 41,
            "name": "F2",
            "ticks": 94080,
            "time": 114.06722349999998,
            "velocity": 0.5039370078740157
          },
          {
            "duration": 0.2298074624999913,
            "durationTicks": 239,
            "midi": 48,
            "name": "C3",
            "ticks": 94320,
            "time": 114.29799249999999,
            "velocity": 0.5039370078740157
          },
          {
            "duration": 0.2298074624999913,
            "durationTicks": 239,
            "midi": 53,
            "name": "F3",
            "ticks": 94560,
            "time": 114.5287615,
            "velocity": 0.5039370078740157
          },
          {
            "duration": 0.2298074625000197,
            "durationTicks": 239,
            "midi": 56,
            "name": "G#3",
            "ticks": 94800,
            "time": 114.75953049999998,
            "velocity": 0.5039370078740157
          },
          {
            "duration": 0.2298074624999913,
            "durationTicks": 239,
            "midi": 53,
            "name": "F3",
            "ticks": 95040,
            "time": 114.99029949999999,
            "velocity": 0.5039370078740157
          },
          {
            "duration": 0.2298074624999913,
            "durationTicks": 239,
            "midi": 48,
            "name": "C3",
            "ticks": 95280,
            "time": 115.2210685,
            "velocity": 0.5039370078740157
          },
          {
            "duration": 0.2298074625000197,
            "durationTicks": 239,
            "midi": 41,
            "name": "F2",
            "ticks": 95520,
            "time": 115.45183749999998,
            "velocity": 0.5039370078740157
          },
          {
            "duration": 0.2298074624999913,
            "durationTicks": 239,
            "midi": 48,
            "name": "C3",
            "ticks": 95760,
            "time": 115.68260649999999,
            "velocity": 0.5039370078740157
          },
          {
            "duration": 0.2298074624999913,
            "durationTicks": 239,
            "midi": 53,
            "name": "F3",
            "ticks": 96000,
            "time": 115.9133755,
            "velocity": 0.5039370078740157
          },
          {
            "duration": 0.2298074625000055,
            "durationTicks": 239,
            "midi": 56,
            "name": "G#3",
            "ticks": 96240,
            "time": 116.1441445,
            "velocity": 0.5039370078740157
          },
          {
            "duration": 0.2298074625000055,
            "durationTicks": 239,
            "midi": 53,
            "name": "F3",
            "ticks": 96480,
            "time": 116.37491349999999,
            "velocity": 0.5039370078740157
          },
          {
            "duration": 0.2298074624999913,
            "durationTicks": 239,
            "midi": 48,
            "name": "C3",
            "ticks": 96720,
            "time": 116.6056825,
            "velocity": 0.5039370078740157
          },
          {
            "duration": 0.2298074625000055,
            "durationTicks": 239,
            "midi": 37,
            "name": "C#2",
            "ticks": 96960,
            "time": 116.8364515,
            "velocity": 0.5039370078740157
          },
          {
            "duration": 0.2298074625000055,
            "durationTicks": 239,
            "midi": 44,
            "name": "G#2",
            "ticks": 97200,
            "time": 117.06722049999999,
            "velocity": 0.5039370078740157
          },
          {
            "duration": 0.2298074624999913,
            "durationTicks": 239,
            "midi": 49,
            "name": "C#3",
            "ticks": 97440,
            "time": 117.2979895,
            "velocity": 0.5039370078740157
          },
          {
            "duration": 0.2298074625000055,
            "durationTicks": 239,
            "midi": 53,
            "name": "F3",
            "ticks": 97680,
            "time": 117.5287585,
            "velocity": 0.5039370078740157
          },
          {
            "duration": 0.2298074625000055,
            "durationTicks": 239,
            "midi": 49,
            "name": "C#3",
            "ticks": 97920,
            "time": 117.75952749999999,
            "velocity": 0.5039370078740157
          },
          {
            "duration": 0.2298074624999913,
            "durationTicks": 239,
            "midi": 44,
            "name": "G#2",
            "ticks": 98160,
            "time": 117.9902965,
            "velocity": 0.5039370078740157
          },
          {
            "duration": 0.2298074625000055,
            "durationTicks": 239,
            "midi": 37,
            "name": "C#2",
            "ticks": 98400,
            "time": 118.2210655,
            "velocity": 0.5039370078740157
          },
          {
            "duration": 0.2298074624999913,
            "durationTicks": 239,
            "midi": 44,
            "name": "G#2",
            "ticks": 98640,
            "time": 118.45183449999999,
            "velocity": 0.5039370078740157
          },
          {
            "duration": 0.2298074624999913,
            "durationTicks": 239,
            "midi": 49,
            "name": "C#3",
            "ticks": 98880,
            "time": 118.6826035,
            "velocity": 0.5039370078740157
          },
          {
            "duration": 0.2298074625000197,
            "durationTicks": 239,
            "midi": 53,
            "name": "F3",
            "ticks": 99120,
            "time": 118.91337249999998,
            "velocity": 0.5039370078740157
          },
          {
            "duration": 0.4605764625000006,
            "durationTicks": 479,
            "midi": 49,
            "name": "C#3",
            "ticks": 99360,
            "time": 119.14414149999999,
            "velocity": 0.5039370078740157
          },
          {
            "duration": 0.2298074625000197,
            "durationTicks": 239,
            "midi": 44,
            "name": "G#2",
            "ticks": 99840,
            "time": 119.60567949999998,
            "velocity": 0.5039370078740157
          },
          {
            "duration": 0.2298074624999913,
            "durationTicks": 239,
            "midi": 51,
            "name": "D#3",
            "ticks": 100080,
            "time": 119.83644849999999,
            "velocity": 0.5039370078740157
          },
          {
            "duration": 0.2298074624999913,
            "durationTicks": 239,
            "midi": 56,
            "name": "G#3",
            "ticks": 100320,
            "time": 120.0672175,
            "velocity": 0.5039370078740157
          },
          {
            "duration": 0.2298074625000197,
            "durationTicks": 239,
            "midi": 60,
            "name": "C4",
            "ticks": 100560,
            "time": 120.29798649999998,
            "velocity": 0.5039370078740157
          },
          {
            "duration": 0.2298074624999913,
            "durationTicks": 239,
            "midi": 56,
            "name": "G#3",
            "ticks": 100800,
            "time": 120.52875549999999,
            "velocity": 0.5039370078740157
          },
          {
            "duration": 0.2298074624999913,
            "durationTicks": 239,
            "midi": 51,
            "name": "D#3",
            "ticks": 101040,
            "time": 120.7595245,
            "velocity": 0.5039370078740157
          },
          {
            "duration": 0.2298074625000197,
            "durationTicks": 239,
            "midi": 44,
            "name": "G#2",
            "ticks": 101280,
            "time": 120.99029349999998,
            "velocity": 0.5039370078740157
          },
          {
            "duration": 0.2298074624999913,
            "durationTicks": 239,
            "midi": 51,
            "name": "D#3",
            "ticks": 101520,
            "time": 121.22106249999999,
            "velocity": 0.5039370078740157
          },
          {
            "duration": 0.2298074624999913,
            "durationTicks": 239,
            "midi": 56,
            "name": "G#3",
            "ticks": 101760,
            "time": 121.4518315,
            "velocity": 0.5039370078740157
          },
          {
            "duration": 0.2298074625000197,
            "durationTicks": 239,
            "midi": 60,
            "name": "C4",
            "ticks": 102000,
            "time": 121.68260049999998,
            "velocity": 0.5039370078740157
          },
          {
            "duration": 0.2298074624999913,
            "durationTicks": 239,
            "midi": 56,
            "name": "G#3",
            "ticks": 102240,
            "time": 121.91336949999999,
            "velocity": 0.5039370078740157
          },
          {
            "duration": 0.2298074624999913,
            "durationTicks": 239,
            "midi": 51,
            "name": "D#3",
            "ticks": 102480,
            "time": 122.1441385,
            "velocity": 0.5039370078740157
          },
          {
            "duration": 0.2298074625000197,
            "durationTicks": 239,
            "midi": 39,
            "name": "D#2",
            "ticks": 102720,
            "time": 122.37490749999998,
            "velocity": 0.5039370078740157
          },
          {
            "duration": 0.2298074625000197,
            "durationTicks": 239,
            "midi": 46,
            "name": "A#2",
            "ticks": 102960,
            "time": 122.60567649999999,
            "velocity": 0.5039370078740157
          },
          {
            "duration": 0.2298074624999913,
            "durationTicks": 239,
            "midi": 51,
            "name": "D#3",
            "ticks": 103200,
            "time": 122.8364455,
            "velocity": 0.5039370078740157
          },
          {
            "duration": 0.2298074624999913,
            "durationTicks": 239,
            "midi": 55,
            "name": "G3",
            "ticks": 103440,
            "time": 123.0672145,
            "velocity": 0.5039370078740157
          },
          {
            "duration": 0.2298074625000197,
            "durationTicks": 239,
            "midi": 51,
            "name": "D#3",
            "ticks": 103680,
            "time": 123.29798349999999,
            "velocity": 0.5039370078740157
          },
          {
            "duration": 0.2298074624999913,
            "durationTicks": 239,
            "midi": 46,
            "name": "A#2",
            "ticks": 103920,
            "time": 123.5287525,
            "velocity": 0.5039370078740157
          },
          {
            "duration": 0.2298074624999913,
            "durationTicks": 239,
            "midi": 39,
            "name": "D#2",
            "ticks": 104160,
            "time": 123.7595215,
            "velocity": 0.5039370078740157
          },
          {
            "duration": 0.2298074625000197,
            "durationTicks": 239,
            "midi": 46,
            "name": "A#2",
            "ticks": 104400,
            "time": 123.99029049999999,
            "velocity": 0.5039370078740157
          },
          {
            "duration": 0.2298074624999913,
            "durationTicks": 239,
            "midi": 51,
            "name": "D#3",
            "ticks": 104640,
            "time": 124.2210595,
            "velocity": 0.5039370078740157
          },
          {
            "duration": 0.2298074624999913,
            "durationTicks": 239,
            "midi": 55,
            "name": "G3",
            "ticks": 104880,
            "time": 124.4518285,
            "velocity": 0.5039370078740157
          },
          {
            "duration": 0.2298074625000197,
            "durationTicks": 239,
            "midi": 51,
            "name": "D#3",
            "ticks": 105120,
            "time": 124.68259749999999,
            "velocity": 0.5039370078740157
          },
          {
            "duration": 0.2298074624999913,
            "durationTicks": 239,
            "midi": 46,
            "name": "A#2",
            "ticks": 105360,
            "time": 124.9133665,
            "velocity": 0.5039370078740157
          },
          {
            "duration": 0.2298074624999913,
            "durationTicks": 239,
            "midi": 41,
            "name": "F2",
            "ticks": 105600,
            "time": 125.1441355,
            "velocity": 0.5039370078740157
          },
          {
            "duration": 0.2298074625000197,
            "durationTicks": 239,
            "midi": 48,
            "name": "C3",
            "ticks": 105840,
            "time": 125.37490449999999,
            "velocity": 0.5039370078740157
          },
          {
            "duration": 0.2298074624999913,
            "durationTicks": 239,
            "midi": 53,
            "name": "F3",
            "ticks": 106080,
            "time": 125.6056735,
            "velocity": 0.5039370078740157
          },
          {
            "duration": 0.2298074624999913,
            "durationTicks": 239,
            "midi": 56,
            "name": "G#3",
            "ticks": 106320,
            "time": 125.8364425,
            "velocity": 0.5039370078740157
          },
          {
            "duration": 0.2298074625000197,
            "durationTicks": 239,
            "midi": 53,
            "name": "F3",
            "ticks": 106560,
            "time": 126.06721149999998,
            "velocity": 0.5039370078740157
          },
          {
            "duration": 0.2298074624999913,
            "durationTicks": 239,
            "midi": 48,
            "name": "C3",
            "ticks": 106800,
            "time": 126.2979805,
            "velocity": 0.5039370078740157
          },
          {
            "duration": 0.2298074624999913,
            "durationTicks": 239,
            "midi": 41,
            "name": "F2",
            "ticks": 107040,
            "time": 126.5287495,
            "velocity": 0.5039370078740157
          },
          {
            "duration": 0.2298074625000197,
            "durationTicks": 239,
            "midi": 48,
            "name": "C3",
            "ticks": 107280,
            "time": 126.75951849999998,
            "velocity": 0.5039370078740157
          },
          {
            "duration": 0.2298074624999913,
            "durationTicks": 239,
            "midi": 53,
            "name": "F3",
            "ticks": 107520,
            "time": 126.9902875,
            "velocity": 0.5039370078740157
          },
          {
            "duration": 0.2298074624999913,
            "durationTicks": 239,
            "midi": 56,
            "name": "G#3",
            "ticks": 107760,
            "time": 127.2210565,
            "velocity": 0.5039370078740157
          },
          {
            "duration": 0.2298074625000197,
            "durationTicks": 239,
            "midi": 53,
            "name": "F3",
            "ticks": 108000,
            "time": 127.45182549999998,
            "velocity": 0.5039370078740157
          },
          {
            "duration": 0.2298074624999913,
            "durationTicks": 239,
            "midi": 48,
            "name": "C3",
            "ticks": 108240,
            "time": 127.6825945,
            "velocity": 0.5039370078740157
          },
          {
            "duration": 0.2298074624999913,
            "durationTicks": 239,
            "midi": 37,
            "name": "C#2",
            "ticks": 108480,
            "time": 127.9133635,
            "velocity": 0.5039370078740157
          },
          {
            "duration": 0.2298074625000197,
            "durationTicks": 239,
            "midi": 44,
            "name": "G#2",
            "ticks": 108720,
            "time": 128.14413249999998,
            "velocity": 0.5039370078740157
          },
          {
            "duration": 0.2298074624999913,
            "durationTicks": 239,
            "midi": 49,
            "name": "C#3",
            "ticks": 108960,
            "time": 128.3749015,
            "velocity": 0.5039370078740157
          },
          {
            "duration": 0.2298074624999913,
            "durationTicks": 239,
            "midi": 53,
            "name": "F3",
            "ticks": 109200,
            "time": 128.6056705,
            "velocity": 0.5039370078740157
          },
          {
            "duration": 0.2298074625000197,
            "durationTicks": 239,
            "midi": 49,
            "name": "C#3",
            "ticks": 109440,
            "time": 128.83643949999998,
            "velocity": 0.5039370078740157
          },
          {
            "duration": 0.2298074624999913,
            "durationTicks": 239,
            "midi": 44,
            "name": "G#2",
            "ticks": 109680,
            "time": 129.0672085,
            "velocity": 0.5039370078740157
          },
          {
            "duration": 0.2298074624999913,
            "durationTicks": 239,
            "midi": 37,
            "name": "C#2",
            "ticks": 109920,
            "time": 129.2979775,
            "velocity": 0.5039370078740157
          },
          {
            "duration": 0.2298074625000197,
            "durationTicks": 239,
            "midi": 44,
            "name": "G#2",
            "ticks": 110160,
            "time": 129.52874649999998,
            "velocity": 0.5039370078740157
          },
          {
            "duration": 0.2298074624999913,
            "durationTicks": 239,
            "midi": 49,
            "name": "C#3",
            "ticks": 110400,
            "time": 129.7595155,
            "velocity": 0.5039370078740157
          },
          {
            "duration": 0.2298074624999913,
            "durationTicks": 239,
            "midi": 53,
            "name": "F3",
            "ticks": 110640,
            "time": 129.9902845,
            "velocity": 0.5039370078740157
          },
          {
            "duration": 0.4605764625000006,
            "durationTicks": 479,
            "midi": 49,
            "name": "C#3",
            "ticks": 110880,
            "time": 130.22105349999998,
            "velocity": 0.5039370078740157
          },
          {
            "duration": 0.2298074624999913,
            "durationTicks": 239,
            "midi": 44,
            "name": "G#2",
            "ticks": 111360,
            "time": 130.6825915,
            "velocity": 0.5039370078740157
          },
          {
            "duration": 0.2298074625000197,
            "durationTicks": 239,
            "midi": 51,
            "name": "D#3",
            "ticks": 111600,
            "time": 130.91336049999998,
            "velocity": 0.5039370078740157
          },
          {
            "duration": 0.2298074624999913,
            "durationTicks": 239,
            "midi": 56,
            "name": "G#3",
            "ticks": 111840,
            "time": 131.1441295,
            "velocity": 0.5039370078740157
          },
          {
            "duration": 0.2298074624999913,
            "durationTicks": 239,
            "midi": 60,
            "name": "C4",
            "ticks": 112080,
            "time": 131.3748985,
            "velocity": 0.5039370078740157
          },
          {
            "duration": 0.2298074625000197,
            "durationTicks": 239,
            "midi": 56,
            "name": "G#3",
            "ticks": 112320,
            "time": 131.60566749999998,
            "velocity": 0.5039370078740157
          },
          {
            "duration": 0.2298074624999913,
            "durationTicks": 239,
            "midi": 51,
            "name": "D#3",
            "ticks": 112560,
            "time": 131.8364365,
            "velocity": 0.5039370078740157
          },
          {
            "duration": 0.2298074624999913,
            "durationTicks": 239,
            "midi": 44,
            "name": "G#2",
            "ticks": 112800,
            "time": 132.0672055,
            "velocity": 0.5039370078740157
          },
          {
            "duration": 0.2298074625000197,
            "durationTicks": 239,
            "midi": 51,
            "name": "D#3",
            "ticks": 113040,
            "time": 132.29797449999998,
            "velocity": 0.5039370078740157
          },
          {
            "duration": 0.2298074624999913,
            "durationTicks": 239,
            "midi": 56,
            "name": "G#3",
            "ticks": 113280,
            "time": 132.5287435,
            "velocity": 0.5039370078740157
          },
          {
            "duration": 0.2298074624999913,
            "durationTicks": 239,
            "midi": 60,
            "name": "C4",
            "ticks": 113520,
            "time": 132.7595125,
            "velocity": 0.5039370078740157
          },
          {
            "duration": 0.2298074625000197,
            "durationTicks": 239,
            "midi": 56,
            "name": "G#3",
            "ticks": 113760,
            "time": 132.99028149999998,
            "velocity": 0.5039370078740157
          },
          {
            "duration": 0.2298074624999913,
            "durationTicks": 239,
            "midi": 51,
            "name": "D#3",
            "ticks": 114000,
            "time": 133.2210505,
            "velocity": 0.5039370078740157
          },
          {
            "duration": 0.2298074624999913,
            "durationTicks": 239,
            "midi": 39,
            "name": "D#2",
            "ticks": 114240,
            "time": 133.4518195,
            "velocity": 0.5039370078740157
          },
          {
            "duration": 0.2298074625000197,
            "durationTicks": 239,
            "midi": 46,
            "name": "A#2",
            "ticks": 114480,
            "time": 133.68258849999998,
            "velocity": 0.5039370078740157
          },
          {
            "duration": 0.2298074624999913,
            "durationTicks": 239,
            "midi": 51,
            "name": "D#3",
            "ticks": 114720,
            "time": 133.9133575,
            "velocity": 0.5039370078740157
          },
          {
            "duration": 0.2298074624999913,
            "durationTicks": 239,
            "midi": 55,
            "name": "G3",
            "ticks": 114960,
            "time": 134.1441265,
            "velocity": 0.5039370078740157
          },
          {
            "duration": 0.2298074625000197,
            "durationTicks": 239,
            "midi": 51,
            "name": "D#3",
            "ticks": 115200,
            "time": 134.37489549999998,
            "velocity": 0.5039370078740157
          },
          {
            "duration": 0.2298074624999913,
            "durationTicks": 239,
            "midi": 46,
            "name": "A#2",
            "ticks": 115440,
            "time": 134.6056645,
            "velocity": 0.5039370078740157
          },
          {
            "duration": 0.2298074624999913,
            "durationTicks": 239,
            "midi": 39,
            "name": "D#2",
            "ticks": 115680,
            "time": 134.8364335,
            "velocity": 0.5039370078740157
          },
          {
            "duration": 0.2298074625000197,
            "durationTicks": 239,
            "midi": 46,
            "name": "A#2",
            "ticks": 115920,
            "time": 135.06720249999998,
            "velocity": 0.5039370078740157
          },
          {
            "duration": 0.2298074624999913,
            "durationTicks": 239,
            "midi": 51,
            "name": "D#3",
            "ticks": 116160,
            "time": 135.2979715,
            "velocity": 0.5039370078740157
          },
          {
            "duration": 0.2298074624999913,
            "durationTicks": 239,
            "midi": 55,
            "name": "G3",
            "ticks": 116400,
            "time": 135.5287405,
            "velocity": 0.5039370078740157
          },
          {
            "duration": 0.2298074625000197,
            "durationTicks": 239,
            "midi": 51,
            "name": "D#3",
            "ticks": 116640,
            "time": 135.75950949999998,
            "velocity": 0.5039370078740157
          },
          {
            "duration": 0.2298074624999913,
            "durationTicks": 239,
            "midi": 46,
            "name": "A#2",
            "ticks": 116880,
            "time": 135.9902785,
            "velocity": 0.5039370078740157
          },
          {
            "duration": 0.2298074624999913,
            "durationTicks": 239,
            "midi": 41,
            "name": "F2",
            "ticks": 117120,
            "time": 136.2210475,
            "velocity": 0.5669291338582677
          },
          {
            "duration": 0.2298074625000197,
            "durationTicks": 239,
            "midi": 48,
            "name": "C3",
            "ticks": 117360,
            "time": 136.45181649999998,
            "velocity": 0.5669291338582677
          },
          {
            "duration": 0.2298074624999913,
            "durationTicks": 239,
            "midi": 53,
            "name": "F3",
            "ticks": 117600,
            "time": 136.6825855,
            "velocity": 0.5669291338582677
          },
          {
            "duration": 0.2298074624999913,
            "durationTicks": 239,
            "midi": 56,
            "name": "G#3",
            "ticks": 117840,
            "time": 136.9133545,
            "velocity": 0.5669291338582677
          },
          {
            "duration": 0.2298074625000197,
            "durationTicks": 239,
            "midi": 53,
            "name": "F3",
            "ticks": 118080,
            "time": 137.14412349999998,
            "velocity": 0.5669291338582677
          },
          {
            "duration": 0.2298074624999913,
            "durationTicks": 239,
            "midi": 48,
            "name": "C3",
            "ticks": 118320,
            "time": 137.3748925,
            "velocity": 0.5669291338582677
          },
          {
            "duration": 0.2298074624999913,
            "durationTicks": 239,
            "midi": 41,
            "name": "F2",
            "ticks": 118560,
            "time": 137.6056615,
            "velocity": 0.5669291338582677
          },
          {
            "duration": 0.2298074625000197,
            "durationTicks": 239,
            "midi": 48,
            "name": "C3",
            "ticks": 118800,
            "time": 137.83643049999998,
            "velocity": 0.5669291338582677
          },
          {
            "duration": 0.2298074624999913,
            "durationTicks": 239,
            "midi": 53,
            "name": "F3",
            "ticks": 119040,
            "time": 138.0671995,
            "velocity": 0.5669291338582677
          },
          {
            "duration": 0.2298074624999913,
            "durationTicks": 239,
            "midi": 56,
            "name": "G#3",
            "ticks": 119280,
            "time": 138.2979685,
            "velocity": 0.5669291338582677
          },
          {
            "duration": 0.2298074625000197,
            "durationTicks": 239,
            "midi": 53,
            "name": "F3",
            "ticks": 119520,
            "time": 138.52873749999998,
            "velocity": 0.5669291338582677
          },
          {
            "duration": 0.2298074624999913,
            "durationTicks": 239,
            "midi": 48,
            "name": "C3",
            "ticks": 119760,
            "time": 138.7595065,
            "velocity": 0.5669291338582677
          },
          {
            "duration": 0.2298074624999913,
            "durationTicks": 239,
            "midi": 37,
            "name": "C#2",
            "ticks": 120000,
            "time": 138.9902755,
            "velocity": 0.5669291338582677
          },
          {
            "duration": 0.2298074625000197,
            "durationTicks": 239,
            "midi": 44,
            "name": "G#2",
            "ticks": 120240,
            "time": 139.22104449999998,
            "velocity": 0.5669291338582677
          },
          {
            "duration": 0.2298074624999913,
            "durationTicks": 239,
            "midi": 49,
            "name": "C#3",
            "ticks": 120480,
            "time": 139.4518135,
            "velocity": 0.5669291338582677
          },
          {
            "duration": 0.2298074624999913,
            "durationTicks": 239,
            "midi": 53,
            "name": "F3",
            "ticks": 120720,
            "time": 139.6825825,
            "velocity": 0.5669291338582677
          },
          {
            "duration": 0.2298074625000197,
            "durationTicks": 239,
            "midi": 49,
            "name": "C#3",
            "ticks": 120960,
            "time": 139.91335149999998,
            "velocity": 0.5669291338582677
          },
          {
            "duration": 0.2298074624999913,
            "durationTicks": 239,
            "midi": 44,
            "name": "G#2",
            "ticks": 121200,
            "time": 140.14412049999999,
            "velocity": 0.5669291338582677
          },
          {
            "duration": 0.2298074624999913,
            "durationTicks": 239,
            "midi": 37,
            "name": "C#2",
            "ticks": 121440,
            "time": 140.3748895,
            "velocity": 0.5669291338582677
          },
          {
            "duration": 0.2298074625000197,
            "durationTicks": 239,
            "midi": 44,
            "name": "G#2",
            "ticks": 121680,
            "time": 140.60565849999998,
            "velocity": 0.5669291338582677
          },
          {
            "duration": 0.2298074625000197,
            "durationTicks": 239,
            "midi": 49,
            "name": "C#3",
            "ticks": 121920,
            "time": 140.83642749999999,
            "velocity": 0.5669291338582677
          },
          {
            "duration": 0.2298074624999913,
            "durationTicks": 239,
            "midi": 53,
            "name": "F3",
            "ticks": 122160,
            "time": 141.0671965,
            "velocity": 0.5669291338582677
          },
          {
            "duration": 0.4605764625000006,
            "durationTicks": 479,
            "midi": 49,
            "name": "C#3",
            "ticks": 122400,
            "time": 141.2979655,
            "velocity": 0.5669291338582677
          },
          {
            "duration": 0.2298074624999913,
            "durationTicks": 239,
            "midi": 44,
            "name": "G#2",
            "ticks": 122880,
            "time": 141.7595035,
            "velocity": 0.5669291338582677
          },
          {
            "duration": 0.2298074624999913,
            "durationTicks": 239,
            "midi": 51,
            "name": "D#3",
            "ticks": 123120,
            "time": 141.9902725,
            "velocity": 0.5669291338582677
          },
          {
            "duration": 0.2298074625000197,
            "durationTicks": 239,
            "midi": 56,
            "name": "G#3",
            "ticks": 123360,
            "time": 142.22104149999998,
            "velocity": 0.5669291338582677
          },
          {
            "duration": 0.2298074624999913,
            "durationTicks": 239,
            "midi": 60,
            "name": "C4",
            "ticks": 123600,
            "time": 142.4518105,
            "velocity": 0.5669291338582677
          },
          {
            "duration": 0.2298074624999913,
            "durationTicks": 239,
            "midi": 56,
            "name": "G#3",
            "ticks": 123840,
            "time": 142.6825795,
            "velocity": 0.5669291338582677
          },
          {
            "duration": 0.2298074625000197,
            "durationTicks": 239,
            "midi": 51,
            "name": "D#3",
            "ticks": 124080,
            "time": 142.91334849999998,
            "velocity": 0.5669291338582677
          },
          {
            "duration": 0.2298074624999913,
            "durationTicks": 239,
            "midi": 44,
            "name": "G#2",
            "ticks": 124320,
            "time": 143.1441175,
            "velocity": 0.5669291338582677
          },
          {
            "duration": 0.2298074624999913,
            "durationTicks": 239,
            "midi": 51,
            "name": "D#3",
            "ticks": 124560,
            "time": 143.3748865,
            "velocity": 0.5669291338582677
          },
          {
            "duration": 0.2298074625000197,
            "durationTicks": 239,
            "midi": 56,
            "name": "G#3",
            "ticks": 124800,
            "time": 143.60565549999998,
            "velocity": 0.5669291338582677
          },
          {
            "duration": 0.2298074624999913,
            "durationTicks": 239,
            "midi": 60,
            "name": "C4",
            "ticks": 125040,
            "time": 143.8364245,
            "velocity": 0.5669291338582677
          },
          {
            "duration": 0.2298074624999913,
            "durationTicks": 239,
            "midi": 56,
            "name": "G#3",
            "ticks": 125280,
            "time": 144.0671935,
            "velocity": 0.5669291338582677
          },
          {
            "duration": 0.2298074625000197,
            "durationTicks": 239,
            "midi": 51,
            "name": "D#3",
            "ticks": 125520,
            "time": 144.29796249999998,
            "velocity": 0.5669291338582677
          },
          {
            "duration": 0.2298074624999913,
            "durationTicks": 239,
            "midi": 39,
            "name": "D#2",
            "ticks": 125760,
            "time": 144.5287315,
            "velocity": 0.5669291338582677
          },
          {
            "duration": 0.2298074624999913,
            "durationTicks": 239,
            "midi": 46,
            "name": "A#2",
            "ticks": 126000,
            "time": 144.7595005,
            "velocity": 0.5669291338582677
          },
          {
            "duration": 0.2298074625000197,
            "durationTicks": 239,
            "midi": 51,
            "name": "D#3",
            "ticks": 126240,
            "time": 144.99026949999998,
            "velocity": 0.5669291338582677
          },
          {
            "duration": 0.2298074624999913,
            "durationTicks": 239,
            "midi": 55,
            "name": "G3",
            "ticks": 126480,
            "time": 145.2210385,
            "velocity": 0.5669291338582677
          },
          {
            "duration": 0.2298074624999913,
            "durationTicks": 239,
            "midi": 51,
            "name": "D#3",
            "ticks": 126720,
            "time": 145.4518075,
            "velocity": 0.5669291338582677
          },
          {
            "duration": 0.2298074625000197,
            "durationTicks": 239,
            "midi": 46,
            "name": "A#2",
            "ticks": 126960,
            "time": 145.68257649999998,
            "velocity": 0.5669291338582677
          },
          {
            "duration": 0.2298074624999913,
            "durationTicks": 239,
            "midi": 39,
            "name": "D#2",
            "ticks": 127200,
            "time": 145.9133455,
            "velocity": 0.5669291338582677
          },
          {
            "duration": 0.2298074624999913,
            "durationTicks": 239,
            "midi": 46,
            "name": "A#2",
            "ticks": 127440,
            "time": 146.1441145,
            "velocity": 0.5669291338582677
          },
          {
            "duration": 0.2298074625000197,
            "durationTicks": 239,
            "midi": 51,
            "name": "D#3",
            "ticks": 127680,
            "time": 146.37488349999998,
            "velocity": 0.5669291338582677
          },
          {
            "duration": 0.2298074624999913,
            "durationTicks": 239,
            "midi": 55,
            "name": "G3",
            "ticks": 127920,
            "time": 146.6056525,
            "velocity": 0.5669291338582677
          },
          {
            "duration": 0.2298074624999913,
            "durationTicks": 239,
            "midi": 51,
            "name": "D#3",
            "ticks": 128160,
            "time": 146.8364215,
            "velocity": 0.5669291338582677
          },
          {
            "duration": 0.2298074625000197,
            "durationTicks": 239,
            "midi": 46,
            "name": "A#2",
            "ticks": 128400,
            "time": 147.06719049999998,
            "velocity": 0.5669291338582677
          },
          {
            "duration": 0.2298074624999913,
            "durationTicks": 239,
            "midi": 41,
            "name": "F2",
            "ticks": 128640,
            "time": 147.2979595,
            "velocity": 0.5669291338582677
          },
          {
            "duration": 0.2298074624999913,
            "durationTicks": 239,
            "midi": 48,
            "name": "C3",
            "ticks": 128880,
            "time": 147.5287285,
            "velocity": 0.5669291338582677
          },
          {
            "duration": 0.2298074625000197,
            "durationTicks": 239,
            "midi": 53,
            "name": "F3",
            "ticks": 129120,
            "time": 147.75949749999998,
            "velocity": 0.5669291338582677
          },
          {
            "duration": 0.2298074624999913,
            "durationTicks": 239,
            "midi": 56,
            "name": "G#3",
            "ticks": 129360,
            "time": 147.9902665,
            "velocity": 0.5669291338582677
          },
          {
            "duration": 0.2298074624999913,
            "durationTicks": 239,
            "midi": 53,
            "name": "F3",
            "ticks": 129600,
            "time": 148.2210355,
            "velocity": 0.5669291338582677
          },
          {
            "duration": 0.2298074625000197,
            "durationTicks": 239,
            "midi": 48,
            "name": "C3",
            "ticks": 129840,
            "time": 148.45180449999998,
            "velocity": 0.5669291338582677
          },
          {
            "duration": 0.2298074624999913,
            "durationTicks": 239,
            "midi": 41,
            "name": "F2",
            "ticks": 130080,
            "time": 148.6825735,
            "velocity": 0.5669291338582677
          },
          {
            "duration": 0.2298074624999913,
            "durationTicks": 239,
            "midi": 48,
            "name": "C3",
            "ticks": 130320,
            "time": 148.9133425,
            "velocity": 0.5669291338582677
          },
          {
            "duration": 0.2298074625000197,
            "durationTicks": 239,
            "midi": 53,
            "name": "F3",
            "ticks": 130560,
            "time": 149.14411149999998,
            "velocity": 0.5669291338582677
          },
          {
            "duration": 0.2298074624999913,
            "durationTicks": 239,
            "midi": 56,
            "name": "G#3",
            "ticks": 130800,
            "time": 149.3748805,
            "velocity": 0.5669291338582677
          },
          {
            "duration": 0.2298074624999913,
            "durationTicks": 239,
            "midi": 53,
            "name": "F3",
            "ticks": 131040,
            "time": 149.6056495,
            "velocity": 0.5669291338582677
          },
          {
            "duration": 0.2298074625000197,
            "durationTicks": 239,
            "midi": 48,
            "name": "C3",
            "ticks": 131280,
            "time": 149.83641849999998,
            "velocity": 0.5669291338582677
          },
          {
            "duration": 0.2298074624999913,
            "durationTicks": 239,
            "midi": 37,
            "name": "C#2",
            "ticks": 131520,
            "time": 150.0671875,
            "velocity": 0.5669291338582677
          },
          {
            "duration": 0.2298074624999913,
            "durationTicks": 239,
            "midi": 44,
            "name": "G#2",
            "ticks": 131760,
            "time": 150.2979565,
            "velocity": 0.5669291338582677
          },
          {
            "duration": 0.2298074625000197,
            "durationTicks": 239,
            "midi": 49,
            "name": "C#3",
            "ticks": 132000,
            "time": 150.52872549999998,
            "velocity": 0.5669291338582677
          },
          {
            "duration": 0.2298074624999913,
            "durationTicks": 239,
            "midi": 53,
            "name": "F3",
            "ticks": 132240,
            "time": 150.7594945,
            "velocity": 0.5669291338582677
          },
          {
            "duration": 0.2298074624999913,
            "durationTicks": 239,
            "midi": 49,
            "name": "C#3",
            "ticks": 132480,
            "time": 150.9902635,
            "velocity": 0.5669291338582677
          },
          {
            "duration": 0.2298074625000197,
            "durationTicks": 239,
            "midi": 44,
            "name": "G#2",
            "ticks": 132720,
            "time": 151.22103249999998,
            "velocity": 0.5669291338582677
          },
          {
            "duration": 0.2298074624999913,
            "durationTicks": 239,
            "midi": 37,
            "name": "C#2",
            "ticks": 132960,
            "time": 151.4518015,
            "velocity": 0.5669291338582677
          },
          {
            "duration": 0.2298074624999913,
            "durationTicks": 239,
            "midi": 44,
            "name": "G#2",
            "ticks": 133200,
            "time": 151.6825705,
            "velocity": 0.5669291338582677
          },
          {
            "duration": 0.2298074625000197,
            "durationTicks": 239,
            "midi": 49,
            "name": "C#3",
            "ticks": 133440,
            "time": 151.91333949999998,
            "velocity": 0.5669291338582677
          },
          {
            "duration": 0.2298074624999913,
            "durationTicks": 239,
            "midi": 53,
            "name": "F3",
            "ticks": 133680,
            "time": 152.1441085,
            "velocity": 0.5669291338582677
          },
          {
            "duration": 0.4605764625000006,
            "durationTicks": 479,
            "midi": 49,
            "name": "C#3",
            "ticks": 133920,
            "time": 152.3748775,
            "velocity": 0.5669291338582677
          },
          {
            "duration": 0.2298074624999913,
            "durationTicks": 239,
            "midi": 44,
            "name": "G#2",
            "ticks": 134400,
            "time": 152.8364155,
            "velocity": 0.5669291338582677
          },
          {
            "duration": 0.2298074624999913,
            "durationTicks": 239,
            "midi": 51,
            "name": "D#3",
            "ticks": 134640,
            "time": 153.0671845,
            "velocity": 0.5669291338582677
          },
          {
            "duration": 0.2298074625000197,
            "durationTicks": 239,
            "midi": 56,
            "name": "G#3",
            "ticks": 134880,
            "time": 153.29795349999998,
            "velocity": 0.5669291338582677
          },
          {
            "duration": 0.2298074624999913,
            "durationTicks": 239,
            "midi": 60,
            "name": "C4",
            "ticks": 135120,
            "time": 153.5287225,
            "velocity": 0.5669291338582677
          },
          {
            "duration": 0.2298074624999913,
            "durationTicks": 239,
            "midi": 56,
            "name": "G#3",
            "ticks": 135360,
            "time": 153.7594915,
            "velocity": 0.5669291338582677
          },
          {
            "duration": 0.2298074625000197,
            "durationTicks": 239,
            "midi": 51,
            "name": "D#3",
            "ticks": 135600,
            "time": 153.99026049999998,
            "velocity": 0.5669291338582677
          },
          {
            "duration": 0.2298074624999913,
            "durationTicks": 239,
            "midi": 44,
            "name": "G#2",
            "ticks": 135840,
            "time": 154.2210295,
            "velocity": 0.5669291338582677
          },
          {
            "duration": 0.2298074624999913,
            "durationTicks": 239,
            "midi": 51,
            "name": "D#3",
            "ticks": 136080,
            "time": 154.4517985,
            "velocity": 0.5669291338582677
          },
          {
            "duration": 0.2298074625000197,
            "durationTicks": 239,
            "midi": 56,
            "name": "G#3",
            "ticks": 136320,
            "time": 154.68256749999998,
            "velocity": 0.5669291338582677
          },
          {
            "duration": 0.2298074624999913,
            "durationTicks": 239,
            "midi": 60,
            "name": "C4",
            "ticks": 136560,
            "time": 154.91333649999999,
            "velocity": 0.5669291338582677
          },
          {
            "duration": 0.2298074624999913,
            "durationTicks": 239,
            "midi": 56,
            "name": "G#3",
            "ticks": 136800,
            "time": 155.1441055,
            "velocity": 0.5669291338582677
          },
          {
            "duration": 0.2298074625000197,
            "durationTicks": 239,
            "midi": 51,
            "name": "D#3",
            "ticks": 137040,
            "time": 155.37487449999998,
            "velocity": 0.5669291338582677
          },
          {
            "duration": 0.2298074624999913,
            "durationTicks": 239,
            "midi": 39,
            "name": "D#2",
            "ticks": 137280,
            "time": 155.60564349999999,
            "velocity": 0.5669291338582677
          },
          {
            "duration": 0.2298074624999913,
            "durationTicks": 239,
            "midi": 46,
            "name": "A#2",
            "ticks": 137520,
            "time": 155.8364125,
            "velocity": 0.5669291338582677
          },
          {
            "duration": 0.2298074625000197,
            "durationTicks": 239,
            "midi": 51,
            "name": "D#3",
            "ticks": 137760,
            "time": 156.06718149999998,
            "velocity": 0.5669291338582677
          },
          {
            "duration": 0.2298074624999913,
            "durationTicks": 239,
            "midi": 55,
            "name": "G3",
            "ticks": 138000,
            "time": 156.29795049999998,
            "velocity": 0.5669291338582677
          },
          {
            "duration": 0.2298074624999913,
            "durationTicks": 239,
            "midi": 51,
            "name": "D#3",
            "ticks": 138240,
            "time": 156.5287195,
            "velocity": 0.5669291338582677
          },
          {
            "duration": 0.2298074625000197,
            "durationTicks": 239,
            "midi": 46,
            "name": "A#2",
            "ticks": 138480,
            "time": 156.75948849999997,
            "velocity": 0.5669291338582677
          },
          {
            "duration": 0.2298074624999913,
            "durationTicks": 239,
            "midi": 39,
            "name": "D#2",
            "ticks": 138720,
            "time": 156.99025749999998,
            "velocity": 0.5669291338582677
          },
          {
            "duration": 0.2298074624999913,
            "durationTicks": 239,
            "midi": 46,
            "name": "A#2",
            "ticks": 138960,
            "time": 157.2210265,
            "velocity": 0.5669291338582677
          },
          {
            "duration": 0.2298074625000197,
            "durationTicks": 239,
            "midi": 51,
            "name": "D#3",
            "ticks": 139200,
            "time": 157.45179549999997,
            "velocity": 0.5669291338582677
          },
          {
            "duration": 0.2298074624999913,
            "durationTicks": 239,
            "midi": 55,
            "name": "G3",
            "ticks": 139440,
            "time": 157.68256449999998,
            "velocity": 0.5669291338582677
          },
          {
            "duration": 0.2298074624999913,
            "durationTicks": 239,
            "midi": 51,
            "name": "D#3",
            "ticks": 139680,
            "time": 157.9133335,
            "velocity": 0.5669291338582677
          },
          {
            "duration": 0.2298074625000197,
            "durationTicks": 239,
            "midi": 46,
            "name": "A#2",
            "ticks": 139920,
            "time": 158.14410249999997,
            "velocity": 0.5669291338582677
          },
          {
            "duration": 0.2298074624999913,
            "durationTicks": 239,
            "midi": 41,
            "name": "F2",
            "ticks": 140160,
            "time": 158.37487149999998,
            "velocity": 0.6299212598425197
          },
          {
            "duration": 0.2298074624999913,
            "durationTicks": 239,
            "midi": 48,
            "name": "C3",
            "ticks": 140400,
            "time": 158.6056405,
            "velocity": 0.6299212598425197
          },
          {
            "duration": 0.2298074625000197,
            "durationTicks": 239,
            "midi": 53,
            "name": "F3",
            "ticks": 140640,
            "time": 158.83640949999997,
            "velocity": 0.6299212598425197
          },
          {
            "duration": 0.2298074625000197,
            "durationTicks": 239,
            "midi": 56,
            "name": "G#3",
            "ticks": 140880,
            "time": 159.06717849999998,
            "velocity": 0.6299212598425197
          },
          {
            "duration": 0.2298074624999913,
            "durationTicks": 239,
            "midi": 53,
            "name": "F3",
            "ticks": 141120,
            "time": 159.2979475,
            "velocity": 0.6299212598425197
          },
          {
            "duration": 0.2298074624999913,
            "durationTicks": 239,
            "midi": 48,
            "name": "C3",
            "ticks": 141360,
            "time": 159.5287165,
            "velocity": 0.6299212598425197
          },
          {
            "duration": 0.2298074625000197,
            "durationTicks": 239,
            "midi": 37,
            "name": "C#2",
            "ticks": 141600,
            "time": 159.75948549999998,
            "velocity": 0.6299212598425197
          },
          {
            "duration": 0.2298074624999913,
            "durationTicks": 239,
            "midi": 44,
            "name": "G#2",
            "ticks": 141840,
            "time": 159.9902545,
            "velocity": 0.6299212598425197
          },
          {
            "duration": 0.2298074624999913,
            "durationTicks": 239,
            "midi": 49,
            "name": "C#3",
            "ticks": 142080,
            "time": 160.2210235,
            "velocity": 0.6299212598425197
          },
          {
            "duration": 0.6913454625000099,
            "durationTicks": 719,
            "midi": 53,
            "name": "F3",
            "ticks": 142320,
            "time": 160.45179249999998,
            "velocity": 0.6299212598425197
          },
          {
            "duration": 0.2298074625000197,
            "durationTicks": 239,
            "midi": 44,
            "name": "G#2",
            "ticks": 143040,
            "time": 161.14409949999998,
            "velocity": 0.6299212598425197
          },
          {
            "duration": 0.2298074624999913,
            "durationTicks": 239,
            "midi": 51,
            "name": "D#3",
            "ticks": 143280,
            "time": 161.3748685,
            "velocity": 0.6299212598425197
          },
          {
            "duration": 0.2298074624999913,
            "durationTicks": 239,
            "midi": 56,
            "name": "G#3",
            "ticks": 143520,
            "time": 161.6056375,
            "velocity": 0.6299212598425197
          },
          {
            "duration": 0.2298074625000197,
            "durationTicks": 239,
            "midi": 60,
            "name": "C4",
            "ticks": 143760,
            "time": 161.83640649999998,
            "velocity": 0.6299212598425197
          },
          {
            "duration": 0.2298074624999913,
            "durationTicks": 239,
            "midi": 56,
            "name": "G#3",
            "ticks": 144000,
            "time": 162.0671755,
            "velocity": 0.6299212598425197
          },
          {
            "duration": 0.2298074624999913,
            "durationTicks": 239,
            "midi": 51,
            "name": "D#3",
            "ticks": 144240,
            "time": 162.2979445,
            "velocity": 0.6299212598425197
          },
          {
            "duration": 0.2298074625000197,
            "durationTicks": 239,
            "midi": 39,
            "name": "D#2",
            "ticks": 144480,
            "time": 162.52871349999998,
            "velocity": 0.6299212598425197
          },
          {
            "duration": 0.2298074624999913,
            "durationTicks": 239,
            "midi": 46,
            "name": "A#2",
            "ticks": 144720,
            "time": 162.7594825,
            "velocity": 0.6299212598425197
          },
          {
            "duration": 0.2298074624999913,
            "durationTicks": 239,
            "midi": 51,
            "name": "D#3",
            "ticks": 144960,
            "time": 162.9902515,
            "velocity": 0.6299212598425197
          },
          {
            "duration": 0.2298074625000197,
            "durationTicks": 239,
            "midi": 55,
            "name": "G3",
            "ticks": 145200,
            "time": 163.22102049999998,
            "velocity": 0.6299212598425197
          },
          {
            "duration": 0.2298074624999913,
            "durationTicks": 239,
            "midi": 51,
            "name": "D#3",
            "ticks": 145440,
            "time": 163.4517895,
            "velocity": 0.6299212598425197
          },
          {
            "duration": 0.2298074624999913,
            "durationTicks": 239,
            "midi": 46,
            "name": "A#2",
            "ticks": 145680,
            "time": 163.6825585,
            "velocity": 0.6299212598425197
          },
          {
            "duration": 0.2298074625000197,
            "durationTicks": 239,
            "midi": 41,
            "name": "F2",
            "ticks": 145920,
            "time": 163.91332749999998,
            "velocity": 0.6299212598425197
          },
          {
            "duration": 0.2298074624999913,
            "durationTicks": 239,
            "midi": 48,
            "name": "C3",
            "ticks": 146160,
            "time": 164.1440965,
            "velocity": 0.6299212598425197
          },
          {
            "duration": 0.2298074624999913,
            "durationTicks": 239,
            "midi": 53,
            "name": "F3",
            "ticks": 146400,
            "time": 164.3748655,
            "velocity": 0.6299212598425197
          },
          {
            "duration": 0.2298074625000197,
            "durationTicks": 239,
            "midi": 56,
            "name": "G#3",
            "ticks": 146640,
            "time": 164.60563449999998,
            "velocity": 0.6299212598425197
          },
          {
            "duration": 0.2298074624999913,
            "durationTicks": 239,
            "midi": 53,
            "name": "F3",
            "ticks": 146880,
            "time": 164.8364035,
            "velocity": 0.6299212598425197
          },
          {
            "duration": 0.2298074624999913,
            "durationTicks": 239,
            "midi": 48,
            "name": "C3",
            "ticks": 147120,
            "time": 165.0671725,
            "velocity": 0.6299212598425197
          },
          {
            "duration": 0.2298074625000197,
            "durationTicks": 239,
            "midi": 37,
            "name": "C#2",
            "ticks": 147360,
            "time": 165.29794149999998,
            "velocity": 0.6299212598425197
          },
          {
            "duration": 0.2298074624999913,
            "durationTicks": 239,
            "midi": 44,
            "name": "G#2",
            "ticks": 147600,
            "time": 165.5287105,
            "velocity": 0.6299212598425197
          },
          {
            "duration": 0.2298074624999913,
            "durationTicks": 239,
            "midi": 49,
            "name": "C#3",
            "ticks": 147840,
            "time": 165.7594795,
            "velocity": 0.6299212598425197
          },
          {
            "duration": 0.6913454625000099,
            "durationTicks": 719,
            "midi": 53,
            "name": "F3",
            "ticks": 148080,
            "time": 165.99024849999998,
            "velocity": 0.6299212598425197
          },
          {
            "duration": 0.2298074625000197,
            "durationTicks": 239,
            "midi": 44,
            "name": "G#2",
            "ticks": 148800,
            "time": 166.68255549999998,
            "velocity": 0.6299212598425197
          },
          {
            "duration": 0.2298074624999913,
            "durationTicks": 239,
            "midi": 51,
            "name": "D#3",
            "ticks": 149040,
            "time": 166.9133245,
            "velocity": 0.6299212598425197
          },
          {
            "duration": 0.2298074624999913,
            "durationTicks": 239,
            "midi": 56,
            "name": "G#3",
            "ticks": 149280,
            "time": 167.1440935,
            "velocity": 0.6299212598425197
          },
          {
            "duration": 0.2298074625000197,
            "durationTicks": 239,
            "midi": 60,
            "name": "C4",
            "ticks": 149520,
            "time": 167.37486249999998,
            "velocity": 0.6299212598425197
          },
          {
            "duration": 0.2298074624999913,
            "durationTicks": 239,
            "midi": 56,
            "name": "G#3",
            "ticks": 149760,
            "time": 167.6056315,
            "velocity": 0.6299212598425197
          },
          {
            "duration": 0.2298074624999913,
            "durationTicks": 239,
            "midi": 51,
            "name": "D#3",
            "ticks": 150000,
            "time": 167.8364005,
            "velocity": 0.6299212598425197
          },
          {
            "duration": 0.2298074625000197,
            "durationTicks": 239,
            "midi": 39,
            "name": "D#2",
            "ticks": 150240,
            "time": 168.06716949999998,
            "velocity": 0.6299212598425197
          },
          {
            "duration": 0.2298074624999913,
            "durationTicks": 239,
            "midi": 46,
            "name": "A#2",
            "ticks": 150480,
            "time": 168.2979385,
            "velocity": 0.6299212598425197
          },
          {
            "duration": 0.2298074624999913,
            "durationTicks": 239,
            "midi": 51,
            "name": "D#3",
            "ticks": 150720,
            "time": 168.5287075,
            "velocity": 0.6299212598425197
          },
          {
            "duration": 0.2298074625000197,
            "durationTicks": 239,
            "midi": 55,
            "name": "G3",
            "ticks": 150960,
            "time": 168.75947649999998,
            "velocity": 0.6299212598425197
          },
          {
            "duration": 0.2298074624999913,
            "durationTicks": 239,
            "midi": 51,
            "name": "D#3",
            "ticks": 151200,
            "time": 168.9902455,
            "velocity": 0.6299212598425197
          },
          {
            "duration": 0.2298074624999913,
            "durationTicks": 239,
            "midi": 46,
            "name": "A#2",
            "ticks": 151440,
            "time": 169.2210145,
            "velocity": 0.6299212598425197
          },
          {
            "duration": 0.2298074625000197,
            "durationTicks": 239,
            "midi": 41,
            "name": "F2",
            "ticks": 151680,
            "time": 169.45178349999998,
            "velocity": 0.6299212598425197
          },
          {
            "duration": 0.2298074624999913,
            "durationTicks": 239,
            "midi": 48,
            "name": "C3",
            "ticks": 151920,
            "time": 169.68255249999999,
            "velocity": 0.6299212598425197
          },
          {
            "duration": 0.2298074624999913,
            "durationTicks": 239,
            "midi": 53,
            "name": "F3",
            "ticks": 152160,
            "time": 169.9133215,
            "velocity": 0.6299212598425197
          },
          {
            "duration": 0.2298074625000197,
            "durationTicks": 239,
            "midi": 56,
            "name": "G#3",
            "ticks": 152400,
            "time": 170.14409049999998,
            "velocity": 0.6299212598425197
          },
          {
            "duration": 0.2298074624999913,
            "durationTicks": 239,
            "midi": 53,
            "name": "F3",
            "ticks": 152640,
            "time": 170.37485949999999,
            "velocity": 0.6299212598425197
          },
          {
            "duration": 0.2298074624999913,
            "durationTicks": 239,
            "midi": 48,
            "name": "C3",
            "ticks": 152880,
            "time": 170.6056285,
            "velocity": 0.6299212598425197
          },
          {
            "duration": 0.2298074625000197,
            "durationTicks": 239,
            "midi": 37,
            "name": "C#2",
            "ticks": 153120,
            "time": 170.83639749999998,
            "velocity": 0.6299212598425197
          },
          {
            "duration": 0.2298074624999913,
            "durationTicks": 239,
            "midi": 44,
            "name": "G#2",
            "ticks": 153360,
            "time": 171.06716649999998,
            "velocity": 0.6299212598425197
          },
          {
            "duration": 0.2298074624999913,
            "durationTicks": 239,
            "midi": 49,
            "name": "C#3",
            "ticks": 153600,
            "time": 171.2979355,
            "velocity": 0.6299212598425197
          },
          {
            "duration": 0.6913454625000099,
            "durationTicks": 719,
            "midi": 53,
            "name": "F3",
            "ticks": 153840,
            "time": 171.52870449999998,
            "velocity": 0.6299212598425197
          },
          {
            "duration": 0.2298074625000197,
            "durationTicks": 239,
            "midi": 44,
            "name": "G#2",
            "ticks": 154560,
            "time": 172.22101149999997,
            "velocity": 0.6299212598425197
          },
          {
            "duration": 0.2298074624999913,
            "durationTicks": 239,
            "midi": 51,
            "name": "D#3",
            "ticks": 154800,
            "time": 172.45178049999998,
            "velocity": 0.6299212598425197
          },
          {
            "duration": 0.2298074624999913,
            "durationTicks": 239,
            "midi": 56,
            "name": "G#3",
            "ticks": 155040,
            "time": 172.6825495,
            "velocity": 0.6299212598425197
          },
          {
            "duration": 0.2298074624999913,
            "durationTicks": 239,
            "midi": 60,
            "name": "C4",
            "ticks": 155280,
            "time": 172.91331849999997,
            "velocity": 0.6299212598425197
          },
          {
            "duration": 0.2298074624999913,
            "durationTicks": 239,
            "midi": 56,
            "name": "G#3",
            "ticks": 155520,
            "time": 173.14408749999998,
            "velocity": 0.6299212598425197
          },
          {
            "duration": 0.2298074624999913,
            "durationTicks": 239,
            "midi": 51,
            "name": "D#3",
            "ticks": 155760,
            "time": 173.3748565,
            "velocity": 0.6299212598425197
          },
          {
            "duration": 0.2298074624999913,
            "durationTicks": 239,
            "midi": 39,
            "name": "D#2",
            "ticks": 156000,
            "time": 173.60562549999997,
            "velocity": 0.6299212598425197
          },
          {
            "duration": 0.2298074624999913,
            "durationTicks": 239,
            "midi": 46,
            "name": "A#2",
            "ticks": 156240,
            "time": 173.83639449999998,
            "velocity": 0.6299212598425197
          },
          {
            "duration": 0.2298074624999913,
            "durationTicks": 239,
            "midi": 51,
            "name": "D#3",
            "ticks": 156480,
            "time": 174.0671635,
            "velocity": 0.6299212598425197
          },
          {
            "duration": 0.2298074624999913,
            "durationTicks": 239,
            "midi": 55,
            "name": "G3",
            "ticks": 156720,
            "time": 174.29793249999997,
            "velocity": 0.6299212598425197
          },
          {
            "duration": 0.2298074624999913,
            "durationTicks": 239,
            "midi": 51,
            "name": "D#3",
            "ticks": 156960,
            "time": 174.52870149999998,
            "velocity": 0.6299212598425197
          },
          {
            "duration": 0.2298074624999913,
            "durationTicks": 239,
            "midi": 46,
            "name": "A#2",
            "ticks": 157200,
            "time": 174.7594705,
            "velocity": 0.6299212598425197
          },
          {
            "duration": 0.2298074624999913,
            "durationTicks": 239,
            "midi": 41,
            "name": "F2",
            "ticks": 157440,
            "time": 174.99023949999997,
            "velocity": 0.6299212598425197
          },
          {
            "duration": 0.2298074624999913,
            "durationTicks": 239,
            "midi": 48,
            "name": "C3",
            "ticks": 157680,
            "time": 175.22100849999998,
            "velocity": 0.6299212598425197
          },
          {
            "duration": 0.2298074624999913,
            "durationTicks": 239,
            "midi": 53,
            "name": "F3",
            "ticks": 157920,
            "time": 175.4517775,
            "velocity": 0.6299212598425197
          },
          {
            "duration": 0.2298074624999913,
            "durationTicks": 239,
            "midi": 56,
            "name": "G#3",
            "ticks": 158160,
            "time": 175.68254649999997,
            "velocity": 0.6299212598425197
          },
          {
            "duration": 0.2298074624999913,
            "durationTicks": 239,
            "midi": 53,
            "name": "F3",
            "ticks": 158400,
            "time": 175.91331549999998,
            "velocity": 0.6299212598425197
          },
          {
            "duration": 0.2298074624999913,
            "durationTicks": 239,
            "midi": 48,
            "name": "C3",
            "ticks": 158640,
            "time": 176.1440845,
            "velocity": 0.6299212598425197
          },
          {
            "duration": 0.2298074624999913,
            "durationTicks": 239,
            "midi": 37,
            "name": "C#2",
            "ticks": 158880,
            "time": 176.37485349999997,
            "velocity": 0.6299212598425197
          },
          {
            "duration": 0.2298074624999913,
            "durationTicks": 239,
            "midi": 44,
            "name": "G#2",
            "ticks": 159120,
            "time": 176.60562249999998,
            "velocity": 0.6299212598425197
          },
          {
            "duration": 0.2298074624999913,
            "durationTicks": 239,
            "midi": 49,
            "name": "C#3",
            "ticks": 159360,
            "time": 176.8363915,
            "velocity": 0.6299212598425197
          },
          {
            "duration": 0.6913454625000099,
            "durationTicks": 719,
            "midi": 53,
            "name": "F3",
            "ticks": 159600,
            "time": 177.06716049999997,
            "velocity": 0.6299212598425197
          },
          {
            "duration": 0.22980746249996287,
            "durationTicks": 239,
            "midi": 44,
            "name": "G#2",
            "ticks": 160320,
            "time": 177.7594675,
            "velocity": 0.6299212598425197
          },
          {
            "duration": 0.2298074624999913,
            "durationTicks": 239,
            "midi": 51,
            "name": "D#3",
            "ticks": 160560,
            "time": 177.99023649999998,
            "velocity": 0.6299212598425197
          },
          {
            "duration": 0.2298074624999913,
            "durationTicks": 239,
            "midi": 56,
            "name": "G#3",
            "ticks": 160800,
            "time": 178.2210055,
            "velocity": 0.6299212598425197
          },
          {
            "duration": 0.22980746249996287,
            "durationTicks": 239,
            "midi": 60,
            "name": "C4",
            "ticks": 161040,
            "time": 178.4517745,
            "velocity": 0.6299212598425197
          },
          {
            "duration": 0.2298074624999913,
            "durationTicks": 239,
            "midi": 56,
            "name": "G#3",
            "ticks": 161280,
            "time": 178.68254349999998,
            "velocity": 0.6299212598425197
          },
          {
            "duration": 0.2298074624999913,
            "durationTicks": 239,
            "midi": 51,
            "name": "D#3",
            "ticks": 161520,
            "time": 178.9133125,
            "velocity": 0.6299212598425197
          },
          {
            "duration": 0.426784291666678,
            "durationTicks": 239,
            "midi": 39,
            "name": "D#2",
            "ticks": 161760,
            "time": 179.1440815,
            "velocity": 0.6299212598425197
          },
          {
            "duration": 0.3319446104166559,
            "durationTicks": 239,
            "midi": 46,
            "name": "A#2",
            "ticks": 162000,
            "time": 179.5726515,
            "velocity": 0.6299212598425197
          },
          {
            "duration": 0.3319446104166559,
            "durationTicks": 239,
            "midi": 51,
            "name": "D#3",
            "ticks": 162240,
            "time": 179.90598500000002,
            "velocity": 0.6299212598425197
          },
          {
            "duration": 0.426784291666678,
            "durationTicks": 239,
            "midi": 55,
            "name": "G3",
            "ticks": 162480,
            "time": 180.2393185,
            "velocity": 0.6299212598425197
          },
          {
            "duration": 0.9958333333333371,
            "durationTicks": 239,
            "midi": 58,
            "name": "A#3",
            "ticks": 162720,
            "time": 180.6678885,
            "velocity": 0.6299212598425197
          },
          {
            "duration": 12.995833333333337,
            "durationTicks": 3119,
            "midi": 63,
            "name": "D#4",
            "ticks": 162960,
            "time": 181.6678885,
            "velocity": 0.3858267716535433
          },
          {
            "duration": 2.397500000000008,
            "durationTicks": 959,
            "midi": 56,
            "name": "G#3",
            "ticks": 166080,
            "time": 194.6678885,
            "velocity": 0.5039370078740157
          },
          {
            "duration": 2.397500000000008,
            "durationTicks": 959,
            "midi": 53,
            "name": "F3",
            "ticks": 166080,
            "time": 194.6678885,
            "velocity": 0.5039370078740157
          },
          {
            "duration": 2.397500000000008,
            "durationTicks": 959,
            "midi": 56,
            "name": "G#3",
            "ticks": 167040,
            "time": 197.0678885,
            "velocity": 0.5039370078740157
          },
          {
            "duration": 2.397500000000008,
            "durationTicks": 959,
            "midi": 53,
            "name": "F3",
            "ticks": 167040,
            "time": 197.0678885,
            "velocity": 0.5039370078740157
          },
          {
            "duration": 2.397500000000008,
            "durationTicks": 959,
            "midi": 49,
            "name": "C#3",
            "ticks": 167040,
            "time": 197.0678885,
            "velocity": 0.5039370078740157
          },
          {
            "duration": 2.3974999999999795,
            "durationTicks": 959,
            "midi": 56,
            "name": "G#3",
            "ticks": 168000,
            "time": 199.46788850000002,
            "velocity": 0.5039370078740157
          },
          {
            "duration": 2.3974999999999795,
            "durationTicks": 959,
            "midi": 51,
            "name": "D#3",
            "ticks": 168000,
            "time": 199.46788850000002,
            "velocity": 0.5039370078740157
          },
          {
            "duration": 1.1975000000000193,
            "durationTicks": 479,
            "midi": 56,
            "name": "G#3",
            "ticks": 168960,
            "time": 201.8678885,
            "velocity": 0.5039370078740157
          },
          {
            "duration": 2.397500000000008,
            "durationTicks": 959,
            "midi": 51,
            "name": "D#3",
            "ticks": 168960,
            "time": 201.8678885,
            "velocity": 0.5039370078740157
          },
          {
            "duration": 1.197499999999991,
            "durationTicks": 479,
            "midi": 55,
            "name": "G3",
            "ticks": 169440,
            "time": 203.0678885,
            "velocity": 0.5039370078740157
          },
          {
            "duration": 2.397500000000008,
            "durationTicks": 959,
            "midi": 56,
            "name": "G#3",
            "ticks": 169920,
            "time": 204.2678885,
            "velocity": 0.5039370078740157
          },
          {
            "duration": 2.397500000000008,
            "durationTicks": 959,
            "midi": 53,
            "name": "F3",
            "ticks": 169920,
            "time": 204.2678885,
            "velocity": 0.5039370078740157
          },
          {
            "duration": 2.397500000000008,
            "durationTicks": 959,
            "midi": 56,
            "name": "G#3",
            "ticks": 170880,
            "time": 206.6678885,
            "velocity": 0.5039370078740157
          },
          {
            "duration": 2.397500000000008,
            "durationTicks": 959,
            "midi": 53,
            "name": "F3",
            "ticks": 170880,
            "time": 206.6678885,
            "velocity": 0.5039370078740157
          },
          {
            "duration": 2.397500000000008,
            "durationTicks": 959,
            "midi": 49,
            "name": "C#3",
            "ticks": 170880,
            "time": 206.6678885,
            "velocity": 0.5039370078740157
          },
          {
            "duration": 3.995833333333337,
            "durationTicks": 959,
            "midi": 56,
            "name": "G#3",
            "ticks": 171840,
            "time": 209.0678885,
            "velocity": 0.5039370078740157
          },
          {
            "duration": 3.995833333333337,
            "durationTicks": 959,
            "midi": 51,
            "name": "D#3",
            "ticks": 171840,
            "time": 209.0678885,
            "velocity": 0.5039370078740157
          },
          {
            "duration": 7.051479050000012,
            "durationTicks": 959,
            "midi": 55,
            "name": "G3",
            "ticks": 172800,
            "time": 213.0678885,
            "velocity": 0.5039370078740157
          },
          {
            "duration": 7.051479050000012,
            "durationTicks": 959,
            "midi": 51,
            "name": "D#3",
            "ticks": 172800,
            "time": 213.0678885,
            "velocity": 0.5039370078740157
          },
          {
            "duration": 2.99895833333332,
            "durationTicks": 2879,
            "midi": 53,
            "name": "F3",
            "ticks": 173760,
            "time": 220.1267205,
            "velocity": 0.3858267716535433
          },
          {
            "duration": 2.99895833333332,
            "durationTicks": 2879,
            "midi": 48,
            "name": "C3",
            "ticks": 173760,
            "time": 220.1267205,
            "velocity": 0.3858267716535433
          },
          {
            "duration": 2.99895833333332,
            "durationTicks": 2879,
            "midi": 41,
            "name": "F2",
            "ticks": 173760,
            "time": 220.1267205,
            "velocity": 0.3858267716535433
          },
          {
            "duration": 2.99895833333332,
            "durationTicks": 2879,
            "midi": 49,
            "name": "C#3",
            "ticks": 176640,
            "time": 223.1267205,
            "velocity": 0.3858267716535433
          },
          {
            "duration": 2.99895833333332,
            "durationTicks": 2879,
            "midi": 44,
            "name": "G#2",
            "ticks": 176640,
            "time": 223.1267205,
            "velocity": 0.3858267716535433
          },
          {
            "duration": 2.99895833333332,
            "durationTicks": 2879,
            "midi": 37,
            "name": "C#2",
            "ticks": 176640,
            "time": 223.1267205,
            "velocity": 0.3858267716535433
          },
          {
            "duration": 2.99895833333332,
            "durationTicks": 2879,
            "midi": 56,
            "name": "G#3",
            "ticks": 179520,
            "time": 226.1267205,
            "velocity": 0.3858267716535433
          },
          {
            "duration": 2.99895833333332,
            "durationTicks": 2879,
            "midi": 51,
            "name": "D#3",
            "ticks": 179520,
            "time": 226.1267205,
            "velocity": 0.3858267716535433
          },
          {
            "duration": 2.99895833333332,
            "durationTicks": 2879,
            "midi": 44,
            "name": "G#2",
            "ticks": 179520,
            "time": 226.1267205,
            "velocity": 0.3858267716535433
          },
          {
            "duration": 2.99895833333332,
            "durationTicks": 2879,
            "midi": 51,
            "name": "D#3",
            "ticks": 182400,
            "time": 229.1267205,
            "velocity": 0.3858267716535433
          },
          {
            "duration": 2.99895833333332,
            "durationTicks": 2879,
            "midi": 46,
            "name": "A#2",
            "ticks": 182400,
            "time": 229.1267205,
            "velocity": 0.3858267716535433
          },
          {
            "duration": 2.99895833333332,
            "durationTicks": 2879,
            "midi": 39,
            "name": "D#2",
            "ticks": 182400,
            "time": 229.1267205,
            "velocity": 0.3858267716535433
          },
          {
            "duration": 2.99895833333332,
            "durationTicks": 2879,
            "midi": 53,
            "name": "F3",
            "ticks": 185280,
            "time": 232.1267205,
            "velocity": 0.3858267716535433
          },
          {
            "duration": 2.99895833333332,
            "durationTicks": 2879,
            "midi": 48,
            "name": "C3",
            "ticks": 185280,
            "time": 232.1267205,
            "velocity": 0.3858267716535433
          },
          {
            "duration": 2.99895833333332,
            "durationTicks": 2879,
            "midi": 41,
            "name": "F2",
            "ticks": 185280,
            "time": 232.1267205,
            "velocity": 0.3858267716535433
          },
          {
            "duration": 2.99895833333332,
            "durationTicks": 2879,
            "midi": 49,
            "name": "C#3",
            "ticks": 188160,
            "time": 235.1267205,
            "velocity": 0.3858267716535433
          },
          {
            "duration": 2.99895833333332,
            "durationTicks": 2879,
            "midi": 44,
            "name": "G#2",
            "ticks": 188160,
            "time": 235.1267205,
            "velocity": 0.3858267716535433
          },
          {
            "duration": 2.99895833333332,
            "durationTicks": 2879,
            "midi": 37,
            "name": "C#2",
            "ticks": 188160,
            "time": 235.1267205,
            "velocity": 0.3858267716535433
          },
          {
            "duration": 2.99895833333332,
            "durationTicks": 2879,
            "midi": 56,
            "name": "G#3",
            "ticks": 191040,
            "time": 238.1267205,
            "velocity": 0.3858267716535433
          },
          {
            "duration": 2.99895833333332,
            "durationTicks": 2879,
            "midi": 51,
            "name": "D#3",
            "ticks": 191040,
            "time": 238.1267205,
            "velocity": 0.3858267716535433
          },
          {
            "duration": 2.99895833333332,
            "durationTicks": 2879,
            "midi": 44,
            "name": "G#2",
            "ticks": 191040,
            "time": 238.1267205,
            "velocity": 0.3858267716535433
          },
          {
            "duration": 2.99895833333332,
            "durationTicks": 2879,
            "midi": 51,
            "name": "D#3",
            "ticks": 193920,
            "time": 241.1267205,
            "velocity": 0.3858267716535433
          },
          {
            "duration": 2.99895833333332,
            "durationTicks": 2879,
            "midi": 46,
            "name": "A#2",
            "ticks": 193920,
            "time": 241.1267205,
            "velocity": 0.3858267716535433
          },
          {
            "duration": 2.99895833333332,
            "durationTicks": 2879,
            "midi": 39,
            "name": "D#2",
            "ticks": 193920,
            "time": 241.1267205,
            "velocity": 0.3858267716535433
          },
          {
            "duration": 0.24895833333332007,
            "durationTicks": 239,
            "midi": 41,
            "name": "F2",
            "ticks": 196800,
            "time": 244.1267205,
            "velocity": 0.3858267716535433
          },
          {
            "duration": 0.24895833333332007,
            "durationTicks": 239,
            "midi": 48,
            "name": "C3",
            "ticks": 197040,
            "time": 244.3767205,
            "velocity": 0.3858267716535433
          },
          {
            "duration": 0.24895833333332007,
            "durationTicks": 239,
            "midi": 53,
            "name": "F3",
            "ticks": 197280,
            "time": 244.6267205,
            "velocity": 0.3858267716535433
          },
          {
            "duration": 0.23900049791666333,
            "durationTicks": 239,
            "midi": 48,
            "name": "C3",
            "ticks": 197520,
            "time": 244.8767205,
            "velocity": 0.3858267716535433
          },
          {
            "duration": 0.23900049791666333,
            "durationTicks": 239,
            "midi": 53,
            "name": "F3",
            "ticks": 197760,
            "time": 245.116721,
            "velocity": 0.3858267716535433
          },
          {
            "duration": 0.23900049791669176,
            "durationTicks": 239,
            "midi": 48,
            "name": "C3",
            "ticks": 198000,
            "time": 245.3567215,
            "velocity": 0.3858267716535433
          },
          {
            "duration": 0.2298074624999913,
            "durationTicks": 239,
            "midi": 41,
            "name": "F2",
            "ticks": 198240,
            "time": 245.596722,
            "velocity": 0.5039370078740157
          },
          {
            "duration": 0.2298074624999913,
            "durationTicks": 239,
            "midi": 48,
            "name": "C3",
            "ticks": 198480,
            "time": 245.827491,
            "velocity": 0.5039370078740157
          },
          {
            "duration": 0.2298074625000197,
            "durationTicks": 239,
            "midi": 53,
            "name": "F3",
            "ticks": 198720,
            "time": 246.05826,
            "velocity": 0.5039370078740157
          },
          {
            "duration": 0.2298074624999913,
            "durationTicks": 239,
            "midi": 48,
            "name": "C3",
            "ticks": 198960,
            "time": 246.289029,
            "velocity": 0.5039370078740157
          },
          {
            "duration": 0.2298074624999913,
            "durationTicks": 239,
            "midi": 53,
            "name": "F3",
            "ticks": 199200,
            "time": 246.519798,
            "velocity": 0.5039370078740157
          },
          {
            "duration": 0.2298074625000197,
            "durationTicks": 239,
            "midi": 48,
            "name": "C3",
            "ticks": 199440,
            "time": 246.750567,
            "velocity": 0.5039370078740157
          },
          {
            "duration": 0.2298074624999913,
            "durationTicks": 239,
            "midi": 37,
            "name": "C#2",
            "ticks": 199680,
            "time": 246.981336,
            "velocity": 0.5039370078740157
          },
          {
            "duration": 0.2298074624999913,
            "durationTicks": 239,
            "midi": 44,
            "name": "G#2",
            "ticks": 199920,
            "time": 247.212105,
            "velocity": 0.5039370078740157
          },
          {
            "duration": 0.2298074625000197,
            "durationTicks": 239,
            "midi": 49,
            "name": "C#3",
            "ticks": 200160,
            "time": 247.442874,
            "velocity": 0.5039370078740157
          },
          {
            "duration": 0.2298074624999913,
            "durationTicks": 239,
            "midi": 44,
            "name": "G#2",
            "ticks": 200400,
            "time": 247.673643,
            "velocity": 0.5039370078740157
          },
          {
            "duration": 0.2298074624999913,
            "durationTicks": 239,
            "midi": 49,
            "name": "C#3",
            "ticks": 200640,
            "time": 247.904412,
            "velocity": 0.5039370078740157
          },
          {
            "duration": 0.2298074625000197,
            "durationTicks": 239,
            "midi": 44,
            "name": "G#2",
            "ticks": 200880,
            "time": 248.135181,
            "velocity": 0.5039370078740157
          },
          {
            "duration": 0.2298074624999913,
            "durationTicks": 239,
            "midi": 37,
            "name": "C#2",
            "ticks": 201120,
            "time": 248.36595,
            "velocity": 0.5039370078740157
          },
          {
            "duration": 0.2298074624999913,
            "durationTicks": 239,
            "midi": 44,
            "name": "G#2",
            "ticks": 201360,
            "time": 248.596719,
            "velocity": 0.5039370078740157
          },
          {
            "duration": 0.2298074625000197,
            "durationTicks": 239,
            "midi": 49,
            "name": "C#3",
            "ticks": 201600,
            "time": 248.827488,
            "velocity": 0.5039370078740157
          },
          {
            "duration": 0.2298074624999913,
            "durationTicks": 239,
            "midi": 44,
            "name": "G#2",
            "ticks": 201840,
            "time": 249.058257,
            "velocity": 0.5039370078740157
          },
          {
            "duration": 0.4605764625000006,
            "durationTicks": 479,
            "midi": 49,
            "name": "C#3",
            "ticks": 202080,
            "time": 249.289026,
            "velocity": 0.5039370078740157
          },
          {
            "duration": 0.2298074624999913,
            "durationTicks": 239,
            "midi": 44,
            "name": "G#2",
            "ticks": 202560,
            "time": 249.750564,
            "velocity": 0.5039370078740157
          },
          {
            "duration": 0.2298074624999913,
            "durationTicks": 239,
            "midi": 51,
            "name": "D#3",
            "ticks": 202800,
            "time": 249.981333,
            "velocity": 0.5039370078740157
          },
          {
            "duration": 0.2298074625000197,
            "durationTicks": 239,
            "midi": 56,
            "name": "G#3",
            "ticks": 203040,
            "time": 250.212102,
            "velocity": 0.5039370078740157
          },
          {
            "duration": 0.2298074624999913,
            "durationTicks": 239,
            "midi": 51,
            "name": "D#3",
            "ticks": 203280,
            "time": 250.442871,
            "velocity": 0.5039370078740157
          },
          {
            "duration": 0.2298074624999913,
            "durationTicks": 239,
            "midi": 56,
            "name": "G#3",
            "ticks": 203520,
            "time": 250.67364,
            "velocity": 0.5039370078740157
          },
          {
            "duration": 0.2298074625000197,
            "durationTicks": 239,
            "midi": 51,
            "name": "D#3",
            "ticks": 203760,
            "time": 250.904409,
            "velocity": 0.5039370078740157
          },
          {
            "duration": 0.2298074624999913,
            "durationTicks": 239,
            "midi": 44,
            "name": "G#2",
            "ticks": 204000,
            "time": 251.135178,
            "velocity": 0.5039370078740157
          },
          {
            "duration": 0.2298074624999913,
            "durationTicks": 239,
            "midi": 51,
            "name": "D#3",
            "ticks": 204240,
            "time": 251.365947,
            "velocity": 0.5039370078740157
          },
          {
            "duration": 0.2298074625000197,
            "durationTicks": 239,
            "midi": 56,
            "name": "G#3",
            "ticks": 204480,
            "time": 251.596716,
            "velocity": 0.5039370078740157
          },
          {
            "duration": 0.2298074624999913,
            "durationTicks": 239,
            "midi": 51,
            "name": "D#3",
            "ticks": 204720,
            "time": 251.827485,
            "velocity": 0.5039370078740157
          },
          {
            "duration": 0.2298074624999913,
            "durationTicks": 239,
            "midi": 56,
            "name": "G#3",
            "ticks": 204960,
            "time": 252.058254,
            "velocity": 0.5039370078740157
          },
          {
            "duration": 0.2298074625000197,
            "durationTicks": 239,
            "midi": 51,
            "name": "D#3",
            "ticks": 205200,
            "time": 252.289023,
            "velocity": 0.5039370078740157
          },
          {
            "duration": 0.2298074624999913,
            "durationTicks": 239,
            "midi": 39,
            "name": "D#2",
            "ticks": 205440,
            "time": 252.519792,
            "velocity": 0.5039370078740157
          },
          {
            "duration": 0.2298074624999913,
            "durationTicks": 239,
            "midi": 46,
            "name": "A#2",
            "ticks": 205680,
            "time": 252.750561,
            "velocity": 0.5039370078740157
          },
          {
            "duration": 0.2298074625000197,
            "durationTicks": 239,
            "midi": 51,
            "name": "D#3",
            "ticks": 205920,
            "time": 252.98132999999999,
            "velocity": 0.5039370078740157
          },
          {
            "duration": 0.2298074624999913,
            "durationTicks": 239,
            "midi": 46,
            "name": "A#2",
            "ticks": 206160,
            "time": 253.212099,
            "velocity": 0.5039370078740157
          },
          {
            "duration": 0.2298074624999913,
            "durationTicks": 239,
            "midi": 51,
            "name": "D#3",
            "ticks": 206400,
            "time": 253.442868,
            "velocity": 0.5039370078740157
          },
          {
            "duration": 0.2298074625000197,
            "durationTicks": 239,
            "midi": 46,
            "name": "A#2",
            "ticks": 206640,
            "time": 253.67363699999999,
            "velocity": 0.5039370078740157
          },
          {
            "duration": 0.2298074624999913,
            "durationTicks": 239,
            "midi": 39,
            "name": "D#2",
            "ticks": 206880,
            "time": 253.904406,
            "velocity": 0.5039370078740157
          },
          {
            "duration": 0.2298074624999913,
            "durationTicks": 239,
            "midi": 46,
            "name": "A#2",
            "ticks": 207120,
            "time": 254.135175,
            "velocity": 0.5039370078740157
          },
          {
            "duration": 0.2298074624999913,
            "durationTicks": 239,
            "midi": 51,
            "name": "D#3",
            "ticks": 207360,
            "time": 254.365944,
            "velocity": 0.5039370078740157
          },
          {
            "duration": 0.2298074624999913,
            "durationTicks": 239,
            "midi": 46,
            "name": "A#2",
            "ticks": 207600,
            "time": 254.596713,
            "velocity": 0.5039370078740157
          },
          {
            "duration": 0.2298074624999913,
            "durationTicks": 239,
            "midi": 51,
            "name": "D#3",
            "ticks": 207840,
            "time": 254.827482,
            "velocity": 0.5039370078740157
          },
          {
            "duration": 0.2298074625000197,
            "durationTicks": 239,
            "midi": 46,
            "name": "A#2",
            "ticks": 208080,
            "time": 255.05825099999998,
            "velocity": 0.5039370078740157
          },
          {
            "duration": 0.2298074624999913,
            "durationTicks": 239,
            "midi": 41,
            "name": "F2",
            "ticks": 208320,
            "time": 255.28902,
            "velocity": 0.5039370078740157
          },
          {
            "duration": 0.2298074624999913,
            "durationTicks": 239,
            "midi": 48,
            "name": "C3",
            "ticks": 208560,
            "time": 255.519789,
            "velocity": 0.5039370078740157
          },
          {
            "duration": 0.2298074624999913,
            "durationTicks": 239,
            "midi": 53,
            "name": "F3",
            "ticks": 208800,
            "time": 255.750558,
            "velocity": 0.5039370078740157
          },
          {
            "duration": 0.2298074625000197,
            "durationTicks": 239,
            "midi": 48,
            "name": "C3",
            "ticks": 209040,
            "time": 255.981327,
            "velocity": 0.5039370078740157
          },
          {
            "duration": 0.22980746250004813,
            "durationTicks": 239,
            "midi": 53,
            "name": "F3",
            "ticks": 209280,
            "time": 256.212096,
            "velocity": 0.5039370078740157
          },
          {
            "duration": 0.2298074624999913,
            "durationTicks": 239,
            "midi": 48,
            "name": "C3",
            "ticks": 209520,
            "time": 256.442865,
            "velocity": 0.5039370078740157
          },
          {
            "duration": 0.2298074624999913,
            "durationTicks": 239,
            "midi": 41,
            "name": "F2",
            "ticks": 209760,
            "time": 256.673634,
            "velocity": 0.5039370078740157
          },
          {
            "duration": 0.2298074624999913,
            "durationTicks": 239,
            "midi": 48,
            "name": "C3",
            "ticks": 210000,
            "time": 256.904403,
            "velocity": 0.5039370078740157
          },
          {
            "duration": 0.2298074624999913,
            "durationTicks": 239,
            "midi": 53,
            "name": "F3",
            "ticks": 210240,
            "time": 257.135172,
            "velocity": 0.5039370078740157
          },
          {
            "duration": 0.2298074624999913,
            "durationTicks": 239,
            "midi": 48,
            "name": "C3",
            "ticks": 210480,
            "time": 257.365941,
            "velocity": 0.5039370078740157
          },
          {
            "duration": 0.22980746250004813,
            "durationTicks": 239,
            "midi": 53,
            "name": "F3",
            "ticks": 210720,
            "time": 257.59671,
            "velocity": 0.5039370078740157
          },
          {
            "duration": 0.2298074624999913,
            "durationTicks": 239,
            "midi": 48,
            "name": "C3",
            "ticks": 210960,
            "time": 257.827479,
            "velocity": 0.5039370078740157
          },
          {
            "duration": 0.2298074624999913,
            "durationTicks": 239,
            "midi": 37,
            "name": "C#2",
            "ticks": 211200,
            "time": 258.058248,
            "velocity": 0.5039370078740157
          },
          {
            "duration": 0.2298074624999913,
            "durationTicks": 239,
            "midi": 44,
            "name": "G#2",
            "ticks": 211440,
            "time": 258.289017,
            "velocity": 0.5039370078740157
          },
          {
            "duration": 0.2298074624999913,
            "durationTicks": 239,
            "midi": 49,
            "name": "C#3",
            "ticks": 211680,
            "time": 258.519786,
            "velocity": 0.5039370078740157
          },
          {
            "duration": 0.2298074624999913,
            "durationTicks": 239,
            "midi": 44,
            "name": "G#2",
            "ticks": 211920,
            "time": 258.750555,
            "velocity": 0.5039370078740157
          },
          {
            "duration": 0.22980746250004813,
            "durationTicks": 239,
            "midi": 49,
            "name": "C#3",
            "ticks": 212160,
            "time": 258.981324,
            "velocity": 0.5039370078740157
          },
          {
            "duration": 0.2298074624999913,
            "durationTicks": 239,
            "midi": 44,
            "name": "G#2",
            "ticks": 212400,
            "time": 259.212093,
            "velocity": 0.5039370078740157
          },
          {
            "duration": 0.2298074624999913,
            "durationTicks": 239,
            "midi": 37,
            "name": "C#2",
            "ticks": 212640,
            "time": 259.442862,
            "velocity": 0.5039370078740157
          },
          {
            "duration": 0.2298074624999913,
            "durationTicks": 239,
            "midi": 44,
            "name": "G#2",
            "ticks": 212880,
            "time": 259.673631,
            "velocity": 0.5039370078740157
          },
          {
            "duration": 0.2298074624999913,
            "durationTicks": 239,
            "midi": 49,
            "name": "C#3",
            "ticks": 213120,
            "time": 259.9044,
            "velocity": 0.5039370078740157
          },
          {
            "duration": 0.2298074624999913,
            "durationTicks": 239,
            "midi": 44,
            "name": "G#2",
            "ticks": 213360,
            "time": 260.135169,
            "velocity": 0.5039370078740157
          },
          {
            "duration": 0.4605764625000006,
            "durationTicks": 479,
            "midi": 49,
            "name": "C#3",
            "ticks": 213600,
            "time": 260.36593799999997,
            "velocity": 0.5039370078740157
          },
          {
            "duration": 0.2298074624999913,
            "durationTicks": 239,
            "midi": 44,
            "name": "G#2",
            "ticks": 214080,
            "time": 260.827476,
            "velocity": 0.5039370078740157
          },
          {
            "duration": 0.2298074624999913,
            "durationTicks": 239,
            "midi": 51,
            "name": "D#3",
            "ticks": 214320,
            "time": 261.058245,
            "velocity": 0.5039370078740157
          },
          {
            "duration": 0.2298074624999913,
            "durationTicks": 239,
            "midi": 56,
            "name": "G#3",
            "ticks": 214560,
            "time": 261.289014,
            "velocity": 0.5039370078740157
          },
          {
            "duration": 0.2298074624999913,
            "durationTicks": 239,
            "midi": 51,
            "name": "D#3",
            "ticks": 214800,
            "time": 261.519783,
            "velocity": 0.5039370078740157
          },
          {
            "duration": 0.22980746250004813,
            "durationTicks": 239,
            "midi": 56,
            "name": "G#3",
            "ticks": 215040,
            "time": 261.75055199999997,
            "velocity": 0.5039370078740157
          },
          {
            "duration": 0.22980746250004813,
            "durationTicks": 239,
            "midi": 51,
            "name": "D#3",
            "ticks": 215280,
            "time": 261.981321,
            "velocity": 0.5039370078740157
          },
          {
            "duration": 0.2298074624999913,
            "durationTicks": 239,
            "midi": 44,
            "name": "G#2",
            "ticks": 215520,
            "time": 262.21209,
            "velocity": 0.5039370078740157
          },
          {
            "duration": 0.2298074624999913,
            "durationTicks": 239,
            "midi": 51,
            "name": "D#3",
            "ticks": 215760,
            "time": 262.442859,
            "velocity": 0.5039370078740157
          },
          {
            "duration": 0.2298074624999913,
            "durationTicks": 239,
            "midi": 56,
            "name": "G#3",
            "ticks": 216000,
            "time": 262.673628,
            "velocity": 0.5039370078740157
          },
          {
            "duration": 0.2298074624999913,
            "durationTicks": 239,
            "midi": 51,
            "name": "D#3",
            "ticks": 216240,
            "time": 262.904397,
            "velocity": 0.5039370078740157
          },
          {
            "duration": 0.2298074624999913,
            "durationTicks": 239,
            "midi": 56,
            "name": "G#3",
            "ticks": 216480,
            "time": 263.135166,
            "velocity": 0.5039370078740157
          },
          {
            "duration": 0.2298074624999913,
            "durationTicks": 239,
            "midi": 51,
            "name": "D#3",
            "ticks": 216720,
            "time": 263.365935,
            "velocity": 0.5039370078740157
          },
          {
            "duration": 0.2298074624999913,
            "durationTicks": 239,
            "midi": 39,
            "name": "D#2",
            "ticks": 216960,
            "time": 263.596704,
            "velocity": 0.5039370078740157
          },
          {
            "duration": 0.2298074624999913,
            "durationTicks": 239,
            "midi": 46,
            "name": "A#2",
            "ticks": 217200,
            "time": 263.827473,
            "velocity": 0.5039370078740157
          },
          {
            "duration": 0.2298074624999913,
            "durationTicks": 239,
            "midi": 51,
            "name": "D#3",
            "ticks": 217440,
            "time": 264.058242,
            "velocity": 0.5039370078740157
          },
          {
            "duration": 0.2298074624999913,
            "durationTicks": 239,
            "midi": 46,
            "name": "A#2",
            "ticks": 217680,
            "time": 264.289011,
            "velocity": 0.5039370078740157
          },
          {
            "duration": 0.22980746250004813,
            "durationTicks": 239,
            "midi": 51,
            "name": "D#3",
            "ticks": 217920,
            "time": 264.51977999999997,
            "velocity": 0.5039370078740157
          },
          {
            "duration": 0.22980746250004813,
            "durationTicks": 239,
            "midi": 46,
            "name": "A#2",
            "ticks": 218160,
            "time": 264.750549,
            "velocity": 0.5039370078740157
          },
          {
            "duration": 0.2298074624999913,
            "durationTicks": 239,
            "midi": 39,
            "name": "D#2",
            "ticks": 218400,
            "time": 264.981318,
            "velocity": 0.5039370078740157
          },
          {
            "duration": 0.2298074624999913,
            "durationTicks": 239,
            "midi": 46,
            "name": "A#2",
            "ticks": 218640,
            "time": 265.212087,
            "velocity": 0.5039370078740157
          },
          {
            "duration": 0.2298074624999913,
            "durationTicks": 239,
            "midi": 51,
            "name": "D#3",
            "ticks": 218880,
            "time": 265.442856,
            "velocity": 0.5039370078740157
          },
          {
            "duration": 0.2298074624999913,
            "durationTicks": 239,
            "midi": 46,
            "name": "A#2",
            "ticks": 219120,
            "time": 265.673625,
            "velocity": 0.5039370078740157
          },
          {
            "duration": 0.2298074624999913,
            "durationTicks": 239,
            "midi": 51,
            "name": "D#3",
            "ticks": 219360,
            "time": 265.904394,
            "velocity": 0.5039370078740157
          },
          {
            "duration": 0.2298074624999913,
            "durationTicks": 239,
            "midi": 46,
            "name": "A#2",
            "ticks": 219600,
            "time": 266.135163,
            "velocity": 0.5039370078740157
          },
          {
            "duration": 0.2298074624999913,
            "durationTicks": 239,
            "midi": 41,
            "name": "F2",
            "ticks": 219840,
            "time": 266.365932,
            "velocity": 0.5669291338582677
          },
          {
            "duration": 0.2298074624999913,
            "durationTicks": 239,
            "midi": 48,
            "name": "C3",
            "ticks": 220080,
            "time": 266.596701,
            "velocity": 0.5669291338582677
          },
          {
            "duration": 0.2298074624999913,
            "durationTicks": 239,
            "midi": 53,
            "name": "F3",
            "ticks": 220320,
            "time": 266.82747,
            "velocity": 0.5669291338582677
          },
          {
            "duration": 0.2298074624999913,
            "durationTicks": 239,
            "midi": 56,
            "name": "G#3",
            "ticks": 220560,
            "time": 267.058239,
            "velocity": 0.5669291338582677
          },
          {
            "duration": 0.2298074624999913,
            "durationTicks": 239,
            "midi": 53,
            "name": "F3",
            "ticks": 220800,
            "time": 267.289008,
            "velocity": 0.5669291338582677
          },
          {
            "duration": 0.22980746250004813,
            "durationTicks": 239,
            "midi": 48,
            "name": "C3",
            "ticks": 221040,
            "time": 267.519777,
            "velocity": 0.5669291338582677
          },
          {
            "duration": 0.2298074624999913,
            "durationTicks": 239,
            "midi": 41,
            "name": "F2",
            "ticks": 221280,
            "time": 267.750546,
            "velocity": 0.5669291338582677
          },
          {
            "duration": 0.2298074624999913,
            "durationTicks": 239,
            "midi": 48,
            "name": "C3",
            "ticks": 221520,
            "time": 267.981315,
            "velocity": 0.5669291338582677
          },
          {
            "duration": 0.2298074624999913,
            "durationTicks": 239,
            "midi": 53,
            "name": "F3",
            "ticks": 221760,
            "time": 268.212084,
            "velocity": 0.5669291338582677
          },
          {
            "duration": 0.2298074624999913,
            "durationTicks": 239,
            "midi": 56,
            "name": "G#3",
            "ticks": 222000,
            "time": 268.442853,
            "velocity": 0.5669291338582677
          },
          {
            "duration": 0.2298074624999913,
            "durationTicks": 239,
            "midi": 53,
            "name": "F3",
            "ticks": 222240,
            "time": 268.673622,
            "velocity": 0.5669291338582677
          },
          {
            "duration": 0.22980746250004813,
            "durationTicks": 239,
            "midi": 48,
            "name": "C3",
            "ticks": 222480,
            "time": 268.904391,
            "velocity": 0.5669291338582677
          },
          {
            "duration": 0.2298074624999913,
            "durationTicks": 239,
            "midi": 37,
            "name": "C#2",
            "ticks": 222720,
            "time": 269.13516,
            "velocity": 0.5669291338582677
          },
          {
            "duration": 0.2298074624999913,
            "durationTicks": 239,
            "midi": 44,
            "name": "G#2",
            "ticks": 222960,
            "time": 269.365929,
            "velocity": 0.5669291338582677
          },
          {
            "duration": 0.2298074624999913,
            "durationTicks": 239,
            "midi": 49,
            "name": "C#3",
            "ticks": 223200,
            "time": 269.596698,
            "velocity": 0.5669291338582677
          },
          {
            "duration": 0.2298074624999913,
            "durationTicks": 239,
            "midi": 53,
            "name": "F3",
            "ticks": 223440,
            "time": 269.827467,
            "velocity": 0.5669291338582677
          },
          {
            "duration": 0.2298074624999913,
            "durationTicks": 239,
            "midi": 49,
            "name": "C#3",
            "ticks": 223680,
            "time": 270.058236,
            "velocity": 0.5669291338582677
          },
          {
            "duration": 0.22980746250004813,
            "durationTicks": 239,
            "midi": 44,
            "name": "G#2",
            "ticks": 223920,
            "time": 270.289005,
            "velocity": 0.5669291338582677
          },
          {
            "duration": 0.2298074624999913,
            "durationTicks": 239,
            "midi": 37,
            "name": "C#2",
            "ticks": 224160,
            "time": 270.519774,
            "velocity": 0.5669291338582677
          },
          {
            "duration": 0.2298074624999913,
            "durationTicks": 239,
            "midi": 44,
            "name": "G#2",
            "ticks": 224400,
            "time": 270.750543,
            "velocity": 0.5669291338582677
          },
          {
            "duration": 0.2298074624999913,
            "durationTicks": 239,
            "midi": 49,
            "name": "C#3",
            "ticks": 224640,
            "time": 270.981312,
            "velocity": 0.5669291338582677
          },
          {
            "duration": 0.2298074624999913,
            "durationTicks": 239,
            "midi": 53,
            "name": "F3",
            "ticks": 224880,
            "time": 271.212081,
            "velocity": 0.5669291338582677
          },
          {
            "duration": 0.4605764625000006,
            "durationTicks": 479,
            "midi": 49,
            "name": "C#3",
            "ticks": 225120,
            "time": 271.44285,
            "velocity": 0.5669291338582677
          },
          {
            "duration": 0.2298074624999913,
            "durationTicks": 239,
            "midi": 44,
            "name": "G#2",
            "ticks": 225600,
            "time": 271.904388,
            "velocity": 0.5669291338582677
          },
          {
            "duration": 0.2298074624999913,
            "durationTicks": 239,
            "midi": 51,
            "name": "D#3",
            "ticks": 225840,
            "time": 272.135157,
            "velocity": 0.5669291338582677
          },
          {
            "duration": 0.2298074624999913,
            "durationTicks": 239,
            "midi": 56,
            "name": "G#3",
            "ticks": 226080,
            "time": 272.365926,
            "velocity": 0.5669291338582677
          },
          {
            "duration": 0.2298074624999913,
            "durationTicks": 239,
            "midi": 60,
            "name": "C4",
            "ticks": 226320,
            "time": 272.596695,
            "velocity": 0.5669291338582677
          },
          {
            "duration": 0.2298074624999913,
            "durationTicks": 239,
            "midi": 56,
            "name": "G#3",
            "ticks": 226560,
            "time": 272.827464,
            "velocity": 0.5669291338582677
          },
          {
            "duration": 0.22980746250004813,
            "durationTicks": 239,
            "midi": 51,
            "name": "D#3",
            "ticks": 226800,
            "time": 273.058233,
            "velocity": 0.5669291338582677
          },
          {
            "duration": 0.2298074624999913,
            "durationTicks": 239,
            "midi": 44,
            "name": "G#2",
            "ticks": 227040,
            "time": 273.289002,
            "velocity": 0.5669291338582677
          },
          {
            "duration": 0.2298074624999913,
            "durationTicks": 239,
            "midi": 51,
            "name": "D#3",
            "ticks": 227280,
            "time": 273.519771,
            "velocity": 0.5669291338582677
          },
          {
            "duration": 0.2298074624999913,
            "durationTicks": 239,
            "midi": 56,
            "name": "G#3",
            "ticks": 227520,
            "time": 273.75054,
            "velocity": 0.5669291338582677
          },
          {
            "duration": 0.2298074624999913,
            "durationTicks": 239,
            "midi": 60,
            "name": "C4",
            "ticks": 227760,
            "time": 273.981309,
            "velocity": 0.5669291338582677
          },
          {
            "duration": 0.2298074624999913,
            "durationTicks": 239,
            "midi": 56,
            "name": "G#3",
            "ticks": 228000,
            "time": 274.212078,
            "velocity": 0.5669291338582677
          },
          {
            "duration": 0.22980746250004813,
            "durationTicks": 239,
            "midi": 51,
            "name": "D#3",
            "ticks": 228240,
            "time": 274.442847,
            "velocity": 0.5669291338582677
          },
          {
            "duration": 0.2298074624999913,
            "durationTicks": 239,
            "midi": 39,
            "name": "D#2",
            "ticks": 228480,
            "time": 274.673616,
            "velocity": 0.5669291338582677
          },
          {
            "duration": 0.2298074624999913,
            "durationTicks": 239,
            "midi": 46,
            "name": "A#2",
            "ticks": 228720,
            "time": 274.904385,
            "velocity": 0.5669291338582677
          },
          {
            "duration": 0.2298074624999913,
            "durationTicks": 239,
            "midi": 51,
            "name": "D#3",
            "ticks": 228960,
            "time": 275.135154,
            "velocity": 0.5669291338582677
          },
          {
            "duration": 0.2298074624999913,
            "durationTicks": 239,
            "midi": 55,
            "name": "G3",
            "ticks": 229200,
            "time": 275.365923,
            "velocity": 0.5669291338582677
          },
          {
            "duration": 0.2298074624999913,
            "durationTicks": 239,
            "midi": 51,
            "name": "D#3",
            "ticks": 229440,
            "time": 275.596692,
            "velocity": 0.5669291338582677
          },
          {
            "duration": 0.22980746250004813,
            "durationTicks": 239,
            "midi": 46,
            "name": "A#2",
            "ticks": 229680,
            "time": 275.82746099999997,
            "velocity": 0.5669291338582677
          },
          {
            "duration": 0.2298074624999913,
            "durationTicks": 239,
            "midi": 39,
            "name": "D#2",
            "ticks": 229920,
            "time": 276.05823,
            "velocity": 0.5669291338582677
          },
          {
            "duration": 0.2298074624999913,
            "durationTicks": 239,
            "midi": 46,
            "name": "A#2",
            "ticks": 230160,
            "time": 276.288999,
            "velocity": 0.5669291338582677
          },
          {
            "duration": 0.2298074624999913,
            "durationTicks": 239,
            "midi": 51,
            "name": "D#3",
            "ticks": 230400,
            "time": 276.519768,
            "velocity": 0.5669291338582677
          },
          {
            "duration": 0.2298074624999913,
            "durationTicks": 239,
            "midi": 55,
            "name": "G3",
            "ticks": 230640,
            "time": 276.750537,
            "velocity": 0.5669291338582677
          },
          {
            "duration": 0.2298074624999913,
            "durationTicks": 239,
            "midi": 51,
            "name": "D#3",
            "ticks": 230880,
            "time": 276.981306,
            "velocity": 0.5669291338582677
          },
          {
            "duration": 0.22980746250004813,
            "durationTicks": 239,
            "midi": 46,
            "name": "A#2",
            "ticks": 231120,
            "time": 277.21207499999997,
            "velocity": 0.5669291338582677
          },
          {
            "duration": 0.2298074624999913,
            "durationTicks": 239,
            "midi": 41,
            "name": "F2",
            "ticks": 231360,
            "time": 277.442844,
            "velocity": 0.5669291338582677
          },
          {
            "duration": 0.2298074624999913,
            "durationTicks": 239,
            "midi": 48,
            "name": "C3",
            "ticks": 231600,
            "time": 277.673613,
            "velocity": 0.5669291338582677
          },
          {
            "duration": 0.2298074624999913,
            "durationTicks": 239,
            "midi": 53,
            "name": "F3",
            "ticks": 231840,
            "time": 277.904382,
            "velocity": 0.5669291338582677
          },
          {
            "duration": 0.2298074624999913,
            "durationTicks": 239,
            "midi": 56,
            "name": "G#3",
            "ticks": 232080,
            "time": 278.135151,
            "velocity": 0.5669291338582677
          },
          {
            "duration": 0.2298074624999913,
            "durationTicks": 239,
            "midi": 53,
            "name": "F3",
            "ticks": 232320,
            "time": 278.36592,
            "velocity": 0.5669291338582677
          },
          {
            "duration": 0.22980746250004813,
            "durationTicks": 239,
            "midi": 48,
            "name": "C3",
            "ticks": 232560,
            "time": 278.59668899999997,
            "velocity": 0.5669291338582677
          },
          {
            "duration": 0.22980746250004813,
            "durationTicks": 239,
            "midi": 41,
            "name": "F2",
            "ticks": 232800,
            "time": 278.827458,
            "velocity": 0.5669291338582677
          },
          {
            "duration": 0.2298074624999913,
            "durationTicks": 239,
            "midi": 48,
            "name": "C3",
            "ticks": 233040,
            "time": 279.058227,
            "velocity": 0.5669291338582677
          },
          {
            "duration": 0.2298074624999913,
            "durationTicks": 239,
            "midi": 53,
            "name": "F3",
            "ticks": 233280,
            "time": 279.288996,
            "velocity": 0.5669291338582677
          },
          {
            "duration": 0.2298074624999913,
            "durationTicks": 239,
            "midi": 56,
            "name": "G#3",
            "ticks": 233520,
            "time": 279.519765,
            "velocity": 0.5669291338582677
          },
          {
            "duration": 0.2298074624999913,
            "durationTicks": 239,
            "midi": 53,
            "name": "F3",
            "ticks": 233760,
            "time": 279.750534,
            "velocity": 0.5669291338582677
          },
          {
            "duration": 0.2298074624999913,
            "durationTicks": 239,
            "midi": 48,
            "name": "C3",
            "ticks": 234000,
            "time": 279.981303,
            "velocity": 0.5669291338582677
          },
          {
            "duration": 0.2298074624999913,
            "durationTicks": 239,
            "midi": 37,
            "name": "C#2",
            "ticks": 234240,
            "time": 280.212072,
            "velocity": 0.5669291338582677
          },
          {
            "duration": 0.2298074624999913,
            "durationTicks": 239,
            "midi": 44,
            "name": "G#2",
            "ticks": 234480,
            "time": 280.442841,
            "velocity": 0.5669291338582677
          },
          {
            "duration": 0.2298074624999913,
            "durationTicks": 239,
            "midi": 49,
            "name": "C#3",
            "ticks": 234720,
            "time": 280.67361,
            "velocity": 0.5669291338582677
          },
          {
            "duration": 0.2298074624999913,
            "durationTicks": 239,
            "midi": 53,
            "name": "F3",
            "ticks": 234960,
            "time": 280.904379,
            "velocity": 0.5669291338582677
          },
          {
            "duration": 0.2298074624999913,
            "durationTicks": 239,
            "midi": 49,
            "name": "C#3",
            "ticks": 235200,
            "time": 281.135148,
            "velocity": 0.5669291338582677
          },
          {
            "duration": 0.22980746250004813,
            "durationTicks": 239,
            "midi": 44,
            "name": "G#2",
            "ticks": 235440,
            "time": 281.36591699999997,
            "velocity": 0.5669291338582677
          },
          {
            "duration": 0.22980746250004813,
            "durationTicks": 239,
            "midi": 37,
            "name": "C#2",
            "ticks": 235680,
            "time": 281.596686,
            "velocity": 0.5669291338582677
          },
          {
            "duration": 0.2298074624999913,
            "durationTicks": 239,
            "midi": 44,
            "name": "G#2",
            "ticks": 235920,
            "time": 281.827455,
            "velocity": 0.5669291338582677
          },
          {
            "duration": 0.2298074624999913,
            "durationTicks": 239,
            "midi": 49,
            "name": "C#3",
            "ticks": 236160,
            "time": 282.058224,
            "velocity": 0.5669291338582677
          },
          {
            "duration": 0.2298074624999913,
            "durationTicks": 239,
            "midi": 53,
            "name": "F3",
            "ticks": 236400,
            "time": 282.288993,
            "velocity": 0.5669291338582677
          },
          {
            "duration": 0.4605764625000006,
            "durationTicks": 479,
            "midi": 49,
            "name": "C#3",
            "ticks": 236640,
            "time": 282.519762,
            "velocity": 0.5669291338582677
          },
          {
            "duration": 0.2298074624999913,
            "durationTicks": 239,
            "midi": 44,
            "name": "G#2",
            "ticks": 237120,
            "time": 282.9813,
            "velocity": 0.5669291338582677
          },
          {
            "duration": 0.2298074624999913,
            "durationTicks": 239,
            "midi": 51,
            "name": "D#3",
            "ticks": 237360,
            "time": 283.212069,
            "velocity": 0.5669291338582677
          },
          {
            "duration": 0.2298074624999913,
            "durationTicks": 239,
            "midi": 56,
            "name": "G#3",
            "ticks": 237600,
            "time": 283.442838,
            "velocity": 0.5669291338582677
          },
          {
            "duration": 0.2298074624999913,
            "durationTicks": 239,
            "midi": 60,
            "name": "C4",
            "ticks": 237840,
            "time": 283.673607,
            "velocity": 0.5669291338582677
          },
          {
            "duration": 0.2298074624999913,
            "durationTicks": 239,
            "midi": 56,
            "name": "G#3",
            "ticks": 238080,
            "time": 283.904376,
            "velocity": 0.5669291338582677
          },
          {
            "duration": 0.22980746250004813,
            "durationTicks": 239,
            "midi": 51,
            "name": "D#3",
            "ticks": 238320,
            "time": 284.13514499999997,
            "velocity": 0.5669291338582677
          },
          {
            "duration": 0.22980746250004813,
            "durationTicks": 239,
            "midi": 44,
            "name": "G#2",
            "ticks": 238560,
            "time": 284.365914,
            "velocity": 0.5669291338582677
          },
          {
            "duration": 0.2298074624999913,
            "durationTicks": 239,
            "midi": 51,
            "name": "D#3",
            "ticks": 238800,
            "time": 284.596683,
            "velocity": 0.5669291338582677
          },
          {
            "duration": 0.2298074624999913,
            "durationTicks": 239,
            "midi": 56,
            "name": "G#3",
            "ticks": 239040,
            "time": 284.827452,
            "velocity": 0.5669291338582677
          },
          {
            "duration": 0.2298074624999913,
            "durationTicks": 239,
            "midi": 60,
            "name": "C4",
            "ticks": 239280,
            "time": 285.058221,
            "velocity": 0.5669291338582677
          },
          {
            "duration": 0.2298074624999913,
            "durationTicks": 239,
            "midi": 56,
            "name": "G#3",
            "ticks": 239520,
            "time": 285.28899,
            "velocity": 0.5669291338582677
          },
          {
            "duration": 0.2298074624999913,
            "durationTicks": 239,
            "midi": 51,
            "name": "D#3",
            "ticks": 239760,
            "time": 285.519759,
            "velocity": 0.5669291338582677
          },
          {
            "duration": 0.2298074624999913,
            "durationTicks": 239,
            "midi": 39,
            "name": "D#2",
            "ticks": 240000,
            "time": 285.750528,
            "velocity": 0.5669291338582677
          },
          {
            "duration": 0.2298074624999913,
            "durationTicks": 239,
            "midi": 46,
            "name": "A#2",
            "ticks": 240240,
            "time": 285.981297,
            "velocity": 0.5669291338582677
          },
          {
            "duration": 0.2298074624999913,
            "durationTicks": 239,
            "midi": 51,
            "name": "D#3",
            "ticks": 240480,
            "time": 286.212066,
            "velocity": 0.5669291338582677
          },
          {
            "duration": 0.2298074624999913,
            "durationTicks": 239,
            "midi": 55,
            "name": "G3",
            "ticks": 240720,
            "time": 286.442835,
            "velocity": 0.5669291338582677
          },
          {
            "duration": 0.2298074624999913,
            "durationTicks": 239,
            "midi": 51,
            "name": "D#3",
            "ticks": 240960,
            "time": 286.673604,
            "velocity": 0.5669291338582677
          },
          {
            "duration": 0.22980746250004813,
            "durationTicks": 239,
            "midi": 46,
            "name": "A#2",
            "ticks": 241200,
            "time": 286.90437299999996,
            "velocity": 0.5669291338582677
          },
          {
            "duration": 0.22980746250004813,
            "durationTicks": 239,
            "midi": 39,
            "name": "D#2",
            "ticks": 241440,
            "time": 287.135142,
            "velocity": 0.5669291338582677
          },
          {
            "duration": 0.2298074624999913,
            "durationTicks": 239,
            "midi": 46,
            "name": "A#2",
            "ticks": 241680,
            "time": 287.365911,
            "velocity": 0.5669291338582677
          },
          {
            "duration": 0.2298074624999913,
            "durationTicks": 239,
            "midi": 51,
            "name": "D#3",
            "ticks": 241920,
            "time": 287.59668,
            "velocity": 0.5669291338582677
          },
          {
            "duration": 0.2298074624999913,
            "durationTicks": 239,
            "midi": 55,
            "name": "G3",
            "ticks": 242160,
            "time": 287.827449,
            "velocity": 0.5669291338582677
          },
          {
            "duration": 0.2298074624999913,
            "durationTicks": 239,
            "midi": 51,
            "name": "D#3",
            "ticks": 242400,
            "time": 288.058218,
            "velocity": 0.5669291338582677
          },
          {
            "duration": 0.2298074624999913,
            "durationTicks": 239,
            "midi": 46,
            "name": "A#2",
            "ticks": 242640,
            "time": 288.288987,
            "velocity": 0.5669291338582677
          },
          {
            "duration": 0.2298074624999913,
            "durationTicks": 239,
            "midi": 41,
            "name": "F2",
            "ticks": 242880,
            "time": 288.519756,
            "velocity": 0.6299212598425197
          },
          {
            "duration": 0.2298074624999913,
            "durationTicks": 239,
            "midi": 48,
            "name": "C3",
            "ticks": 243120,
            "time": 288.750525,
            "velocity": 0.6299212598425197
          },
          {
            "duration": 0.2298074624999913,
            "durationTicks": 239,
            "midi": 53,
            "name": "F3",
            "ticks": 243360,
            "time": 288.981294,
            "velocity": 0.6299212598425197
          },
          {
            "duration": 0.2298074624999913,
            "durationTicks": 239,
            "midi": 56,
            "name": "G#3",
            "ticks": 243600,
            "time": 289.212063,
            "velocity": 0.6299212598425197
          },
          {
            "duration": 0.2298074624999913,
            "durationTicks": 239,
            "midi": 53,
            "name": "F3",
            "ticks": 243840,
            "time": 289.442832,
            "velocity": 0.6299212598425197
          },
          {
            "duration": 0.2298074624999913,
            "durationTicks": 239,
            "midi": 48,
            "name": "C3",
            "ticks": 244080,
            "time": 289.673601,
            "velocity": 0.6299212598425197
          },
          {
            "duration": 0.22980746250004813,
            "durationTicks": 239,
            "midi": 37,
            "name": "C#2",
            "ticks": 244320,
            "time": 289.90437,
            "velocity": 0.6299212598425197
          },
          {
            "duration": 0.2298074624999913,
            "durationTicks": 239,
            "midi": 44,
            "name": "G#2",
            "ticks": 244560,
            "time": 290.135139,
            "velocity": 0.6299212598425197
          },
          {
            "duration": 0.2298074624999913,
            "durationTicks": 239,
            "midi": 49,
            "name": "C#3",
            "ticks": 244800,
            "time": 290.365908,
            "velocity": 0.6299212598425197
          },
          {
            "duration": 0.6913454625000099,
            "durationTicks": 719,
            "midi": 53,
            "name": "F3",
            "ticks": 245040,
            "time": 290.596677,
            "velocity": 0.6299212598425197
          },
          {
            "duration": 0.22980746250004813,
            "durationTicks": 239,
            "midi": 44,
            "name": "G#2",
            "ticks": 245760,
            "time": 291.28898399999997,
            "velocity": 0.6299212598425197
          },
          {
            "duration": 0.2298074624999913,
            "durationTicks": 239,
            "midi": 51,
            "name": "D#3",
            "ticks": 246000,
            "time": 291.519753,
            "velocity": 0.6299212598425197
          },
          {
            "duration": 0.2298074624999913,
            "durationTicks": 239,
            "midi": 56,
            "name": "G#3",
            "ticks": 246240,
            "time": 291.750522,
            "velocity": 0.6299212598425197
          },
          {
            "duration": 0.2298074624999913,
            "durationTicks": 239,
            "midi": 60,
            "name": "C4",
            "ticks": 246480,
            "time": 291.981291,
            "velocity": 0.6299212598425197
          },
          {
            "duration": 0.2298074624999913,
            "durationTicks": 239,
            "midi": 56,
            "name": "G#3",
            "ticks": 246720,
            "time": 292.21206,
            "velocity": 0.6299212598425197
          },
          {
            "duration": 0.2298074624999913,
            "durationTicks": 239,
            "midi": 51,
            "name": "D#3",
            "ticks": 246960,
            "time": 292.442829,
            "velocity": 0.6299212598425197
          },
          {
            "duration": 0.22980746250004813,
            "durationTicks": 239,
            "midi": 39,
            "name": "D#2",
            "ticks": 247200,
            "time": 292.67359799999997,
            "velocity": 0.6299212598425197
          },
          {
            "duration": 0.2298074624999913,
            "durationTicks": 239,
            "midi": 46,
            "name": "A#2",
            "ticks": 247440,
            "time": 292.904367,
            "velocity": 0.6299212598425197
          },
          {
            "duration": 0.2298074624999913,
            "durationTicks": 239,
            "midi": 51,
            "name": "D#3",
            "ticks": 247680,
            "time": 293.135136,
            "velocity": 0.6299212598425197
          },
          {
            "duration": 0.2298074624999913,
            "durationTicks": 239,
            "midi": 55,
            "name": "G3",
            "ticks": 247920,
            "time": 293.365905,
            "velocity": 0.6299212598425197
          },
          {
            "duration": 0.2298074624999913,
            "durationTicks": 239,
            "midi": 51,
            "name": "D#3",
            "ticks": 248160,
            "time": 293.596674,
            "velocity": 0.6299212598425197
          },
          {
            "duration": 0.2298074624999913,
            "durationTicks": 239,
            "midi": 46,
            "name": "A#2",
            "ticks": 248400,
            "time": 293.827443,
            "velocity": 0.6299212598425197
          },
          {
            "duration": 0.2298074624999913,
            "durationTicks": 239,
            "midi": 41,
            "name": "F2",
            "ticks": 248640,
            "time": 294.058212,
            "velocity": 0.6299212598425197
          },
          {
            "duration": 0.2298074624999913,
            "durationTicks": 239,
            "midi": 48,
            "name": "C3",
            "ticks": 248880,
            "time": 294.288981,
            "velocity": 0.6299212598425197
          },
          {
            "duration": 0.2298074624999913,
            "durationTicks": 239,
            "midi": 53,
            "name": "F3",
            "ticks": 249120,
            "time": 294.51975,
            "velocity": 0.6299212598425197
          },
          {
            "duration": 0.2298074624999913,
            "durationTicks": 239,
            "midi": 56,
            "name": "G#3",
            "ticks": 249360,
            "time": 294.750519,
            "velocity": 0.6299212598425197
          },
          {
            "duration": 0.2298074624999913,
            "durationTicks": 239,
            "midi": 53,
            "name": "F3",
            "ticks": 249600,
            "time": 294.981288,
            "velocity": 0.6299212598425197
          },
          {
            "duration": 0.2298074624999913,
            "durationTicks": 239,
            "midi": 48,
            "name": "C3",
            "ticks": 249840,
            "time": 295.212057,
            "velocity": 0.6299212598425197
          },
          {
            "duration": 0.22980746250004813,
            "durationTicks": 239,
            "midi": 37,
            "name": "C#2",
            "ticks": 250080,
            "time": 295.44282599999997,
            "velocity": 0.6299212598425197
          },
          {
            "duration": 0.22980746250004813,
            "durationTicks": 239,
            "midi": 44,
            "name": "G#2",
            "ticks": 250320,
            "time": 295.673595,
            "velocity": 0.6299212598425197
          },
          {
            "duration": 0.2298074624999913,
            "durationTicks": 239,
            "midi": 49,
            "name": "C#3",
            "ticks": 250560,
            "time": 295.904364,
            "velocity": 0.6299212598425197
          },
          {
            "duration": 0.6913454625000099,
            "durationTicks": 719,
            "midi": 53,
            "name": "F3",
            "ticks": 250800,
            "time": 296.135133,
            "velocity": 0.6299212598425197
          },
          {
            "duration": 0.2298074624999913,
            "durationTicks": 239,
            "midi": 44,
            "name": "G#2",
            "ticks": 251520,
            "time": 296.82744,
            "velocity": 0.6299212598425197
          },
          {
            "duration": 0.2298074624999913,
            "durationTicks": 239,
            "midi": 51,
            "name": "D#3",
            "ticks": 251760,
            "time": 297.058209,
            "velocity": 0.6299212598425197
          },
          {
            "duration": 0.2298074624999913,
            "durationTicks": 239,
            "midi": 56,
            "name": "G#3",
            "ticks": 252000,
            "time": 297.288978,
            "velocity": 0.6299212598425197
          },
          {
            "duration": 0.2298074624999913,
            "durationTicks": 239,
            "midi": 60,
            "name": "C4",
            "ticks": 252240,
            "time": 297.519747,
            "velocity": 0.6299212598425197
          },
          {
            "duration": 0.2298074624999913,
            "durationTicks": 239,
            "midi": 56,
            "name": "G#3",
            "ticks": 252480,
            "time": 297.750516,
            "velocity": 0.6299212598425197
          },
          {
            "duration": 0.2298074624999913,
            "durationTicks": 239,
            "midi": 51,
            "name": "D#3",
            "ticks": 252720,
            "time": 297.981285,
            "velocity": 0.6299212598425197
          },
          {
            "duration": 0.22980746250004813,
            "durationTicks": 239,
            "midi": 39,
            "name": "D#2",
            "ticks": 252960,
            "time": 298.21205399999997,
            "velocity": 0.6299212598425197
          },
          {
            "duration": 0.22980746250004813,
            "durationTicks": 239,
            "midi": 46,
            "name": "A#2",
            "ticks": 253200,
            "time": 298.442823,
            "velocity": 0.6299212598425197
          },
          {
            "duration": 0.2298074624999913,
            "durationTicks": 239,
            "midi": 51,
            "name": "D#3",
            "ticks": 253440,
            "time": 298.673592,
            "velocity": 0.6299212598425197
          },
          {
            "duration": 0.2298074624999913,
            "durationTicks": 239,
            "midi": 55,
            "name": "G3",
            "ticks": 253680,
            "time": 298.904361,
            "velocity": 0.6299212598425197
          },
          {
            "duration": 0.2298074624999913,
            "durationTicks": 239,
            "midi": 51,
            "name": "D#3",
            "ticks": 253920,
            "time": 299.13513,
            "velocity": 0.6299212598425197
          },
          {
            "duration": 0.2298074624999913,
            "durationTicks": 239,
            "midi": 46,
            "name": "A#2",
            "ticks": 254160,
            "time": 299.365899,
            "velocity": 0.6299212598425197
          },
          {
            "duration": 0.2298074624999913,
            "durationTicks": 239,
            "midi": 41,
            "name": "F2",
            "ticks": 254400,
            "time": 299.596668,
            "velocity": 0.6299212598425197
          },
          {
            "duration": 0.2298074624999913,
            "durationTicks": 239,
            "midi": 48,
            "name": "C3",
            "ticks": 254640,
            "time": 299.827437,
            "velocity": 0.6299212598425197
          },
          {
            "duration": 0.2298074624999913,
            "durationTicks": 239,
            "midi": 53,
            "name": "F3",
            "ticks": 254880,
            "time": 300.058206,
            "velocity": 0.6299212598425197
          },
          {
            "duration": 0.2298074624999913,
            "durationTicks": 239,
            "midi": 56,
            "name": "G#3",
            "ticks": 255120,
            "time": 300.288975,
            "velocity": 0.6299212598425197
          },
          {
            "duration": 0.2298074624999913,
            "durationTicks": 239,
            "midi": 53,
            "name": "F3",
            "ticks": 255360,
            "time": 300.519744,
            "velocity": 0.6299212598425197
          },
          {
            "duration": 0.2298074624999913,
            "durationTicks": 239,
            "midi": 48,
            "name": "C3",
            "ticks": 255600,
            "time": 300.750513,
            "velocity": 0.6299212598425197
          },
          {
            "duration": 0.22980746250004813,
            "durationTicks": 239,
            "midi": 37,
            "name": "C#2",
            "ticks": 255840,
            "time": 300.98128199999996,
            "velocity": 0.6299212598425197
          },
          {
            "duration": 0.22980746250004813,
            "durationTicks": 239,
            "midi": 44,
            "name": "G#2",
            "ticks": 256080,
            "time": 301.212051,
            "velocity": 0.6299212598425197
          },
          {
            "duration": 0.2298074624999913,
            "durationTicks": 239,
            "midi": 49,
            "name": "C#3",
            "ticks": 256320,
            "time": 301.44282,
            "velocity": 0.6299212598425197
          },
          {
            "duration": 0.6913454625000099,
            "durationTicks": 719,
            "midi": 53,
            "name": "F3",
            "ticks": 256560,
            "time": 301.673589,
            "velocity": 0.6299212598425197
          },
          {
            "duration": 0.2298074624999913,
            "durationTicks": 239,
            "midi": 44,
            "name": "G#2",
            "ticks": 257280,
            "time": 302.365896,
            "velocity": 0.6299212598425197
          },
          {
            "duration": 0.2298074624999913,
            "durationTicks": 239,
            "midi": 51,
            "name": "D#3",
            "ticks": 257520,
            "time": 302.596665,
            "velocity": 0.6299212598425197
          },
          {
            "duration": 0.2298074624999913,
            "durationTicks": 239,
            "midi": 56,
            "name": "G#3",
            "ticks": 257760,
            "time": 302.827434,
            "velocity": 0.6299212598425197
          },
          {
            "duration": 0.2298074624999913,
            "durationTicks": 239,
            "midi": 60,
            "name": "C4",
            "ticks": 258000,
            "time": 303.058203,
            "velocity": 0.6299212598425197
          },
          {
            "duration": 0.2298074624999913,
            "durationTicks": 239,
            "midi": 56,
            "name": "G#3",
            "ticks": 258240,
            "time": 303.288972,
            "velocity": 0.6299212598425197
          },
          {
            "duration": 0.2298074624999913,
            "durationTicks": 239,
            "midi": 51,
            "name": "D#3",
            "ticks": 258480,
            "time": 303.519741,
            "velocity": 0.6299212598425197
          },
          {
            "duration": 0.22980746250004813,
            "durationTicks": 239,
            "midi": 39,
            "name": "D#2",
            "ticks": 258720,
            "time": 303.75050999999996,
            "velocity": 0.6299212598425197
          },
          {
            "duration": 0.22980746250004813,
            "durationTicks": 239,
            "midi": 46,
            "name": "A#2",
            "ticks": 258960,
            "time": 303.981279,
            "velocity": 0.6299212598425197
          },
          {
            "duration": 0.2298074624999913,
            "durationTicks": 239,
            "midi": 51,
            "name": "D#3",
            "ticks": 259200,
            "time": 304.212048,
            "velocity": 0.6299212598425197
          },
          {
            "duration": 0.2298074624999913,
            "durationTicks": 239,
            "midi": 55,
            "name": "G3",
            "ticks": 259440,
            "time": 304.442817,
            "velocity": 0.6299212598425197
          },
          {
            "duration": 0.2298074624999913,
            "durationTicks": 239,
            "midi": 51,
            "name": "D#3",
            "ticks": 259680,
            "time": 304.673586,
            "velocity": 0.6299212598425197
          },
          {
            "duration": 0.2298074624999913,
            "durationTicks": 239,
            "midi": 46,
            "name": "A#2",
            "ticks": 259920,
            "time": 304.904355,
            "velocity": 0.6299212598425197
          },
          {
            "duration": 0.2298074624999913,
            "durationTicks": 239,
            "midi": 41,
            "name": "F2",
            "ticks": 260160,
            "time": 305.135124,
            "velocity": 0.6299212598425197
          },
          {
            "duration": 0.2298074624999913,
            "durationTicks": 239,
            "midi": 48,
            "name": "C3",
            "ticks": 260400,
            "time": 305.36589299999997,
            "velocity": 0.6299212598425197
          },
          {
            "duration": 0.2298074624999913,
            "durationTicks": 239,
            "midi": 53,
            "name": "F3",
            "ticks": 260640,
            "time": 305.596662,
            "velocity": 0.6299212598425197
          },
          {
            "duration": 0.2298074624999913,
            "durationTicks": 239,
            "midi": 56,
            "name": "G#3",
            "ticks": 260880,
            "time": 305.827431,
            "velocity": 0.6299212598425197
          },
          {
            "duration": 0.2298074624999913,
            "durationTicks": 239,
            "midi": 53,
            "name": "F3",
            "ticks": 261120,
            "time": 306.0582,
            "velocity": 0.6299212598425197
          },
          {
            "duration": 0.2298074624999913,
            "durationTicks": 239,
            "midi": 48,
            "name": "C3",
            "ticks": 261360,
            "time": 306.288969,
            "velocity": 0.6299212598425197
          },
          {
            "duration": 0.22980746250004813,
            "durationTicks": 239,
            "midi": 37,
            "name": "C#2",
            "ticks": 261600,
            "time": 306.51973799999996,
            "velocity": 0.6299212598425197
          },
          {
            "duration": 0.22980746250004813,
            "durationTicks": 239,
            "midi": 44,
            "name": "G#2",
            "ticks": 261840,
            "time": 306.75050699999997,
            "velocity": 0.6299212598425197
          },
          {
            "duration": 0.2298074624999913,
            "durationTicks": 239,
            "midi": 49,
            "name": "C#3",
            "ticks": 262080,
            "time": 306.981276,
            "velocity": 0.6299212598425197
          },
          {
            "duration": 0.6913454625000099,
            "durationTicks": 719,
            "midi": 53,
            "name": "F3",
            "ticks": 262320,
            "time": 307.212045,
            "velocity": 0.6299212598425197
          },
          {
            "duration": 0.2298074624999913,
            "durationTicks": 239,
            "midi": 44,
            "name": "G#2",
            "ticks": 263040,
            "time": 307.904352,
            "velocity": 0.6299212598425197
          },
          {
            "duration": 0.22980746250004813,
            "durationTicks": 239,
            "midi": 51,
            "name": "D#3",
            "ticks": 263280,
            "time": 308.13512099999997,
            "velocity": 0.6299212598425197
          },
          {
            "duration": 0.2298074624999913,
            "durationTicks": 239,
            "midi": 56,
            "name": "G#3",
            "ticks": 263520,
            "time": 308.36589,
            "velocity": 0.6299212598425197
          },
          {
            "duration": 0.2298074624999913,
            "durationTicks": 239,
            "midi": 60,
            "name": "C4",
            "ticks": 263760,
            "time": 308.596659,
            "velocity": 0.6299212598425197
          },
          {
            "duration": 0.2298074624999913,
            "durationTicks": 239,
            "midi": 56,
            "name": "G#3",
            "ticks": 264000,
            "time": 308.827428,
            "velocity": 0.6299212598425197
          },
          {
            "duration": 0.2298074624999913,
            "durationTicks": 239,
            "midi": 51,
            "name": "D#3",
            "ticks": 264240,
            "time": 309.058197,
            "velocity": 0.6299212598425197
          },
          {
            "duration": 0.2489583333333485,
            "durationTicks": 239,
            "midi": 39,
            "name": "D#2",
            "ticks": 264480,
            "time": 309.288966,
            "velocity": 0.6299212598425197
          },
          {
            "duration": 0.2489583333333485,
            "durationTicks": 239,
            "midi": 46,
            "name": "A#2",
            "ticks": 264720,
            "time": 309.538966,
            "velocity": 0.6299212598425197
          },
          {
            "duration": 0.2489583333333485,
            "durationTicks": 239,
            "midi": 51,
            "name": "D#3",
            "ticks": 264960,
            "time": 309.788966,
            "velocity": 0.6299212598425197
          },
          {
            "duration": 0.49791666666664014,
            "durationTicks": 239,
            "midi": 55,
            "name": "G3",
            "ticks": 265200,
            "time": 310.038966,
            "velocity": 0.6299212598425197
          },
          {
            "duration": 0.9958333333333371,
            "durationTicks": 239,
            "midi": 58,
            "name": "A#3",
            "ticks": 265440,
            "time": 310.538966,
            "velocity": 0.6299212598425197
          },
          {
            "duration": 12.995833333333337,
            "durationTicks": 3119,
            "midi": 46,
            "name": "A#2",
            "ticks": 265680,
            "time": 311.538966,
            "velocity": 0.6299212598425197
          },
          {
            "duration": 3.2489583333333485,
            "durationTicks": 2879,
            "midi": 53,
            "name": "F3",
            "ticks": 268800,
            "time": 324.538966,
            "velocity": 0.3858267716535433
          },
          {
            "duration": 3.2489583333333485,
            "durationTicks": 2879,
            "midi": 48,
            "name": "C3",
            "ticks": 268800,
            "time": 324.538966,
            "velocity": 0.3858267716535433
          },
          {
            "duration": 3.2489583333333485,
            "durationTicks": 2879,
            "midi": 41,
            "name": "F2",
            "ticks": 268800,
            "time": 324.538966,
            "velocity": 0.3858267716535433
          },
          {
            "duration": 3.496874502083358,
            "durationTicks": 2879,
            "midi": 49,
            "name": "C#3",
            "ticks": 271680,
            "time": 327.788966,
            "velocity": 0.3858267716535433
          },
          {
            "duration": 3.496874502083358,
            "durationTicks": 2879,
            "midi": 44,
            "name": "G#2",
            "ticks": 271680,
            "time": 327.788966,
            "velocity": 0.3858267716535433
          },
          {
            "duration": 3.496874502083358,
            "durationTicks": 2879,
            "midi": 37,
            "name": "C#2",
            "ticks": 271680,
            "time": 327.788966,
            "velocity": 0.3858267716535433
          },
          {
            "duration": 3.2489583333333485,
            "durationTicks": 2879,
            "midi": 56,
            "name": "G#3",
            "ticks": 274560,
            "time": 331.2889655,
            "velocity": 0.3858267716535433
          },
          {
            "duration": 3.2489583333333485,
            "durationTicks": 2879,
            "midi": 51,
            "name": "D#3",
            "ticks": 274560,
            "time": 331.2889655,
            "velocity": 0.3858267716535433
          },
          {
            "duration": 3.2489583333333485,
            "durationTicks": 2879,
            "midi": 44,
            "name": "G#2",
            "ticks": 274560,
            "time": 331.2889655,
            "velocity": 0.3858267716535433
          },
          {
            "duration": 4.496873502083361,
            "durationTicks": 2879,
            "midi": 51,
            "name": "D#3",
            "ticks": 277440,
            "time": 334.5389655,
            "velocity": 0.3858267716535433
          },
          {
            "duration": 4.496873502083361,
            "durationTicks": 2879,
            "midi": 46,
            "name": "A#2",
            "ticks": 277440,
            "time": 334.5389655,
            "velocity": 0.3858267716535433
          },
          {
            "duration": 4.496873502083361,
            "durationTicks": 2879,
            "midi": 39,
            "name": "D#2",
            "ticks": 277440,
            "time": 334.5389655,
            "velocity": 0.3858267716535433
          },
          {
            "duration": 3.2489583333333485,
            "durationTicks": 2879,
            "midi": 53,
            "name": "F3",
            "ticks": 280320,
            "time": 339.038964,
            "velocity": 0.3858267716535433
          },
          {
            "duration": 3.2489583333333485,
            "durationTicks": 2879,
            "midi": 48,
            "name": "C3",
            "ticks": 280320,
            "time": 339.038964,
            "velocity": 0.3858267716535433
          },
          {
            "duration": 3.2489583333333485,
            "durationTicks": 2879,
            "midi": 41,
            "name": "F2",
            "ticks": 280320,
            "time": 339.038964,
            "velocity": 0.3858267716535433
          },
          {
            "duration": 7.4187544937499865,
            "durationTicks": 2879,
            "midi": 49,
            "name": "C#3",
            "ticks": 283200,
            "time": 342.288964,
            "velocity": 0.3858267716535433
          },
          {
            "duration": 7.4187544937499865,
            "durationTicks": 2879,
            "midi": 44,
            "name": "G#2",
            "ticks": 283200,
            "time": 342.288964,
            "velocity": 0.3858267716535433
          },
          {
            "duration": 7.4187544937499865,
            "durationTicks": 2879,
            "midi": 37,
            "name": "C#2",
            "ticks": 283200,
            "time": 342.288964,
            "velocity": 0.3858267716535433
          }
        ],
        "endOfTrackTicks": 286080
      }
    ]
  }