<svg width="404" height="404" viewBox="0 0 404 404" fill="none" xmlns="http://www.w3.org/2000/svg">
<rect width="404" height="404" fill="#2F5B44"/>
<path d="M160.709 180.834C160.709 182.449 160.338 183.747 159.596 184.73C158.854 185.707 157.857 186.195 156.607 186.195C155.273 186.195 154.241 185.723 153.512 184.779L153.424 186H151.764V171H153.57V176.596C154.299 175.691 155.305 175.238 156.588 175.238C157.87 175.238 158.876 175.723 159.605 176.693C160.341 177.663 160.709 178.992 160.709 180.678V180.834ZM158.902 180.629C158.902 179.398 158.665 178.448 158.189 177.777C157.714 177.107 157.031 176.771 156.139 176.771C154.947 176.771 154.091 177.325 153.57 178.432V183.002C154.124 184.109 154.986 184.662 156.158 184.662C157.024 184.662 157.698 184.327 158.18 183.656C158.661 182.986 158.902 181.977 158.902 180.629ZM166.334 183.354L168.795 175.434H170.729L166.48 187.631C165.823 189.389 164.778 190.268 163.346 190.268L163.004 190.238L162.33 190.111V188.646L162.818 188.686C163.43 188.686 163.906 188.562 164.244 188.314C164.589 188.067 164.872 187.615 165.094 186.957L165.494 185.883L161.725 175.434H163.697L166.334 183.354ZM188.521 186H186.637L179.479 175.043V186H177.594V171.781H179.479L186.656 182.787V171.781H188.521V186ZM195.953 186.195C194.521 186.195 193.355 185.727 192.457 184.789C191.559 183.845 191.109 182.585 191.109 181.01V180.678C191.109 179.63 191.308 178.695 191.705 177.875C192.109 177.048 192.669 176.404 193.385 175.941C194.107 175.473 194.889 175.238 195.729 175.238C197.102 175.238 198.17 175.691 198.932 176.596C199.693 177.501 200.074 178.796 200.074 180.482V181.234H192.916C192.942 182.276 193.245 183.119 193.824 183.764C194.41 184.402 195.152 184.721 196.051 184.721C196.689 184.721 197.229 184.59 197.672 184.33C198.115 184.07 198.502 183.725 198.834 183.295L199.938 184.154C199.052 185.515 197.724 186.195 195.953 186.195ZM195.729 176.723C194.999 176.723 194.387 176.99 193.893 177.523C193.398 178.051 193.092 178.793 192.975 179.75H198.268V179.613C198.215 178.695 197.968 177.986 197.525 177.484C197.083 176.977 196.484 176.723 195.729 176.723ZM211.529 183.51L213.561 175.434H215.367L212.291 186H210.826L208.258 177.992L205.758 186H204.293L201.227 175.434H203.023L205.104 183.344L207.564 175.434H209.02L211.529 183.51ZM223.453 171.781H225.338V181.85C225.338 183.21 224.928 184.275 224.107 185.043C223.294 185.811 222.206 186.195 220.846 186.195C219.433 186.195 218.333 185.834 217.545 185.111C216.757 184.389 216.363 183.376 216.363 182.074H218.238C218.238 182.888 218.46 183.523 218.902 183.979C219.352 184.434 219.999 184.662 220.846 184.662C221.62 184.662 222.245 184.418 222.721 183.93C223.202 183.441 223.447 182.758 223.453 181.879V171.781ZM234.771 186C234.667 185.792 234.583 185.421 234.518 184.887C233.678 185.759 232.675 186.195 231.51 186.195C230.468 186.195 229.612 185.902 228.941 185.316C228.277 184.724 227.945 183.975 227.945 183.07C227.945 181.97 228.362 181.117 229.195 180.512C230.035 179.9 231.214 179.594 232.73 179.594H234.488V178.764C234.488 178.132 234.299 177.631 233.922 177.26C233.544 176.882 232.988 176.693 232.252 176.693C231.607 176.693 231.067 176.856 230.631 177.182C230.195 177.507 229.977 177.901 229.977 178.363H228.16C228.16 177.836 228.346 177.328 228.717 176.84C229.094 176.345 229.602 175.954 230.24 175.668C230.885 175.382 231.591 175.238 232.359 175.238C233.577 175.238 234.531 175.544 235.221 176.156C235.911 176.762 236.269 177.598 236.295 178.666V183.529C236.295 184.499 236.419 185.271 236.666 185.844V186H234.771ZM231.773 184.623C232.34 184.623 232.877 184.477 233.385 184.184C233.893 183.891 234.26 183.51 234.488 183.041V180.873H233.072C230.859 180.873 229.752 181.521 229.752 182.816C229.752 183.383 229.941 183.826 230.318 184.145C230.696 184.464 231.181 184.623 231.773 184.623ZM240.826 184.525H247.008V186H238.619V184.672L244.449 176.928H238.707V175.434H246.715V176.713L240.826 184.525ZM250.748 184.525H256.93V186H248.541V184.672L254.371 176.928H248.629V175.434H256.637V176.713L250.748 184.525ZM47.0269 204.852H50.8906V225.492C50.8906 228.281 50.0498 230.463 48.3682 232.038C46.6999 233.613 44.471 234.4 41.6816 234.4C38.7855 234.4 36.5299 233.66 34.915 232.178C33.3001 230.697 32.4927 228.621 32.4927 225.952H36.3364C36.3364 227.62 36.7902 228.922 37.6978 229.856C38.6187 230.79 39.9466 231.257 41.6816 231.257C43.2699 231.257 44.5511 230.757 45.5254 229.756C46.513 228.755 47.0135 227.354 47.0269 225.552V204.852ZM70.2295 234C70.016 233.573 69.8424 232.812 69.709 231.718C67.9873 233.506 65.932 234.4 63.543 234.4C61.4076 234.4 59.6525 233.8 58.2778 232.599C56.9165 231.384 56.2358 229.849 56.2358 227.994C56.2358 225.739 57.09 223.99 58.7983 222.749C60.52 221.494 62.9357 220.867 66.0454 220.867H69.6489V219.166C69.6489 217.871 69.2619 216.843 68.4878 216.083C67.7137 215.308 66.5726 214.921 65.0645 214.921C63.7432 214.921 62.6354 215.255 61.7412 215.922C60.847 216.59 60.3999 217.397 60.3999 218.345H56.6763C56.6763 217.264 57.0566 216.223 57.8174 215.222C58.5915 214.207 59.6325 213.407 60.9404 212.819C62.2617 212.232 63.7098 211.938 65.2847 211.938C67.7804 211.938 69.7357 212.566 71.1504 213.82C72.5651 215.062 73.2992 216.777 73.3525 218.965V228.935C73.3525 230.924 73.6061 232.505 74.1133 233.68V234H70.2295ZM64.0835 231.177C65.2446 231.177 66.3457 230.877 67.3867 230.276C68.4277 229.676 69.1818 228.895 69.6489 227.934V223.49H66.7461C62.2083 223.49 59.9395 224.818 59.9395 227.474C59.9395 228.635 60.3265 229.542 61.1006 230.196C61.8747 230.85 62.869 231.177 64.0835 231.177ZM82.6416 230.977H95.314V234H78.1172V231.277L90.0688 215.402H78.2974V212.339H94.7134V214.961L82.6416 230.977ZM102.981 230.977H115.654V234H98.457V231.277L110.409 215.402H98.6372V212.339H115.053V214.961L102.981 230.977ZM134.712 234H130.869V204.852H134.712V234ZM144.662 212.339L144.762 214.741C146.35 212.873 148.493 211.938 151.188 211.938C154.218 211.938 156.28 213.1 157.375 215.422C158.095 214.381 159.029 213.54 160.177 212.899C161.338 212.259 162.706 211.938 164.281 211.938C169.033 211.938 171.448 214.454 171.528 219.486V234H167.825V219.706C167.825 218.158 167.471 217.003 166.764 216.243C166.056 215.469 164.868 215.082 163.2 215.082C161.826 215.082 160.684 215.495 159.777 216.323C158.869 217.137 158.342 218.238 158.195 219.626V234H154.472V219.806C154.472 216.656 152.93 215.082 149.847 215.082C147.418 215.082 145.757 216.116 144.862 218.185V234H141.159V212.339H144.662ZM195.432 223.41C195.432 226.706 194.678 229.362 193.169 231.377C191.661 233.393 189.619 234.4 187.043 234.4C184.414 234.4 182.346 233.566 180.837 231.898V242.328H177.134V212.339H180.517L180.697 214.741C182.205 212.873 184.301 211.938 186.983 211.938C189.586 211.938 191.641 212.919 193.149 214.881C194.671 216.843 195.432 219.573 195.432 223.069V223.41ZM191.728 222.989C191.728 220.547 191.208 218.618 190.167 217.204C189.125 215.789 187.697 215.082 185.882 215.082C183.64 215.082 181.958 216.076 180.837 218.064V228.415C181.945 230.39 183.64 231.377 185.922 231.377C187.697 231.377 189.105 230.677 190.146 229.275C191.201 227.861 191.728 225.765 191.728 222.989ZM210.626 215.662C210.066 215.569 209.459 215.522 208.805 215.522C206.376 215.522 204.727 216.556 203.86 218.625V234H200.156V212.339H203.76L203.82 214.841C205.034 212.906 206.756 211.938 208.985 211.938C209.706 211.938 210.253 212.032 210.626 212.219V215.662ZM212.668 222.969C212.668 220.847 213.082 218.939 213.91 217.244C214.75 215.549 215.912 214.241 217.393 213.32C218.888 212.399 220.59 211.938 222.498 211.938C225.448 211.938 227.83 212.959 229.645 215.001C231.473 217.043 232.388 219.759 232.388 223.149V223.41C232.388 225.518 231.981 227.414 231.167 229.095C230.366 230.764 229.211 232.065 227.703 232.999C226.208 233.933 224.487 234.4 222.538 234.4C219.602 234.4 217.22 233.379 215.391 231.337C213.576 229.295 212.668 226.593 212.668 223.229V222.969ZM216.392 223.41C216.392 225.812 216.946 227.741 218.054 229.195C219.175 230.65 220.67 231.377 222.538 231.377C224.42 231.377 225.915 230.643 227.022 229.175C228.13 227.694 228.684 225.625 228.684 222.969C228.684 220.594 228.117 218.672 226.982 217.204C225.861 215.722 224.367 214.981 222.498 214.981C220.67 214.981 219.195 215.709 218.074 217.164C216.953 218.618 216.392 220.7 216.392 223.41ZM243.859 228.975L249.224 212.339H253.008L245.24 234H242.417L234.57 212.339H238.354L243.859 228.975ZM260.595 234H256.892V212.339H260.595V234ZM256.591 206.593C256.591 205.993 256.771 205.486 257.132 205.072C257.506 204.658 258.053 204.451 258.773 204.451C259.494 204.451 260.041 204.658 260.415 205.072C260.789 205.486 260.976 205.993 260.976 206.593C260.976 207.194 260.789 207.694 260.415 208.095C260.041 208.495 259.494 208.695 258.773 208.695C258.053 208.695 257.506 208.495 257.132 208.095C256.771 207.694 256.591 207.194 256.591 206.593ZM279.153 228.254C279.153 227.253 278.773 226.479 278.012 225.932C277.265 225.372 275.95 224.891 274.068 224.491C272.2 224.09 270.712 223.61 269.604 223.049C268.51 222.489 267.695 221.821 267.162 221.047C266.641 220.273 266.381 219.352 266.381 218.285C266.381 216.51 267.128 215.008 268.623 213.78C270.131 212.552 272.053 211.938 274.389 211.938C276.844 211.938 278.833 212.572 280.354 213.84C281.889 215.108 282.657 216.73 282.657 218.705H278.933C278.933 217.691 278.499 216.817 277.632 216.083C276.778 215.348 275.697 214.981 274.389 214.981C273.041 214.981 271.986 215.275 271.226 215.862C270.465 216.45 270.084 217.217 270.084 218.165C270.084 219.059 270.438 219.733 271.146 220.187C271.853 220.64 273.127 221.074 274.969 221.488C276.824 221.902 278.326 222.395 279.474 222.969C280.621 223.543 281.469 224.237 282.016 225.051C282.577 225.852 282.857 226.833 282.857 227.994C282.857 229.929 282.083 231.484 280.535 232.659C278.986 233.82 276.978 234.4 274.509 234.4C272.774 234.4 271.239 234.093 269.904 233.479C268.57 232.866 267.522 232.011 266.761 230.917C266.014 229.809 265.64 228.615 265.64 227.333H269.344C269.41 228.575 269.904 229.562 270.825 230.296C271.759 231.017 272.987 231.377 274.509 231.377C275.91 231.377 277.031 231.097 277.872 230.537C278.726 229.963 279.153 229.202 279.153 228.254ZM301.055 234C300.841 233.573 300.668 232.812 300.534 231.718C298.812 233.506 296.757 234.4 294.368 234.4C292.233 234.4 290.478 233.8 289.103 232.599C287.742 231.384 287.061 229.849 287.061 227.994C287.061 225.739 287.915 223.99 289.624 222.749C291.345 221.494 293.761 220.867 296.871 220.867H300.474V219.166C300.474 217.871 300.087 216.843 299.313 216.083C298.539 215.308 297.398 214.921 295.89 214.921C294.568 214.921 293.461 215.255 292.566 215.922C291.672 216.59 291.225 217.397 291.225 218.345H287.501C287.501 217.264 287.882 216.223 288.643 215.222C289.417 214.207 290.458 213.407 291.766 212.819C293.087 212.232 294.535 211.938 296.11 211.938C298.606 211.938 300.561 212.566 301.976 213.82C303.39 215.062 304.124 216.777 304.178 218.965V228.935C304.178 230.924 304.431 232.505 304.938 233.68V234H301.055ZM294.909 231.177C296.07 231.177 297.171 230.877 298.212 230.276C299.253 229.676 300.007 228.895 300.474 227.934V223.49H297.571C293.034 223.49 290.765 224.818 290.765 227.474C290.765 228.635 291.152 229.542 291.926 230.196C292.7 230.85 293.694 231.177 294.909 231.177ZM315.008 207.094V212.339H319.052V215.202H315.008V228.635C315.008 229.502 315.188 230.156 315.549 230.597C315.909 231.024 316.523 231.237 317.391 231.237C317.818 231.237 318.405 231.157 319.152 230.997V234C318.178 234.267 317.23 234.4 316.31 234.4C314.655 234.4 313.407 233.9 312.566 232.899C311.725 231.898 311.305 230.477 311.305 228.635V215.202H307.361V212.339H311.305V207.094H315.008ZM327.42 234H323.717V212.339H327.42V234ZM323.417 206.593C323.417 205.993 323.597 205.486 323.957 205.072C324.331 204.658 324.878 204.451 325.599 204.451C326.319 204.451 326.867 204.658 327.24 205.072C327.614 205.486 327.801 205.993 327.801 206.593C327.801 207.194 327.614 207.694 327.24 208.095C326.867 208.495 326.319 208.695 325.599 208.695C324.878 208.695 324.331 208.495 323.957 208.095C323.597 207.694 323.417 207.194 323.417 206.593ZM332.385 222.969C332.385 220.847 332.799 218.939 333.626 217.244C334.467 215.549 335.628 214.241 337.11 213.32C338.605 212.399 340.306 211.938 342.215 211.938C345.164 211.938 347.547 212.959 349.362 215.001C351.19 217.043 352.104 219.759 352.104 223.149V223.41C352.104 225.518 351.697 227.414 350.883 229.095C350.083 230.764 348.928 232.065 347.42 232.999C345.925 233.933 344.203 234.4 342.255 234.4C339.319 234.4 336.936 233.379 335.108 231.337C333.293 229.295 332.385 226.593 332.385 223.229V222.969ZM336.109 223.41C336.109 225.812 336.663 227.741 337.771 229.195C338.892 230.65 340.386 231.377 342.255 231.377C344.137 231.377 345.632 230.643 346.739 229.175C347.847 227.694 348.401 225.625 348.401 222.969C348.401 220.594 347.834 218.672 346.699 217.204C345.578 215.722 344.083 214.981 342.215 214.981C340.386 214.981 338.912 215.709 337.791 217.164C336.669 218.618 336.109 220.7 336.109 223.41ZM360.252 212.339L360.373 215.062C362.028 212.979 364.19 211.938 366.859 211.938C371.437 211.938 373.746 214.521 373.786 219.686V234H370.082V219.666C370.069 218.104 369.708 216.95 369.001 216.203C368.307 215.455 367.219 215.082 365.738 215.082C364.537 215.082 363.482 215.402 362.575 216.042C361.667 216.683 360.96 217.524 360.453 218.565V234H356.749V212.339H360.252Z" fill="white"/>
</svg>
