<svg width="31" height="20" viewBox="0 0 31 20" fill="none" xmlns="http://www.w3.org/2000/svg">
<path d="M15.0337 3.63452C11.7543 3.63452 9.08618 6.30262 9.08618 9.58201C9.08618 12.8614 11.7543 15.5295 15.0337 15.5295C18.3131 15.5295 20.9812 12.8614 20.9812 9.58201C20.9812 6.30262 18.3131 3.63452 15.0337 3.63452ZM15.0337 13.547C12.8473 13.547 11.0687 11.7683 11.0687 9.58201C11.0687 7.39569 12.8474 5.61706 15.0337 5.61706C17.22 5.61706 18.9986 7.39569 18.9986 9.58201C18.9986 11.7683 17.22 13.547 15.0337 13.547Z" fill="white"/>
<path d="M29.8766 8.99719C29.608 8.62974 23.2079 0 15.0337 0C6.85956 0 0.459121 8.62974 0.190801 8.99684C-0.0636004 9.34544 -0.0636004 9.81824 0.190801 10.1668C0.459121 10.5343 6.85956 19.164 15.0337 19.164C23.2079 19.164 29.608 10.5342 29.8766 10.1671C30.1314 9.81859 30.1314 9.34544 29.8766 8.99719ZM15.0337 17.1816C9.01258 17.1816 3.79764 11.4538 2.25391 9.58134C3.79564 7.70721 8.99966 1.98248 15.0337 1.98248C21.0545 1.98248 26.2691 7.70921 27.8135 9.58269C26.2718 11.4568 21.0678 17.1816 15.0337 17.1816Z" fill="white"/>
</svg>
