<svg width="25" height="23" viewBox="0 0 25 23" fill="none" xmlns="http://www.w3.org/2000/svg">
<path d="M23.2282 2.51562C22.0469 1.36214 20.4149 0.785645 18.3313 0.785645C17.7547 0.785645 17.1663 0.88562 16.5665 1.08547C15.9665 1.28547 15.4083 1.5553 14.8926 1.89476C14.3762 2.23411 13.9324 2.5528 13.5601 2.85034C13.1883 3.14797 12.8348 3.46426 12.5 3.79898C12.1651 3.46426 11.8117 3.14797 11.4398 2.85034C11.0676 2.5528 10.6236 2.23431 10.1073 1.89476C9.59114 1.55515 9.03306 1.28552 8.43321 1.08547C7.83341 0.885669 7.24504 0.785645 6.66845 0.785645C4.58504 0.785645 2.95289 1.36229 1.77175 2.51562C0.590617 3.66885 0 5.26846 0 7.31458C0 7.93774 0.109455 8.57972 0.327925 9.23972C0.546395 9.90007 0.795356 10.4628 1.07432 10.9278C1.35323 11.3927 1.66953 11.846 2.02296 12.2878C2.37639 12.7296 2.63469 13.0341 2.79726 13.2015C2.95997 13.3689 3.0879 13.4899 3.18089 13.5644L11.8861 21.9629C12.0536 22.1303 12.2582 22.2142 12.5 22.2142C12.7417 22.2142 12.9465 22.1303 13.1138 21.9629L21.8052 13.592C23.9351 11.4625 25 9.36989 25 7.31439C25 5.26812 24.4094 3.66866 23.2282 2.51562ZM20.5915 12.2809L12.5 20.0793L4.39471 12.2668C2.65546 10.528 1.78597 8.87691 1.78597 7.31439C1.78597 6.56115 1.88595 5.89607 2.0858 5.31957C2.2858 4.74298 2.54155 4.28478 2.85311 3.94533C3.16471 3.60577 3.54365 3.3293 3.99007 3.11523C4.43674 2.90135 4.87382 2.75715 5.30158 2.68278C5.72933 2.60851 6.18499 2.57132 6.66869 2.57132C7.15225 2.57132 7.67318 2.68977 8.23121 2.927C8.78913 3.16414 9.30299 3.46177 9.77262 3.81979C10.2423 4.17806 10.6446 4.51283 10.9796 4.82429C11.3143 5.13604 11.5932 5.42184 11.8165 5.68229C11.9838 5.88698 12.2118 5.9893 12.5 5.9893C12.7883 5.9893 13.0161 5.88698 13.1837 5.68229C13.4069 5.42184 13.686 5.13589 14.0207 4.82429C14.3556 4.51283 14.7578 4.17821 15.2274 3.81979C15.6971 3.46177 16.211 3.16414 16.7692 2.927C17.327 2.68982 17.8481 2.57132 18.3317 2.57132C18.8153 2.57132 19.2708 2.60851 19.6988 2.68278C20.1267 2.7571 20.5638 2.90135 21.0103 3.11523C21.4567 3.32925 21.8357 3.60592 22.1472 3.94533C22.4587 4.28478 22.7146 4.74298 22.9146 5.31957C23.1142 5.89607 23.2142 6.56115 23.2142 7.31439C23.2141 8.87691 22.34 10.5326 20.5915 12.2809Z" fill="white"/>
</svg>
