<svg width="237" height="96" viewBox="0 0 237 96" fill="none" xmlns="http://www.w3.org/2000/svg">
<path fill-rule="evenodd" clip-rule="evenodd" d="M0 0.333333V67.6667L3.33333 67L7 65.3333L10.3333 63L15 58.6667L21 50.6667L24.6667 43.6667L27 38L28.6667 31L29 24.3333L27.3333 17.6667L22.6667 11.6667L17 7.33333L11 3.33333L5.66667 0.333333L2.33333 0L0 0.333333ZM7.99998 11.6667L6.99998 52L7.33331 52.6667H8.33331L9.33331 52L13 48.3333L16 43.3333L18.6666 38.6667L21 33.3333L22 28.6667L21.3333 24.6667L19.3333 21.3333L16.6666 17.6667L14.3333 14.6667L11.6666 12.3333L9.33331 11.3333L7.99998 11.6667Z" fill="#3C88DE"/>
<path d="M42.3334 0.333313C42.0667 0.333313 40.6667 0.555535 40.0001 0.666646L39.6667 2.66665L39.0001 17.6666V27V37V46L39.6667 52.3333L40.3334 56L41.0001 60L42.6667 61.6667L44.0001 63L47.0001 66.3333L51.0001 68H54.3334L57.6667 67L59.6667 64.6667L61.0001 62L61.3334 60L62.0001 57.6667L63.3334 55L64.6667 48L65.3334 39.6667L65.6667 29.6666V15V6.66665L64.6667 2.66665L63.3334 0.666646H61.3334L60.3334 1.33331L59.6667 2.66665L59.0001 5.33331L58.0001 6.66665V12.6666V30.6667L57.6667 44L57.0001 51L56.3334 55L55.0001 58.3333L54.0001 60L52.3334 61.3333L51.0001 61.6667L49.6667 60.6667L48.3334 58.3333L46.6667 53.3333L46.0001 46.6667V37V27L46.6667 12.6666V4.66665V1.33331L45.0001 0.333313H42.3334Z" fill="#3C88DE"/>
<path fill-rule="evenodd" clip-rule="evenodd" d="M79.3334 16.3333H82L84.6667 17.3333L87.3334 20L89 22.6667L90.6667 27L91 31.3333L91.3334 35L92.6667 38.3333V43L92.3334 47.6667L91.3334 54L90 60.6667L87.6667 66.6667L86 70.6667L83.6667 74.3333L81.6667 76.6667L79.6667 77.6667H77L74.3334 75.3333L72.3334 73L71 70L70.3334 66L69.6667 54V45.3333V35.3333L70.3334 29L72 23.3333L74 19.6667L75.6667 17.3333L77 16H78L79.3334 16.3333ZM76.3333 33.6667L75.3333 38.6667V43.3333V48.6667V52.3333V57.3333L76.3333 63.6667L77.3333 67L78.6666 69L79.9999 69.6667L81.9999 67.6667L83.3333 64L84.6666 59.6667L85.9999 54.3333L86.6666 47.6667V40.6667L86.9999 36V31.3333L84.9999 27.6667L81.6666 26L78.6666 27.3333L77.3333 30.6667L76.3333 33.6667Z" fill="#3C88DE"/>
<path d="M94.3334 39L95.3334 37.6667V36.6667L96.6667 35.6667H98.3334L99.6667 37.6667L102 39L104 40.3333L106 42V43.6667L109.667 47.3333L114 52L116 54.6667V57L115 58.3333H113.333L111.333 57.6667L109.667 55.6667L108.333 54.6667H107.667L107.333 61.3333V71.3333V78.3333V85V90.6667V94.3333L106.667 96H105.333H103.333L102 95V92.6667V88.6667V81V48.3333L100.667 47.3333L98.3334 44.6667L95.6667 42L94.6667 40.6667L94.3334 39Z" fill="#3C88DE"/>
<path d="M119 55L119.333 53.6667L120.333 51.6667L125.333 46L130 41.3333L134.333 37.3333L136.667 36.3333H138L139.333 38L140 39.6667L139 41.3333L137.333 43L135.667 44.3333L134.333 46L132.333 48.3333V50.6667V60L132 69V75C132 75.2667 132.222 80.2222 132.333 82.6667L132 89.6667L131.667 92.6667L131 94.6667L129.667 95.6667H127.333L126.333 94.6667L126 92.3334L126.333 89.6667L126.667 86.6667V83V80.3333L126.333 68.3333V59.3333V55.3333H125.667L124.667 56.6667L123.333 57.3333L122 57.6667H120L119.333 56.6667L119 55Z" fill="#3C88DE"/>
<path fill-rule="evenodd" clip-rule="evenodd" d="M146.667 23.3333L144.667 26.6667C144.222 27.7778 143.267 30.0667 143 30.3333C142.733 30.6 142 33.1111 141.667 34.3333L141 38L140.667 42.6667L140.333 51.3333V58V61L141 64.6667V67L141.333 70L141.667 72.6667L142.667 75.3334L143.667 78L145.333 80L147.667 81H151L153.667 79.3334L155.667 77.3334L157.667 75.3334L158.667 73.6667L159.667 72V69.3334L159.333 67V65L160.333 61.6667L161.333 58.6667L162.333 54.6667L163.333 47V39.3333L162.333 32L160.667 30L159.333 27.3333L158 24.3333L156 21.6667L153.333 20H150.333L147.667 21L146.667 23.3333ZM145.333 39.3334V43.6667V49.3334L146 52.6667L145.333 53.6667V56V60.3334V63.6667L146 67.3334L146.667 70L148.333 71.3334L150.667 70.6667L152.333 69L154.333 65.3334L155.333 61L156.667 55.3334L157 49.6667V43V38C157 37.7334 156.556 35 156.333 33.6667L154.333 29.6667L152 29L149.667 29.6667L147.333 31.6667L146 34L145.333 36.6667V39.3334Z" fill="#3C88DE"/>
<path d="M168.667 3.66669L169.667 2.00002L171.333 1.33335L173 2.00002L174.333 3.66669L175.333 6.66669L177 11L179.667 18.3334L183.333 27.6667L185.667 34.3334L187.333 39.3334L188 42L189 42.3334L189.333 41.3334V39V36.6667L189.667 28L190 16.3334V7.00002L190.333 3.00002L192 1.33335L194.333 0.666687L196.333 2.33335L197 5.66669V10L196.667 16.6667V21.6667L196.333 29.6667V40.6667L196 47.6667L195.667 54.6667V58.3334V62.6667V65L194.667 66.6667L193 67L190 66.6667L188 65L187 61.6667L186.333 58L185.333 53.3334L184 48.3334L182 41.3334L180 35.3334L178.667 30.6667L177.333 25.6667L177 25H176.333L176 25.6667V26.3334V31.3334V38.3334V45.3334V54V61.6667V65.3334L175.333 66.3334H173.333L171.667 67H169.667H168.667L167.667 65.3334V62.6667V59L168.333 54L168.667 48.3334L168.333 42.6667V31.3334L168.667 21.6667L168.333 12.6667V6.66669L168.667 3.66669Z" fill="#3C88DE"/>
<path d="M206.333 3.00002L207.667 1.66669L208.667 1.33335L214 1.00002H219.333L226 0.666687H229.333L231.667 1.66669L233 3.33335V5.33335L231.667 6.66669H229.333H225.333H221H215.333L213.667 7.33335L213 9.00002V12V16.6667V20.3334L213.667 26L214 28.6667L214.667 29.3334L216.667 29.6667L219 30H223.333H226.667L228.333 30.6667L228.667 32.3334V34.3334L226.667 35.3334L223.333 36H219.333H216L214 37L213.333 39L213 43L212.667 48L212.333 53.6667V59V60.3334L213.667 61.3334H220.333H231.667H234.667L236 63L236.333 65L236 67L234.667 68H231H227L219.333 67.6667H213L209.333 67.3334L207.333 66.3334L206.333 65.6667L205.667 64V60.3334L206 54.6667L206.333 46.3334V35L206.667 27V16.6667L206.333 9.00002V5.33335V3.00002Z" fill="#3C88DE"/>
</svg>
