<svg width="145" height="73" viewBox="0 0 145 73" fill="none" xmlns="http://www.w3.org/2000/svg">
<path d="M6.04171 23.8487V22.2588V20.3509L6.3597 19.0789L6.99566 17.1711L7.94961 15.2632L8.58557 13.3553L9.8575 11.7653L11.1294 10.8114H12.4014L13.3553 11.7653L14.3093 13.3553L14.9452 15.5811V18.443L15.2632 20.9868L15.5812 22.5768L16.8531 23.2127L18.443 22.5768V20.6689L18.125 18.761L18.761 16.8531L19.715 14.9452L20.6689 12.7193L21.9408 11.1294L22.8948 10.4934L23.8487 11.1294L24.8027 12.7193L25.1207 14.6272L25.4386 16.8531V19.3969V21.6228L25.7566 23.5307L27.0286 24.4846H28.6185L30.2084 23.8487L31.4803 22.8947L32.1163 21.9408L31.4803 21.6228L30.8443 21.9408L29.8904 22.2588H28.9365L28.6185 20.9868L28.3005 19.3969V17.489L27.9825 14.9452L27.6645 13.0373L27.3465 11.1294L26.3926 9.53947L25.4386 8.26754L23.8487 7.63158L22.5768 7.94956L20.6689 8.58552L19.715 10.1754L18.761 11.4474L17.8071 12.7193H17.1711L16.5351 12.4013L15.8992 11.1294L14.9452 9.85745L13.6733 8.58552L12.0834 7.63158H10.1755L8.58557 8.58552L7.31364 9.85745L6.04171 12.4013L5.08777 14.9452L4.13382 17.807L3.49785 20.0329L3.17987 21.9408V23.8487L4.13382 24.8026H5.40575L6.04171 23.8487Z" fill="#3C88DE"/>
<path d="M45.4715 8.26754C45.5775 7.94956 45.8531 7.25 46.1075 6.99561L46.7434 6.35965L47.6974 6.67763L48.6513 7.3136L49.2873 8.90351L49.6053 11.1294V13.6732L48.9693 17.1711L48.4433 19.0789L47.3794 21.3048L45.7895 23.2127L44.1996 24.8026L42.2917 25.4386H40.3838L38.4759 24.8026L37.204 23.8487L35.932 21.6228L34.9781 19.0789L34.6601 16.2171V13.6732L34.9781 11.4474L35.614 10.4934H37.204L37.8399 11.4474V13.9912C37.8399 14.5 38.0519 16.1111 38.1579 16.8531L38.7939 19.0789L39.4298 21.3048L40.7018 22.5768L42.6097 21.9408L44.1996 20.3509L45.4715 18.443C45.6835 17.807 46.1075 16.4715 46.1075 16.2171C46.1075 15.9627 46.3195 14.4152 46.4254 13.6732V11.7654L45.7895 9.85746L45.4715 8.26754Z" fill="#3C88DE"/>
<path d="M67.0943 7.94955H69.0022L70.2741 8.26754L70.9101 8.9035V9.85745L70.2741 10.4934L69.3202 10.8114H68.3662H66.4583L64.8684 11.1294L63.2785 11.7653L62.6425 12.4013V13.0373C62.8545 13.2493 63.3421 13.6732 63.5965 13.6732C63.8509 13.6732 64.7624 13.8852 65.1864 13.9912L67.4123 14.6272L69.0022 14.9452L71.546 15.5811L72.818 16.5351L73.7719 17.807L74.0899 19.3969L73.1359 20.3509L71.546 21.3048L70.2741 21.9408L68.6842 22.8947L66.4583 23.8487L63.9145 24.4846H61.6886L60.7346 24.1667L60.4166 23.2127L61.3706 22.2588L62.3245 21.3048L63.9145 20.9868L65.5044 20.3509L67.7302 19.3969L68.6842 19.0789L69.0022 18.125L68.3662 17.489L67.4123 17.171L65.8223 16.5351L64.2324 15.8991L62.3245 15.5811L61.0526 15.2632L59.7807 14.6272L59.1447 13.9912V12.7193L59.4627 11.4474L61.0526 9.85745L62.9605 8.9035L64.5504 8.26754C65.2924 8.16154 66.8399 7.94955 67.0943 7.94955Z" fill="#3C88DE"/>
<path d="M85.2192 10.4934L85.8552 9.22149L86.4912 8.9035L87.7631 9.22149L88.3991 10.1754V12.0833V13.6732V16.5351V19.7149L88.717 22.2588L88.3991 24.1667L87.7631 25.1206L86.4912 25.4386L85.5372 25.1206L85.2192 23.5307V21.3048V17.7068V15.5811V13.0373V10.4934Z" fill="#3C88DE"/>
<path d="M82.6754 2.54386V1.27193V0.953947L83.6294 0.317982L84.9013 0L86.4912 0.317982L87.7631 1.27193L88.0811 2.54386L87.1272 3.81579C86.9152 3.92178 86.4276 4.13377 86.1732 4.13377C85.9188 4.13377 85.4313 4.34576 85.2193 4.45175L83.9473 4.13377L82.9934 3.81579L82.6754 2.54386Z" fill="#3C88DE"/>
<path d="M103.98 9.22149C103.768 9.32748 103.281 9.53947 103.026 9.53947L102.072 10.1754L101.436 10.8114L100.8 11.7653L100.165 13.0373L99.5286 14.6272L99.2106 16.8531L99.8466 19.3969L100.8 20.9868L102.39 22.5767L104.616 23.2127L106.842 23.8487H110.022L113.52 23.2127L116.7 21.9408L118.608 20.6689L120.197 19.3969H120.515L119.561 20.6689L118.29 22.2588L116.7 23.5307L115.428 24.4846L112.566 25.7566L110.34 26.0746L106.842 26.3925H104.298L101.118 25.4386L99.2106 24.8026L97.3027 23.2127L96.3487 20.9868L96.0308 18.443V16.5351L96.3487 14.3092L97.3027 12.0833L98.5746 10.1754L100.165 7.94956L101.436 6.67763L103.026 6.04166L104.934 5.72368L106.842 6.35964L108.432 6.99561L109.704 7.63157L110.658 8.9035V10.4934C110.658 10.7478 109.81 11.0234 109.386 11.1294H108.114L107.16 10.8114L106.206 9.85745L105.252 9.22149H103.98Z" fill="#3C88DE"/>
<path fill-rule="evenodd" clip-rule="evenodd" d="M3.17982 38.1579L4.13377 36.886L5.72368 35.614L7.94956 35.2961H10.1754L11.7654 35.932L13.6732 37.8399L14.9452 40.3838L15.2632 43.2456V46.1075L14.9452 48.9693L15.2632 50.5592L15.5811 51.1952L15.8991 51.5132L14.9452 52.1491L13.0373 53.4211L11.4474 54.693L8.90351 55.3289L5.4057 55.6469L2.22588 54.693L0.635965 53.4211L0 51.8311V49.9232L0.317982 48.3333L1.58991 47.0614L3.17982 45.7895L5.08772 45.1535L6.99561 44.8355H9.22149L11.1294 45.1535H12.4013V43.5636L12.0833 41.3377L11.1294 39.4298L10.1754 38.1579L8.58553 37.8399H7.51529L6.67763 38.7939L5.72368 39.7478L4.45175 40.3838L3.17982 40.7018L2.54386 40.0658V39.1118L3.17982 38.1579ZM6.99565 47.3794L5.08775 48.0153L3.81582 48.9693L3.17986 50.2412V51.4143L4.45179 52.4671L5.72372 52.7851H7.31363L8.90354 52.4671L10.4935 52.1491L11.7654 51.4143L12.0834 49.6053V48.3333L11.4474 47.0614H9.85749H8.26758L6.99565 47.3794Z" fill="#3C88DE"/>
<path d="M25.4386 38.1579L26.7105 37.5219L27.3465 37.2039L29.2544 36.886H30.5263L32.1162 37.2039L33.7061 38.1579L34.0241 39.1118L34.3421 40.0658L33.7061 41.0197L33.0702 41.3377H32.1162L31.1623 40.7018L30.8443 40.0658L30.2083 39.1118H29.5723L28.3004 39.4298L27.6645 39.7478L27.0285 40.7018L26.3925 42.2917L26.0745 43.5636L25.7566 45.4715V47.6974L26.0745 49.6053L26.7105 51.1952L27.3465 52.1491L28.6184 52.4671H30.2083L31.7982 52.1491L33.0702 51.5132L34.3421 50.8772L36.568 49.6053H37.5219L36.568 50.2412L35.614 51.1952L34.6601 52.1491L33.3881 53.1031L31.4802 54.375L30.2083 54.693L28.6184 55.011L26.7105 54.693L25.4386 54.375L24.4846 53.739L23.8487 52.4671L23.2127 50.5592L22.8947 48.6513V47.0614V45.1535L23.2127 42.9276L23.5307 41.3377L24.1666 39.7478L25.4386 38.1579Z" fill="#3C88DE"/>
<path fill-rule="evenodd" clip-rule="evenodd" d="M45.4715 39.1118L45.1535 40.0658L45.4715 41.0197L46.1075 41.3377H47.3794L48.0154 41.0197L48.9693 40.0658L49.6053 39.4298L50.5592 38.7939L51.1952 39.1118L51.5132 40.0658V41.3377V43.5636V44.8355L50.8772 45.4715L48.6513 45.7895L46.4254 46.1075L44.8355 46.7434L43.8816 47.3794L43.5636 48.3333V49.6053L43.8816 50.5592L44.5175 51.5132L45.7895 52.4671L47.0614 53.421L48.3333 53.739H50.2412L51.8311 53.1031L53.739 52.4671L55.011 51.5132L55.9649 51.1952L55.6469 50.5592L55.011 50.2412L54.375 49.6053V48.0153V46.1075L54.693 43.2456V41.0197L54.057 39.1118L53.1031 37.5219L51.8311 36.886L50.2412 36.568L48.9693 36.886L47.6974 37.2039L46.4254 38.1579L45.4715 39.1118ZM49.6053 47.6974H50.8772L51.1952 48.3333L51.5132 49.2873V50.5592L51.1952 51.1952H49.9232L48.6513 50.8772L47.6974 50.2412L47.0614 49.2873L47.3794 48.3333L48.3333 48.0153L49.6053 47.6974Z" fill="#3C88DE"/>
<path fill-rule="evenodd" clip-rule="evenodd" d="M69.0022 37.5219V35.614V33.7061V31.7982V30.5263L69.6381 30.2083H70.5921L71.546 31.4803L71.864 33.3882V35.932V41.0197V46.1075L71.546 48.6513V50.2412L72.182 50.8772L72.818 51.1952V52.4671L72.5 53.4211L71.546 54.057L70.5921 53.739L69.6381 52.7851L69.3202 52.1491L69.0022 50.8772L68.6842 49.6053H67.7302L66.7763 50.2412L65.8223 51.5132L64.5504 52.4671H62.6425L61.0526 52.1491L60.0987 50.5592L59.4627 48.3333L59.1447 45.7895L59.7807 43.5636L60.7346 41.6557L62.0066 40.3838L63.5965 38.7939L64.8684 37.5219L66.1403 37.2039H67.0943L69.0022 37.5219ZM61.6886 45.1535V46.4254L62.0066 47.6974L62.6426 48.9693L63.2785 49.2873H63.9145L65.1864 48.3333L66.4583 47.3794L67.7303 46.4254L68.3662 45.7895L68.6842 44.1996V42.2917L68.3662 40.7018L67.0943 40.0658L65.5044 40.3838L64.2325 41.6557L62.3246 43.2456L61.6886 45.1535Z" fill="#3C88DE"/>
<path fill-rule="evenodd" clip-rule="evenodd" d="M78.8596 40.7018L80.1315 39.1118L81.4035 38.4759C81.9334 38.3699 83.057 38.1579 83.3114 38.1579C83.5657 38.1579 84.6893 38.5819 85.2193 38.7939L86.8092 40.0658L87.1272 41.3377V42.9276L86.8092 44.8355L85.8552 46.1075L84.5833 47.0614L83.3114 47.6974L81.7214 48.6513L81.0855 48.9693L81.4035 49.6053L82.3574 49.9232L83.9473 50.2412L85.8552 49.9232L87.7631 49.6053V50.2412L87.1272 50.8772L84.9013 51.5132H82.9934H80.7675L78.5416 50.5592L76.9517 48.6513L76.6337 46.7434V44.8355L77.2697 42.9276L78.8596 40.7018ZM81.0855 41.6557L82.3575 40.7018H83.3114L84.5833 41.3377L84.9013 42.2917L84.5833 43.5636L83.6294 44.5175L82.0395 45.7895L80.4496 47.0614L79.8136 46.7434V45.7895V44.1996L80.1316 42.9276L81.0855 41.6557Z" fill="#3C88DE"/>
<path d="M91.261 37.2039L91.579 36.25L92.8509 35.932L93.3751 37.2039L93.4869 38.1579L93.8048 39.4298L94.4408 38.1579L95.2915 37.2039L96.3487 35.614L97.6206 34.3421L99.2953 34.0241H100.8L102.072 34.6601L103.026 36.25L103.98 38.1579L104.298 39.7478L104.934 40.3838L105.252 39.4298L105.888 38.1579L107.16 36.568L108.75 35.614L110.022 35.296L110.976 35.932L112.248 36.886L112.884 39.1118L113.202 42.2917L113.52 44.1996V46.1074L114.156 47.3794L115.428 48.0153H117.336L118.925 47.6974H119.879V48.3333L119.243 48.9693L117.018 49.2873L114.792 49.6053H112.884L112.248 48.9693L111.294 47.3794L110.658 45.7895L110.34 43.8816L110.022 41.3377L109.704 39.4298L109.068 38.7939L108.295 39.4298L107.478 40.3838L106.524 41.6557L105.888 43.2456L105.57 45.4715V47.3794L105.252 48.9693L104.616 49.9232H103.662L102.708 49.6053L102.072 48.3333V46.4254V44.5175V41.9737L101.436 39.4298L100.482 37.5219L99.2105 37.2039L97.9386 37.8399L96.3487 39.1118L95.3948 40.3838L94.7588 42.6096V44.8355V47.6974V49.9232L94.1228 51.1952L93.1689 51.5132L92.5329 51.1952L91.579 49.6053V47.6974L91.261 43.2456V40.3838V38.4759V37.2039Z" fill="#3C88DE"/>
<path fill-rule="evenodd" clip-rule="evenodd" d="M123.377 35.614L123.059 34.6601H121.787L121.151 35.2961L120.197 36.886L119.879 39.1118V40.7018L120.197 42.6097L120.515 44.1996L121.151 46.1075L122.105 47.0614L123.695 48.3333L124.967 48.6513H126.557H128.147H128.783L129.101 49.6053L129.419 51.5132V52.1491L127.193 54.375L124.649 56.9189L122.423 59.1447L120.515 61.6886L119.243 64.5504L118.289 66.7763L117.971 68.6842L118.289 70.5921L119.561 71.864L121.151 72.5H122.741L124.967 71.864L127.193 70.5921L129.419 69.0022L130.691 67.0943L131.963 64.5504L132.599 61.6886L132.917 58.1908V55.6469V52.7851L133.871 51.5132L135.46 50.2412L136.732 48.9693L138.322 48.0154L140.23 46.4254L142.456 44.8355L145 43.2456H144.046L141.184 44.5176L138.004 46.1075L135.46 47.3794L133.553 48.6513L131.963 49.6053V46.7434V43.8816V41.3377V38.7939L132.281 36.568L131.963 35.2961L130.691 34.9781L129.737 35.2961L129.101 36.568L128.783 38.4759V40.3838V42.2917L128.465 44.1996L127.829 45.7895L126.239 46.1075L124.649 45.7895L123.695 44.5176L123.377 43.2456L123.059 41.3377L122.741 39.4298V37.8399L123.059 36.886L123.377 35.614ZM130.373 55.011V57.2369V60.0987C130.373 60.3531 129.949 62.1126 129.737 62.9605L128.465 65.1864L126.875 67.4123L125.603 68.3662L124.013 69.6382L122.423 69.9562L121.151 69.6382L120.833 69.0022V67.7303L121.151 66.7763L122.423 64.8684L123.695 62.6426L125.285 60.4167L126.557 58.5088L128.465 56.2829L130.373 55.011Z" fill="#3C88DE"/>
</svg>
